<svg width="18" height="28" viewBox="0 0 18 28" fill="none" xmlns="http://www.w3.org/2000/svg">
<path d="M5.78671 18.7652C5.78671 16.9657 5.99008 15.5483 6.39681 14.513C6.80355 13.4654 7.46295 12.5594 8.37502 11.7953C9.28709 11.0311 9.97731 10.3347 10.4457 9.70615C10.9264 9.06524 11.1667 8.36269 11.1667 7.59853C11.1667 5.73741 10.3656 4.80685 8.76327 4.80685C8.02375 4.80685 7.42597 5.07801 6.96994 5.62032C6.5139 6.16263 6.27356 6.89599 6.24891 7.82038H0C0.0246505 5.35533 0.801143 3.43875 2.32948 2.07065C3.85781 0.690215 6.00241 0 8.76327 0C11.5118 0 13.6379 0.634751 15.1416 1.90425C16.6576 3.17376 17.4156 4.97941 17.4156 7.32121C17.4156 8.34421 17.2122 9.27476 16.8055 10.1129C16.3988 10.951 15.7455 11.8076 14.8458 12.6827L12.7197 14.6609C12.1157 15.2402 11.6967 15.838 11.4625 16.4542C11.2283 17.0582 11.0989 17.8285 11.0743 18.7652H5.78671ZM5.02871 24.3855C5.02871 23.4735 5.35533 22.7278 6.00857 22.1485C6.67413 21.5569 7.49993 21.2611 8.48595 21.2611C9.47197 21.2611 10.2916 21.5569 10.9448 22.1485C11.6104 22.7278 11.9432 23.4735 11.9432 24.3855C11.9432 25.2976 11.6104 26.0495 10.9448 26.6411C10.2916 27.2204 9.47197 27.51 8.48595 27.51C7.49993 27.51 6.67413 27.2204 6.00857 26.6411C5.35533 26.0495 5.02871 25.2976 5.02871 24.3855Z" fill="white"/>
</svg>
