<svg width="132" height="230" viewBox="0 0 132 230" fill="none" xmlns="http://www.w3.org/2000/svg">
<path d="M83.7212 32.9815C83.5178 31.6643 83.2211 30.3605 82.8309 29.0768C82.2941 27.3028 81.4938 25.6089 80.4601 24.0683C79.3897 22.4778 78.0659 21.0572 76.5454 19.8868C75.0548 18.7398 73.3709 17.8361 71.5869 17.2392C69.9097 16.679 68.1424 16.3889 66.3751 16.3889C64.6078 16.3889 62.8405 16.679 61.1633 17.2392C59.376 17.8361 57.6954 18.7398 56.2048 19.8868C54.6843 21.0572 53.3605 22.4778 52.2901 24.0683C51.2531 25.6089 50.4561 27.3028 49.916 29.0768C49.5258 30.3605 49.229 31.6677 49.0256 32.9848C48.9256 33.6184 48.8489 34.2586 48.7889 34.8955V34.8988C48.2654 40.7809 49.5325 46.763 52.5402 51.9315C53.2338 53.1186 54.0107 54.259 54.8744 55.3294C55.1545 55.6728 55.4412 56.0096 55.738 56.3364C55.628 58.6505 55.5179 61.2281 55.4046 63.5189C48.2254 57.4301 44.8375 48.7804 45.2376 37.5698C45.2643 37.0196 45.291 36.4694 45.3177 35.9192C45.341 35.4457 45.3744 34.9755 45.4177 34.5053C45.5678 32.8681 45.8445 31.2409 46.2413 29.647C46.338 29.2568 46.4414 28.8667 46.5548 28.4799C46.6648 28.0964 46.7849 27.7129 46.9149 27.3361C47.1783 26.5692 47.4818 25.8123 47.8286 25.0787C48.182 24.3251 48.5788 23.5915 49.0156 22.8812C49.4625 22.161 49.9493 21.4674 50.4795 20.8038C51.5465 19.46 52.7736 18.2429 54.1341 17.1959C55.4846 16.1588 56.9651 15.2885 58.529 14.615C59.2926 14.2882 60.0762 14.0048 60.8765 13.7747C61.6534 13.5513 62.4504 13.3745 63.2507 13.2445C64.0309 13.1211 64.8146 13.0411 65.6048 13.0111C66.3784 12.9777 67.152 12.9944 67.9257 13.0544C69.5362 13.1811 71.1301 13.5079 72.664 14.0214C74.2646 14.5549 75.7951 15.2952 77.2123 16.2089C77.5724 16.4423 77.9258 16.6857 78.2726 16.9391C78.6194 17.1925 78.9562 17.4593 79.283 17.7327C79.6131 18.0095 79.9332 18.2963 80.2467 18.593C80.5568 18.8865 80.8602 19.1933 81.1537 19.5067C81.4471 19.8201 81.7272 20.1403 82.0006 20.4704C82.2741 20.7972 82.5375 21.1339 82.7909 21.4807C83.2877 22.161 83.7412 22.8712 84.1581 23.6048C84.5582 24.3151 84.925 25.0453 85.2451 25.7956C85.5652 26.5459 85.8386 27.3161 86.0787 28.0964C86.5556 29.6503 86.9057 31.2475 87.1391 32.8581C87.2825 33.8751 87.3792 34.8955 87.4292 35.9192C87.4559 36.4694 87.4826 37.0196 87.5092 37.5698C87.5292 38.1666 87.5426 38.7568 87.5426 39.337C87.5426 49.694 84.1414 57.7536 77.3423 63.5189C77.2323 61.2281 77.1222 58.6505 77.0122 56.3364C77.309 56.0096 77.5957 55.6762 77.8725 55.3327C78.7361 54.2623 79.5097 53.1253 80.2033 51.9382C83.2144 46.7697 84.4848 40.7809 83.9613 34.8988V34.8955C83.9013 34.2553 83.8246 33.6184 83.7212 32.9815Z" fill="url(#paint0_linear)"/>
<path d="M55.7381 56.3361C55.4414 56.0093 55.1546 55.6726 54.8745 55.3291C54.0109 54.2587 53.2339 53.1183 52.5403 51.9312C49.5326 46.7627 48.2655 40.7806 48.789 34.8986V34.8952C49.666 33.9682 50.6063 33.1146 51.65 32.381C52.3736 31.8741 53.1439 31.4273 53.9542 31.0805C54.6411 30.7904 55.358 30.567 56.0916 30.4403C56.7385 30.3303 57.3987 30.2936 58.049 30.3403C59.1994 30.4236 60.3264 30.7738 61.3235 31.3473C62.1838 31.8375 62.9474 32.4977 63.5442 33.288C63.6743 33.4547 63.7943 33.6314 63.901 33.8115C63.9811 33.9449 64.0544 34.0783 64.1178 34.2183C64.1578 34.305 64.1945 34.3917 64.2278 34.4784C64.3412 34.7885 64.6846 34.9452 64.9914 34.8285C65.3015 34.7152 65.4582 34.3717 65.3415 34.0649C65.2849 33.9049 65.2148 33.7515 65.1415 33.5981C64.9747 33.2646 64.7747 32.9445 64.5546 32.6411C64.1111 32.0375 63.5809 31.5007 62.9907 31.0372C62.3371 30.5237 61.6136 30.1035 60.8433 29.7867C60.003 29.4433 59.106 29.2299 58.199 29.1565C57.182 29.0765 56.1483 29.1732 55.1579 29.4199C53.9909 29.7101 52.8771 30.2102 51.8434 30.8304C50.8297 31.444 49.8927 32.1776 49.0258 32.9845C49.2292 31.6674 49.526 30.3603 49.9161 29.0765C50.4563 27.3025 51.2532 25.6086 52.2903 24.0681C53.3606 22.4775 54.6844 21.057 56.205 19.8866C57.6955 18.7395 59.3761 17.8359 61.1634 17.239C62.8407 16.6788 64.6079 16.3887 66.3752 16.3887C68.1425 16.3887 69.9098 16.6788 71.5871 17.239C73.371 17.8359 75.055 18.7395 76.5455 19.8866C78.066 21.057 79.3898 22.4775 80.4602 24.0681C81.4939 25.6086 82.2942 27.3025 82.8311 29.0765C83.2212 30.3603 83.518 31.6641 83.7214 32.9812C83.2645 32.5577 82.791 32.1576 82.2942 31.7774C81.644 31.2839 80.9571 30.8338 80.2368 30.4503C79.5966 30.1135 78.933 29.8268 78.2461 29.6067C77.6292 29.4099 76.9957 29.2699 76.3554 29.1932C75.2117 29.0598 74.0413 29.1365 72.9342 29.44C71.9472 29.7067 71.0069 30.1502 70.1699 30.7337C69.423 31.2539 68.7561 31.8875 68.2159 32.6144C67.9925 32.9145 67.7924 33.2313 67.6257 33.5681C67.4956 33.8282 67.3889 34.0983 67.3056 34.3784C67.2155 34.6818 67.1588 34.9953 67.1255 35.3087C67.0855 35.6788 67.0755 36.0523 67.0855 36.4258C67.0922 36.8926 67.1288 37.3561 67.1722 37.8196C67.2289 38.4098 67.3022 39 67.3789 39.5902C67.4823 40.3605 67.5957 41.1341 67.7157 41.9044C67.8591 42.838 68.0158 43.7684 68.1625 44.702C68.2126 45.0055 68.2592 45.3089 68.2859 45.6157C68.2993 45.7424 68.3059 45.8658 68.2992 45.9925C68.2959 46.0525 68.2892 46.1092 68.2759 46.1692C68.2692 46.2026 68.2559 46.2392 68.2392 46.2726C68.2259 46.2993 68.2092 46.3259 68.1859 46.3459C68.1592 46.3793 68.1225 46.406 68.0892 46.4293C68.0258 46.4726 67.9591 46.5127 67.8891 46.546C67.7824 46.6027 67.669 46.6494 67.5523 46.6861C67.2055 46.7961 66.8387 46.8361 66.4719 46.8394C65.8717 46.8428 65.2748 46.7494 64.688 46.6194C64.3679 46.546 64.0478 46.7461 63.9777 47.0695C63.9044 47.3896 64.1044 47.7064 64.4279 47.7798C64.8747 47.8831 65.3282 47.9598 65.785 47.9999C66.1485 48.0332 66.5186 48.0432 66.8821 48.0132C67.4156 47.9732 67.9458 47.8498 68.4226 47.613C68.5927 47.5263 68.7527 47.4297 68.8961 47.3096C69.0228 47.2062 69.1329 47.0862 69.2229 46.9495C69.3163 46.8094 69.383 46.6494 69.4263 46.486C69.4663 46.3293 69.4863 46.1625 69.4897 45.9991C69.4997 45.7224 69.473 45.4423 69.4363 45.1655C69.3663 44.5986 69.2663 44.0385 69.1729 43.4749C69.0362 42.668 68.9128 41.861 68.7928 41.0541C68.6194 39.9037 68.456 38.7532 68.3493 37.5995C68.3059 37.086 68.2692 36.5758 68.2759 36.0623C68.2792 35.7088 68.2993 35.3554 68.3693 35.0086C68.426 34.7385 68.5127 34.4717 68.6294 34.2183C68.6961 34.0783 68.7694 33.9449 68.8461 33.8115C68.9561 33.6314 69.0762 33.4547 69.2062 33.288C69.8031 32.4977 70.5667 31.8375 71.4237 31.3473C72.424 30.7738 73.5511 30.4236 74.6982 30.3403C75.3517 30.2936 76.012 30.3303 76.6589 30.4403C77.3925 30.567 78.1094 30.7904 78.793 31.0805C79.6066 31.4273 80.3769 31.8741 81.1004 32.381C82.1408 33.1146 83.0845 33.9682 83.9615 34.8952V34.8986C84.485 40.7806 83.2145 46.7694 80.2035 51.9379C79.5099 53.125 78.7363 54.2621 77.8726 55.3324C77.5959 55.6759 77.3091 56.0093 77.0123 56.3361C76.4721 56.9297 75.8986 57.4965 75.2951 58.0234C74.198 58.9771 72.9909 59.8074 71.6804 60.4342C70.8201 60.8477 69.9132 61.1712 68.9828 61.3846C68.6794 61.4546 68.3726 61.5113 68.0658 61.558C67.5056 61.6413 66.9421 61.6847 66.3752 61.6847C65.8084 61.6847 65.2448 61.6413 64.6846 61.558C64.3745 61.5113 64.0711 61.4546 63.7676 61.3846C62.834 61.1712 61.927 60.8477 61.0667 60.4342C59.7562 59.8074 58.5491 58.9771 57.4521 58.0234C56.8485 57.4965 56.2783 56.9297 55.7381 56.3361ZM75.7485 39.5302C78.3328 39.5269 80.6903 38.063 81.8374 35.7489C80.6836 33.438 78.3195 31.9809 75.7352 31.9842C73.151 31.9909 70.7935 33.4547 69.6464 35.7689C70.8035 38.0797 73.1643 39.5369 75.7485 39.5302ZM75.3084 51.4611C69.353 51.4511 63.3975 51.4411 57.4421 51.4311C62.5472 57.5766 70.1799 57.5899 75.3084 51.4611ZM63.1041 35.7689C61.9537 33.4547 59.5962 31.9909 57.0153 31.9842C54.431 31.9809 52.0668 33.438 50.9098 35.7489C52.0602 38.063 54.4177 39.5269 57.0019 39.5302C59.5828 39.5369 61.947 38.0797 63.1041 35.7689Z" fill="url(#paint1_linear)"/>
<path d="M83.7213 32.9819C83.8247 33.6187 83.9014 34.2556 83.9614 34.8959C83.0844 33.9689 82.1408 33.1152 81.1004 32.3816C80.3768 31.8748 79.6065 31.428 78.7929 31.0812C78.1093 30.7911 77.3924 30.5677 76.6588 30.441C76.0119 30.3309 75.3517 30.2942 74.6981 30.3409C73.5511 30.4243 72.424 30.7744 71.4236 31.3479C70.5667 31.8381 69.8031 32.4984 69.2062 33.2886C69.0761 33.4554 68.9561 33.6321 68.8461 33.8121C68.7694 33.9455 68.696 34.0789 68.6293 34.219C68.5126 34.4724 68.4259 34.7391 68.3692 35.0092C68.2992 35.356 68.2792 35.7095 68.2759 36.0629C68.2692 36.5765 68.3059 37.0866 68.3492 37.6002C68.4559 38.7539 68.6193 39.9043 68.7927 41.0547C68.9127 41.8617 69.0361 42.6686 69.1728 43.4756C69.2662 44.0391 69.3662 44.5993 69.4363 45.1662C69.4729 45.4429 69.4996 45.723 69.4896 45.9998C69.4863 46.1632 69.4663 46.3299 69.4263 46.4866C69.3829 46.65 69.3162 46.8101 69.2229 46.9501C69.1328 47.0868 69.0228 47.2069 68.8961 47.3102C68.7527 47.4303 68.5926 47.527 68.4226 47.6137C67.9457 47.8504 67.4155 47.9738 66.882 48.0138C66.5186 48.0438 66.1484 48.0338 65.785 48.0005C65.3281 47.9605 64.8747 47.8838 64.4278 47.7804C64.1044 47.7071 63.9043 47.3903 63.9777 47.0702C64.0477 46.7467 64.3678 46.5466 64.6879 46.62C65.2748 46.75 65.8717 46.8434 66.4719 46.8401C66.8387 46.8367 67.2055 46.7967 67.5523 46.6867C67.669 46.65 67.7823 46.6033 67.8891 46.5466C67.9591 46.5133 68.0258 46.4733 68.0891 46.4299C68.1225 46.4066 68.1591 46.3799 68.1858 46.3466C68.2092 46.3266 68.2258 46.2999 68.2392 46.2732C68.2558 46.2399 68.2692 46.2032 68.2759 46.1698C68.2892 46.1098 68.2959 46.0531 68.2992 45.9931C68.3059 45.8664 68.2992 45.743 68.2859 45.6163C68.2592 45.3095 68.2125 45.0061 68.1625 44.7027C68.0158 43.769 67.859 42.8387 67.7157 41.905C67.5956 41.1347 67.4822 40.3611 67.3789 39.5909C67.3022 39.0006 67.2288 38.4104 67.1721 37.8202C67.1288 37.3567 67.0921 36.8932 67.0854 36.4264C67.0754 36.0529 67.0854 35.6795 67.1254 35.3093C67.1588 34.9959 67.2155 34.6825 67.3055 34.379C67.3889 34.0989 67.4956 33.8288 67.6256 33.5687C67.7923 33.2319 67.9924 32.9152 68.2158 32.6151C68.756 31.8881 69.4229 31.2546 70.1699 30.7344C71.0068 30.1509 71.9472 29.7074 72.9342 29.4406C74.0412 29.1372 75.2116 29.0605 76.3554 29.1939C76.9956 29.2705 77.6292 29.4106 78.246 29.6073C78.933 29.8274 79.5965 30.1142 80.2367 30.451C80.957 30.8344 81.6439 31.2846 82.2941 31.7781C82.791 32.1582 83.2645 32.5584 83.7213 32.9819Z" fill="url(#paint2_linear)"/>
<path d="M77.489 38.3366C78.7961 37.9398 79.9832 37.0762 80.7802 35.749C79.7131 33.9851 77.7991 32.908 75.7384 32.9114C73.6743 32.918 71.7637 33.9984 70.7033 35.769C71.5036 37.0895 72.694 37.9498 74.0044 38.3466C75.1382 38.6901 76.3586 38.6901 77.489 38.3366ZM81.8372 35.749C80.6901 38.0632 78.3326 39.527 75.7484 39.5304C73.1641 39.537 70.8033 38.0799 69.6462 35.769C70.7933 33.4549 73.1508 31.991 75.7351 31.9844C78.3193 31.981 80.6835 33.4382 81.8372 35.749Z" fill="url(#paint3_linear)"/>
<path d="M78.0226 123C78.0392 123.583 77.5124 123.903 76.9889 123.843C76.4653 123.787 75.9452 123.35 75.3283 122.76C74.7114 122.169 73.9978 121.426 73.7577 120.859C73.5143 120.289 73.7444 119.892 73.5343 118.812C73.641 118.812 73.7444 118.812 73.8511 118.812C74.1178 119.809 74.6247 120.442 74.9548 120.842C75.2849 121.239 75.435 121.402 75.6984 121.452C75.9618 121.499 76.3353 121.436 76.4953 121.312C76.6587 121.186 76.6087 121.002 75.2216 118.812C75.3183 118.812 75.4183 118.812 75.515 118.812C77.4457 121.572 78.0059 122.416 78.0226 123Z" fill="#001461"/>
<path d="M77.9525 36.9862C77.9525 37.493 77.7791 37.9632 77.489 38.3366C76.3586 38.6901 75.1382 38.6901 74.0045 38.3467C73.7077 37.9732 73.5343 37.4997 73.5343 36.9862C73.5343 35.7657 74.5213 34.7754 75.7418 34.7754C76.9622 34.7754 77.9525 35.7657 77.9525 36.9862Z" fill="url(#paint4_linear)"/>
<path d="M77.4891 38.3364C77.7792 37.9629 77.9526 37.4928 77.9526 36.9859C77.9526 35.7655 76.9622 34.7751 75.7418 34.7751C74.5214 34.7751 73.5344 35.7655 73.5344 36.9859C73.5344 37.4994 73.7078 37.9729 74.0045 38.3464C72.6941 37.9496 71.5037 37.0893 70.7034 35.7688C71.7637 33.9982 73.6744 32.9178 75.7385 32.9111C77.7992 32.9078 79.7132 33.9849 80.7803 35.7488C79.9833 37.0759 78.7962 37.9396 77.4891 38.3364Z" fill="white"/>
<path d="M75.2213 118.812C76.6085 121.002 76.6585 121.186 76.4951 121.312C76.335 121.436 75.9616 121.499 75.6981 121.452C75.4347 121.402 75.2847 121.239 74.9545 120.842C74.6244 120.442 74.1176 119.809 73.8508 118.812C74.3077 118.812 74.7645 118.812 75.2213 118.812Z" fill="#E0A871"/>
<path d="M75.5149 118.811C75.4182 118.811 75.3182 118.811 75.2215 118.811C74.7647 118.811 74.3079 118.811 73.851 118.811C73.7443 118.811 73.6409 118.811 73.5342 118.811C72.2405 110.795 71.0267 106.494 69.7129 103.459C69.3861 102.709 69.056 102.035 68.7325 101.365H75.2682C75.0014 105.984 74.2645 111.369 75.5149 118.811Z" fill="#003CB0"/>
<path d="M57.442 51.4316C63.3975 51.4416 69.3529 51.4516 75.3083 51.4616C70.1798 57.5905 62.5472 57.5771 57.442 51.4316Z" fill="url(#paint5_linear)"/>
<path d="M74.9749 68.1271H57.7755C57.9656 67.3768 58.4291 66.89 59.1994 66.7199C60.3964 66.5865 61.4501 66.2664 62.4572 65.7129C62.7839 65.9363 63.1374 66.1197 63.5109 66.2664C63.971 66.4498 64.4512 66.5765 64.9414 66.6632C65.4149 66.7432 65.895 66.7833 66.3752 66.7833C66.8554 66.7833 67.3356 66.7432 67.8091 66.6632C68.2959 66.5765 68.7794 66.4498 69.2396 66.2664C69.6097 66.1197 69.9665 65.9363 70.2933 65.7129C71.3003 66.2664 72.3507 66.5865 73.5511 66.7199C74.3214 66.89 74.7849 67.3768 74.9749 68.1271Z" fill="url(#paint6_linear)"/>
<path d="M69.4532 65.1963C69.7333 65.3864 70.0101 65.5598 70.2935 65.7131C69.9667 65.9366 69.6099 66.1199 69.2398 66.2667C68.7796 66.4501 68.2961 66.5768 67.8093 66.6635C67.3358 66.7435 66.8556 66.7835 66.3754 66.7835C65.8953 66.7835 65.4151 66.7435 64.9416 66.6635C64.4514 66.5768 63.9713 66.4501 63.5111 66.2667C63.1376 66.1199 62.7842 65.9366 62.4574 65.7131C62.7408 65.5598 63.0176 65.3864 63.2977 65.1963C65.0183 66.1366 67.7326 66.1366 69.4532 65.1963Z" fill="#003CB0"/>
<path d="M69.3128 65.0998C69.3595 65.1332 69.4062 65.1632 69.4529 65.1966C67.7323 66.1369 65.018 66.1369 63.2974 65.1966C63.344 65.1632 63.3907 65.1332 63.4374 65.0998C63.7308 64.8898 63.9409 64.643 64.1143 64.3296C64.5145 63.606 64.6879 62.8957 64.6879 62.0721C64.6879 61.9921 64.6879 61.912 64.6879 61.832C64.6879 61.7787 64.6879 61.6653 64.6845 61.5586C65.2447 61.642 65.8082 61.6853 66.3751 61.6853C66.942 61.6853 67.5055 61.642 68.0657 61.5586C68.0624 61.6653 68.0624 61.7787 68.0624 61.832C68.0624 61.912 68.0624 61.9921 68.0624 62.0721C68.0624 62.8957 68.2358 63.606 68.6359 64.3296C68.806 64.643 69.0194 64.8898 69.3128 65.0998Z" fill="url(#paint7_linear)"/>
<path d="M65.3413 34.0648C65.458 34.3716 65.3013 34.715 64.9912 34.8284C64.6844 34.9451 64.341 34.7884 64.2276 34.4783C64.1943 34.3916 64.1576 34.3049 64.1176 34.2182C64.0542 34.0781 63.9809 33.9448 63.9008 33.8114C63.7941 33.6313 63.6741 33.4546 63.544 33.2879C62.9472 32.4976 62.1836 31.8374 61.3232 31.3472C60.3262 30.7736 59.1992 30.4235 58.0488 30.3402C57.3985 30.2935 56.7383 30.3302 56.0914 30.4402C55.3578 30.5669 54.6409 30.7903 53.954 31.0804C53.1437 31.4272 52.3734 31.874 51.6498 32.3809C50.6061 33.1145 49.6658 33.9681 48.7888 34.8951C48.8488 34.2582 48.9255 33.618 49.0256 32.9844C49.8925 32.1775 50.8295 31.4439 51.8432 30.8303C52.8769 30.2101 53.9907 29.7099 55.1577 29.4198C56.1481 29.1731 57.1818 29.0764 58.1988 29.1564C59.1058 29.2298 60.0028 29.4432 60.8431 29.7866C61.6133 30.1034 62.3369 30.5236 62.9905 31.0371C63.5807 31.5006 64.1109 32.0374 64.5544 32.641C64.7745 32.9444 64.9745 33.2645 65.1413 33.598C65.2146 33.7514 65.2846 33.9047 65.3413 34.0648Z" fill="url(#paint8_linear)"/>
<path d="M57.482 101.365H64.0177C63.6942 102.035 63.3608 102.709 63.0373 103.459C61.7235 106.494 60.5098 110.795 59.216 118.811C59.1093 118.811 59.0026 118.811 58.8992 118.811C58.439 118.811 57.9855 118.811 57.5287 118.811C57.4287 118.811 57.332 118.811 57.2319 118.811C58.4857 111.369 57.7488 105.984 57.482 101.365Z" fill="#003CB0"/>
<path d="M55.2579 38.3333C55.8147 38.51 56.4016 38.6034 57.0018 38.6034C57.6054 38.6034 58.1956 38.5134 58.7524 38.3366C60.1096 37.9198 61.2867 37.0162 62.0469 35.769C59.7661 31.9677 54.2608 31.9577 51.9667 35.749C52.7203 37.0028 53.9007 37.9098 55.2579 38.3333ZM57.0152 31.9844C59.5961 31.991 61.9536 33.4549 63.104 35.769C61.9469 38.0799 59.5827 39.537 57.0018 39.5304C54.4176 39.527 52.0601 38.0632 50.9097 35.749C52.0667 33.4382 54.4309 31.981 57.0152 31.9844Z" fill="url(#paint9_linear)"/>
<path d="M58.8991 118.812C59.0024 118.812 59.1091 118.812 59.2159 118.812C59.0024 119.892 59.2359 120.289 58.9924 120.859C58.7523 121.426 58.0354 122.169 57.4186 122.76C56.805 123.35 56.2848 123.787 55.7613 123.843C55.2378 123.903 54.7076 123.583 54.7276 123C54.7443 122.416 55.3045 121.572 57.2318 118.812C57.3318 118.812 57.4285 118.812 57.5286 118.812C56.1414 121.002 56.0914 121.186 56.2548 121.312C56.4149 121.436 56.7883 121.499 57.0518 121.452C57.3118 121.402 57.4652 121.239 57.7953 120.842C58.1255 120.442 58.6323 119.809 58.8991 118.812Z" fill="#001461"/>
<path d="M57.5286 118.812C57.9854 118.812 58.4389 118.812 58.8991 118.812C58.6323 119.809 58.1255 120.442 57.7954 120.842C57.4653 121.239 57.3119 121.402 57.0518 121.452C56.7884 121.499 56.4149 121.436 56.2548 121.312C56.0914 121.186 56.1415 121.002 57.5286 118.812Z" fill="#E0A871"/>
<path d="M62.0471 35.7694C61.2869 37.0165 60.1098 37.9201 58.7527 38.337C59.0461 37.9602 59.2161 37.4933 59.2161 36.9865C59.2161 35.766 58.2258 34.7757 57.0087 34.7757C55.7883 34.7757 54.7979 35.766 54.7979 36.9865C54.7979 37.4967 54.9713 37.9602 55.2581 38.3336C53.9009 37.9101 52.7205 37.0032 51.9669 35.7494C54.2611 31.958 59.7663 31.968 62.0471 35.7694Z" fill="white"/>
<path d="M59.2161 36.9862C59.2161 37.493 59.046 37.9598 58.7526 38.3366C58.1957 38.5134 57.6055 38.6034 57.002 38.6034C56.4018 38.6034 55.8149 38.51 55.258 38.3333C54.9712 37.9598 54.7979 37.4963 54.7979 36.9862C54.7979 35.7657 55.7882 34.7754 57.0086 34.7754C58.2257 34.7754 59.2161 35.7657 59.2161 36.9862Z" fill="url(#paint10_linear)"/>
<path d="M40.9263 101.365H91.8276C92.748 101.365 93.4949 100.618 93.4949 99.6981V69.7942C93.4949 68.8739 92.748 68.127 91.8276 68.127H40.9263C40.006 68.127 39.259 68.8739 39.259 69.7942V99.6981C39.259 100.622 40.0026 101.365 40.9263 101.365Z" fill="url(#paint11_linear)"/>
<path d="M42.6434 98.9818H90.1069C90.6604 98.9818 91.1072 98.535 91.1072 97.9814V71.5121C91.1072 70.9585 90.6604 70.5117 90.1069 70.5117H42.6434C42.0899 70.5117 41.6431 70.9585 41.6431 71.5121V97.9814C41.6431 98.535 42.0899 98.9818 42.6434 98.9818Z" fill="white"/>
<path d="M57.8714 84.1689L59.5725 80.1572H61.9783L59.0012 86.0796V89.3994H56.7415V86.0796L53.7708 80.1572H56.1638L57.8714 84.1689ZM70.2874 84.9688C70.2874 85.8701 70.1202 86.6678 69.7859 87.3618C69.4516 88.0558 68.9755 88.5911 68.3577 88.9678C67.7441 89.3402 67.0437 89.5264 66.2566 89.5264C65.4695 89.5264 64.7713 89.3465 64.1619 88.9868C63.5525 88.6229 63.0764 88.1045 62.7337 87.4316C62.3951 86.7588 62.2174 85.9865 62.2005 85.1147V84.5942C62.2005 83.6886 62.3655 82.891 62.6956 82.2012C63.0299 81.5072 63.506 80.9718 64.1238 80.5952C64.7459 80.2186 65.4526 80.0303 66.2439 80.0303C67.0268 80.0303 67.725 80.2165 68.3386 80.5889C68.9522 80.9613 69.4283 81.4924 69.7669 82.1821C70.1096 82.8677 70.2831 83.6548 70.2874 84.5435V84.9688ZM68.0213 84.5815C68.0213 83.6632 67.8668 82.9671 67.5579 82.4932C67.2532 82.015 66.8152 81.7759 66.2439 81.7759C65.1267 81.7759 64.5364 82.6138 64.4729 84.2896L64.4666 84.9688C64.4666 85.8743 64.6168 86.5705 64.9172 87.0571C65.2177 87.5438 65.6642 87.7871 66.2566 87.7871C66.8194 87.7871 67.2532 87.548 67.5579 87.0698C67.8626 86.5916 68.017 85.904 68.0213 85.0068V84.5815ZM78.6853 80.1572V86.2065C78.6853 86.8921 78.5393 87.4867 78.2473 87.9902C77.9553 88.4896 77.5364 88.8704 76.9905 89.1328C76.4446 89.3952 75.7992 89.5264 75.0545 89.5264C73.9288 89.5264 73.0422 89.2344 72.3948 88.6504C71.7473 88.0664 71.4172 87.2666 71.4046 86.251V80.1572H73.6453V86.2954C73.6707 87.3068 74.1404 87.8125 75.0545 87.8125C75.5157 87.8125 75.8648 87.6855 76.1018 87.4316C76.3388 87.1777 76.4573 86.7651 76.4573 86.1938V80.1572H78.6853Z" fill="#003CB0"/>
<path d="M97.9098 76.707C98.8068 76.707 99.5303 77.434 99.5303 78.3276C99.5303 79.2212 98.8068 79.9448 97.9098 79.9448C97.5797 79.9448 97.2462 79.9448 96.9161 79.9448C94.5119 79.9448 92.1111 79.9448 89.7102 79.9448C89.4968 79.9448 89.2867 79.9448 89.0733 79.9448C88.223 79.9448 87.7695 79.0645 87.7695 78.3276C87.7695 77.5873 88.223 76.707 89.0733 76.707C89.2901 76.707 89.5068 76.707 89.7202 76.707C92.2444 76.707 94.7653 76.707 97.2862 76.707C97.493 76.707 97.703 76.707 97.9098 76.707ZM90.7206 78.3276C90.7206 77.7107 90.2204 77.2105 89.6035 77.2105C89.4268 77.2105 89.2501 77.2105 89.0733 77.2105C88.98 77.2105 88.8866 77.2372 88.8032 77.2806C88.6999 77.3339 88.6132 77.4106 88.5431 77.4973C88.4564 77.6073 88.3931 77.7341 88.3497 77.8674C88.2997 78.0175 88.273 78.1709 88.273 78.3276C88.273 78.481 88.2997 78.6377 88.3497 78.7844C88.3931 78.9178 88.4564 79.0479 88.5431 79.1546C88.6132 79.2446 88.6999 79.3213 88.8032 79.3713C88.8866 79.4146 88.98 79.4447 89.0733 79.4447C89.2501 79.4447 89.4268 79.4447 89.6035 79.4447C90.2204 79.4447 90.7206 78.9445 90.7206 78.3276Z" fill="url(#paint12_linear)"/>
<path d="M97.2862 73.4688C98.1798 73.4688 98.9067 74.1923 98.9067 75.086C98.9067 75.983 98.1798 76.7066 97.2862 76.7066C94.7653 76.7066 92.2444 76.7066 89.7202 76.7066C88.8699 76.7066 88.4164 75.8262 88.4164 75.086C88.4164 74.3491 88.8699 73.4688 89.7202 73.4688C92.2444 73.4688 94.7653 73.4688 97.2862 73.4688ZM91.3674 75.086C91.3674 74.4691 90.8672 73.9723 90.2504 73.9723C90.0736 73.9723 89.8969 73.9723 89.7202 73.9723C89.6268 73.9723 89.5334 73.9989 89.4501 74.0423C89.3467 74.0923 89.26 74.169 89.19 74.259C89.1033 74.3691 89.0399 74.4958 88.9966 74.6292C88.9466 74.7759 88.9199 74.9326 88.9199 75.086C88.9199 75.2427 88.9466 75.3961 88.9966 75.5461C89.0399 75.6795 89.1033 75.8062 89.19 75.9163C89.26 76.003 89.3467 76.0797 89.4501 76.133C89.5334 76.1764 89.6268 76.203 89.7202 76.203C89.8969 76.203 90.0736 76.203 90.2504 76.203C90.8672 76.203 91.3674 75.7029 91.3674 75.086Z" fill="url(#paint13_linear)"/>
<path d="M96.9157 79.9443C97.8094 79.9443 98.533 80.6713 98.533 81.5649C98.533 82.4586 97.8094 83.1855 96.9157 83.1855C96.5356 83.1855 96.1554 83.1855 95.7753 83.1855C94.058 83.1855 92.3441 83.1855 90.6268 83.1855C90.3201 83.1855 90.0166 83.1855 89.7098 83.1855C88.8595 83.1855 88.4027 82.3052 88.4027 81.5649C88.4027 80.828 88.8595 79.9443 89.7098 79.9443C92.1107 79.9443 94.5115 79.9443 96.9157 79.9443ZM91.3571 81.5649C91.3571 80.948 90.8569 80.4478 90.24 80.4478C90.0633 80.4478 89.8866 80.4478 89.7098 80.4478C89.6131 80.4478 89.5198 80.4779 89.4364 80.5212C89.3364 80.5712 89.2497 80.6479 89.1797 80.738C89.0896 80.8447 89.0296 80.9747 88.9829 81.1081C88.9362 81.2548 88.9062 81.4115 88.9062 81.5649C88.9062 81.7216 88.9362 81.875 88.9829 82.0251C89.0296 82.1585 89.0896 82.2852 89.1797 82.3952C89.2497 82.4819 89.3364 82.5586 89.4364 82.6119C89.5198 82.6553 89.6131 82.682 89.7098 82.682C89.8866 82.682 90.0633 82.682 90.24 82.682C90.8569 82.682 91.3571 82.1818 91.3571 81.5649Z" fill="url(#paint14_linear)"/>
<path d="M95.7752 83.1855C96.6689 83.1855 97.3958 83.9091 97.3958 84.8061C97.3958 85.6998 96.6689 86.4234 95.7752 86.4234C94.0579 86.4234 92.344 86.4234 90.6267 86.4234C89.7764 86.4234 89.3196 85.543 89.3196 84.8061C89.3196 84.0659 89.7764 83.1855 90.6267 83.1855C92.344 83.1855 94.0579 83.1855 95.7752 83.1855ZM92.274 84.8061C92.274 84.1892 91.7738 83.6891 91.1569 83.6891C90.9802 83.6891 90.8034 83.6891 90.6267 83.6891C90.5333 83.6891 90.4366 83.7157 90.3533 83.7591C90.2532 83.8124 90.1666 83.8891 90.0965 83.9758C90.0065 84.0859 89.9465 84.2126 89.8998 84.346C89.8531 84.496 89.8231 84.6494 89.8231 84.8061C89.8231 84.9595 89.8531 85.1162 89.8998 85.263C89.9465 85.3963 90.0065 85.523 90.0965 85.6331C90.1666 85.7231 90.2532 85.7998 90.3533 85.8498C90.4366 85.8932 90.5333 85.9199 90.6267 85.9199C90.8034 85.9199 90.9802 85.9199 91.1569 85.9199C91.7738 85.9199 92.274 85.423 92.274 84.8061Z" fill="url(#paint15_linear)"/>
<path d="M91.157 83.6895C91.7739 83.6895 92.2741 84.1896 92.2741 84.8065C92.2741 85.4234 91.7739 85.9202 91.157 85.9202C90.9803 85.9202 90.8036 85.9202 90.6269 85.9202C90.5335 85.9202 90.4368 85.8936 90.3534 85.8502C90.2534 85.8002 90.1667 85.7235 90.0967 85.6335C90.0066 85.5234 89.9466 85.3967 89.8999 85.2633C89.8533 85.1166 89.8232 84.9599 89.8232 84.8065C89.8232 84.6498 89.8533 84.4964 89.8999 84.3464C89.9466 84.213 90.0066 84.0863 90.0967 83.9762C90.1667 83.8895 90.2534 83.8128 90.3534 83.7595C90.4368 83.7161 90.5335 83.6895 90.6269 83.6895C90.8036 83.6895 90.9803 83.6895 91.157 83.6895Z" fill="url(#paint16_linear)"/>
<path d="M90.2501 73.9727C90.867 73.9727 91.3672 74.4695 91.3672 75.0864C91.3672 75.7033 90.867 76.2035 90.2501 76.2035C90.0734 76.2035 89.8967 76.2035 89.72 76.2035C89.6266 76.2035 89.5332 76.1768 89.4499 76.1334C89.3465 76.0801 89.2598 76.0034 89.1898 75.9167C89.1031 75.8066 89.0397 75.6799 88.9964 75.5466C88.9463 75.3965 88.9197 75.2431 88.9197 75.0864C88.9197 74.933 88.9463 74.7763 88.9964 74.6296C89.0397 74.4962 89.1031 74.3695 89.1898 74.2594C89.2598 74.1694 89.3465 74.0927 89.4499 74.0427C89.5332 73.9993 89.6266 73.9727 89.72 73.9727C89.8967 73.9727 90.0734 73.9727 90.2501 73.9727Z" fill="url(#paint17_linear)"/>
<path d="M90.2402 80.4482C90.8571 80.4482 91.3573 80.9484 91.3573 81.5653C91.3573 82.1822 90.8571 82.6824 90.2402 82.6824C90.0635 82.6824 89.8867 82.6824 89.71 82.6824C89.6133 82.6824 89.5199 82.6557 89.4366 82.6124C89.3365 82.559 89.2498 82.4823 89.1798 82.3956C89.0898 82.2856 89.0298 82.1589 88.9831 82.0255C88.9364 81.8754 88.9064 81.722 88.9064 81.5653C88.9064 81.4119 88.9364 81.2552 88.9831 81.1085C89.0298 80.9751 89.0898 80.8451 89.1798 80.7383C89.2498 80.6483 89.3365 80.5716 89.4366 80.5216C89.5199 80.4783 89.6133 80.4482 89.71 80.4482C89.8867 80.4482 90.0635 80.4482 90.2402 80.4482Z" fill="url(#paint18_linear)"/>
<path d="M89.6033 77.21C90.2202 77.21 90.7204 77.7101 90.7204 78.327C90.7204 78.9439 90.2202 79.4441 89.6033 79.4441C89.4266 79.4441 89.2498 79.4441 89.0731 79.4441C88.9797 79.4441 88.8864 79.4141 88.803 79.3707C88.6996 79.3207 88.6129 79.244 88.5429 79.154C88.4562 79.0473 88.3929 78.9172 88.3495 78.7838C88.2995 78.6371 88.2728 78.4804 88.2728 78.327C88.2728 78.1703 88.2995 78.0169 88.3495 77.8669C88.3929 77.7335 88.4562 77.6068 88.5429 77.4967C88.6129 77.41 88.6996 77.3333 88.803 77.28C88.8864 77.2366 88.9797 77.21 89.0731 77.21C89.2498 77.21 89.4266 77.21 89.6033 77.21Z" fill="url(#paint19_linear)"/>
<path d="M43.6737 76.707C44.5273 76.707 44.9808 77.5873 44.9808 78.3276C44.9808 79.0645 44.5273 79.9448 43.6737 79.9448C43.4636 79.9448 43.2502 79.9448 43.0401 79.9448C40.6393 79.9448 38.2351 79.9448 35.8342 79.9448C35.5008 79.9448 35.1707 79.9448 34.8372 79.9448C33.9436 79.9448 33.22 79.2212 33.22 78.3276C33.22 77.434 33.9436 76.707 34.8372 76.707C35.0473 76.707 35.254 76.707 35.4641 76.707C37.985 76.707 40.5059 76.707 43.0268 76.707C43.2435 76.707 43.4603 76.707 43.6737 76.707ZM44.4773 78.3276C44.4773 78.1709 44.4506 78.0175 44.4006 77.8674C44.3572 77.7341 44.2939 77.6073 44.2072 77.4973C44.1338 77.4106 44.0471 77.3339 43.9471 77.2806C43.8637 77.2372 43.7704 77.2105 43.6737 77.2105C43.4969 77.2105 43.3202 77.2105 43.1435 77.2105C42.5266 77.2105 42.0297 77.7107 42.0297 78.3276C42.0297 78.9445 42.5266 79.4447 43.1435 79.4447C43.3202 79.4447 43.4969 79.4447 43.6737 79.4447C43.7704 79.4447 43.8637 79.4146 43.9471 79.3713C44.0471 79.3213 44.1338 79.2446 44.2072 79.1546C44.2939 79.0479 44.3572 78.9178 44.4006 78.7844C44.4506 78.6377 44.4773 78.481 44.4773 78.3276Z" fill="url(#paint20_linear)"/>
<path d="M44.4005 77.8669C44.4505 78.0169 44.4772 78.1703 44.4772 78.327C44.4772 78.4804 44.4505 78.6371 44.4005 78.7838C44.3572 78.9172 44.2938 79.0473 44.2071 79.154C44.1337 79.244 44.047 79.3207 43.947 79.3707C43.8636 79.4141 43.7703 79.4441 43.6736 79.4441C43.4969 79.4441 43.3201 79.4441 43.1434 79.4441C42.5265 79.4441 42.0297 78.9439 42.0297 78.327C42.0297 77.7101 42.5265 77.21 43.1434 77.21C43.3201 77.21 43.4969 77.21 43.6736 77.21C43.7703 77.21 43.8636 77.2366 43.947 77.28C44.047 77.3333 44.1337 77.41 44.2071 77.4967C44.2938 77.6068 44.3572 77.7335 44.4005 77.8669Z" fill="url(#paint21_linear)"/>
<path d="M43.0401 79.9443C43.8904 79.9443 44.3439 80.828 44.3439 81.5649C44.3439 82.3052 43.8904 83.1855 43.0401 83.1855C42.7333 83.1855 42.4299 83.1855 42.1231 83.1855C40.4058 83.1855 38.6919 83.1855 36.9746 83.1855C36.5945 83.1855 36.2143 83.1855 35.8342 83.1855C34.9405 83.1855 34.2136 82.4586 34.2136 81.5649C34.2136 80.6713 34.9405 79.9443 35.8342 79.9443C38.235 79.9443 40.6392 79.9443 43.0401 79.9443ZM43.8404 81.5649C43.8404 81.4115 43.8137 81.2548 43.7637 81.1081C43.7203 80.9747 43.657 80.8447 43.5703 80.738C43.5002 80.6479 43.4135 80.5712 43.3102 80.5212C43.2268 80.4779 43.1334 80.4478 43.0401 80.4478C42.8633 80.4478 42.6866 80.4478 42.5099 80.4478C41.893 80.4478 41.3928 80.948 41.3928 81.5649C41.3928 82.1818 41.893 82.682 42.5099 82.682C42.6866 82.682 42.8633 82.682 43.0401 82.682C43.1334 82.682 43.2268 82.6553 43.3102 82.6119C43.4135 82.5586 43.5002 82.4819 43.5703 82.3952C43.657 82.2852 43.7203 82.1585 43.7637 82.0251C43.8137 81.875 43.8404 81.7216 43.8404 81.5649Z" fill="url(#paint22_linear)"/>
<path d="M43.0268 73.4688C43.8804 73.4688 44.3339 74.3491 44.3339 75.086C44.3339 75.8262 43.8804 76.7066 43.0268 76.7066C40.5059 76.7066 37.985 76.7066 35.4641 76.7066C34.5671 76.7066 33.8435 75.983 33.8435 75.086C33.8435 74.1923 34.5671 73.4688 35.4641 73.4688C37.985 73.4688 40.5059 73.4688 43.0268 73.4688ZM43.8304 75.086C43.8304 74.9326 43.8037 74.7759 43.7537 74.6292C43.7103 74.4958 43.647 74.3691 43.5603 74.259C43.4869 74.169 43.4002 74.0923 43.3002 74.0423C43.2168 73.9989 43.1235 73.9723 43.0268 73.9723C42.85 73.9723 42.6733 73.9723 42.4966 73.9723C41.8797 73.9723 41.3828 74.4691 41.3828 75.086C41.3828 75.7029 41.8797 76.203 42.4966 76.203C42.6733 76.203 42.85 76.203 43.0268 76.203C43.1235 76.203 43.2168 76.1764 43.3002 76.133C43.4002 76.0797 43.4869 76.003 43.5603 75.9163C43.647 75.8062 43.7103 75.6795 43.7537 75.5461C43.8037 75.3961 43.8304 75.2427 43.8304 75.086Z" fill="url(#paint23_linear)"/>
<path d="M43.7637 81.1085C43.8137 81.2552 43.8404 81.4119 43.8404 81.5653C43.8404 81.722 43.8137 81.8754 43.7637 82.0255C43.7203 82.1589 43.657 82.2856 43.5703 82.3956C43.5002 82.4823 43.4135 82.559 43.3102 82.6124C43.2268 82.6557 43.1334 82.6824 43.0401 82.6824C42.8633 82.6824 42.6866 82.6824 42.5099 82.6824C41.893 82.6824 41.3928 82.1822 41.3928 81.5653C41.3928 80.9484 41.893 80.4482 42.5099 80.4482C42.6866 80.4482 42.8633 80.4482 43.0401 80.4482C43.1334 80.4482 43.2268 80.4783 43.3102 80.5216C43.4135 80.5716 43.5002 80.6483 43.5703 80.7383C43.657 80.8451 43.7203 80.9751 43.7637 81.1085Z" fill="url(#paint24_linear)"/>
<path d="M43.7536 74.6296C43.8037 74.7763 43.8303 74.933 43.8303 75.0864C43.8303 75.2431 43.8037 75.3965 43.7536 75.5466C43.7103 75.6799 43.6469 75.8066 43.5602 75.9167C43.4869 76.0034 43.4002 76.0801 43.3001 76.1334C43.2168 76.1768 43.1234 76.2035 43.0267 76.2035C42.85 76.2035 42.6733 76.2035 42.4965 76.2035C41.8797 76.2035 41.3828 75.7033 41.3828 75.0864C41.3828 74.4695 41.8797 73.9727 42.4965 73.9727C42.6733 73.9727 42.85 73.9727 43.0267 73.9727C43.1234 73.9727 43.2168 73.9993 43.3001 74.0427C43.4002 74.0927 43.4869 74.1694 43.5602 74.2594C43.6469 74.3695 43.7103 74.4962 43.7536 74.6296Z" fill="url(#paint25_linear)"/>
<path d="M42.1232 83.1855C42.9735 83.1855 43.427 84.0659 43.427 84.8061C43.427 85.543 42.9735 86.4234 42.1232 86.4234C40.4059 86.4234 38.6886 86.4234 36.9747 86.4234C36.0777 86.4234 35.3541 85.6998 35.3541 84.8061C35.3541 83.9091 36.0777 83.1855 36.9747 83.1855C38.692 83.1855 40.4059 83.1855 42.1232 83.1855ZM42.9235 84.8061C42.9235 84.6494 42.8968 84.496 42.8468 84.346C42.8034 84.2126 42.7401 84.0859 42.6534 83.9758C42.5833 83.8891 42.4966 83.8124 42.3933 83.7591C42.3099 83.7157 42.2165 83.6891 42.1232 83.6891C41.9465 83.6891 41.7697 83.6891 41.593 83.6891C40.9761 83.6891 40.4759 84.1892 40.4759 84.8061C40.4759 85.423 40.9761 85.9199 41.593 85.9199C41.7697 85.9199 41.9465 85.9199 42.1232 85.9199C42.2165 85.9199 42.3099 85.8932 42.3933 85.8498C42.4966 85.7998 42.5833 85.7231 42.6534 85.6331C42.7401 85.523 42.8034 85.3963 42.8468 85.263C42.8968 85.1162 42.9235 84.9595 42.9235 84.8061Z" fill="url(#paint26_linear)"/>
<path d="M42.8468 84.3464C42.8968 84.4964 42.9235 84.6498 42.9235 84.8065C42.9235 84.9599 42.8968 85.1166 42.8468 85.2633C42.8034 85.3967 42.7401 85.5234 42.6534 85.6335C42.5834 85.7235 42.4967 85.8002 42.3933 85.8502C42.3099 85.8936 42.2166 85.9202 42.1232 85.9202C41.9465 85.9202 41.7697 85.9202 41.593 85.9202C40.9761 85.9202 40.476 85.4234 40.476 84.8065C40.476 84.1896 40.9761 83.6895 41.593 83.6895C41.7697 83.6895 41.9465 83.6895 42.1232 83.6895C42.2166 83.6895 42.3099 83.7161 42.3933 83.7595C42.4967 83.8128 42.5834 83.8895 42.6534 83.9762C42.7401 84.0863 42.8034 84.213 42.8468 84.3464Z" fill="url(#paint27_linear)"/>
<path d="M57.1719 204.352H52.7656L51.8438 207H49.7891L54.0859 195.625H55.8594L60.1641 207H58.1016L57.1719 204.352ZM53.3203 202.758H56.6172L54.9688 198.039L53.3203 202.758ZM60.9219 202.711C60.9219 201.409 61.224 200.365 61.8281 199.578C62.4323 198.786 63.2422 198.391 64.2578 198.391C65.1536 198.391 65.8776 198.703 66.4297 199.328V195H68.3281V207H66.6094L66.5156 206.125C65.9479 206.812 65.1901 207.156 64.2422 207.156C63.2526 207.156 62.4505 206.758 61.8359 205.961C61.2266 205.164 60.9219 204.081 60.9219 202.711ZM62.8203 202.875C62.8203 203.734 62.9844 204.406 63.3125 204.891C63.6458 205.37 64.1172 205.609 64.7266 205.609C65.5026 205.609 66.0703 205.263 66.4297 204.57V200.961C66.0807 200.284 65.5182 199.945 64.7422 199.945C64.1276 199.945 63.6536 200.19 63.3203 200.68C62.987 201.164 62.8203 201.896 62.8203 202.875ZM69.9531 202.711C69.9531 201.409 70.2552 200.365 70.8594 199.578C71.4635 198.786 72.2734 198.391 73.2891 198.391C74.1849 198.391 74.9089 198.703 75.4609 199.328V195H77.3594V207H75.6406L75.5469 206.125C74.9792 206.812 74.2214 207.156 73.2734 207.156C72.2839 207.156 71.4818 206.758 70.8672 205.961C70.2578 205.164 69.9531 204.081 69.9531 202.711ZM71.8516 202.875C71.8516 203.734 72.0156 204.406 72.3438 204.891C72.6771 205.37 73.1484 205.609 73.7578 205.609C74.5339 205.609 75.1016 205.263 75.4609 204.57V200.961C75.112 200.284 74.5495 199.945 73.7734 199.945C73.1589 199.945 72.6849 200.19 72.3516 200.68C72.0182 201.164 71.8516 201.896 71.8516 202.875ZM32.6094 223.281L34.3281 217.547H36.3516L32.9922 227.281C32.4766 228.703 31.6016 229.414 30.3672 229.414C30.0911 229.414 29.7865 229.367 29.4531 229.273V227.805L29.8125 227.828C30.2917 227.828 30.651 227.74 30.8906 227.562C31.1354 227.391 31.3281 227.099 31.4688 226.688L31.7422 225.961L28.7734 217.547H30.8203L32.6094 223.281ZM36.9688 221.695C36.9688 220.867 37.1328 220.122 37.4609 219.461C37.7891 218.794 38.25 218.284 38.8438 217.93C39.4375 217.57 40.1198 217.391 40.8906 217.391C42.0312 217.391 42.9557 217.758 43.6641 218.492C44.3776 219.227 44.763 220.201 44.8203 221.414L44.8281 221.859C44.8281 222.693 44.6667 223.438 44.3438 224.094C44.026 224.75 43.5677 225.258 42.9688 225.617C42.375 225.977 41.6875 226.156 40.9062 226.156C39.7135 226.156 38.7578 225.76 38.0391 224.969C37.3255 224.172 36.9688 223.112 36.9688 221.789V221.695ZM38.8672 221.859C38.8672 222.729 39.0469 223.411 39.4062 223.906C39.7656 224.396 40.2656 224.641 40.9062 224.641C41.5469 224.641 42.0443 224.391 42.3984 223.891C42.7578 223.391 42.9375 222.659 42.9375 221.695C42.9375 220.841 42.7526 220.164 42.3828 219.664C42.0182 219.164 41.5208 218.914 40.8906 218.914C40.2708 218.914 39.7786 219.161 39.4141 219.656C39.0495 220.146 38.8672 220.88 38.8672 221.859ZM51.5547 225.172C50.9974 225.828 50.2057 226.156 49.1797 226.156C48.263 226.156 47.5677 225.888 47.0938 225.352C46.625 224.815 46.3906 224.039 46.3906 223.023V217.547H48.2891V223C48.2891 224.073 48.7344 224.609 49.625 224.609C50.5469 224.609 51.1693 224.279 51.4922 223.617V217.547H53.3906V226H51.6016L51.5547 225.172ZM59.75 219.281C59.5 219.24 59.2422 219.219 58.9766 219.219C58.1068 219.219 57.5208 219.552 57.2188 220.219V226H55.3203V217.547H57.1328L57.1797 218.492C57.638 217.758 58.2734 217.391 59.0859 217.391C59.3568 217.391 59.5807 217.427 59.7578 217.5L59.75 219.281ZM68.6562 226.156C67.4531 226.156 66.4766 225.779 65.7266 225.023C64.9818 224.263 64.6094 223.253 64.6094 221.992V221.758C64.6094 220.914 64.7708 220.161 65.0938 219.5C65.4219 218.833 65.8802 218.315 66.4688 217.945C67.0573 217.576 67.7135 217.391 68.4375 217.391C69.5885 217.391 70.4766 217.758 71.1016 218.492C71.7318 219.227 72.0469 220.266 72.0469 221.609V222.375H66.5234C66.5807 223.073 66.8125 223.625 67.2188 224.031C67.6302 224.438 68.1458 224.641 68.7656 224.641C69.6354 224.641 70.3438 224.289 70.8906 223.586L71.9141 224.562C71.5755 225.068 71.1224 225.461 70.5547 225.742C69.9922 226.018 69.3594 226.156 68.6562 226.156ZM68.4297 218.914C67.9089 218.914 67.487 219.096 67.1641 219.461C66.8464 219.826 66.6432 220.333 66.5547 220.984H70.1719V220.844C70.1302 220.208 69.9609 219.729 69.6641 219.406C69.3672 219.078 68.9557 218.914 68.4297 218.914ZM75.3125 217.547L75.3672 218.43C75.9609 217.737 76.7734 217.391 77.8047 217.391C78.9349 217.391 79.7083 217.823 80.125 218.688C80.7396 217.823 81.6042 217.391 82.7188 217.391C83.651 217.391 84.3438 217.648 84.7969 218.164C85.2552 218.68 85.4896 219.44 85.5 220.445V226H83.6016V220.5C83.6016 219.964 83.4844 219.57 83.25 219.32C83.0156 219.07 82.6276 218.945 82.0859 218.945C81.6536 218.945 81.2995 219.062 81.0234 219.297C80.7526 219.526 80.5625 219.828 80.4531 220.203L80.4609 226H78.5625V220.438C78.5365 219.443 78.0286 218.945 77.0391 218.945C76.2786 218.945 75.7396 219.255 75.4219 219.875V226H73.5234V217.547H75.3125ZM92.5 226C92.4167 225.839 92.3438 225.576 92.2812 225.211C91.6771 225.841 90.9375 226.156 90.0625 226.156C89.2135 226.156 88.5208 225.914 87.9844 225.43C87.4479 224.945 87.1797 224.346 87.1797 223.633C87.1797 222.732 87.513 222.042 88.1797 221.562C88.8516 221.078 89.8099 220.836 91.0547 220.836H92.2188V220.281C92.2188 219.844 92.0964 219.495 91.8516 219.234C91.6068 218.969 91.2344 218.836 90.7344 218.836C90.3021 218.836 89.9479 218.945 89.6719 219.164C89.3958 219.378 89.2578 219.651 89.2578 219.984H87.3594C87.3594 219.521 87.513 219.089 87.8203 218.688C88.1276 218.281 88.5443 217.964 89.0703 217.734C89.6016 217.505 90.1927 217.391 90.8438 217.391C91.8333 217.391 92.6224 217.641 93.2109 218.141C93.7995 218.635 94.1016 219.333 94.1172 220.234V224.047C94.1172 224.807 94.224 225.414 94.4375 225.867V226H92.5ZM90.4141 224.633C90.7891 224.633 91.1406 224.542 91.4688 224.359C91.8021 224.177 92.0521 223.932 92.2188 223.625V222.031H91.1953C90.4922 222.031 89.9635 222.154 89.6094 222.398C89.2552 222.643 89.0781 222.99 89.0781 223.438C89.0781 223.802 89.1979 224.094 89.4375 224.312C89.6823 224.526 90.0078 224.633 90.4141 224.633ZM98.125 226H96.2266V217.547H98.125V226ZM96.1094 215.352C96.1094 215.06 96.2005 214.818 96.3828 214.625C96.5703 214.432 96.8359 214.336 97.1797 214.336C97.5234 214.336 97.7891 214.432 97.9766 214.625C98.1641 214.818 98.2578 215.06 98.2578 215.352C98.2578 215.638 98.1641 215.878 97.9766 216.07C97.7891 216.258 97.5234 216.352 97.1797 216.352C96.8359 216.352 96.5703 216.258 96.3828 216.07C96.2005 215.878 96.1094 215.638 96.1094 215.352ZM102.219 226H100.32V214H102.219V226Z" fill="#003CB0"/>
<circle cx="66" cy="167" r="15" fill="#003CB0"/>
<path d="M67.8984 172H65.2578V163.594L62.6641 164.352V162.352L67.6562 160.625H67.8984V172Z" fill="white"/>
<defs>
<linearGradient id="paint0_linear" x1="66.3743" y1="12.9941" x2="66.3743" y2="63.5189" gradientUnits="userSpaceOnUse">
<stop stop-color="#333333"/>
<stop offset="1"/>
</linearGradient>
<linearGradient id="paint1_linear" x1="48.775" y1="13.9329" x2="90.2084" y2="56.8329" gradientUnits="userSpaceOnUse">
<stop stop-color="#FFE2C8"/>
<stop offset="1" stop-color="#FFB26D"/>
</linearGradient>
<linearGradient id="paint2_linear" x1="73.962" y1="29.1309" x2="73.962" y2="48.0317" gradientUnits="userSpaceOnUse">
<stop stop-color="#333333"/>
<stop offset="1"/>
</linearGradient>
<linearGradient id="paint3_linear" x1="75.7417" y1="31.9844" x2="75.7417" y2="39.5304" gradientUnits="userSpaceOnUse">
<stop stop-color="#333333"/>
<stop offset="1"/>
</linearGradient>
<linearGradient id="paint4_linear" x1="75.7434" y1="34.7754" x2="75.7434" y2="38.603" gradientUnits="userSpaceOnUse">
<stop stop-color="#333333"/>
<stop offset="1"/>
</linearGradient>
<linearGradient id="paint5_linear" x1="66.3752" y1="51.4316" x2="66.3752" y2="56.0495" gradientUnits="userSpaceOnUse">
<stop stop-color="#333333"/>
<stop offset="1"/>
</linearGradient>
<linearGradient id="paint6_linear" x1="57.4199" y1="63.433" x2="75.0199" y2="68.933" gradientUnits="userSpaceOnUse">
<stop stop-color="#EDECEC"/>
<stop offset="1" stop-color="#E7E7E7"/>
</linearGradient>
<linearGradient id="paint7_linear" x1="63.3149" y1="61.3231" x2="66.6137" y2="67.5167" gradientUnits="userSpaceOnUse">
<stop stop-color="#FFE2C8"/>
<stop offset="1" stop-color="#FFB26D"/>
</linearGradient>
<linearGradient id="paint8_linear" x1="57.0844" y1="29.1289" x2="57.0844" y2="34.8951" gradientUnits="userSpaceOnUse">
<stop stop-color="#333333"/>
<stop offset="1"/>
</linearGradient>
<linearGradient id="paint9_linear" x1="57.0068" y1="31.9844" x2="57.0068" y2="39.5304" gradientUnits="userSpaceOnUse">
<stop stop-color="#333333"/>
<stop offset="1"/>
</linearGradient>
<linearGradient id="paint10_linear" x1="57.007" y1="34.7754" x2="57.007" y2="38.6034" gradientUnits="userSpaceOnUse">
<stop stop-color="#333333"/>
<stop offset="1"/>
</linearGradient>
<linearGradient id="paint11_linear" x1="38.9354" y1="64.1616" x2="54.5245" y2="111.69" gradientUnits="userSpaceOnUse">
<stop stop-color="#22357D"/>
<stop offset="1" stop-color="#001461"/>
</linearGradient>
<linearGradient id="paint12_linear" x1="87.8031" y1="76.5315" x2="88.9838" y2="82.2131" gradientUnits="userSpaceOnUse">
<stop stop-color="#FFE2C8"/>
<stop offset="1" stop-color="#FFB26D"/>
</linearGradient>
<linearGradient id="paint13_linear" x1="88.4463" y1="73.2932" x2="89.7561" y2="78.915" gradientUnits="userSpaceOnUse">
<stop stop-color="#FFE2C8"/>
<stop offset="1" stop-color="#FFB26D"/>
</linearGradient>
<linearGradient id="paint14_linear" x1="88.4316" y1="79.7686" x2="89.7855" y2="85.3747" gradientUnits="userSpaceOnUse">
<stop stop-color="#FFE2C8"/>
<stop offset="1" stop-color="#FFB26D"/>
</linearGradient>
<linearGradient id="paint15_linear" x1="89.3426" y1="83.01" x2="90.9858" y2="88.4397" gradientUnits="userSpaceOnUse">
<stop stop-color="#FFE2C8"/>
<stop offset="1" stop-color="#FFB26D"/>
</linearGradient>
<linearGradient id="paint16_linear" x1="89.8086" y1="83.4233" x2="91.1996" y2="86.2787" gradientUnits="userSpaceOnUse">
<stop stop-color="#22357D"/>
<stop offset="1" stop-color="#001461"/>
</linearGradient>
<linearGradient id="paint17_linear" x1="88.9051" y1="73.7065" x2="90.2972" y2="76.5604" gradientUnits="userSpaceOnUse">
<stop stop-color="#22357D"/>
<stop offset="1" stop-color="#001461"/>
</linearGradient>
<linearGradient id="paint18_linear" x1="88.8917" y1="80.1817" x2="90.2861" y2="83.0398" gradientUnits="userSpaceOnUse">
<stop stop-color="#22357D"/>
<stop offset="1" stop-color="#001461"/>
</linearGradient>
<linearGradient id="paint19_linear" x1="88.2582" y1="76.9434" x2="89.6537" y2="79.8" gradientUnits="userSpaceOnUse">
<stop stop-color="#22357D"/>
<stop offset="1" stop-color="#001461"/>
</linearGradient>
<linearGradient id="paint20_linear" x1="33.2535" y1="76.5315" x2="34.4342" y2="82.2131" gradientUnits="userSpaceOnUse">
<stop stop-color="#FFE2C8"/>
<stop offset="1" stop-color="#FFB26D"/>
</linearGradient>
<linearGradient id="paint21_linear" x1="42.0151" y1="76.9434" x2="43.4106" y2="79.8" gradientUnits="userSpaceOnUse">
<stop stop-color="#22357D"/>
<stop offset="1" stop-color="#001461"/>
</linearGradient>
<linearGradient id="paint22_linear" x1="34.2425" y1="79.7686" x2="35.5965" y2="85.3747" gradientUnits="userSpaceOnUse">
<stop stop-color="#FFE2C8"/>
<stop offset="1" stop-color="#FFB26D"/>
</linearGradient>
<linearGradient id="paint23_linear" x1="33.8734" y1="73.2932" x2="35.1832" y2="78.915" gradientUnits="userSpaceOnUse">
<stop stop-color="#FFE2C8"/>
<stop offset="1" stop-color="#FFB26D"/>
</linearGradient>
<linearGradient id="paint24_linear" x1="41.3782" y1="80.1817" x2="42.7737" y2="83.0383" gradientUnits="userSpaceOnUse">
<stop stop-color="#22357D"/>
<stop offset="1" stop-color="#001461"/>
</linearGradient>
<linearGradient id="paint25_linear" x1="41.3682" y1="73.7065" x2="42.7604" y2="76.5604" gradientUnits="userSpaceOnUse">
<stop stop-color="#22357D"/>
<stop offset="1" stop-color="#001461"/>
</linearGradient>
<linearGradient id="paint26_linear" x1="35.3772" y1="83.01" x2="37.0209" y2="88.4393" gradientUnits="userSpaceOnUse">
<stop stop-color="#FFE2C8"/>
<stop offset="1" stop-color="#FFB26D"/>
</linearGradient>
<linearGradient id="paint27_linear" x1="40.4613" y1="83.4233" x2="41.8535" y2="86.2772" gradientUnits="userSpaceOnUse">
<stop stop-color="#22357D"/>
<stop offset="1" stop-color="#001461"/>
</linearGradient>
</defs>
</svg>
