<svg width="132" height="227" viewBox="0 0 132 227" fill="none" xmlns="http://www.w3.org/2000/svg">
<path d="M57.3201 118.843C57.7769 118.843 58.2337 118.843 58.6906 118.843C58.4238 119.84 57.917 120.473 57.5868 120.87C57.2601 121.27 57.1067 121.434 56.8432 121.48C56.5798 121.53 56.2097 121.467 56.0463 121.34C55.8862 121.217 55.9329 121.034 57.3201 118.843Z" fill="url(#paint0_linear)"/>
<path d="M75.0131 118.843C76.4002 121.034 76.4502 121.217 76.2868 121.34C76.1268 121.467 75.7533 121.53 75.4899 121.48C75.2298 121.434 75.0764 121.27 74.7463 120.87C74.4162 120.473 73.9093 119.84 73.6426 118.843C74.0994 118.843 74.5562 118.843 75.0131 118.843Z" fill="url(#paint1_linear)"/>
<path d="M51.8015 67.2976C51.9382 68.4813 51.7048 69.4617 51.1046 70.2386C48.6604 69.425 45.7094 68.1712 42.3082 65.8604V62.916C45.9061 65.667 48.7605 66.9541 51.8015 67.2976Z" fill="url(#paint2_linear)"/>
<path d="M69.4411 65.1965C69.6379 65.3299 69.8346 65.4566 70.0413 65.5733C68.3107 65.1765 66.4834 65.0565 64.6193 65.2566C63.9624 65.3266 63.3155 65.4333 62.6853 65.58C62.892 65.46 63.0921 65.3333 63.2889 65.1965C63.3355 65.1665 63.3822 65.1332 63.4289 65.0998C63.719 64.8898 63.9324 64.643 64.1058 64.3296C64.506 63.606 64.6794 62.8957 64.6794 62.0721C64.6794 61.9921 64.6794 61.9121 64.6794 61.832C64.6794 61.742 64.676 61.652 64.666 61.5586C65.2296 61.642 65.7964 61.6853 66.3666 61.6853C66.9335 61.6853 67.5004 61.642 68.0639 61.5586C68.0573 61.652 68.0539 61.742 68.0539 61.832C68.0539 61.9121 68.0539 61.9921 68.0539 62.0721C68.0539 62.8957 68.2273 63.606 68.6241 64.3296C68.7975 64.643 69.011 64.8898 69.3044 65.0998C69.3511 65.1332 69.3944 65.1665 69.4411 65.1965Z" fill="url(#paint3_linear)"/>
<path d="M62.0384 35.7692C60.968 37.5332 59.054 38.6102 56.9933 38.6069C56.0563 38.6069 55.1493 38.3801 54.3424 37.9667C55.5094 37.89 56.4131 36.923 56.4098 35.7559C56.4064 34.5888 55.4928 33.6218 54.3257 33.5484C56.9299 32.2313 60.3578 32.9716 62.0384 35.7692Z" fill="white"/>
<path d="M75.1464 35.7661C75.1464 34.599 74.2394 33.6286 73.0757 33.5553C73.8826 33.1418 74.7896 32.9184 75.7266 32.915C77.7907 32.9117 79.7047 33.9888 80.7717 35.7527C79.0878 38.5537 75.6532 39.294 73.0457 37.9668C74.2127 37.8968 75.1431 36.9365 75.1464 35.7661Z" fill="white"/>
<path d="M56.4099 35.7563C56.4132 36.9234 55.5095 37.8904 54.3424 37.9671C53.3688 37.4769 52.5385 36.7166 51.9583 35.7529C52.5618 34.7526 53.3921 34.0157 54.3258 33.5488C55.4929 33.6222 56.4065 34.5892 56.4099 35.7563Z" fill="url(#paint4_linear)"/>
<path d="M75.1465 35.7664C75.1431 36.9369 74.2128 37.8972 73.0458 37.9672H73.0424C72.1154 37.4971 71.2952 36.7635 70.6949 35.7698C71.2718 34.8061 72.1054 34.0458 73.0758 33.5557C74.2395 33.629 75.1465 34.5994 75.1465 35.7664Z" fill="url(#paint5_linear)"/>
<path d="M73.0757 33.5555C72.1054 34.0457 71.2717 34.806 70.6949 35.7696C71.2951 36.7633 72.1154 37.4969 73.0423 37.9671H73.0457C75.6533 39.2942 79.0878 38.554 80.7718 35.753C79.7047 33.989 77.7907 32.912 75.7266 32.9153C74.7896 32.9186 73.8827 33.142 73.0757 33.5555ZM81.8288 35.7496C80.6817 38.0638 78.3242 39.5276 75.74 39.5343C73.1557 39.5376 70.7916 38.0805 69.6378 35.773C70.7849 33.4588 73.1424 31.9916 75.7266 31.9883C78.3109 31.9816 80.6717 33.4388 81.8288 35.7496Z" fill="#231F20"/>
<path d="M54.3258 33.5489C53.3921 34.0157 52.5618 34.7526 51.9583 35.753C52.5385 36.7166 53.3688 37.4769 54.3424 37.9671C55.1494 38.3806 56.0564 38.6073 56.9934 38.6073C59.0541 38.6106 60.9681 37.5336 62.0385 35.7696C60.3579 32.972 56.93 32.2317 54.3258 33.5489ZM57.0034 31.9883C59.5876 31.9916 61.9451 33.4588 63.0955 35.773C61.9384 38.0805 59.5743 39.5376 56.99 39.5343C54.4091 39.5276 52.0483 38.0638 50.9012 35.7496C52.0583 33.4388 54.4225 31.9816 57.0034 31.9883Z" fill="#231F20"/>
<path d="M64.2192 34.4792C64.1859 34.3925 64.1492 34.3059 64.1092 34.2192C64.0458 34.0824 63.9725 33.9457 63.8924 33.8157C63.7824 33.6323 63.6624 33.4589 63.5356 33.2888C62.9388 32.4985 62.1752 31.8416 61.3149 31.3481C60.3145 30.7746 59.1908 30.4278 58.0404 30.3411C57.3868 30.2944 56.7299 30.3311 56.083 30.4412C55.3494 30.5679 54.6325 30.7913 53.9456 31.0847C53.132 31.4315 52.365 31.875 51.6381 32.3852C50.6078 33.1088 49.6441 33.9857 48.7771 34.8994C48.8371 34.2592 48.9138 33.6189 49.0172 32.9821C49.8875 32.1784 50.8212 31.4482 51.8349 30.8346C52.8686 30.2111 53.979 29.7142 55.1494 29.4241C56.1397 29.1774 57.1734 29.0773 58.1904 29.1607C59.0974 29.2307 59.9911 29.4475 60.8347 29.7909C61.605 30.1044 62.3286 30.5279 62.9821 31.0414C63.569 31.5049 64.1025 32.0417 64.5427 32.6453C64.7661 32.9454 64.9662 33.2655 65.1295 33.6023C65.2062 33.7523 65.2729 33.9057 65.3329 34.0658V34.0691C65.4463 34.3792 65.2896 34.716 64.9828 34.8327C64.6761 34.9461 64.3326 34.7894 64.2192 34.4792Z" fill="url(#paint6_linear)"/>
<path d="M83.7128 32.9853C83.5094 31.6681 83.2126 30.3643 82.8225 29.0806C82.2856 27.3066 81.4853 25.6093 80.4516 24.0721C79.3779 22.4816 78.0574 21.0577 76.5369 19.8873C75.0431 18.7402 73.3625 17.8399 71.5785 17.243C69.9012 16.6828 68.1339 16.3927 66.3667 16.3927C64.596 16.3927 62.8288 16.6828 61.1548 17.243C59.3675 17.8399 57.6869 18.7402 56.1964 19.8873C54.6759 21.0577 53.3521 22.4816 52.2817 24.0721C51.2447 25.6093 50.4444 27.3066 49.9075 29.0806C49.5174 30.3643 49.2206 31.6681 49.0172 32.9819C48.9138 33.6188 48.8371 34.2591 48.7771 34.8993C48.2536 40.7814 49.524 46.7668 52.5318 51.9353C53.2254 53.1191 53.999 54.2595 54.8626 55.3298C55.146 55.68 55.4395 56.0201 55.7429 56.3535C55.6262 58.7444 55.5128 61.1319 55.3961 63.5194C48.2169 57.4339 44.8291 48.7842 45.2292 37.5702C45.2559 37.02 45.2826 36.4698 45.3092 35.9196C45.3326 35.4495 45.3659 34.976 45.4093 34.5058C45.5593 32.8686 45.8361 31.2447 46.2329 29.6474C46.3296 29.2573 46.433 28.8672 46.5463 28.4803C46.6564 28.0969 46.7764 27.7167 46.9031 27.3366C47.1665 26.5697 47.4733 25.8161 47.8201 25.0791C48.1736 24.3255 48.5704 23.592 49.0072 22.885C49.454 22.1648 49.9409 21.4679 50.4677 20.8043C51.5381 19.4605 52.7652 18.2434 54.1257 17.1997C55.4762 16.1593 56.9533 15.2923 58.5172 14.6188C59.2842 14.2887 60.0678 14.0086 60.8647 13.7785C61.645 13.5517 62.4386 13.375 63.2422 13.2483C64.0192 13.1216 64.8061 13.0449 65.5931 13.0115C66.3667 12.9815 67.1436 12.9949 67.9139 13.0549C69.5244 13.1816 71.1217 13.5084 72.6522 14.0219C74.2528 14.5588 75.7866 15.299 77.2038 16.2127C77.5639 16.4428 77.9174 16.6862 78.2642 16.9396C78.6077 17.1964 78.9478 17.4598 79.2746 17.7365C79.6047 18.0133 79.9248 18.2967 80.2382 18.5935C80.5483 18.8903 80.8518 19.1937 81.1452 19.5072C81.4353 19.8206 81.7188 20.1407 81.9888 20.4708C82.2623 20.801 82.529 21.1377 82.7791 21.4812C83.2793 22.1614 83.7328 22.8717 84.1496 23.6053C84.5497 24.3155 84.9165 25.0458 85.2367 25.7961C85.5568 26.5463 85.8269 27.3166 86.0669 28.0969C86.5471 29.6541 86.8972 31.248 87.1273 32.8619C87.274 33.8756 87.3707 34.8959 87.4208 35.9196C87.4474 36.4698 87.4741 37.02 87.5008 37.5702C87.5208 38.1671 87.5341 38.754 87.5341 39.3375C87.5341 49.6979 84.1329 57.7574 77.3339 63.5194C77.2205 61.1319 77.1038 58.7444 76.9871 56.3535C77.2905 56.0234 77.5806 55.68 77.8641 55.3332C78.7277 54.2661 79.5013 53.1257 80.1949 51.9386C83.2059 46.7701 84.4764 40.7814 83.9495 34.8993C83.8929 34.2591 83.8162 33.6222 83.7128 32.9853Z" fill="url(#paint7_linear)"/>
<path d="M83.9495 34.8991C84.4764 40.7812 83.2059 46.77 80.1949 51.9385C79.5013 53.1256 78.7277 54.266 77.864 55.333C77.5806 55.6798 77.2905 56.0233 76.9871 56.3534C76.4535 56.9436 75.8867 57.5038 75.2831 58.0273C74.1894 58.981 72.9823 59.8079 71.6719 60.4348C70.8116 60.8483 69.9046 61.1751 68.9742 61.3885C68.6741 61.4585 68.3674 61.5152 68.0639 61.5586C67.5004 61.6419 66.9335 61.6853 66.3666 61.6853C65.7964 61.6853 65.2296 61.6419 64.6661 61.5586C64.3593 61.5119 64.0592 61.4552 63.7591 61.3885C62.8254 61.1717 61.9184 60.8483 61.0581 60.4348C59.7476 59.8079 58.5406 58.9776 57.4435 58.024C56.8433 57.5004 56.2764 56.9436 55.7429 56.3534C55.4395 56.0199 55.146 55.6798 54.8626 55.3297C53.999 54.2593 53.2253 53.1189 52.5318 51.9351C49.524 46.7667 48.2536 40.7812 48.7771 34.8991C49.6441 33.9855 50.6078 33.1085 51.6381 32.3849C52.365 31.8747 53.132 31.4312 53.9456 31.0844C54.6325 30.791 55.3494 30.5676 56.083 30.4409C56.7299 30.3308 57.3868 30.2942 58.0404 30.3408C59.1908 30.4275 60.3145 30.7743 61.3149 31.3479C62.1752 31.8414 62.9388 32.4983 63.5356 33.2886C63.6624 33.4586 63.7824 33.632 63.8924 33.8154C63.9725 33.9455 64.0458 34.0822 64.1092 34.2189C64.1492 34.3056 64.1859 34.3923 64.2192 34.479C64.3326 34.7891 64.6761 34.9458 64.9828 34.8324C65.2896 34.7157 65.4463 34.3789 65.333 34.0688V34.0655C65.2729 33.9054 65.2062 33.7521 65.1296 33.602C64.9662 33.2652 64.7661 32.9451 64.5427 32.645C64.1025 32.0414 63.569 31.5046 62.9821 31.0411C62.3286 30.5276 61.605 30.1041 60.8347 29.7907C59.9911 29.4472 59.0974 29.2305 58.1904 29.1604C57.1734 29.0771 56.1397 29.1771 55.1494 29.4239C53.979 29.714 52.8686 30.2108 51.8349 30.8344C50.8212 31.4479 49.8875 32.1782 49.0172 32.9818C49.2206 31.668 49.5174 30.3642 49.9075 29.0804C50.4444 27.3064 51.2447 25.6092 52.2817 24.072C53.3521 22.4814 54.6759 21.0576 56.1964 19.8871C57.6869 18.7401 59.3675 17.8398 61.1548 17.2429C62.8287 16.6827 64.596 16.3926 66.3666 16.3926C68.1339 16.3926 69.9012 16.6827 71.5785 17.2429C73.3624 17.8398 75.043 18.7401 76.5369 19.8871C78.0574 21.0576 79.3779 22.4814 80.4516 24.072C81.4853 25.6092 82.2856 27.3064 82.8225 29.0804C83.2126 30.3642 83.5094 31.668 83.7128 32.9851C83.2559 32.5583 82.7824 32.1582 82.2856 31.7814C81.632 31.2845 80.9485 30.8377 80.2249 30.4542C79.588 30.1141 78.9244 29.8273 78.2342 29.6073C77.6206 29.4138 76.9871 29.2705 76.3435 29.1938C75.2031 29.0604 74.0327 29.1404 72.9223 29.4405C71.9386 29.7073 70.9983 30.1508 70.158 30.7377C69.4144 31.2578 68.7475 31.8881 68.2073 32.6183C67.9839 32.9184 67.7838 33.2352 67.6171 33.5687C67.487 33.8287 67.377 34.1022 67.297 34.3823C67.207 34.6824 67.1503 34.9958 67.1169 35.3093C67.0736 35.6827 67.0669 36.0562 67.0736 36.4263C67.0836 36.8932 67.1169 37.3567 67.1636 37.8202C67.2203 38.4137 67.2903 39.0006 67.3703 39.5908C67.4737 40.3644 67.5837 41.1347 67.7038 41.9049C67.8505 42.8386 68.0039 43.7723 68.154 44.7026C68.204 45.006 68.2507 45.3095 68.2773 45.6162C68.2873 45.743 68.294 45.8697 68.2907 45.993C68.2873 46.0531 68.2807 46.1131 68.2673 46.1698C68.2573 46.2065 68.2473 46.2398 68.2306 46.2731C68.2173 46.2998 68.1973 46.3265 68.1773 46.3498C68.1473 46.3799 68.1139 46.4065 68.0772 46.4299C68.0139 46.4732 67.9472 46.5132 67.8805 46.5499C67.7738 46.6033 67.6571 46.6499 67.5437 46.6866C67.1936 46.8 66.8302 46.8367 66.4634 46.84C65.8631 46.8433 65.2663 46.7533 64.6794 46.6199C64.3593 46.5466 64.0392 46.75 63.9658 47.0701C63.8958 47.3902 64.0959 47.7103 64.416 47.7837C64.8661 47.8837 65.3196 47.9604 65.7764 48.0004C66.1399 48.0338 66.5067 48.0438 66.8735 48.0171C67.407 47.9737 67.9372 47.8537 68.414 47.6136C68.5808 47.5303 68.7442 47.4302 68.8876 47.3102C69.0143 47.2068 69.1243 47.0868 69.2143 46.9501C69.3077 46.81 69.3744 46.6533 69.4177 46.4899C69.4577 46.3298 69.4777 46.1664 69.4811 46.0031C69.4911 45.723 69.4644 45.4462 69.4277 45.1694C69.3577 44.6026 69.2577 44.039 69.1643 43.4755C69.0276 42.6719 68.9042 41.8649 68.7842 41.0546C68.6108 39.9076 68.4441 38.7572 68.3407 37.6001C68.294 37.0899 68.2606 36.5764 68.2673 36.0629C68.2673 35.7094 68.2907 35.356 68.3607 35.0125C68.4174 34.7391 68.5041 34.4723 68.6208 34.2189C68.6841 34.0822 68.7575 33.9455 68.8375 33.8154C68.9476 33.632 69.0676 33.4586 69.1943 33.2886C69.7945 32.4983 70.5581 31.8414 71.4151 31.3479C72.4154 30.7743 73.5425 30.4275 74.6896 30.3408C75.3431 30.2942 76.0034 30.3308 76.6469 30.4409C77.3839 30.5676 78.1008 30.791 78.7844 31.0844C79.598 31.4312 80.3683 31.8747 81.0918 32.3849C82.1322 33.1152 83.0792 33.9755 83.9495 34.8991ZM75.74 39.5341C78.3242 39.5274 80.6817 38.0636 81.8288 35.7494C80.6717 33.4386 78.3109 31.9814 75.7266 31.9881C73.1424 31.9914 70.7849 33.4586 69.6378 35.7728C70.7916 38.0802 73.1557 39.5374 75.74 39.5341ZM75.2998 51.4616C69.3444 51.4516 63.3889 51.4416 57.4335 51.4316C62.5386 57.5805 70.1713 57.5938 75.2998 51.4616ZM63.0955 35.7728C61.9451 33.4586 59.5876 31.9914 57.0034 31.9881C54.4224 31.9814 52.0583 33.4386 50.9012 35.7494C52.0483 38.0636 54.4091 39.5274 56.99 39.5341C59.5743 39.5374 61.9384 38.0802 63.0955 35.7728Z" fill="url(#paint8_linear)"/>
<path d="M83.7127 32.9855C83.8161 33.6224 83.8928 34.2593 83.9495 34.8995C83.0792 33.9758 82.1322 33.1155 81.0918 32.3853C80.3682 31.8751 79.598 31.4316 78.7843 31.0848C78.1008 30.7914 77.3838 30.568 76.6469 30.4413C76.0033 30.3312 75.3431 30.2945 74.6895 30.3412C73.5425 30.4279 72.4154 30.7747 71.415 31.3483C70.5581 31.8418 69.7945 32.4987 69.1943 33.2889C69.0676 33.459 68.9475 33.6324 68.8375 33.8158C68.7574 33.9458 68.6841 34.0826 68.6207 34.2193C68.504 34.4727 68.4173 34.7394 68.3606 35.0129C68.2906 35.3563 68.2673 35.7098 68.2673 36.0632C68.2606 36.5768 68.2939 37.0903 68.3406 37.6005C68.444 38.7575 68.6107 39.9079 68.7841 41.055C68.9041 41.8653 69.0275 42.6723 69.1642 43.4759C69.2576 44.0394 69.3577 44.6029 69.4277 45.1698C69.4644 45.4466 69.491 45.7233 69.481 46.0034C69.4777 46.1668 69.4577 46.3302 69.4177 46.4903C69.3743 46.6537 69.3076 46.8104 69.2143 46.9504C69.1242 47.0871 69.0142 47.2072 68.8875 47.3106C68.7441 47.4306 68.5807 47.5306 68.414 47.614C67.9371 47.8541 67.407 47.9741 66.8734 48.0175C66.5066 48.0441 66.1398 48.0341 65.7764 48.0008C65.3196 47.9608 64.8661 47.8841 64.4159 47.7841C64.0958 47.7107 63.8957 47.3906 63.9657 47.0705C64.0391 46.7504 64.3592 46.547 64.6793 46.6203C65.2662 46.7537 65.8631 46.8437 66.4633 46.8404C66.8301 46.8371 67.1936 46.8004 67.5437 46.687C67.657 46.6503 67.7738 46.6036 67.8805 46.5503C67.9472 46.5136 68.0138 46.4736 68.0772 46.4302C68.1139 46.4069 68.1472 46.3802 68.1772 46.3502C68.1972 46.3269 68.2172 46.3002 68.2306 46.2735C68.2473 46.2402 68.2573 46.2068 68.2673 46.1702C68.2806 46.1135 68.2873 46.0534 68.2906 45.9934C68.2939 45.8701 68.2873 45.7433 68.2773 45.6166C68.2506 45.3099 68.2039 45.0064 68.1539 44.703C68.0038 43.7726 67.8504 42.839 67.7037 41.9053C67.5837 41.135 67.4736 40.3648 67.3703 39.5912C67.2902 39.001 67.2202 38.4141 67.1635 37.8205C67.1169 37.357 67.0835 36.8935 67.0735 36.4267C67.0668 36.0566 67.0735 35.6831 67.1168 35.3096C67.1502 34.9962 67.2069 34.6828 67.2969 34.3827C67.377 34.1026 67.487 33.8291 67.617 33.569C67.7838 33.2356 67.9838 32.9188 68.2072 32.6187C68.7474 31.8884 69.4143 31.2582 70.1579 30.738C70.9982 30.1512 71.9386 29.7077 72.9223 29.4409C74.0326 29.1408 75.2031 29.0608 76.3435 29.1942C76.987 29.2708 77.6206 29.4142 78.2341 29.6076C78.9244 29.8277 79.588 30.1145 80.2249 30.4546C80.9484 30.8381 81.632 31.2849 82.2856 31.7817C82.7824 32.1585 83.2559 32.5587 83.7127 32.9855Z" fill="url(#paint9_linear)"/>
<path d="M77.8174 123.031C77.8341 123.614 77.3039 123.935 76.7804 123.875C76.2568 123.818 75.74 123.381 75.1231 122.791C74.5062 122.201 73.7926 121.457 73.5492 120.89C73.3091 120.32 73.5392 119.923 73.3291 118.843C73.4325 118.843 73.5392 118.843 73.6425 118.843C73.9093 119.84 74.4162 120.473 74.7463 120.87C75.0764 121.27 75.2298 121.434 75.4899 121.48C75.7533 121.53 76.1268 121.467 76.2868 121.34C76.4502 121.217 76.4002 121.034 75.0131 118.843C75.1131 118.843 75.2098 118.843 75.3098 118.843C77.2372 121.604 77.8007 122.447 77.8174 123.031Z" fill="url(#paint10_linear)"/>
<path d="M75.3099 118.843C75.2099 118.843 75.1132 118.843 75.0131 118.843C74.5563 118.843 74.0995 118.843 73.6426 118.843C73.5393 118.843 73.4326 118.843 73.3292 118.843C72.7456 115.241 72.0987 111.673 71.1184 108.152C70.6249 106.391 70.048 104.681 69.2944 103.014C68.5408 101.356 67.6772 99.7591 67.1036 98.0152C67.4371 98.0018 67.7739 97.9751 68.114 97.9385C70.5682 97.6784 72.8357 96.8881 74.8197 95.6943C75.2265 97.7884 75.1799 99.3723 75.0565 101.473C74.9431 103.407 74.7697 105.334 74.6764 107.268C74.493 111.166 74.6597 114.984 75.3099 118.843Z" fill="#FF6584"/>
<path d="M57.4336 51.4316C63.389 51.4416 69.3445 51.4516 75.2999 51.4616C70.1714 57.5938 62.5387 57.5805 57.4336 51.4316Z" fill="url(#paint11_linear)"/>
<path d="M65.2396 97.9953C64.6661 99.7393 63.8025 101.34 63.0489 102.997C62.2919 104.664 61.7117 106.378 61.2215 108.142C60.2379 111.667 59.591 115.238 59.0074 118.843C58.9007 118.843 58.7974 118.843 58.6907 118.843C58.2338 118.843 57.777 118.843 57.3202 118.843C57.2235 118.843 57.1234 118.843 57.0267 118.843C57.6836 114.945 57.8437 111.093 57.6536 107.155C57.5569 105.201 57.3802 103.254 57.2701 101.303C57.1501 99.1724 57.1234 97.5819 57.5469 95.4678C59.8144 96.9116 62.4453 97.8086 65.2396 97.9953Z" fill="#FF6584"/>
<path d="M58.6907 118.843C58.7974 118.843 58.9007 118.843 59.0074 118.843C58.7974 119.923 59.0274 120.32 58.7874 120.89C58.5439 121.457 57.8304 122.201 57.2135 122.791C56.5966 123.381 56.0764 123.818 55.5529 123.875C55.0294 123.935 54.5025 123.614 54.5192 123.031C54.5359 122.447 55.0961 121.604 57.0267 118.843C57.1234 118.843 57.2235 118.843 57.3202 118.843C55.933 121.034 55.8863 121.217 56.0464 121.34C56.2098 121.467 56.5799 121.53 56.8433 121.48C57.1068 121.434 57.2602 121.27 57.5869 120.87C57.9171 120.473 58.4239 119.84 58.6907 118.843Z" fill="url(#paint12_linear)"/>
<path d="M59.5109 66.6572C57.2701 67.6843 55.3161 69.1948 53.7689 71.0421C52.9619 70.8187 52.075 70.5653 51.1046 70.2385C51.7048 69.4615 51.9382 68.4812 51.8015 67.2975C54.1257 67.5609 56.5598 67.2708 59.5109 66.6572Z" fill="url(#paint13_linear)"/>
<path d="M11.584 77.9549H40.641C41.5613 77.9549 42.3082 77.208 42.3082 76.2877V50.0784C42.3082 49.1581 41.5613 48.4111 40.641 48.4111H11.584C10.6637 48.4111 9.91675 49.1581 9.91675 50.0784V76.2877C9.91675 77.208 10.6637 77.9549 11.584 77.9549Z" fill="#003CB0"/>
<path d="M13.3013 75.5704H38.9236C39.4772 75.5704 39.924 75.1235 39.924 74.57V51.7953C39.924 51.2417 39.4772 50.7949 38.9236 50.7949H13.3013C12.7477 50.7949 12.3009 51.2417 12.3009 51.7953V74.57C12.3009 75.1202 12.7511 75.5704 13.3013 75.5704Z" fill="white"/>
<path d="M25.361 69.5332H16.9274V67.707L20.8122 63.623C21.7695 62.5329 22.2482 61.6668 22.2482 61.0249C22.2482 60.5047 22.1348 60.109 21.9079 59.8379C21.681 59.5667 21.3517 59.4312 20.9201 59.4312C20.494 59.4312 20.1481 59.6138 19.8825 59.979C19.6169 60.3387 19.484 60.7897 19.484 61.332H16.6784C16.6784 60.5905 16.8638 59.9071 17.2345 59.2817C17.6053 58.6509 18.1199 58.1584 18.7785 57.8042C19.437 57.45 20.173 57.2729 20.9865 57.2729C22.2925 57.2729 23.2969 57.5745 23.9997 58.1777C24.708 58.7809 25.0622 59.647 25.0622 60.7759C25.0622 61.2518 24.9736 61.7166 24.7965 62.1704C24.6195 62.6187 24.3428 63.0918 23.9665 63.5898C23.5957 64.0824 22.9953 64.7437 22.1652 65.5737L20.6046 67.375H25.361V69.5332ZM33.529 57.2729V59.4727H33.4045C32.3586 59.4727 31.498 59.7244 30.8229 60.228C30.1533 60.7261 29.741 61.4206 29.5861 62.3115C30.217 61.6917 31.0138 61.3818 31.9767 61.3818C33.0226 61.3818 33.8555 61.7637 34.4753 62.5273C35.095 63.291 35.4049 64.2926 35.4049 65.5322C35.4049 66.3014 35.2223 67.007 34.8571 67.6489C34.4974 68.2909 33.991 68.7944 33.338 69.1597C32.6906 69.5194 31.9712 69.6992 31.1798 69.6992C30.3221 69.6992 29.5557 69.5055 28.8805 69.1182C28.2054 68.7253 27.6797 68.1663 27.3034 67.4414C26.9271 66.7165 26.7334 65.8809 26.7223 64.9346V63.814C26.7223 62.5688 26.9879 61.451 27.5192 60.4604C28.056 59.4644 28.8197 58.6841 29.8102 58.1196C30.8008 57.5552 31.8992 57.2729 33.1056 57.2729H33.529ZM31.0055 63.5234C30.6348 63.5234 30.3249 63.6092 30.0758 63.7808C29.8268 63.9523 29.6414 64.1626 29.5197 64.4116V65.25C29.5197 66.7773 30.0482 67.541 31.1051 67.541C31.5312 67.541 31.8854 67.3501 32.1676 66.9683C32.4554 66.5864 32.5993 66.1077 32.5993 65.5322C32.5993 64.9401 32.4526 64.4587 32.1593 64.0879C31.8716 63.7116 31.487 63.5234 31.0055 63.5234Z" fill="#003CB0"/>
<path d="M77.9848 93.2184C84.4033 86.7999 84.4033 76.3934 77.9848 69.9749C71.5663 63.5564 61.1598 63.5564 54.7413 69.9749C48.3227 76.3934 48.3227 86.7999 54.7413 93.2184C61.1598 99.637 71.5663 99.637 77.9848 93.2184Z" fill="#003CB0"/>
<path d="M76.3721 91.6057C81.8999 86.0779 81.8999 77.1155 76.3721 71.5877C70.8443 66.0599 61.8819 66.0599 56.3541 71.5877C50.8263 77.1155 50.8263 86.0779 56.3541 91.6057C61.8819 97.1335 70.8443 97.1335 76.3721 91.6057Z" fill="white"/>
<path d="M67.3104 80.7655C67.5204 81.0056 67.6238 81.3023 67.6238 81.5958C67.6238 81.9459 67.4804 82.2927 67.197 82.5394L61.3616 87.6746C60.8414 88.1347 60.0478 88.0847 59.5876 87.5645C59.1308 87.041 59.1808 86.2474 59.701 85.7906L65.1096 81.0289L65.5364 80.6521C66.0566 80.1953 66.8502 80.2453 67.3104 80.7655ZM67.1003 81.5958C67.1003 81.1923 66.7702 80.8622 66.3667 80.8622C65.9599 80.8622 65.6298 81.1923 65.6298 81.5958C65.6298 82.0026 65.9599 82.3327 66.3667 82.3327C66.7702 82.3327 67.1003 82.0026 67.1003 81.5958Z" fill="#003CB0"/>
<path d="M67.6238 71.1692V81.5963C67.6238 81.3028 67.5205 81.006 67.3104 80.766C66.8502 80.2458 66.0566 80.1958 65.5364 80.6526L65.1096 81.0294V71.1692C65.1096 70.4756 65.6698 69.9121 66.3667 69.9121C67.0603 69.9121 67.6238 70.4756 67.6238 71.1692Z" fill="#003CB0"/>
<path d="M86.9939 76.707C87.8909 76.707 88.6145 77.434 88.6145 78.3276C88.6145 79.2213 87.8909 79.9482 86.9939 79.9482C86.6638 79.9482 86.3304 79.9482 86.0002 79.9482C83.596 79.9482 81.1952 79.9482 78.7943 79.9482C78.5809 79.9482 78.3709 79.9482 78.1574 79.9482C77.3071 79.9482 76.8536 79.0679 76.8536 78.3276C76.8536 77.5907 77.3071 76.707 78.1574 76.707C78.3742 76.707 78.5909 76.707 78.8043 76.707C81.3252 76.707 83.8495 76.707 86.3704 76.707C86.5771 76.707 86.7872 76.707 86.9939 76.707ZM79.8047 78.3276C79.8047 77.7107 79.3045 77.2105 78.6876 77.2105C78.5109 77.2105 78.3342 77.2105 78.1574 77.2105C78.0641 77.2105 77.9707 77.2372 77.8874 77.2839C77.784 77.3339 77.6973 77.4106 77.6273 77.5006C77.5406 77.6074 77.4772 77.7374 77.4338 77.8708C77.3838 78.0175 77.3572 78.1742 77.3572 78.3276C77.3572 78.4843 77.3838 78.6377 77.4338 78.7844C77.4772 78.9212 77.5406 79.0479 77.6273 79.1579C77.6973 79.2446 77.784 79.3213 77.8874 79.3747C77.9707 79.418 78.0641 79.4447 78.1574 79.4447C78.3342 79.4447 78.5109 79.4447 78.6876 79.4447C79.3045 79.4447 79.8047 78.9445 79.8047 78.3276Z" fill="url(#paint14_linear)"/>
<path d="M86.3703 73.4697C87.2639 73.4697 87.9908 74.1933 87.9908 75.0903C87.9908 75.984 87.2639 76.7075 86.3703 76.7075C83.8494 76.7075 81.3252 76.7075 78.8043 76.7075C77.954 76.7075 77.5005 75.8272 77.5005 75.0903C77.5005 74.35 77.954 73.4697 78.8043 73.4697C81.3252 73.4697 83.8494 73.4697 86.3703 73.4697ZM80.4515 75.0903C80.4515 74.4734 79.9513 73.9732 79.3345 73.9732C79.1577 73.9732 78.981 73.9732 78.8043 73.9732C78.7109 73.9732 78.6176 73.9999 78.5342 74.0433C78.4308 74.0966 78.3441 74.1733 78.2741 74.26C78.1874 74.37 78.124 74.4968 78.0807 74.6301C78.0307 74.7802 78.004 74.9336 78.004 75.0903C78.004 75.2437 78.0307 75.4004 78.0807 75.5471C78.124 75.6805 78.1874 75.8106 78.2741 75.9173C78.3441 76.0073 78.4308 76.084 78.5342 76.134C78.6176 76.1774 78.7109 76.204 78.8043 76.204C78.981 76.204 79.1577 76.204 79.3345 76.204C79.9513 76.204 80.4515 75.7072 80.4515 75.0903Z" fill="url(#paint15_linear)"/>
<path d="M86.0003 79.9482C86.8939 79.9482 87.6175 80.6718 87.6175 81.5688C87.6175 82.4625 86.8939 83.186 86.0003 83.186C85.6202 83.186 85.24 83.186 84.8599 83.186C83.1426 83.186 81.4254 83.186 79.7114 83.186C79.4046 83.186 79.1012 83.186 78.7944 83.186C77.9441 83.186 77.4873 82.3057 77.4873 81.5688C77.4873 80.8286 77.9441 79.9482 78.7944 79.9482C81.1953 79.9482 83.5961 79.9482 86.0003 79.9482ZM80.4417 81.5688C80.4417 80.9519 79.9415 80.4518 79.3246 80.4518C79.1479 80.4518 78.9712 80.4518 78.7944 80.4518C78.6977 80.4518 78.6044 80.4784 78.521 80.5218C78.421 80.5751 78.3343 80.6518 78.2609 80.7385C78.1742 80.8486 78.1142 80.9753 78.0675 81.1087C78.0175 81.2587 77.9908 81.4121 77.9908 81.5688C77.9908 81.7222 78.0175 81.8789 78.0675 82.0256C78.1142 82.159 78.1742 82.2857 78.2609 82.3958C78.3343 82.4858 78.421 82.5625 78.521 82.6125C78.6044 82.6559 78.6977 82.6825 78.7944 82.6825C78.9712 82.6825 79.1479 82.6825 79.3246 82.6825C79.9415 82.6825 80.4417 82.1824 80.4417 81.5688Z" fill="url(#paint16_linear)"/>
<path d="M84.8599 83.1865C85.7536 83.1865 86.4805 83.9134 86.4805 84.8071C86.4805 85.7008 85.7536 86.4277 84.8599 86.4277C83.1426 86.4277 81.4287 86.4277 79.7114 86.4277C78.8611 86.4277 78.4043 85.5474 78.4043 84.8071C78.4043 84.0702 78.8611 83.1865 79.7114 83.1865C81.4254 83.1865 83.1426 83.1865 84.8599 83.1865ZM81.3587 84.8071C81.3587 84.1902 80.8585 83.69 80.2416 83.69C80.0649 83.69 79.8881 83.69 79.7114 83.69C79.6147 83.69 79.5213 83.7167 79.438 83.7601C79.338 83.8134 79.2513 83.8901 79.1779 83.9768C79.0912 84.0868 79.0312 84.2169 78.9845 84.3503C78.9378 84.497 78.9078 84.6537 78.9078 84.8071C78.9078 84.9638 78.9378 85.1172 78.9845 85.2639C79.0312 85.3973 79.0912 85.5274 79.1779 85.6374C79.2513 85.7241 79.338 85.8008 79.438 85.8541C79.5213 85.8975 79.6147 85.9242 79.7114 85.9242C79.8881 85.9242 80.0649 85.9242 80.2416 85.9242C80.8585 85.9242 81.3587 85.424 81.3587 84.8071Z" fill="url(#paint17_linear)"/>
<path d="M80.2415 83.6895C80.8584 83.6895 81.3586 84.1896 81.3586 84.8065C81.3586 85.4234 80.8584 85.9236 80.2415 85.9236C80.0648 85.9236 79.8881 85.9236 79.7113 85.9236C79.6146 85.9236 79.5213 85.8969 79.4379 85.8536C79.3379 85.8002 79.2512 85.7235 79.1778 85.6368C79.0911 85.5268 79.0311 85.3967 78.9844 85.2633C78.9377 85.1166 78.9077 84.9632 78.9077 84.8065C78.9077 84.6531 78.9377 84.4964 78.9844 84.3497C79.0311 84.2163 79.0911 84.0863 79.1778 83.9762C79.2512 83.8895 79.3379 83.8128 79.4379 83.7595C79.5213 83.7161 79.6146 83.6895 79.7113 83.6895C79.8881 83.6895 80.0648 83.6895 80.2415 83.6895Z" fill="url(#paint18_linear)"/>
<path d="M79.3345 73.9727C79.9514 73.9727 80.4516 74.4728 80.4516 75.0897C80.4516 75.7066 79.9514 76.2035 79.3345 76.2035C79.1578 76.2035 78.9811 76.2035 78.8043 76.2035C78.711 76.2035 78.6176 76.1768 78.5342 76.1334C78.4309 76.0834 78.3442 76.0067 78.2741 75.9167C78.1874 75.81 78.1241 75.6799 78.0807 75.5466C78.0307 75.3998 78.004 75.2431 78.004 75.0897C78.004 74.933 78.0307 74.7796 78.0807 74.6296C78.1241 74.4962 78.1874 74.3695 78.2741 74.2594C78.3442 74.1727 78.4309 74.096 78.5342 74.0427C78.6176 73.9993 78.711 73.9727 78.8043 73.9727C78.9811 73.9727 79.1578 73.9727 79.3345 73.9727Z" fill="url(#paint19_linear)"/>
<path d="M79.3245 80.4521C79.9414 80.4521 80.4416 80.9523 80.4416 81.5692C80.4416 82.1828 79.9414 82.6829 79.3245 82.6829C79.1478 82.6829 78.9711 82.6829 78.7943 82.6829C78.6976 82.6829 78.6043 82.6563 78.5209 82.6129C78.4209 82.5629 78.3342 82.4862 78.2608 82.3962C78.1741 82.2861 78.1141 82.1594 78.0674 82.026C78.0174 81.8793 77.9907 81.7226 77.9907 81.5692C77.9907 81.4125 78.0174 81.2591 78.0674 81.109C78.1141 80.9757 78.1741 80.849 78.2608 80.7389C78.3342 80.6522 78.4209 80.5755 78.5209 80.5222C78.6043 80.4788 78.6976 80.4521 78.7943 80.4521C78.9711 80.4521 79.1478 80.4521 79.3245 80.4521Z" fill="url(#paint20_linear)"/>
<path d="M78.6877 77.2109C79.3046 77.2109 79.8048 77.7111 79.8048 78.328C79.8048 78.9449 79.3046 79.4451 78.6877 79.4451C78.511 79.4451 78.3343 79.4451 78.1576 79.4451C78.0642 79.4451 77.9708 79.4184 77.8875 79.375C77.7841 79.3217 77.6974 79.245 77.6274 79.1583C77.5407 79.0483 77.4773 78.9215 77.434 78.7848C77.384 78.6381 77.3573 78.4847 77.3573 78.328C77.3573 78.1746 77.384 78.0179 77.434 77.8712C77.4773 77.7378 77.5407 77.6077 77.6274 77.501C77.6974 77.411 77.7841 77.3343 77.8875 77.2843C77.9708 77.2376 78.0642 77.2109 78.1576 77.2109C78.3343 77.2109 78.511 77.2109 78.6877 77.2109Z" fill="url(#paint21_linear)"/>
<path d="M34.7321 45.8195C34.7321 46.6831 34.7321 47.5468 34.7321 48.4104C34.0185 48.4104 33.3049 48.4104 32.5913 48.4104C32.5913 47.0299 32.5913 45.6494 32.5913 44.2656C32.788 44.2656 32.9848 44.2656 33.1782 44.2656C34.0385 44.2656 34.7321 44.9625 34.7321 45.8195Z" fill="url(#paint22_linear)"/>
<path d="M32.5913 48.411C32.5913 49.2347 32.5913 50.0549 32.5913 50.8786C32.5913 51.7289 31.711 52.1857 30.9708 52.1857C30.2339 52.1857 29.3502 51.7289 29.3502 50.8786C29.3502 48.3577 29.3502 45.8368 29.3502 43.3126C29.3502 42.4189 30.0771 41.6953 30.9708 41.6953C31.8644 41.6953 32.5913 42.4189 32.5913 43.3126C32.5913 43.6293 32.5913 43.9494 32.5913 44.2662C32.5913 45.65 32.5913 47.0305 32.5913 48.411ZM32.0878 50.8786C32.0878 50.7018 32.0878 50.5251 32.0878 50.3484C32.0878 49.7315 31.5877 49.2313 30.9708 49.2313C30.3539 49.2313 29.8537 49.7315 29.8537 50.3484C29.8537 50.5251 29.8537 50.7018 29.8537 50.8786C29.8537 50.9753 29.8804 51.0686 29.9237 51.152C29.9771 51.252 30.0538 51.3387 30.1405 51.4121C30.2505 51.4988 30.3806 51.5588 30.514 51.6055C30.6607 51.6555 30.8174 51.6822 30.9708 51.6822C31.1275 51.6822 31.2809 51.6555 31.4276 51.6055C31.5643 51.5588 31.691 51.4988 31.8011 51.4121C31.8878 51.3387 31.9645 51.252 32.0178 51.152C32.0612 51.0686 32.0878 50.9753 32.0878 50.8786Z" fill="url(#paint23_linear)"/>
<path d="M32.0879 50.3485C32.0879 50.5252 32.0879 50.702 32.0879 50.8787C32.0879 50.9754 32.0612 51.0688 32.0179 51.1521C31.9645 51.2522 31.8878 51.3389 31.8011 51.4122C31.6911 51.4989 31.5644 51.5589 31.4277 51.6056C31.2809 51.6556 31.1276 51.6823 30.9708 51.6823C30.8174 51.6823 30.6607 51.6556 30.514 51.6056C30.3806 51.5589 30.2506 51.4989 30.1405 51.4122C30.0538 51.3389 29.9771 51.2522 29.9238 51.1521C29.8804 51.0688 29.8538 50.9754 29.8538 50.8787C29.8538 50.702 29.8538 50.5252 29.8538 50.3485C29.8538 49.7316 30.3539 49.2314 30.9708 49.2314C31.5877 49.2314 32.0879 49.7316 32.0879 50.3485Z" fill="url(#paint24_linear)"/>
<path d="M29.3502 50.8785C29.3502 51.0952 29.3502 51.312 29.3502 51.5254C29.3502 52.3757 28.4699 52.8325 27.733 52.8325C26.9927 52.8325 26.1124 52.3757 26.1124 51.5254C26.1124 51.3153 26.1124 51.1019 26.1124 50.8918C26.1124 48.491 26.1124 46.0901 26.1124 43.6859C26.1124 43.3525 26.1124 43.0224 26.1124 42.6889C26.1124 41.7953 26.836 41.0684 27.733 41.0684C28.6266 41.0684 29.3502 41.7953 29.3502 42.6889C29.3502 42.899 29.3502 43.1057 29.3502 43.3125C29.3502 45.8367 29.3502 48.3576 29.3502 50.8785ZM28.8467 51.5254C28.8467 51.3487 28.8467 51.1719 28.8467 50.9952C28.8467 50.3783 28.3498 49.8781 27.733 49.8781C27.1161 49.8781 26.6159 50.3783 26.6159 50.9952C26.6159 51.1719 26.6159 51.3487 26.6159 51.5254C26.6159 51.6221 26.6426 51.7155 26.6859 51.7988C26.7393 51.8989 26.816 51.9856 26.9027 52.0589C27.0127 52.1456 27.1394 52.2056 27.2728 52.2523C27.4229 52.3023 27.5762 52.329 27.733 52.329C27.8863 52.329 28.0431 52.3023 28.1898 52.2523C28.3232 52.2056 28.4499 52.1456 28.5599 52.0589C28.6499 51.9856 28.7266 51.8989 28.7766 51.7988C28.82 51.7155 28.8467 51.6221 28.8467 51.5254Z" fill="url(#paint25_linear)"/>
<path d="M28.8468 50.995C28.8468 51.1717 28.8468 51.3485 28.8468 51.5252C28.8468 51.6219 28.8201 51.7152 28.7767 51.7986C28.7267 51.8986 28.65 51.9853 28.56 52.0587C28.45 52.1454 28.3232 52.2054 28.1898 52.2521C28.0431 52.3021 27.8864 52.3288 27.733 52.3288C27.5763 52.3288 27.4229 52.3021 27.2729 52.2521C27.1395 52.2054 27.0128 52.1454 26.9027 52.0587C26.816 51.9853 26.7393 51.8986 26.686 51.7986C26.6426 51.7152 26.616 51.6219 26.616 51.5252C26.616 51.3485 26.616 51.1717 26.616 50.995C26.616 50.3781 27.1161 49.8779 27.733 49.8779C28.3499 49.8779 28.8468 50.3781 28.8468 50.995Z" fill="url(#paint26_linear)"/>
<path d="M26.1125 43.686C26.1125 46.0902 26.1125 48.491 26.1125 50.8919C26.1125 51.7422 25.2322 52.1957 24.4919 52.1957C23.755 52.1957 22.8713 51.7422 22.8713 50.8919C22.8713 50.5851 22.8713 50.2817 22.8713 49.9749C22.8713 48.2543 22.8713 46.5403 22.8713 44.8231C22.8713 44.4429 22.8713 44.0661 22.8713 43.686C22.8713 42.7924 23.5983 42.0654 24.4919 42.0654C25.3856 42.0654 26.1125 42.7924 26.1125 43.686ZM25.609 50.8919C25.609 50.7152 25.609 50.5384 25.609 50.3617C25.609 49.7448 25.1088 49.2446 24.4919 49.2446C23.875 49.2446 23.3748 49.7448 23.3748 50.3617C23.3748 50.5384 23.3748 50.7152 23.3748 50.8919C23.3748 50.9853 23.4015 51.0786 23.4482 51.162C23.4982 51.2654 23.5749 51.3521 23.6649 51.4221C23.7717 51.5088 23.9017 51.5721 24.0351 51.6155C24.1818 51.6655 24.3385 51.6922 24.4919 51.6922C24.6487 51.6922 24.802 51.6655 24.9521 51.6155C25.0855 51.5721 25.2122 51.5088 25.3222 51.4221C25.4089 51.3521 25.4856 51.2654 25.539 51.162C25.5823 51.0786 25.609 50.9853 25.609 50.8919Z" fill="url(#paint27_linear)"/>
<path d="M25.6089 50.3612C25.6089 50.5379 25.6089 50.7147 25.6089 50.8914C25.6089 50.9848 25.5822 51.0781 25.5389 51.1615C25.4855 51.2649 25.4088 51.3516 25.3221 51.4216C25.2121 51.5083 25.0854 51.5716 24.952 51.615C24.8019 51.665 24.6486 51.6917 24.4918 51.6917C24.3384 51.6917 24.1817 51.665 24.035 51.615C23.9016 51.5716 23.7716 51.5083 23.6649 51.4216C23.5748 51.3516 23.4981 51.2649 23.4481 51.1615C23.4014 51.0781 23.3748 50.9848 23.3748 50.8914C23.3748 50.7147 23.3748 50.5379 23.3748 50.3612C23.3748 49.7443 23.8749 49.2441 24.4918 49.2441C25.1087 49.2441 25.6089 49.7443 25.6089 50.3612Z" fill="url(#paint28_linear)"/>
<path d="M22.8712 44.8233C22.8712 46.5406 22.8712 48.2545 22.8712 49.9751C22.8712 50.8254 21.9909 51.2789 21.254 51.2789C20.5137 51.2789 19.6334 50.8254 19.6334 49.9751C19.6334 48.2578 19.6334 46.5406 19.6334 44.8233C19.6334 43.9296 20.357 43.2061 21.254 43.2061C22.1476 43.2061 22.8712 43.9296 22.8712 44.8233ZM22.3677 49.9751C22.3677 49.7984 22.3677 49.6217 22.3677 49.4449C22.3677 48.828 21.8709 48.3279 21.254 48.3279C20.6371 48.3279 20.1369 48.828 20.1369 49.4449C20.1369 49.6217 20.1369 49.7984 20.1369 49.9751C20.1369 50.0685 20.1636 50.1619 20.2069 50.2452C20.2603 50.3453 20.337 50.4353 20.4237 50.5053C20.5337 50.592 20.6604 50.6554 20.7938 50.6987C20.9439 50.7487 21.0973 50.7754 21.254 50.7754C21.4074 50.7754 21.5641 50.7487 21.7108 50.6987C21.8442 50.6554 21.9742 50.592 22.0809 50.5053C22.171 50.4353 22.2477 50.3453 22.2977 50.2452C22.341 50.1619 22.3677 50.0685 22.3677 49.9751Z" fill="url(#paint29_linear)"/>
<path d="M22.3678 49.4442C22.3678 49.6209 22.3678 49.7977 22.3678 49.9744C22.3678 50.0678 22.3411 50.1611 22.2977 50.2445C22.2477 50.3445 22.171 50.4346 22.081 50.5046C21.9743 50.5913 21.8442 50.6546 21.7108 50.698C21.5641 50.748 21.4074 50.7747 21.254 50.7747C21.0973 50.7747 20.9439 50.748 20.7939 50.698C20.6605 50.6546 20.5338 50.5913 20.4237 50.5046C20.337 50.4346 20.2603 50.3445 20.207 50.2445C20.1636 50.1611 20.137 50.0678 20.137 49.9744C20.137 49.7977 20.137 49.6209 20.137 49.4442C20.137 48.8273 20.6371 48.3271 21.254 48.3271C21.8709 48.3271 22.3678 48.8273 22.3678 49.4442Z" fill="url(#paint30_linear)"/>
<path d="M29.4844 202.773V207H27.5078V195.625H31.8594C33.1302 195.625 34.138 195.956 34.8828 196.617C35.6328 197.279 36.0078 198.154 36.0078 199.242C36.0078 200.357 35.6406 201.224 34.9062 201.844C34.1771 202.464 33.1536 202.773 31.8359 202.773H29.4844ZM29.4844 201.188H31.8594C32.5625 201.188 33.099 201.023 33.4688 200.695C33.8385 200.362 34.0234 199.883 34.0234 199.258C34.0234 198.643 33.8359 198.154 33.4609 197.789C33.0859 197.419 32.5703 197.229 31.9141 197.219H29.4844V201.188ZM39.5781 207H37.6797V198.547H39.5781V207ZM37.5625 196.352C37.5625 196.06 37.6536 195.818 37.8359 195.625C38.0234 195.432 38.2891 195.336 38.6328 195.336C38.9766 195.336 39.2422 195.432 39.4297 195.625C39.6172 195.818 39.7109 196.06 39.7109 196.352C39.7109 196.638 39.6172 196.878 39.4297 197.07C39.2422 197.258 38.9766 197.352 38.6328 197.352C38.2891 197.352 38.0234 197.258 37.8359 197.07C37.6536 196.878 37.5625 196.638 37.5625 196.352ZM45.125 205.641C45.599 205.641 45.9922 205.503 46.3047 205.227C46.6172 204.951 46.7839 204.609 46.8047 204.203H48.5938C48.5729 204.729 48.4089 205.221 48.1016 205.68C47.7943 206.133 47.3776 206.492 46.8516 206.758C46.3255 207.023 45.7578 207.156 45.1484 207.156C43.9661 207.156 43.0286 206.773 42.3359 206.008C41.6432 205.242 41.2969 204.185 41.2969 202.836V202.641C41.2969 201.354 41.6406 200.326 42.3281 199.555C43.0156 198.779 43.9531 198.391 45.1406 198.391C46.1458 198.391 46.9635 198.685 47.5938 199.273C48.2292 199.857 48.5625 200.625 48.5938 201.578H46.8047C46.7839 201.094 46.6172 200.695 46.3047 200.383C45.9974 200.07 45.6042 199.914 45.125 199.914C44.5104 199.914 44.0365 200.138 43.7031 200.586C43.3698 201.029 43.2005 201.703 43.1953 202.609V202.914C43.1953 203.831 43.3594 204.516 43.6875 204.969C44.0208 205.417 44.5 205.641 45.125 205.641ZM52.7734 203.375L51.9297 204.242V207H50.0312V195H51.9297V201.922L52.5234 201.18L54.8594 198.547H57.1406L54 202.07L57.4766 207H55.2812L52.7734 203.375ZM67.4219 207C67.3385 206.839 67.2656 206.576 67.2031 206.211C66.599 206.841 65.8594 207.156 64.9844 207.156C64.1354 207.156 63.4427 206.914 62.9062 206.43C62.3698 205.945 62.1016 205.346 62.1016 204.633C62.1016 203.732 62.4349 203.042 63.1016 202.562C63.7734 202.078 64.7318 201.836 65.9766 201.836H67.1406V201.281C67.1406 200.844 67.0182 200.495 66.7734 200.234C66.5286 199.969 66.1562 199.836 65.6562 199.836C65.224 199.836 64.8698 199.945 64.5938 200.164C64.3177 200.378 64.1797 200.651 64.1797 200.984H62.2812C62.2812 200.521 62.4349 200.089 62.7422 199.688C63.0495 199.281 63.4661 198.964 63.9922 198.734C64.5234 198.505 65.1146 198.391 65.7656 198.391C66.7552 198.391 67.5443 198.641 68.1328 199.141C68.7214 199.635 69.0234 200.333 69.0391 201.234V205.047C69.0391 205.807 69.1458 206.414 69.3594 206.867V207H67.4219ZM65.3359 205.633C65.7109 205.633 66.0625 205.542 66.3906 205.359C66.724 205.177 66.974 204.932 67.1406 204.625V203.031H66.1172C65.4141 203.031 64.8854 203.154 64.5312 203.398C64.1771 203.643 64 203.99 64 204.438C64 204.802 64.1198 205.094 64.3594 205.312C64.6042 205.526 64.9297 205.633 65.3359 205.633ZM74.6562 202.711C74.6562 201.409 74.9583 200.365 75.5625 199.578C76.1667 198.786 76.9766 198.391 77.9922 198.391C78.888 198.391 79.612 198.703 80.1641 199.328V195H82.0625V207H80.3438L80.25 206.125C79.6823 206.812 78.9245 207.156 77.9766 207.156C76.987 207.156 76.1849 206.758 75.5703 205.961C74.9609 205.164 74.6562 204.081 74.6562 202.711ZM76.5547 202.875C76.5547 203.734 76.7188 204.406 77.0469 204.891C77.3802 205.37 77.8516 205.609 78.4609 205.609C79.237 205.609 79.8047 205.263 80.1641 204.57V200.961C79.8151 200.284 79.2526 199.945 78.4766 199.945C77.862 199.945 77.388 200.19 77.0547 200.68C76.7214 201.164 76.5547 201.896 76.5547 202.875ZM89.0938 207C89.0104 206.839 88.9375 206.576 88.875 206.211C88.2708 206.841 87.5312 207.156 86.6562 207.156C85.8073 207.156 85.1146 206.914 84.5781 206.43C84.0417 205.945 83.7734 205.346 83.7734 204.633C83.7734 203.732 84.1068 203.042 84.7734 202.562C85.4453 202.078 86.4036 201.836 87.6484 201.836H88.8125V201.281C88.8125 200.844 88.6901 200.495 88.4453 200.234C88.2005 199.969 87.8281 199.836 87.3281 199.836C86.8958 199.836 86.5417 199.945 86.2656 200.164C85.9896 200.378 85.8516 200.651 85.8516 200.984H83.9531C83.9531 200.521 84.1068 200.089 84.4141 199.688C84.7214 199.281 85.138 198.964 85.6641 198.734C86.1953 198.505 86.7865 198.391 87.4375 198.391C88.4271 198.391 89.2161 198.641 89.8047 199.141C90.3932 199.635 90.6953 200.333 90.7109 201.234V205.047C90.7109 205.807 90.8177 206.414 91.0312 206.867V207H89.0938ZM87.0078 205.633C87.3828 205.633 87.7344 205.542 88.0625 205.359C88.3958 205.177 88.6458 204.932 88.8125 204.625V203.031H87.7891C87.0859 203.031 86.5573 203.154 86.2031 203.398C85.849 203.643 85.6719 203.99 85.6719 204.438C85.6719 204.802 85.7917 205.094 86.0312 205.312C86.276 205.526 86.6016 205.633 87.0078 205.633ZM95.0781 196.492V198.547H96.5703V199.953H95.0781V204.672C95.0781 204.995 95.1406 205.229 95.2656 205.375C95.3958 205.516 95.625 205.586 95.9531 205.586C96.1719 205.586 96.3932 205.56 96.6172 205.508V206.977C96.1849 207.096 95.7682 207.156 95.3672 207.156C93.9089 207.156 93.1797 206.352 93.1797 204.742V199.953H91.7891V198.547H93.1797V196.492H95.0781ZM101.75 207.156C100.547 207.156 99.5703 206.779 98.8203 206.023C98.0755 205.263 97.7031 204.253 97.7031 202.992V202.758C97.7031 201.914 97.8646 201.161 98.1875 200.5C98.5156 199.833 98.974 199.315 99.5625 198.945C100.151 198.576 100.807 198.391 101.531 198.391C102.682 198.391 103.57 198.758 104.195 199.492C104.826 200.227 105.141 201.266 105.141 202.609V203.375H99.6172C99.6745 204.073 99.9062 204.625 100.312 205.031C100.724 205.438 101.24 205.641 101.859 205.641C102.729 205.641 103.438 205.289 103.984 204.586L105.008 205.562C104.669 206.068 104.216 206.461 103.648 206.742C103.086 207.018 102.453 207.156 101.75 207.156ZM101.523 199.914C101.003 199.914 100.581 200.096 100.258 200.461C99.9401 200.826 99.737 201.333 99.6484 201.984H103.266V201.844C103.224 201.208 103.055 200.729 102.758 200.406C102.461 200.078 102.049 199.914 101.523 199.914ZM40.7656 226C40.6823 225.839 40.6094 225.576 40.5469 225.211C39.9427 225.841 39.2031 226.156 38.3281 226.156C37.4792 226.156 36.7865 225.914 36.25 225.43C35.7135 224.945 35.4453 224.346 35.4453 223.633C35.4453 222.732 35.7786 222.042 36.4453 221.562C37.1172 221.078 38.0755 220.836 39.3203 220.836H40.4844V220.281C40.4844 219.844 40.362 219.495 40.1172 219.234C39.8724 218.969 39.5 218.836 39 218.836C38.5677 218.836 38.2135 218.945 37.9375 219.164C37.6615 219.378 37.5234 219.651 37.5234 219.984H35.625C35.625 219.521 35.7786 219.089 36.0859 218.688C36.3932 218.281 36.8099 217.964 37.3359 217.734C37.8672 217.505 38.4583 217.391 39.1094 217.391C40.099 217.391 40.888 217.641 41.4766 218.141C42.0651 218.635 42.3672 219.333 42.3828 220.234V224.047C42.3828 224.807 42.4896 225.414 42.7031 225.867V226H40.7656ZM38.6797 224.633C39.0547 224.633 39.4062 224.542 39.7344 224.359C40.0677 224.177 40.3177 223.932 40.4844 223.625V222.031H39.4609C38.7578 222.031 38.2292 222.154 37.875 222.398C37.5208 222.643 37.3438 222.99 37.3438 223.438C37.3438 223.802 37.4635 224.094 37.7031 224.312C37.9479 224.526 38.2734 224.633 38.6797 224.633ZM46.1328 217.547L46.1875 218.523C46.8125 217.768 47.6328 217.391 48.6484 217.391C50.4089 217.391 51.3047 218.398 51.3359 220.414V226H49.4375V220.523C49.4375 219.987 49.3203 219.591 49.0859 219.336C48.8568 219.076 48.4792 218.945 47.9531 218.945C47.1875 218.945 46.6172 219.292 46.2422 219.984V226H44.3438V217.547H46.1328ZM52.9219 221.711C52.9219 220.409 53.224 219.365 53.8281 218.578C54.4323 217.786 55.2422 217.391 56.2578 217.391C57.1536 217.391 57.8776 217.703 58.4297 218.328V214H60.3281V226H58.6094L58.5156 225.125C57.9479 225.812 57.1901 226.156 56.2422 226.156C55.2526 226.156 54.4505 225.758 53.8359 224.961C53.2266 224.164 52.9219 223.081 52.9219 221.711ZM54.8203 221.875C54.8203 222.734 54.9844 223.406 55.3125 223.891C55.6458 224.37 56.1172 224.609 56.7266 224.609C57.5026 224.609 58.0703 224.263 58.4297 223.57V219.961C58.0807 219.284 57.5182 218.945 56.7422 218.945C56.1276 218.945 55.6536 219.19 55.3203 219.68C54.987 220.164 54.8203 220.896 54.8203 221.875ZM68.6719 215.492V217.547H70.1641V218.953H68.6719V223.672C68.6719 223.995 68.7344 224.229 68.8594 224.375C68.9896 224.516 69.2188 224.586 69.5469 224.586C69.7656 224.586 69.987 224.56 70.2109 224.508V225.977C69.7786 226.096 69.362 226.156 68.9609 226.156C67.5026 226.156 66.7734 225.352 66.7734 223.742V218.953H65.3828V217.547H66.7734V215.492H68.6719ZM73.6406 226H71.7422V217.547H73.6406V226ZM71.625 215.352C71.625 215.06 71.7161 214.818 71.8984 214.625C72.0859 214.432 72.3516 214.336 72.6953 214.336C73.0391 214.336 73.3047 214.432 73.4922 214.625C73.6797 214.818 73.7734 215.06 73.7734 215.352C73.7734 215.638 73.6797 215.878 73.4922 216.07C73.3047 216.258 73.0391 216.352 72.6953 216.352C72.3516 216.352 72.0859 216.258 71.8984 216.07C71.7161 215.878 71.625 215.638 71.625 215.352ZM77.5 217.547L77.5547 218.43C78.1484 217.737 78.9609 217.391 79.9922 217.391C81.1224 217.391 81.8958 217.823 82.3125 218.688C82.9271 217.823 83.7917 217.391 84.9062 217.391C85.8385 217.391 86.5312 217.648 86.9844 218.164C87.4427 218.68 87.6771 219.44 87.6875 220.445V226H85.7891V220.5C85.7891 219.964 85.6719 219.57 85.4375 219.32C85.2031 219.07 84.8151 218.945 84.2734 218.945C83.8411 218.945 83.487 219.062 83.2109 219.297C82.9401 219.526 82.75 219.828 82.6406 220.203L82.6484 226H80.75V220.438C80.724 219.443 80.2161 218.945 79.2266 218.945C78.4661 218.945 77.9271 219.255 77.6094 219.875V226H75.7109V217.547H77.5ZM93.3594 226.156C92.1562 226.156 91.1797 225.779 90.4297 225.023C89.6849 224.263 89.3125 223.253 89.3125 221.992V221.758C89.3125 220.914 89.474 220.161 89.7969 219.5C90.125 218.833 90.5833 218.315 91.1719 217.945C91.7604 217.576 92.4167 217.391 93.1406 217.391C94.2917 217.391 95.1797 217.758 95.8047 218.492C96.4349 219.227 96.75 220.266 96.75 221.609V222.375H91.2266C91.2839 223.073 91.5156 223.625 91.9219 224.031C92.3333 224.438 92.849 224.641 93.4688 224.641C94.3385 224.641 95.0469 224.289 95.5938 223.586L96.6172 224.562C96.2786 225.068 95.8255 225.461 95.2578 225.742C94.6953 226.018 94.0625 226.156 93.3594 226.156ZM93.1328 218.914C92.612 218.914 92.1901 219.096 91.8672 219.461C91.5495 219.826 91.3464 220.333 91.2578 220.984H94.875V220.844C94.8333 220.208 94.6641 219.729 94.3672 219.406C94.0703 219.078 93.6589 218.914 93.1328 218.914Z" fill="#003CB0"/>
<circle cx="66" cy="167" r="15" fill="#003CB0"/>
<path d="M64.4688 165.211H65.7109C66.6953 165.211 67.1875 164.729 67.1875 163.766C67.1875 163.391 67.0703 163.086 66.8359 162.852C66.6016 162.612 66.2708 162.492 65.8438 162.492C65.4948 162.492 65.1901 162.594 64.9297 162.797C64.6745 163 64.5469 163.253 64.5469 163.555H61.9141C61.9141 162.956 62.0807 162.422 62.4141 161.953C62.7474 161.484 63.2083 161.12 63.7969 160.859C64.3906 160.594 65.0417 160.461 65.75 160.461C67.0156 160.461 68.0104 160.75 68.7344 161.328C69.4583 161.906 69.8203 162.701 69.8203 163.711C69.8203 164.201 69.6693 164.664 69.3672 165.102C69.0703 165.534 68.6354 165.885 68.0625 166.156C68.6667 166.375 69.1406 166.708 69.4844 167.156C69.8281 167.599 70 168.148 70 168.805C70 169.82 69.6094 170.633 68.8281 171.242C68.0469 171.852 67.0208 172.156 65.75 172.156C65.0052 172.156 64.3125 172.016 63.6719 171.734C63.0365 171.448 62.5547 171.055 62.2266 170.555C61.8984 170.049 61.7344 169.477 61.7344 168.836H64.3828C64.3828 169.185 64.5234 169.487 64.8047 169.742C65.0859 169.997 65.4323 170.125 65.8438 170.125C66.3073 170.125 66.6771 169.997 66.9531 169.742C67.2292 169.482 67.3672 169.151 67.3672 168.75C67.3672 168.177 67.224 167.771 66.9375 167.531C66.651 167.292 66.2552 167.172 65.75 167.172H64.4688V165.211Z" fill="white"/>
<defs>
<linearGradient id="paint0_linear" x1="55.9901" y1="118.699" x2="58.3138" y2="121.839" gradientUnits="userSpaceOnUse">
<stop stop-color="#FFEAD1"/>
<stop offset="1" stop-color="#FFC87B"/>
</linearGradient>
<linearGradient id="paint1_linear" x1="73.6503" y1="118.699" x2="75.9736" y2="121.84" gradientUnits="userSpaceOnUse">
<stop stop-color="#FFEAD1"/>
<stop offset="1" stop-color="#FFC87B"/>
</linearGradient>
<linearGradient id="paint2_linear" x1="42.3354" y1="62.519" x2="48.1526" y2="72.5498" gradientUnits="userSpaceOnUse">
<stop stop-color="#FFEAD1"/>
<stop offset="1" stop-color="#FFC87B"/>
</linearGradient>
<linearGradient id="paint3_linear" x1="62.7063" y1="61.3406" x2="65.302" y2="67.6308" gradientUnits="userSpaceOnUse">
<stop stop-color="#FFEAD1"/>
<stop offset="1" stop-color="#FFC87B"/>
</linearGradient>
<linearGradient id="paint4_linear" x1="54.1841" y1="33.5488" x2="54.1841" y2="37.9671" gradientUnits="userSpaceOnUse">
<stop stop-color="#333333"/>
<stop offset="1"/>
</linearGradient>
<linearGradient id="paint5_linear" x1="72.9207" y1="33.5557" x2="72.9207" y2="37.9672" gradientUnits="userSpaceOnUse">
<stop stop-color="#333333"/>
<stop offset="1"/>
</linearGradient>
<linearGradient id="paint6_linear" x1="57.0735" y1="29.1318" x2="57.0735" y2="34.8994" gradientUnits="userSpaceOnUse">
<stop stop-color="#333333"/>
<stop offset="1"/>
</linearGradient>
<linearGradient id="paint7_linear" x1="66.3658" y1="12.9961" x2="66.3658" y2="63.5194" gradientUnits="userSpaceOnUse">
<stop stop-color="#333333"/>
<stop offset="1"/>
</linearGradient>
<linearGradient id="paint8_linear" x1="48.7633" y1="13.937" x2="90.1935" y2="56.8381" gradientUnits="userSpaceOnUse">
<stop stop-color="#FFEAD1"/>
<stop offset="1" stop-color="#FFC87B"/>
</linearGradient>
<linearGradient id="paint9_linear" x1="73.9506" y1="29.1318" x2="73.9506" y2="48.0327" gradientUnits="userSpaceOnUse">
<stop stop-color="#333333"/>
<stop offset="1"/>
</linearGradient>
<linearGradient id="paint10_linear" x1="75.5734" y1="118.843" x2="75.5734" y2="123.882" gradientUnits="userSpaceOnUse">
<stop stop-color="#333333"/>
<stop offset="1"/>
</linearGradient>
<linearGradient id="paint11_linear" x1="66.3668" y1="51.4316" x2="66.3668" y2="56.052" gradientUnits="userSpaceOnUse">
<stop stop-color="#333333"/>
<stop offset="1"/>
</linearGradient>
<linearGradient id="paint12_linear" x1="56.7631" y1="118.843" x2="56.7631" y2="123.882" gradientUnits="userSpaceOnUse">
<stop stop-color="#333333"/>
<stop offset="1"/>
</linearGradient>
<linearGradient id="paint13_linear" x1="52.2083" y1="66.6476" x2="58.3471" y2="72.4357" gradientUnits="userSpaceOnUse">
<stop offset="0.00410753" stop-color="#DEE1EA"/>
<stop offset="1" stop-color="#E4E8F3"/>
</linearGradient>
<linearGradient id="paint14_linear" x1="76.8872" y1="76.5313" x2="78.0702" y2="82.2183" gradientUnits="userSpaceOnUse">
<stop stop-color="#FFEAD1"/>
<stop offset="1" stop-color="#FFC87B"/>
</linearGradient>
<linearGradient id="paint15_linear" x1="77.5304" y1="73.2942" x2="78.8402" y2="78.916" gradientUnits="userSpaceOnUse">
<stop stop-color="#FFEAD1"/>
<stop offset="1" stop-color="#FFC87B"/>
</linearGradient>
<linearGradient id="paint16_linear" x1="77.5162" y1="79.7727" x2="78.8675" y2="85.3736" gradientUnits="userSpaceOnUse">
<stop stop-color="#FFEAD1"/>
<stop offset="1" stop-color="#FFC87B"/>
</linearGradient>
<linearGradient id="paint17_linear" x1="78.4273" y1="83.0108" x2="80.0736" y2="88.4452" gradientUnits="userSpaceOnUse">
<stop stop-color="#FFEAD1"/>
<stop offset="1" stop-color="#FFC87B"/>
</linearGradient>
<linearGradient id="paint18_linear" x1="78.8931" y1="83.4229" x2="80.2874" y2="86.281" gradientUnits="userSpaceOnUse">
<stop stop-color="#22357D"/>
<stop offset="1" stop-color="#001461"/>
</linearGradient>
<linearGradient id="paint19_linear" x1="77.9894" y1="73.7065" x2="79.3816" y2="76.5605" gradientUnits="userSpaceOnUse">
<stop stop-color="#22357D"/>
<stop offset="1" stop-color="#001461"/>
</linearGradient>
<linearGradient id="paint20_linear" x1="77.9761" y1="80.186" x2="79.3671" y2="83.0414" gradientUnits="userSpaceOnUse">
<stop stop-color="#22357D"/>
<stop offset="1" stop-color="#001461"/>
</linearGradient>
<linearGradient id="paint21_linear" x1="77.3427" y1="76.9444" x2="78.7382" y2="79.8009" gradientUnits="userSpaceOnUse">
<stop stop-color="#22357D"/>
<stop offset="1" stop-color="#001461"/>
</linearGradient>
<linearGradient id="paint22_linear" x1="32.5974" y1="44.0409" x2="36.1334" y2="46.4604" gradientUnits="userSpaceOnUse">
<stop stop-color="#FFEAD1"/>
<stop offset="1" stop-color="#FFC87B"/>
</linearGradient>
<linearGradient id="paint23_linear" x1="29.3595" y1="41.1266" x2="36.0915" y2="43.882" gradientUnits="userSpaceOnUse">
<stop stop-color="#FFEAD1"/>
<stop offset="1" stop-color="#FFC87B"/>
</linearGradient>
<linearGradient id="paint24_linear" x1="29.8404" y1="48.9391" x2="31.5352" y2="51.8256" gradientUnits="userSpaceOnUse">
<stop stop-color="#22357D"/>
<stop offset="1" stop-color="#001461"/>
</linearGradient>
<linearGradient id="paint25_linear" x1="26.1217" y1="40.4306" x2="33.0521" y2="42.9574" gradientUnits="userSpaceOnUse">
<stop stop-color="#FFEAD1"/>
<stop offset="1" stop-color="#FFC87B"/>
</linearGradient>
<linearGradient id="paint26_linear" x1="26.6027" y1="49.5855" x2="28.2986" y2="52.4699" gradientUnits="userSpaceOnUse">
<stop stop-color="#22357D"/>
<stop offset="1" stop-color="#001461"/>
</linearGradient>
<linearGradient id="paint27_linear" x1="22.8806" y1="41.5162" x2="29.5436" y2="44.3404" gradientUnits="userSpaceOnUse">
<stop stop-color="#FFEAD1"/>
<stop offset="1" stop-color="#FFC87B"/>
</linearGradient>
<linearGradient id="paint28_linear" x1="23.3614" y1="48.9521" x2="25.0527" y2="51.8368" gradientUnits="userSpaceOnUse">
<stop stop-color="#22357D"/>
<stop offset="1" stop-color="#001461"/>
</linearGradient>
<linearGradient id="paint29_linear" x1="19.6427" y1="42.7684" x2="25.7659" y2="46.0218" gradientUnits="userSpaceOnUse">
<stop stop-color="#FFEAD1"/>
<stop offset="1" stop-color="#FFC87B"/>
</linearGradient>
<linearGradient id="paint30_linear" x1="20.1237" y1="48.0352" x2="21.8162" y2="50.9176" gradientUnits="userSpaceOnUse">
<stop stop-color="#22357D"/>
<stop offset="1" stop-color="#001461"/>
</linearGradient>
</defs>
</svg>
