<svg width="132" height="227" viewBox="0 0 132 227" fill="none" xmlns="http://www.w3.org/2000/svg">
<path d="M49.0203 32.9748C48.9203 33.6117 48.8403 34.2519 48.7836 34.8921C48.2567 40.7742 49.5272 46.763 52.5349 51.9315C53.2285 53.1186 54.0021 54.259 54.8657 55.3294C55.1492 55.6795 55.4426 56.0196 55.746 56.3531C55.6293 58.7406 55.5126 61.1314 55.3992 63.5189C48.22 57.4301 44.8288 48.7804 45.2323 37.5698C45.259 37.0196 45.2857 36.4694 45.3123 35.9192C45.3323 35.4457 45.3657 34.9755 45.409 34.5053C45.5624 32.8681 45.8359 31.2409 46.2327 29.647C46.3294 29.2568 46.4361 28.8667 46.5461 28.4799C46.6595 28.0964 46.7762 27.7129 46.9062 27.3361C47.1697 26.5692 47.4764 25.8123 47.8199 25.0787C48.1767 24.3251 48.5701 23.5915 49.0103 22.8812C49.4538 22.161 49.944 21.4674 50.4708 20.8038C51.5379 19.46 52.7683 18.2429 54.1288 17.1959C55.476 16.1588 56.9565 15.2885 58.5203 14.615C59.284 14.2882 60.0676 14.0048 60.8679 13.7747C61.6481 13.5513 62.4417 13.3745 63.242 13.2445C64.0223 13.1211 64.8093 13.0411 65.5962 13.0111C66.3698 12.9777 67.1468 12.9944 67.917 13.0544C69.5276 13.1811 71.1248 13.5079 72.6554 14.0214C74.2559 14.5549 75.7865 15.2952 77.207 16.2089C77.5671 16.4423 77.9206 16.6857 78.264 16.9391C78.6108 17.1925 78.9476 17.4593 79.2777 17.7327C79.6078 18.0095 79.9279 18.2963 80.238 18.593C80.5515 18.8865 80.855 19.1933 81.1451 19.5067C81.4385 19.8201 81.7186 20.1403 81.992 20.4704C82.2654 20.7972 82.5289 21.1339 82.7823 21.4807C83.2825 22.161 83.7359 22.8712 84.1494 23.6048C84.5529 24.3151 84.9197 25.0453 85.2398 25.7956C85.5566 26.5459 85.83 27.3161 86.0701 28.0964C86.5503 29.6503 86.9004 31.2475 87.1305 32.8581C87.2772 33.8751 87.3739 34.8955 87.4239 35.9192C87.4506 36.4694 87.4773 37.0196 87.504 37.5698C87.524 38.1633 87.5373 38.7468 87.5373 39.3237C87.5373 49.6874 84.1361 57.7502 77.337 63.5189C77.2203 61.1314 77.1069 58.7406 76.9902 56.3531C77.2903 56.0229 77.5838 55.6828 77.8639 55.3327C78.7308 54.2623 79.5045 53.1253 80.198 51.9382C83.2091 46.7663 84.4796 40.7742 83.9527 34.8888C83.896 34.2452 83.816 33.605 83.7126 32.9648C83.5092 31.6543 83.2124 30.3572 82.8256 29.0768C82.2854 27.3028 81.4885 25.6089 80.4515 24.0683C79.3811 22.4778 78.0573 21.0572 76.5367 19.8868C75.0462 18.7398 73.3656 17.8361 71.5783 17.2392C69.9044 16.679 68.1338 16.3889 66.3665 16.3889C64.5992 16.3889 62.8319 16.679 61.1546 17.2392C59.3707 17.8361 57.6901 18.7398 56.1962 19.8868C54.6757 21.0572 53.3519 22.4778 52.2815 24.0683C51.2478 25.6089 50.4475 27.3028 49.9106 29.0768C49.5238 30.3572 49.2271 31.661 49.0203 32.9748Z" fill="#231F20"/>
<path d="M83.9526 34.8885C84.4794 40.774 83.209 46.7661 80.1979 51.9379C79.5043 53.125 78.7307 54.2621 77.8638 55.3324C77.5837 55.6826 77.2902 56.0227 76.9901 56.3528C76.4533 56.943 75.8864 57.4999 75.2862 58.0234C74.1925 58.9771 72.982 59.8074 71.6749 60.4342C70.8113 60.8477 69.9076 61.1712 68.974 61.3846C68.1203 61.5813 67.2433 61.6847 66.3664 61.6847C65.4894 61.6847 64.6124 61.5813 63.7588 61.3846C62.8285 61.1712 61.9214 60.8477 61.0578 60.4342C59.7507 59.8074 58.5403 58.9771 57.4466 58.0234C56.8463 57.4999 56.2795 56.9397 55.746 56.3528C55.4425 56.0194 55.1491 55.6792 54.8656 55.3291C54.002 54.2587 53.2284 53.1183 52.5348 51.9312C49.5271 46.7627 48.2566 40.774 48.7835 34.8919C49.6438 33.9816 50.6141 33.1046 51.6412 32.381C52.3647 31.8741 53.135 31.4273 53.9487 31.0805C54.6322 30.7904 55.3492 30.567 56.0861 30.4403C56.7296 30.3303 57.3899 30.2936 58.0434 30.3403C59.1905 30.4236 60.3176 30.7738 61.3179 31.3473C62.1749 31.8375 62.9385 32.4977 63.5387 33.288C63.6654 33.4547 63.7854 33.6314 63.8955 33.8115C63.9755 33.9449 64.0489 34.0783 64.1122 34.2183C64.1522 34.305 64.1856 34.3917 64.219 34.4784C64.3323 34.7885 64.6758 34.9452 64.9859 34.8285C65.2926 34.7152 65.4494 34.3717 65.336 34.0649C65.276 33.9049 65.2093 33.7515 65.1326 33.5981C64.9659 33.2646 64.7658 32.9445 64.5457 32.6411C64.1022 32.0375 63.572 31.5007 62.9818 31.0372C62.3283 30.5237 61.6047 30.1035 60.8378 29.7867C59.9941 29.4433 59.0971 29.2299 58.1901 29.1565C57.1731 29.0765 56.1428 29.1732 55.1524 29.4199C53.982 29.7101 52.8683 30.2102 51.8379 30.8304C50.8376 31.434 49.8772 32.1843 49.0202 32.9745C49.227 31.6607 49.5238 30.3569 49.9106 29.0765C50.4474 27.3025 51.2477 25.6086 52.2814 24.0681C53.3518 22.4775 54.6756 21.057 56.1961 19.8866C57.69 18.7395 59.3706 17.8359 61.1545 17.239C62.8318 16.6788 64.5991 16.3887 66.3664 16.3887C68.1337 16.3887 69.9043 16.6788 71.5782 17.239C73.3655 17.8359 75.0461 18.7395 76.5366 19.8866C78.0572 21.057 79.381 22.4775 80.4513 24.0681C81.4884 25.6086 82.2853 27.3025 82.8255 29.0765C83.2123 30.3569 83.5091 31.6541 83.7125 32.9645C83.2723 32.5611 82.7588 32.1376 82.2853 31.7774C81.6351 31.2839 80.9482 30.8338 80.2279 30.4503C79.5911 30.1135 78.9241 29.8268 78.2372 29.6067C77.6203 29.4099 76.9868 29.2699 76.3466 29.1932C75.2028 29.0598 74.0358 29.1365 72.9254 29.44C71.9383 29.7067 71.0013 30.1502 70.161 30.7337C69.4174 31.2539 68.7505 31.8875 68.207 32.6144C67.9869 32.9145 67.7835 33.2313 67.6168 33.5681C67.4901 33.8282 67.3801 34.0983 67.2967 34.3784C67.21 34.6818 67.15 34.9953 67.1166 35.3087C67.0766 35.6788 67.07 36.0523 67.0766 36.4258C67.0866 36.8926 67.12 37.3561 67.1633 37.8196C67.22 38.4098 67.2934 39 67.3734 39.5902C67.4768 40.3605 67.5868 41.1341 67.7068 41.9044C67.8502 42.838 68.0069 43.7684 68.157 44.702C68.2037 45.0055 68.2537 45.3089 68.2804 45.6157C68.2904 45.7424 68.2971 45.8658 68.2904 45.9925C68.2871 46.0525 68.2837 46.1092 68.2704 46.1692C68.2604 46.2026 68.2504 46.2392 68.2337 46.2726C68.2203 46.2993 68.2004 46.3259 68.1804 46.3459C68.1504 46.3793 68.117 46.406 68.0803 46.4293C68.017 46.4726 67.9503 46.5127 67.8836 46.546C67.7735 46.6027 67.6602 46.6494 67.5435 46.6861C67.1967 46.7961 66.8299 46.8361 66.4664 46.8394C65.8629 46.8428 65.266 46.7494 64.6824 46.6194C64.359 46.546 64.0422 46.7461 63.9689 47.0695C63.8955 47.3896 64.0989 47.7064 64.419 47.7798C64.8658 47.8831 65.3193 47.9598 65.7762 47.9999C66.1429 48.0332 66.5098 48.0432 66.8766 48.0132C67.4101 47.9732 67.9369 47.8498 68.4171 47.613C68.5838 47.5263 68.7439 47.4297 68.8906 47.3096C69.014 47.2062 69.1274 47.0862 69.2174 46.9495C69.3074 46.8094 69.3741 46.6494 69.4175 46.486C69.4608 46.3293 69.4775 46.1625 69.4841 45.9991C69.4941 45.7224 69.4641 45.4423 69.4308 45.1655C69.3574 44.5986 69.2574 44.0385 69.164 43.4749C69.0306 42.668 68.9039 41.861 68.7839 41.0541C68.6138 39.9037 68.4471 38.7532 68.3437 37.5995C68.2971 37.086 68.2637 36.5758 68.267 36.0623C68.2704 35.7088 68.2937 35.3554 68.3637 35.0086C68.4204 34.7385 68.5071 34.4717 68.6238 34.2183C68.6872 34.0783 68.7606 33.9449 68.8406 33.8115C68.9473 33.6314 69.0707 33.4547 69.1974 33.288C69.7942 32.4977 70.5579 31.8375 71.4182 31.3473C72.4152 30.7738 73.5422 30.4236 74.6926 30.3403C75.3429 30.2936 76.0031 30.3303 76.65 30.4403C77.3836 30.567 78.1005 30.7904 78.7874 31.0805C79.601 31.4273 80.368 31.8741 81.0916 32.381C82.1153 33.1012 83.0956 33.9849 83.9526 34.8885ZM75.743 39.5302C78.3239 39.5269 80.6814 38.063 81.8318 35.7489C80.6748 33.438 78.3106 31.9809 75.7297 31.9842C73.1454 31.9909 70.7879 33.4547 69.6375 35.7689C70.7946 38.0797 73.1588 39.5369 75.743 39.5302ZM75.2995 51.4611C69.3441 51.4511 63.3886 51.4411 57.4332 51.4311C62.5417 57.5766 70.1711 57.5899 75.2995 51.4611ZM63.0952 35.7689C61.9482 33.4547 59.5907 31.9909 57.0064 31.9842C54.4222 31.9809 52.0613 33.438 50.9042 35.7489C52.0513 38.063 54.4088 39.5269 56.9931 39.5302C59.5773 39.5369 61.9382 38.0797 63.0952 35.7689Z" fill="url(#paint0_linear)"/>
<path d="M83.7126 32.9652C83.816 33.6054 83.896 34.2456 83.9527 34.8892C83.0958 33.9855 82.1154 33.1019 81.0917 32.3816C80.3681 31.8748 79.6012 31.428 78.7876 31.0812C78.1007 30.7911 77.3837 30.5677 76.6501 30.441C76.0032 30.3309 75.343 30.2942 74.6928 30.3409C73.5424 30.4243 72.4153 30.7744 71.4183 31.3479C70.558 31.8381 69.7944 32.4984 69.1975 33.2886C69.0708 33.4554 68.9474 33.6321 68.8407 33.8121C68.7607 33.9455 68.6873 34.0789 68.624 34.219C68.5073 34.4724 68.4206 34.7391 68.3639 35.0092C68.2939 35.356 68.2705 35.7095 68.2672 36.0629C68.2638 36.5765 68.2972 37.0866 68.3439 37.6002C68.4473 38.7539 68.614 39.9043 68.784 41.0547C68.9041 41.8617 69.0308 42.6686 69.1642 43.4756C69.2575 44.0391 69.3576 44.5993 69.431 45.1662C69.4643 45.4429 69.4943 45.723 69.4843 45.9998C69.4776 46.1632 69.4609 46.3299 69.4176 46.4866C69.3743 46.65 69.3076 46.8101 69.2175 46.9501C69.1275 47.0868 69.0141 47.2069 68.8908 47.3103C68.744 47.4303 68.584 47.527 68.4172 47.6137C67.9371 47.8504 67.4102 47.9738 66.8767 48.0138C66.5099 48.0438 66.1431 48.0338 65.7763 48.0005C65.3195 47.9605 64.866 47.8838 64.4192 47.7804C64.0991 47.7071 63.8957 47.3903 63.969 47.0702C64.0424 46.7467 64.3591 46.5466 64.6826 46.62C65.2661 46.7501 65.863 46.8434 66.4666 46.8401C66.83 46.8368 67.1968 46.7967 67.5436 46.6867C67.6603 46.65 67.7737 46.6033 67.8837 46.5466C67.9504 46.5133 68.0171 46.4733 68.0805 46.4299C68.1171 46.4066 68.1505 46.3799 68.1805 46.3466C68.2005 46.3266 68.2205 46.2999 68.2338 46.2732C68.2505 46.2399 68.2605 46.2032 68.2705 46.1698C68.2838 46.1098 68.2872 46.0531 68.2905 45.9931C68.2972 45.8664 68.2905 45.743 68.2805 45.6163C68.2538 45.3095 68.2038 45.0061 68.1571 44.7027C68.0071 43.769 67.8504 42.8387 67.707 41.905C67.587 41.1347 67.4769 40.3611 67.3735 39.5909C67.2935 39.0006 67.2202 38.4104 67.1635 37.8202C67.1201 37.3567 67.0868 36.8932 67.0768 36.4264C67.0701 36.0529 67.0768 35.6795 67.1168 35.3093C67.1501 34.9959 67.2102 34.6825 67.2969 34.379C67.3802 34.0989 67.4902 33.8288 67.617 33.5687C67.7837 33.2319 67.9871 32.9152 68.2072 32.6151C68.7507 31.8881 69.4176 31.2546 70.1612 30.7344C71.0015 30.1509 71.9385 29.7074 72.9255 29.4406C74.0359 29.1372 75.203 29.0605 76.3467 29.1939C76.9869 29.2705 77.6205 29.4106 78.2374 29.6073C78.9243 29.8274 79.5912 30.1142 80.2281 30.451C80.9484 30.8344 81.6352 31.2846 82.2855 31.7781C82.759 32.1382 83.2725 32.5617 83.7126 32.9652Z" fill="#231F20"/>
<path d="M81.832 35.749C80.6816 38.0632 78.3241 39.527 75.7432 39.5304C73.159 39.537 70.7948 38.0799 69.6378 35.769C70.7882 33.4549 73.1456 31.991 75.7299 31.9844C78.3108 31.981 80.675 33.4382 81.832 35.749ZM80.775 35.749C79.7046 33.9851 77.7939 32.908 75.7299 32.9114C73.6691 32.918 71.7585 33.9984 70.6948 35.769C72.9889 39.5571 78.4942 39.547 80.775 35.749Z" fill="#231F20"/>
<path d="M75.7365 33.5479C76.9536 33.5479 77.944 34.5382 77.944 35.7586C77.944 36.9791 76.9536 37.9661 75.7365 37.9661C74.516 37.9661 73.5256 36.9791 73.5256 35.7586C73.5256 34.5382 74.516 33.5479 75.7365 33.5479Z" fill="#231F20"/>
<path d="M75.7298 32.9111C77.7939 32.9078 79.7045 33.9849 80.7749 35.7488C78.4941 39.5468 72.9888 39.5568 70.6947 35.7688C71.7584 33.9982 73.6691 32.9178 75.7298 32.9111ZM77.9439 35.7588C77.9439 34.5384 76.9536 33.548 75.7365 33.548C74.5161 33.548 73.5257 34.5384 73.5257 35.7588C73.5257 36.9792 74.5161 37.9663 75.7365 37.9663C76.9536 37.9663 77.9439 36.9792 77.9439 35.7588Z" fill="white"/>
<path d="M57.4334 51.4316C63.3889 51.4416 69.3443 51.4516 75.2998 51.4616C70.1713 57.5905 62.5419 57.5771 57.4334 51.4316Z" fill="#231F20"/>
<path d="M65.3361 34.0648C65.4495 34.3716 65.2928 34.715 64.986 34.8284C64.6759 34.9451 64.3325 34.7884 64.2191 34.4783C64.1857 34.3916 64.1524 34.3049 64.1124 34.2182C64.049 34.0781 63.9756 33.9448 63.8956 33.8114C63.7856 33.6313 63.6655 33.4546 63.5388 33.2879C62.9386 32.4976 62.175 31.8374 61.318 31.3472C60.3177 30.7736 59.1906 30.4235 58.0436 30.3402C57.39 30.2935 56.7298 30.3302 56.0862 30.4402C55.3493 30.5669 54.6324 30.7903 53.9488 31.0804C53.1352 31.4272 52.3649 31.874 51.6413 32.3809C50.6143 33.1045 49.6439 33.9814 48.7836 34.8918C48.8403 34.2515 48.9203 33.6113 49.0204 32.9744C49.8773 32.1841 50.8377 31.4339 51.8381 30.8303C52.8684 30.2101 53.9821 29.7099 55.1525 29.4198C56.1429 29.1731 57.1732 29.0764 58.1903 29.1564C59.0972 29.2298 59.9943 29.4432 60.8379 29.7866C61.6048 30.1034 62.3284 30.5236 62.9819 31.0371C63.5722 31.5006 64.1024 32.0374 64.5459 32.641C64.7659 32.9444 64.966 33.2645 65.1327 33.598C65.2094 33.7514 65.2761 33.9048 65.3361 34.0648Z" fill="#231F20"/>
<path d="M57.0065 31.9844C59.5908 31.991 61.9483 33.4549 63.0953 35.769C61.9383 38.0799 59.5774 39.537 56.9931 39.5304C54.4089 39.527 52.0514 38.0632 50.9043 35.749C52.0614 33.4382 54.4222 31.981 57.0065 31.9844ZM56.9931 38.6034C59.0572 38.6067 60.9712 37.533 62.0383 35.769C59.7575 31.9677 54.2555 31.9577 51.9614 35.749C53.0217 37.5163 54.9324 38.6 56.9931 38.6034Z" fill="#231F20"/>
<path d="M56.9998 33.5479C58.2202 33.5479 59.2072 34.5382 59.2072 35.7586C59.2072 36.9791 58.2202 37.9661 56.9998 37.9661C55.7793 37.9661 54.789 36.9791 54.789 35.7586C54.789 34.5382 55.7793 33.5479 56.9998 33.5479Z" fill="#231F20"/>
<path d="M62.0382 35.7694C60.9712 37.5333 59.0571 38.607 56.9931 38.6037C54.9323 38.6004 53.0217 37.5167 51.9613 35.7494C54.2555 31.958 59.7574 31.968 62.0382 35.7694ZM59.2072 35.7594C59.2072 34.5389 58.2202 33.5486 56.9998 33.5486C55.7793 33.5486 54.789 34.5389 54.789 35.7594C54.789 36.9798 55.7793 37.9668 56.9998 37.9668C58.2202 37.9668 59.2072 36.9798 59.2072 35.7594Z" fill="white"/>
<path d="M66.3667 123.854C75.7834 110.669 81.232 97.1644 82.7092 83.3462C83.7462 73.6327 76.1368 65.1631 66.3667 65.1631C56.5999 65.1631 48.9872 73.6327 50.0242 83.3462C51.5047 97.1644 56.95 110.669 66.3667 123.854Z" fill="#003CB0"/>
<path d="M77.3666 81.1963C77.3666 75.1212 72.4417 70.1963 66.3666 70.1963C60.2914 70.1963 55.3666 75.1212 55.3666 81.1963C55.3666 87.2714 60.2914 92.1963 66.3666 92.1963C72.4417 92.1963 77.3666 87.2714 77.3666 81.1963Z" fill="white"/>
<path d="M72.9665 81.4C72.9665 77.7549 70.0116 74.8 66.3665 74.8C62.7215 74.8 59.7665 77.7549 59.7665 81.4C59.7665 85.0451 62.7215 88 66.3665 88C70.0116 88 72.9665 85.0451 72.9665 81.4Z" fill="#003CB0"/>
<path d="M47.2812 202.773V207H45.3047V195.625H49.6562C50.9271 195.625 51.9349 195.956 52.6797 196.617C53.4297 197.279 53.8047 198.154 53.8047 199.242C53.8047 200.357 53.4375 201.224 52.7031 201.844C51.974 202.464 50.9505 202.773 49.6328 202.773H47.2812ZM47.2812 201.188H49.6562C50.3594 201.188 50.8958 201.023 51.2656 200.695C51.6354 200.362 51.8203 199.883 51.8203 199.258C51.8203 198.643 51.6328 198.154 51.2578 197.789C50.8828 197.419 50.3672 197.229 49.7109 197.219H47.2812V201.188ZM57.375 207H55.4766V198.547H57.375V207ZM55.3594 196.352C55.3594 196.06 55.4505 195.818 55.6328 195.625C55.8203 195.432 56.0859 195.336 56.4297 195.336C56.7734 195.336 57.0391 195.432 57.2266 195.625C57.4141 195.818 57.5078 196.06 57.5078 196.352C57.5078 196.638 57.4141 196.878 57.2266 197.07C57.0391 197.258 56.7734 197.352 56.4297 197.352C56.0859 197.352 55.8203 197.258 55.6328 197.07C55.4505 196.878 55.3594 196.638 55.3594 196.352ZM62.9219 205.641C63.3958 205.641 63.7891 205.503 64.1016 205.227C64.4141 204.951 64.5807 204.609 64.6016 204.203H66.3906C66.3698 204.729 66.2057 205.221 65.8984 205.68C65.5911 206.133 65.1745 206.492 64.6484 206.758C64.1224 207.023 63.5547 207.156 62.9453 207.156C61.763 207.156 60.8255 206.773 60.1328 206.008C59.4401 205.242 59.0938 204.185 59.0938 202.836V202.641C59.0938 201.354 59.4375 200.326 60.125 199.555C60.8125 198.779 61.75 198.391 62.9375 198.391C63.9427 198.391 64.7604 198.685 65.3906 199.273C66.026 199.857 66.3594 200.625 66.3906 201.578H64.6016C64.5807 201.094 64.4141 200.695 64.1016 200.383C63.7943 200.07 63.401 199.914 62.9219 199.914C62.3073 199.914 61.8333 200.138 61.5 200.586C61.1667 201.029 60.9974 201.703 60.9922 202.609V202.914C60.9922 203.831 61.1562 204.516 61.4844 204.969C61.8177 205.417 62.2969 205.641 62.9219 205.641ZM70.5703 203.375L69.7266 204.242V207H67.8281V195H69.7266V201.922L70.3203 201.18L72.6562 198.547H74.9375L71.7969 202.07L75.2734 207H73.0781L70.5703 203.375ZM85.2188 207C85.1354 206.839 85.0625 206.576 85 206.211C84.3958 206.841 83.6562 207.156 82.7812 207.156C81.9323 207.156 81.2396 206.914 80.7031 206.43C80.1667 205.945 79.8984 205.346 79.8984 204.633C79.8984 203.732 80.2318 203.042 80.8984 202.562C81.5703 202.078 82.5286 201.836 83.7734 201.836H84.9375V201.281C84.9375 200.844 84.8151 200.495 84.5703 200.234C84.3255 199.969 83.9531 199.836 83.4531 199.836C83.0208 199.836 82.6667 199.945 82.3906 200.164C82.1146 200.378 81.9766 200.651 81.9766 200.984H80.0781C80.0781 200.521 80.2318 200.089 80.5391 199.688C80.8464 199.281 81.263 198.964 81.7891 198.734C82.3203 198.505 82.9115 198.391 83.5625 198.391C84.5521 198.391 85.3411 198.641 85.9297 199.141C86.5182 199.635 86.8203 200.333 86.8359 201.234V205.047C86.8359 205.807 86.9427 206.414 87.1562 206.867V207H85.2188ZM83.1328 205.633C83.5078 205.633 83.8594 205.542 84.1875 205.359C84.5208 205.177 84.7708 204.932 84.9375 204.625V203.031H83.9141C83.2109 203.031 82.6823 203.154 82.3281 203.398C81.974 203.643 81.7969 203.99 81.7969 204.438C81.7969 204.802 81.9167 205.094 82.1562 205.312C82.401 205.526 82.7266 205.633 83.1328 205.633ZM49.1562 221.773V226H47.1797V214.625H51.5312C52.8021 214.625 53.8099 214.956 54.5547 215.617C55.3047 216.279 55.6797 217.154 55.6797 218.242C55.6797 219.357 55.3125 220.224 54.5781 220.844C53.849 221.464 52.8255 221.773 51.5078 221.773H49.1562ZM49.1562 220.188H51.5312C52.2344 220.188 52.7708 220.023 53.1406 219.695C53.5104 219.362 53.6953 218.883 53.6953 218.258C53.6953 217.643 53.5078 217.154 53.1328 216.789C52.7578 216.419 52.2422 216.229 51.5859 216.219H49.1562V220.188ZM59.25 226H57.3516V214H59.25V226ZM66.375 226C66.2917 225.839 66.2188 225.576 66.1562 225.211C65.5521 225.841 64.8125 226.156 63.9375 226.156C63.0885 226.156 62.3958 225.914 61.8594 225.43C61.3229 224.945 61.0547 224.346 61.0547 223.633C61.0547 222.732 61.388 222.042 62.0547 221.562C62.7266 221.078 63.6849 220.836 64.9297 220.836H66.0938V220.281C66.0938 219.844 65.9714 219.495 65.7266 219.234C65.4818 218.969 65.1094 218.836 64.6094 218.836C64.1771 218.836 63.8229 218.945 63.5469 219.164C63.2708 219.378 63.1328 219.651 63.1328 219.984H61.2344C61.2344 219.521 61.388 219.089 61.6953 218.688C62.0026 218.281 62.4193 217.964 62.9453 217.734C63.4766 217.505 64.0677 217.391 64.7188 217.391C65.7083 217.391 66.4974 217.641 67.0859 218.141C67.6745 218.635 67.9766 219.333 67.9922 220.234V224.047C67.9922 224.807 68.099 225.414 68.3125 225.867V226H66.375ZM64.2891 224.633C64.6641 224.633 65.0156 224.542 65.3438 224.359C65.6771 224.177 65.9271 223.932 66.0938 223.625V222.031H65.0703C64.3672 222.031 63.8385 222.154 63.4844 222.398C63.1302 222.643 62.9531 222.99 62.9531 223.438C62.9531 223.802 63.0729 224.094 63.3125 224.312C63.5573 224.526 63.8828 224.633 64.2891 224.633ZM73.4531 224.641C73.9271 224.641 74.3203 224.503 74.6328 224.227C74.9453 223.951 75.112 223.609 75.1328 223.203H76.9219C76.901 223.729 76.737 224.221 76.4297 224.68C76.1224 225.133 75.7057 225.492 75.1797 225.758C74.6536 226.023 74.0859 226.156 73.4766 226.156C72.2943 226.156 71.3568 225.773 70.6641 225.008C69.9714 224.242 69.625 223.185 69.625 221.836V221.641C69.625 220.354 69.9688 219.326 70.6562 218.555C71.3438 217.779 72.2812 217.391 73.4688 217.391C74.474 217.391 75.2917 217.685 75.9219 218.273C76.5573 218.857 76.8906 219.625 76.9219 220.578H75.1328C75.112 220.094 74.9453 219.695 74.6328 219.383C74.3255 219.07 73.9323 218.914 73.4531 218.914C72.8385 218.914 72.3646 219.138 72.0312 219.586C71.6979 220.029 71.5286 220.703 71.5234 221.609V221.914C71.5234 222.831 71.6875 223.516 72.0156 223.969C72.349 224.417 72.8281 224.641 73.4531 224.641ZM82.0781 226.156C80.875 226.156 79.8984 225.779 79.1484 225.023C78.4036 224.263 78.0312 223.253 78.0312 221.992V221.758C78.0312 220.914 78.1927 220.161 78.5156 219.5C78.8438 218.833 79.3021 218.315 79.8906 217.945C80.4792 217.576 81.1354 217.391 81.8594 217.391C83.0104 217.391 83.8984 217.758 84.5234 218.492C85.1536 219.227 85.4688 220.266 85.4688 221.609V222.375H79.9453C80.0026 223.073 80.2344 223.625 80.6406 224.031C81.0521 224.438 81.5677 224.641 82.1875 224.641C83.0573 224.641 83.7656 224.289 84.3125 223.586L85.3359 224.562C84.9974 225.068 84.5443 225.461 83.9766 225.742C83.4141 226.018 82.7812 226.156 82.0781 226.156ZM81.8516 218.914C81.3307 218.914 80.9089 219.096 80.5859 219.461C80.2682 219.826 80.0651 220.333 79.9766 220.984H83.5938V220.844C83.5521 220.208 83.3828 219.729 83.0859 219.406C82.7891 219.078 82.3776 218.914 81.8516 218.914Z" fill="#003CB0"/>
<circle cx="66" cy="167" r="15" fill="#003CB0"/>
<path d="M69.0156 167.555H70.1719V169.586H69.0156V172H66.3828V169.586H61.9844L61.8281 167.977L66.3828 160.648V160.625H69.0156V167.555ZM64.3359 167.555H66.3828V164.055L66.2188 164.32L64.3359 167.555Z" fill="white"/>
<defs>
<linearGradient id="paint0_linear" x1="48.7699" y1="6.23289" x2="92.0366" y2="52.7995" gradientUnits="userSpaceOnUse">
<stop offset="0.109375" stop-color="#EAB485"/>
<stop offset="1" stop-color="#523E31"/>
</linearGradient>
</defs>
</svg>
