<svg width="132" height="230" viewBox="0 0 132 230" fill="none" xmlns="http://www.w3.org/2000/svg">
<path d="M57.3201 118.843C57.7769 118.843 58.2337 118.843 58.6905 118.843C58.4238 119.84 57.917 120.473 57.5902 120.87C57.2601 121.27 57.1067 121.434 56.8433 121.48C56.5832 121.53 56.2097 121.467 56.0463 121.34C55.8862 121.217 55.9329 121.034 57.3201 118.843Z" fill="url(#paint0_linear)"/>
<path d="M75.0163 118.843C76.4035 121.034 76.4502 121.217 76.2901 121.34C76.1267 121.467 75.7532 121.53 75.4931 121.48C75.2297 121.434 75.0763 121.27 74.7462 120.87C74.4161 120.473 73.9092 119.84 73.6425 118.843C74.0993 118.843 74.5595 118.843 75.0163 118.843Z" fill="url(#paint1_linear)"/>
<path d="M69.3042 65.0998C69.3509 65.1332 69.3976 65.1665 69.4443 65.1966C67.7237 66.1369 65.0094 66.1369 63.2888 65.1966C63.3354 65.1665 63.3821 65.1332 63.4288 65.0998C63.7189 64.8898 63.9323 64.643 64.1057 64.3296C64.5058 63.606 64.6793 62.8957 64.6793 62.0721C64.6793 61.9921 64.6793 61.9121 64.6793 61.832C64.6793 61.742 64.6759 61.652 64.6693 61.5586C65.2295 61.642 65.7996 61.6853 66.3665 61.6853C66.9334 61.6853 67.5036 61.642 68.0638 61.5586C68.0571 61.652 68.0538 61.742 68.0538 61.832C68.0538 61.9121 68.0538 61.9921 68.0538 62.0721C68.0538 62.8957 68.2272 63.606 68.6273 64.3296C68.7974 64.643 69.0108 64.8898 69.3042 65.0998Z" fill="url(#paint2_linear)"/>
<path d="M73.0756 33.5555C72.1053 34.0457 71.2716 34.806 70.6948 35.7696C71.295 36.7633 72.1153 37.4969 73.0423 37.9671H73.0456C75.6532 39.2942 79.0878 38.554 80.7717 35.753C79.7046 33.989 77.7906 32.912 75.7299 32.9153C74.7896 32.9186 73.8826 33.142 73.0756 33.5555ZM81.8287 35.7496C80.6816 38.0638 78.3241 39.5276 75.7399 39.5343C73.1556 39.5376 70.7948 38.0805 69.6378 35.773C70.7848 33.4588 73.1423 31.9916 75.7266 31.9883C78.3108 31.9816 80.675 33.4388 81.8287 35.7496Z" fill="url(#paint3_linear)"/>
<path d="M75.1463 35.7664C75.1429 36.9369 74.2159 37.8972 73.0455 37.9672H73.0422C72.1152 37.4971 71.2949 36.7635 70.6947 35.7698C71.2716 34.8061 72.1052 34.0458 73.0755 33.5557C74.2393 33.629 75.1496 34.5994 75.1463 35.7664Z" fill="url(#paint4_linear)"/>
<path d="M54.3422 37.9671C55.1492 38.3806 56.0562 38.6073 56.9932 38.6073C59.0572 38.6106 60.9679 37.5336 62.0383 35.7696C60.3577 32.9687 56.9231 32.2284 54.3155 33.5555C53.3852 34.0224 52.5616 34.7559 51.9581 35.753C52.5383 36.7166 53.3719 37.4769 54.3422 37.9671ZM57.0065 31.9883C59.5874 31.9916 61.9449 33.4588 63.0953 35.773C61.9383 38.0805 59.5741 39.5376 56.9932 39.5343C54.4089 39.5276 52.0514 38.0638 50.901 35.7496C52.0581 33.4388 54.4223 31.9816 57.0065 31.9883Z" fill="url(#paint5_linear)"/>
<path d="M56.4096 35.7564C56.413 36.9235 55.5093 37.8905 54.3423 37.9672C53.372 37.4771 52.5383 36.7168 51.9581 35.7531C52.5617 34.7561 53.3853 34.0225 54.3156 33.5557C55.4793 33.6224 56.4063 34.5894 56.4096 35.7564Z" fill="url(#paint6_linear)"/>
<path d="M62.0383 35.7693C60.9679 37.5333 59.0572 38.6103 56.9932 38.607C56.0562 38.607 55.1492 38.3802 54.3423 37.9667C55.5093 37.8901 56.413 36.923 56.4096 35.756C56.4063 34.5889 55.4793 33.6219 54.3156 33.5552C56.9231 32.2281 60.3577 32.9683 62.0383 35.7693Z" fill="white"/>
<path d="M73.0756 33.5553C73.8825 33.1418 74.7896 32.9184 75.7299 32.915C77.7906 32.9117 79.7046 33.9888 80.7717 35.7527C79.0878 38.5537 75.6532 39.294 73.0456 37.9668C74.216 37.8968 75.143 36.9365 75.1464 35.7661C75.1497 34.599 74.2393 33.6286 73.0756 33.5553Z" fill="white"/>
<path d="M83.9527 34.8991C84.4762 40.7812 83.2058 46.77 80.1947 51.9385C79.5011 53.1256 78.7275 54.266 77.8639 55.333C77.5805 55.6798 77.2904 56.0233 76.9869 56.3534C76.4534 56.9436 75.8865 57.5038 75.2863 58.0273C74.1893 58.981 72.9822 59.8079 71.6717 60.4348C70.8114 60.8483 69.9045 61.1751 68.9741 61.3885C68.674 61.4585 68.3706 61.5152 68.0638 61.5586C67.5036 61.6419 66.9334 61.6853 66.3665 61.6853C65.7996 61.6853 65.2295 61.6419 64.6693 61.5586C64.3625 61.5119 64.059 61.4552 63.7589 61.3885C62.8253 61.1717 61.9183 60.8483 61.058 60.4348C59.7475 59.8079 58.5404 58.9776 57.4434 58.024C56.8431 57.5004 56.2763 56.9436 55.7428 56.3534C55.4393 56.0199 55.1492 55.6798 54.8658 55.3297C53.9988 54.2593 53.2252 53.1189 52.5316 51.9351C49.5239 46.7667 48.2568 40.7812 48.7803 34.8991V34.8958C49.6573 33.9721 50.5976 33.1152 51.6413 32.3849C52.3649 31.8747 53.1318 31.4312 53.9455 31.0844C54.6324 30.791 55.3493 30.5676 56.0829 30.4409C56.7298 30.3308 57.39 30.2942 58.0402 30.3408C59.1906 30.4275 60.3177 30.7743 61.3147 31.3479C62.175 31.8414 62.9386 32.4983 63.5355 33.2886C63.6656 33.4586 63.7856 33.632 63.8923 33.8154C63.9724 33.9455 64.0457 34.0822 64.109 34.2189C64.1491 34.3056 64.1858 34.3923 64.2191 34.479C64.3325 34.7891 64.6759 34.9458 64.9827 34.8324C65.2928 34.7157 65.4495 34.3789 65.3328 34.0688V34.0655C65.2761 33.9054 65.2061 33.7521 65.1328 33.602C64.966 33.2652 64.766 32.9451 64.5459 32.645C64.1024 32.0414 63.5722 31.5046 62.982 31.0411C62.3284 30.5276 61.6048 30.1041 60.8346 29.7907C59.9943 29.4472 59.0973 29.2305 58.1903 29.1604C57.1733 29.0771 56.1396 29.1771 55.1492 29.4239C53.9821 29.714 52.8684 30.2108 51.8347 30.8344C50.821 31.4479 49.884 32.1815 49.017 32.9851C49.2204 31.668 49.5172 30.3642 49.9074 29.0804C50.4476 27.3064 51.2445 25.6092 52.2815 24.072C53.3519 22.4814 54.6757 21.0576 56.1962 19.8871C57.6868 18.7401 59.3674 17.8398 61.1547 17.2429C62.8319 16.6827 64.5992 16.3926 66.3665 16.3926C68.1338 16.3926 69.9011 16.6827 71.5784 17.2429C73.3623 17.8398 75.0429 18.7401 76.5368 19.8871C78.0573 21.0576 79.3811 22.4814 80.4515 24.072C81.4852 25.6092 82.2855 27.3064 82.8223 29.0804C83.2125 30.3642 83.5092 31.668 83.7127 32.9851C83.2558 32.5583 82.7823 32.1582 82.2855 31.7814C81.6352 31.2845 80.9484 30.8377 80.2281 30.4542C79.5879 30.1141 78.9243 29.8273 78.2374 29.6073C77.6205 29.4138 76.987 29.2705 76.3467 29.1938C75.203 29.0604 74.0326 29.1404 72.9255 29.4405C71.9385 29.7073 70.9981 30.1508 70.1612 30.7377C69.4143 31.2578 68.7474 31.8881 68.2072 32.6183C67.9838 32.9184 67.7837 33.2352 67.617 33.5687C67.4869 33.8287 67.3769 34.1022 67.2969 34.3823C67.2068 34.6824 67.1501 34.9958 67.1168 35.3093C67.0768 35.6827 67.0668 36.0562 67.0768 36.4263C67.0834 36.8932 67.1201 37.3567 67.1635 37.8202C67.2202 38.4137 67.2935 39.0006 67.3702 39.5908C67.4736 40.3644 67.5869 41.1347 67.7037 41.9049C67.8504 42.8386 68.0071 43.7723 68.1538 44.7026C68.2038 45.006 68.2505 45.3095 68.2772 45.6162C68.2872 45.743 68.2972 45.8697 68.2905 45.993C68.2872 46.0531 68.2805 46.1131 68.2672 46.1698C68.2605 46.2065 68.2472 46.2398 68.2305 46.2731C68.2172 46.2998 68.2005 46.3265 68.1772 46.3498C68.1505 46.3799 68.1138 46.4065 68.0805 46.4299C68.0138 46.4732 67.9504 46.5132 67.8804 46.5499C67.7737 46.6033 67.6603 46.6499 67.5436 46.6866C67.1968 46.8 66.83 46.8367 66.4632 46.84C65.863 46.8433 65.2661 46.7533 64.6793 46.6199C64.3592 46.5466 64.039 46.75 63.969 47.0701C63.8957 47.3902 64.0957 47.7103 64.4192 47.7837C64.866 47.8837 65.3195 47.9604 65.7763 48.0004C66.1398 48.0338 66.5099 48.0438 66.8734 48.0171C67.4069 47.9737 67.9371 47.8537 68.4139 47.6136C68.5806 47.5303 68.744 47.4302 68.8874 47.3102C69.0141 47.2068 69.1242 47.0868 69.2142 46.9501C69.3076 46.81 69.3743 46.6533 69.4176 46.4899C69.4576 46.3298 69.4776 46.1664 69.481 46.0031C69.491 45.723 69.4643 45.4462 69.4276 45.1694C69.3576 44.6026 69.2575 44.039 69.1642 43.4755C69.0275 42.6719 68.9041 41.8649 68.784 41.0546C68.6106 39.9076 68.4473 38.7572 68.3406 37.6001C68.2972 37.0899 68.2605 36.5764 68.2672 36.0629C68.2705 35.7094 68.2905 35.356 68.3605 35.0125C68.4172 34.7391 68.5039 34.4723 68.6206 34.2189C68.6873 34.0822 68.7607 33.9455 68.8374 33.8154C68.9474 33.632 69.0675 33.4586 69.1942 33.2886C69.7944 32.4983 70.558 31.8414 71.415 31.3479C72.4153 30.7743 73.5424 30.4275 74.6895 30.3408C75.343 30.2942 76.0033 30.3308 76.6468 30.4409C77.3838 30.5676 78.1007 30.791 78.7842 31.0844C79.5979 31.4312 80.3681 31.8747 81.0917 32.3849C82.1321 33.1152 83.0757 33.9721 83.9494 34.8958L83.9527 34.8991ZM75.7398 39.5341C78.3241 39.5274 80.6816 38.0636 81.8286 35.7494C80.6749 33.4386 78.3108 31.9814 75.7265 31.9881C73.1423 31.9914 70.7848 33.4586 69.6377 35.7728C70.7948 38.0802 73.1556 39.5374 75.7398 39.5341ZM75.2997 51.4616C69.3442 51.4516 63.3888 51.4416 57.4334 51.4316C62.5385 57.5805 70.1712 57.5938 75.2997 51.4616ZM63.0954 35.7728C61.945 33.4586 59.5875 31.9914 57.0066 31.9881C54.4223 31.9814 52.0581 33.4386 50.901 35.7494C52.0514 38.0636 54.409 39.5274 56.9932 39.5341C59.5741 39.5374 61.9383 38.0802 63.0954 35.7728Z" fill="url(#paint7_linear)"/>
<path d="M73.8258 73.7266C73.6791 74.0734 73.5191 74.4301 73.359 74.8003C71.8184 75.6573 69.9378 75.6072 67.7137 74.6536C70.348 75.4639 72.3853 75.1537 73.8258 73.7266Z" fill="url(#paint8_linear)"/>
<path d="M58.9071 73.7266C60.3476 75.1537 62.385 75.4638 65.0193 74.6536C62.7918 75.6072 60.9112 75.6572 59.3706 74.7969C59.2106 74.4268 59.0538 74.0734 58.9071 73.7266Z" fill="url(#paint9_linear)"/>
<path d="M70.0512 65.5798C70.1279 65.6264 70.2046 65.6698 70.2846 65.7131C69.9545 65.9399 69.6011 66.1233 69.2309 66.27C68.7708 66.4534 68.2873 66.5801 67.8004 66.6635C67.3269 66.7435 66.8467 66.7868 66.3666 66.7868C65.8864 66.7868 65.4063 66.7435 64.9328 66.6635C64.4426 66.5801 63.9624 66.4534 63.5023 66.27C63.1288 66.1233 62.7753 65.9366 62.4485 65.7131C62.5286 65.6698 62.6053 65.6264 62.682 65.5798C62.7854 65.5197 62.8887 65.4597 62.9887 65.393C63.0888 65.3297 63.1888 65.263 63.2888 65.1963C65.0094 66.1366 67.7237 66.1366 69.4443 65.1963C69.5443 65.263 69.6444 65.3297 69.7444 65.393C69.8445 65.4597 69.9478 65.5197 70.0512 65.5798Z" fill="#003CB0"/>
<path d="M72.0351 87.5914C70.1411 87.8815 68.2504 88.0282 66.3331 88.0282C64.4458 88.0282 62.5818 87.8849 60.7145 87.6048C60.6244 87.5914 60.5377 87.5781 60.4477 87.5647C62.0916 81.3725 60.6211 77.6679 59.3706 74.7969C60.9112 75.6572 62.7919 75.6072 65.0193 74.6535C62.3851 75.4638 60.3476 75.1537 58.9071 73.7265C57.5733 70.6054 51.6145 72.1826 42.3079 65.8604V62.916C45.9059 65.667 48.7636 66.9574 51.8013 67.2976C54.0421 67.551 56.3829 67.2909 59.1906 66.7207C60.3876 66.5873 61.438 66.2672 62.4484 65.7137C62.7752 65.9371 63.1286 66.1238 63.5021 66.2705C63.9623 66.4539 64.4424 66.5806 64.9326 66.664C65.4061 66.744 65.8863 66.7874 66.3664 66.7874C66.8466 66.7874 67.3268 66.744 67.8003 66.664C68.2871 66.5806 68.7706 66.4539 69.2308 66.2705C69.6009 66.1238 69.9544 65.9404 70.2845 65.7137C71.2915 66.2672 72.3419 66.5873 73.539 66.7207C75.5563 67.1642 75.4663 69.7684 73.9091 73.5231C73.8824 73.5898 73.8524 73.6565 73.8257 73.7265C72.3852 75.1537 70.3479 75.4638 67.7136 74.6535C69.9377 75.6072 71.8183 75.6572 73.3589 74.8002C72.1118 77.6712 70.6446 81.3725 72.2785 87.5547C72.1985 87.5681 72.1151 87.5814 72.0351 87.5914Z" fill="url(#paint10_linear)"/>
<path d="M74.8162 104.927C74.4761 109.875 74.4794 113.917 75.3097 118.842C75.213 118.842 75.113 118.842 75.0163 118.842C74.5594 118.842 74.0993 118.842 73.6424 118.842C73.5391 118.842 73.4323 118.842 73.329 118.842C72.6988 114.95 71.8218 110.229 70.6113 106.454C70.2579 105.36 69.8611 104.283 69.3909 103.233C69.0008 102.349 68.5606 101.489 68.1538 100.615C67.7503 99.7585 67.3902 98.8881 67.0968 97.9878C66.9201 97.451 66.77 96.9108 66.6366 96.3639C66.5599 96.0538 66.4933 95.7437 66.4299 95.4336C66.3966 95.2669 66.3632 95.1001 66.3332 94.9334C66.3165 94.8334 66.3232 94.65 66.1665 94.65C66.0131 94.65 66.0197 94.8334 66.0031 94.9334C65.9731 95.1001 65.9397 95.2669 65.9064 95.4336C65.843 95.7437 65.7763 96.0538 65.6996 96.3639C65.5662 96.9108 65.4162 97.451 65.2395 97.9878C64.946 98.8881 64.5859 99.7585 64.1824 100.615C63.7756 101.489 63.3354 102.349 62.942 103.233C62.4751 104.283 62.0784 105.36 61.7249 106.454C60.5145 110.229 59.6375 114.95 59.0073 118.842C58.9039 118.842 58.7972 118.842 58.6905 118.842C58.2336 118.842 57.7768 118.842 57.32 118.842C57.2233 118.842 57.1233 118.842 57.0266 118.842C58.0236 112.92 57.7935 108.832 57.3734 102.913C57.1733 100.062 56.9999 97.8178 57.6534 94.9634C57.8035 94.3132 57.9902 93.673 58.2203 93.0427C58.4471 92.4192 58.7439 91.829 59.0139 91.2221C59.5408 90.0383 60.1377 88.7712 60.7145 87.6042C62.5819 87.8843 64.4458 88.0276 66.3332 88.0276C68.2505 88.0276 70.1412 87.8809 72.0352 87.5908C72.4153 88.8079 72.8455 90.085 73.3223 91.2621C74.3893 93.4129 74.9595 95.5636 75.1096 97.9612C75.2296 99.8852 74.9496 103.023 74.8162 104.927Z" fill="#003CB0"/>
<path d="M83.7127 32.9853C83.5093 31.6681 83.2125 30.3643 82.8223 29.0806C82.2855 27.3066 81.4852 25.6093 80.4515 24.0721C79.3811 22.4816 78.0573 21.0577 76.5368 19.8873C75.0429 18.7402 73.3623 17.8399 71.5784 17.243C69.9011 16.6828 68.1338 16.3927 66.3665 16.3927C64.5992 16.3927 62.8319 16.6828 61.1547 17.243C59.3674 17.8399 57.6868 18.7402 56.1962 19.8873C54.6757 21.0577 53.3519 22.4816 52.2815 24.0721C51.2445 25.6093 50.4476 27.3066 49.9074 29.0806C49.5172 30.3643 49.2204 31.6681 49.017 32.9853C48.917 33.6188 48.8403 34.2591 48.7803 34.8959V34.8993C48.2568 40.7814 49.5239 46.7668 52.5316 51.9353C53.2252 53.1191 53.9988 54.2595 54.8658 55.3298C55.1492 55.68 55.4393 56.0201 55.7428 56.3535C55.6294 58.7444 55.5127 61.1319 55.396 63.5194C48.2167 57.4339 44.8289 48.7842 45.229 37.5702C45.2557 37.02 45.2824 36.4698 45.3091 35.9196C45.3324 35.4495 45.3658 34.976 45.4091 34.5058C45.5592 32.8686 45.8359 31.2447 46.2327 29.6474C46.3294 29.2573 46.4328 28.8672 46.5462 28.4803C46.6562 28.0969 46.7763 27.7167 46.9063 27.3366C47.1664 26.5697 47.4732 25.8161 47.82 25.0791C48.1734 24.3255 48.5702 23.592 49.0071 22.885C49.4539 22.1648 49.9407 21.4679 50.4709 20.8043C51.538 19.4605 52.765 18.2434 54.1255 17.1997C55.476 16.1593 56.9565 15.2923 58.5204 14.6188C59.284 14.2887 60.0676 14.0086 60.8646 13.7785C61.6448 13.5517 62.4385 13.375 63.2421 13.2483C64.019 13.1216 64.806 13.0449 65.5963 13.0115C66.3699 12.9815 67.1435 12.9949 67.9171 13.0549C69.5276 13.1816 71.1215 13.5084 72.6554 14.0219C74.2526 14.5588 75.7865 15.299 77.2037 16.2127C77.5638 16.4428 77.9173 16.6862 78.2641 16.9396C78.6109 17.1964 78.9477 17.4598 79.2744 17.7365C79.6046 18.0133 79.9246 18.2967 80.2381 18.5935C80.5482 18.8903 80.8517 19.1937 81.1451 19.5072C81.4352 19.8206 81.7186 20.1407 81.992 20.4708C82.2621 20.801 82.5289 21.1377 82.7823 21.4812C83.2792 22.1614 83.7327 22.8717 84.1495 23.6053C84.5496 24.3155 84.9164 25.0458 85.2366 25.7961C85.5567 26.5463 85.8301 27.3166 86.0702 28.0969C86.547 29.6541 86.8971 31.248 87.1305 32.8619C87.2739 33.8756 87.3706 34.8959 87.4206 35.9196C87.4473 36.4698 87.474 37.02 87.5007 37.5702C87.5207 38.1671 87.534 38.7573 87.534 39.3375C87.534 49.6979 84.1328 57.7574 77.3337 63.5194C77.2204 61.1319 77.1036 58.7444 76.9869 56.3535C77.2904 56.0234 77.5805 55.68 77.8639 55.3332C78.7276 54.2661 79.5012 53.1257 80.1947 51.9386C83.2058 46.7701 84.4763 40.7814 83.9527 34.8993L83.9494 34.8959C83.8927 34.2557 83.8127 33.6188 83.7127 32.9853Z" fill="url(#paint11_linear)"/>
<path d="M83.7126 32.9855C83.8127 33.6191 83.8927 34.2559 83.9494 34.8962C83.0757 33.9725 82.1321 33.1155 81.0917 32.3853C80.3681 31.8751 79.5978 31.4316 78.7842 31.0848C78.1007 30.7914 77.3838 30.568 76.6468 30.4413C76.0033 30.3312 75.343 30.2945 74.6895 30.3412C73.5424 30.4279 72.4153 30.7747 71.415 31.3483C70.558 31.8418 69.7944 32.4987 69.1942 33.2889C69.0674 33.459 68.9474 33.6324 68.8374 33.8158C68.7607 33.9458 68.6873 34.0826 68.6206 34.2193C68.5039 34.4727 68.4172 34.7394 68.3605 35.0129C68.2905 35.3563 68.2705 35.7098 68.2672 36.0632C68.2605 36.5768 68.2972 37.0903 68.3405 37.6005C68.4473 38.7575 68.6106 39.9079 68.784 41.055C68.9041 41.8653 69.0274 42.6723 69.1642 43.4759C69.2575 44.0394 69.3576 44.6029 69.4276 45.1698C69.4643 45.4466 69.491 45.7233 69.481 46.0034C69.4776 46.1668 69.4576 46.3302 69.4176 46.4903C69.3742 46.6537 69.3076 46.8104 69.2142 46.9504C69.1242 47.0871 69.0141 47.2072 68.8874 47.3106C68.744 47.4306 68.5806 47.5306 68.4139 47.614C67.9371 47.8541 67.4069 47.9741 66.8734 48.0175C66.5099 48.0441 66.1397 48.0341 65.7763 48.0008C65.3195 47.9608 64.866 47.8841 64.4192 47.7841C64.0957 47.7107 63.8956 47.3906 63.969 47.0705C64.039 46.7504 64.3591 46.547 64.6793 46.6203C65.2661 46.7537 65.863 46.8437 66.4632 46.8404C66.83 46.8371 67.1968 46.8004 67.5436 46.687C67.6603 46.6503 67.7737 46.6036 67.8804 46.5503C67.9504 46.5136 68.0138 46.4736 68.0804 46.4302C68.1138 46.4069 68.1505 46.3802 68.1772 46.3502C68.2005 46.3269 68.2172 46.3002 68.2305 46.2735C68.2472 46.2402 68.2605 46.2068 68.2672 46.1702C68.2805 46.1135 68.2872 46.0534 68.2905 45.9934C68.2972 45.8701 68.2872 45.7433 68.2772 45.6166C68.2505 45.3099 68.2038 45.0064 68.1538 44.703C68.0071 43.7726 67.8504 42.839 67.7036 41.9053C67.5869 41.135 67.4736 40.3648 67.3702 39.5912C67.2935 39.001 67.2201 38.4141 67.1635 37.8205C67.1201 37.357 67.0834 36.8935 67.0768 36.4267C67.0667 36.0566 67.0768 35.6831 67.1168 35.3096C67.1501 34.9962 67.2068 34.6828 67.2968 34.3827C67.3769 34.1026 67.4869 33.8291 67.6169 33.569C67.7837 33.2356 67.9837 32.9188 68.2072 32.6187C68.7473 31.8884 69.4142 31.2582 70.1612 30.738C70.9981 30.1512 71.9385 29.7077 72.9255 29.4409C74.0326 29.1408 75.203 29.0608 76.3467 29.1942C76.9869 29.2708 77.6205 29.4142 78.2374 29.6076C78.9243 29.8277 79.5879 30.1145 80.2281 30.4546C80.9484 30.8381 81.6352 31.2849 82.2855 31.7817C82.7823 32.1585 83.2558 32.5587 83.7126 32.9855Z" fill="url(#paint12_linear)"/>
<path d="M77.8172 123.031C77.8339 123.614 77.3037 123.935 76.7802 123.875C76.2567 123.818 75.7398 123.381 75.1229 122.791C74.5061 122.201 73.7925 121.457 73.5491 120.89C73.309 120.32 73.5391 119.923 73.329 118.843C73.4323 118.843 73.5391 118.843 73.6424 118.843C73.9092 119.84 74.416 120.473 74.7461 120.87C75.0763 121.27 75.2296 121.434 75.4931 121.48C75.7532 121.53 76.1266 121.467 76.29 121.34C76.4501 121.217 76.4034 121.034 75.0163 118.843C75.113 118.843 75.213 118.843 75.3097 118.843C77.237 121.604 77.8006 122.447 77.8172 123.031Z" fill="url(#paint13_linear)"/>
<path d="M57.4333 51.4316C63.3887 51.4416 69.3442 51.4516 75.2996 51.4616C70.1711 57.5938 62.5384 57.5805 57.4333 51.4316Z" fill="url(#paint14_linear)"/>
<path d="M65.3329 34.0691C65.4496 34.3792 65.2929 34.716 64.9827 34.8327C64.676 34.9461 64.3325 34.7894 64.2192 34.4792C64.1858 34.3925 64.1491 34.3059 64.1091 34.2192C64.0457 34.0824 63.9724 33.9457 63.8924 33.8157C63.7857 33.6323 63.6656 33.4589 63.5356 33.2888C62.9387 32.4985 62.1751 31.8416 61.3148 31.3481C60.3178 30.7746 59.1907 30.4278 58.0403 30.3411C57.3901 30.2944 56.7299 30.3311 56.083 30.4412C55.3494 30.5679 54.6324 30.7913 53.9455 31.0847C53.1319 31.4315 52.365 31.875 51.6414 32.3852C50.5977 33.1154 49.6574 33.9724 48.7804 34.8961C48.8404 34.2592 48.9171 33.6189 49.0171 32.9854C49.8841 32.1818 50.8211 31.4482 51.8348 30.8346C52.8685 30.2111 53.9822 29.7142 55.1493 29.4241C56.1396 29.1774 57.1733 29.0773 58.1904 29.1607C59.0973 29.2307 59.9943 29.4475 60.8346 29.7909C61.6049 30.1044 62.3285 30.5279 62.982 31.0414C63.5722 31.5049 64.1025 32.0417 64.5459 32.6453C64.766 32.9454 64.9661 33.2655 65.1328 33.6023C65.2062 33.7523 65.2762 33.9057 65.3329 34.0658V34.0691Z" fill="url(#paint15_linear)"/>
<path d="M58.6904 118.843C58.7971 118.843 58.9038 118.843 59.0072 118.843C58.7971 119.923 59.0272 120.32 58.7871 120.89C58.5437 121.457 57.8301 122.201 57.2132 122.791C56.5964 123.381 56.0795 123.818 55.5527 123.875C55.0292 123.935 54.5023 123.614 54.5189 123.031C54.5356 122.447 55.0991 121.604 57.0265 118.843C57.1232 118.843 57.2232 118.843 57.3199 118.843C55.9328 121.034 55.8861 121.217 56.0462 121.34C56.2096 121.467 56.583 121.53 56.8431 121.48C57.1065 121.434 57.2599 121.27 57.59 120.87C57.9168 120.473 58.4236 119.84 58.6904 118.843Z" fill="url(#paint16_linear)"/>
<path d="M90.9687 53.0589C90.7786 52.6954 90.6785 52.272 90.8653 51.8952C90.8719 51.8818 90.8786 51.8685 90.8853 51.8551L94.0064 45.833C93.703 46.4165 94.0798 47.0868 94.4266 47.5069C94.83 48.0038 95.3068 48.3539 95.867 48.6473C96.4306 48.9408 96.9875 49.1342 97.6277 49.1875C98.1745 49.2342 98.9482 49.1742 99.2716 48.5873L96.1605 54.5894C95.9738 54.9796 95.567 55.153 95.1568 55.213C94.9368 55.2463 94.7167 55.2463 94.5299 55.233C93.8864 55.1863 93.3228 54.9963 92.756 54.7028C92.1891 54.4094 91.7123 54.0593 91.3021 53.5591C91.1854 53.419 91.0654 53.249 90.9687 53.0622C90.9687 53.0622 90.9687 53.0622 90.9687 53.0589Z" fill="url(#paint17_linear)"/>
<path d="M89.5082 79.1844L84.333 88.8445H84.3297C81.0619 88.7811 78.2842 88.1843 75.9901 87.0505C73.7393 85.8301 71.6486 83.8994 69.7145 81.2652C71.3518 78.0007 72.9857 74.7362 74.6263 71.4717C76.6003 74.156 78.731 76.1067 81.0318 77.3238C83.3527 78.5008 86.177 79.1211 89.5082 79.1844Z" fill="url(#paint18_linear)"/>
<path d="M85.7267 68.2647C87.2739 69.0683 87.8808 70.9756 87.0772 72.5262C86.2736 74.0734 84.3662 74.6803 82.819 73.8767C81.2685 73.0731 80.6649 71.1657 81.4685 69.6185C82.2688 68.068 84.1762 67.4644 85.7267 68.2647Z" fill="url(#paint19_linear)"/>
<path d="M98.8648 46.89C99.2149 47.3201 99.5984 47.997 99.2716 48.5872C98.9482 49.1741 98.1745 49.2341 97.6277 49.1874C96.9875 49.1341 96.4306 48.9407 95.8671 48.6473C95.3069 48.3538 94.83 48.0037 94.4266 47.5069C94.0798 47.0867 93.703 46.4165 94.0064 45.8329C94.0131 45.8263 94.0164 45.8163 94.0198 45.8096C94.3432 45.2261 95.1168 45.166 95.667 45.2127C96.3039 45.2661 96.8641 45.4561 97.4243 45.7529C97.9845 46.0463 98.4613 46.3931 98.8648 46.89Z" fill="url(#paint20_linear)"/>
<path d="M84.3297 88.845L83.5327 90.3355C82.489 92.2828 81.4453 94.2335 80.4016 96.1809C79.8481 97.2146 78.731 97.8148 77.564 97.7048C75.1898 97.4813 73.1057 96.9378 71.3151 96.0708C69.5745 95.1072 67.9272 93.72 66.3767 91.906C65.613 91.0157 65.4596 89.7553 65.9865 88.7083C67.2303 86.2274 68.4741 83.7465 69.7145 81.2656C71.6485 83.8999 73.7392 85.8306 75.99 87.051C78.2842 88.1847 81.0618 88.7816 84.3297 88.845Z" fill="#FF6584"/>
<path d="M94.5299 55.2333C94.7166 55.2466 94.9367 55.2466 95.1568 55.2133C94.9801 55.56 94.7433 55.9869 94.5799 56.3137C93.9297 57.6141 93.2794 58.9146 92.6292 60.215C90.8919 63.6896 90.9886 65.4235 91.6556 67.4176C91.7422 67.6643 91.8323 67.9178 91.929 68.1745C92.866 70.6954 92.7759 73.0229 91.6622 75.1637C91.6222 75.2403 91.5822 75.317 91.5388 75.3937C90.9119 76.5675 90.2817 77.7412 89.6515 78.915L89.5081 79.1851C86.1769 79.1217 83.3526 78.5015 81.0318 77.3244C78.7309 76.1073 76.6002 74.1566 74.6262 71.4723C75.3131 70.0952 76.0033 68.7214 76.6935 67.3476V67.3442C77.8006 65.2268 79.6446 63.8263 82.2255 63.1427C82.489 63.076 82.749 63.006 83.0025 62.9293C85.0132 62.3291 86.487 61.4054 88.3243 57.9842L90.3884 54.1429C90.5818 53.7828 90.7752 53.4226 90.9686 53.0625C91.0653 53.2492 91.1854 53.4193 91.3021 53.5593C91.7122 54.0595 92.189 54.4096 92.7559 54.7031C93.3228 54.9965 93.8863 55.1866 94.5299 55.2333ZM87.0772 72.5261C87.8808 70.9755 87.274 69.0682 85.7268 68.2645C84.1762 67.4643 82.2689 68.0678 81.4686 69.6184C80.665 71.1656 81.2685 73.0729 82.8191 73.8765C84.3663 74.6801 86.2736 74.0733 87.0772 72.5261Z" fill="#FF6584"/>
<path d="M11.5839 77.9549H40.6408C41.5611 77.9549 42.3081 77.208 42.3081 76.2877V50.0784C42.3081 49.1581 41.5611 48.4111 40.6408 48.4111H11.5839C10.6636 48.4111 9.91663 49.1581 9.91663 50.0784V76.2877C9.91663 77.208 10.6636 77.9549 11.5839 77.9549Z" fill="#003CB0"/>
<path d="M13.3011 75.5704H38.9235C39.4771 75.5704 39.9239 75.1235 39.9239 74.57V51.7953C39.9239 51.2417 39.4771 50.7949 38.9235 50.7949H13.3011C12.7475 50.7949 12.3007 51.2417 12.3007 51.7953V74.57C12.3007 75.1202 12.7509 75.5704 13.3011 75.5704Z" fill="white"/>
<rect x="15.7666" y="55.7334" width="20.5333" height="2.2" rx="1.1" fill="url(#paint21_linear)"/>
<rect x="15.7666" y="60.1338" width="20.5333" height="2.2" rx="1.1" fill="url(#paint22_linear)"/>
<rect x="15.7666" y="64.5332" width="11.7333" height="2.2" rx="1.1" fill="url(#paint23_linear)"/>
<path d="M92.9859 80.702C93.7762 81.1222 94.073 82.1059 93.6495 82.8928C93.226 83.6831 92.2456 83.9799 91.4587 83.5564C89.2346 82.3659 87.0105 81.1755 84.7897 79.9851C84.0394 79.5816 84.0528 78.5913 84.4029 77.941C84.753 77.2875 85.57 76.7273 86.3203 77.1274C87.4306 77.721 88.541 78.3178 89.6514 78.9147L92.3723 80.3719C92.5757 80.4819 92.7825 80.592 92.9859 80.702ZM87.0038 79.3349C87.2972 78.7913 87.0905 78.1144 86.547 77.821C86.3936 77.7376 86.2369 77.6543 86.0801 77.5709C85.9968 77.5276 85.9034 77.5076 85.8067 77.5042C85.6934 77.5042 85.58 77.5309 85.4766 77.5742C85.3466 77.6309 85.2332 77.7143 85.1298 77.811C85.0164 77.9177 84.9198 78.0411 84.8464 78.1778C84.773 78.3145 84.723 78.4646 84.6997 78.618C84.673 78.7547 84.6697 78.898 84.693 79.0348C84.7164 79.1481 84.7564 79.2548 84.8197 79.3482C84.8731 79.4282 84.9431 79.4949 85.0265 79.5416C85.1832 79.625 85.3399 79.7083 85.4933 79.7917C86.0368 80.0818 86.7137 79.8784 87.0038 79.3349Z" fill="url(#paint24_linear)"/>
<path d="M92.0089 83.8501C92.7958 84.2736 93.0926 85.2573 92.6691 86.0442C92.249 86.8312 91.2653 87.1279 90.4784 86.7078C90.1883 86.5511 89.8948 86.3943 89.6047 86.241C87.484 85.1039 85.3666 83.9668 83.2458 82.8331C83.0591 82.7331 82.8757 82.633 82.689 82.533C81.9387 82.1328 81.9554 81.1392 82.3022 80.4889C82.6523 79.8387 83.4693 79.2752 84.2195 79.6786C84.4096 79.7787 84.5996 79.882 84.7897 79.9854C87.0105 81.1758 89.2346 82.3663 91.4587 83.5567C91.6421 83.6534 91.8255 83.7534 92.0089 83.8501ZM84.9064 81.8828C85.1965 81.3392 84.9931 80.6623 84.4496 80.3722C84.2929 80.2889 84.1362 80.2055 83.9794 80.1221C83.8961 80.0788 83.8027 80.0588 83.7093 80.0554C83.596 80.0554 83.4826 80.0788 83.3759 80.1255C83.2492 80.1788 83.1324 80.2622 83.0291 80.3589C82.919 80.4656 82.819 80.5923 82.7457 80.729C82.6723 80.8624 82.6256 81.0124 82.599 81.1658C82.5756 81.3059 82.5689 81.4493 82.5956 81.586C82.6156 81.696 82.6556 81.8061 82.719 81.8994C82.7723 81.9761 82.8424 82.0461 82.9257 82.0895C83.0824 82.1729 83.2392 82.2562 83.3926 82.3396C83.9361 82.633 84.613 82.4263 84.9064 81.8828Z" fill="url(#paint25_linear)"/>
<path d="M91.0286 76.3477L92.3724 80.3724L89.6514 78.9152L91.0286 76.3477Z" fill="url(#paint26_linear)"/>
<path d="M89.6047 86.241C90.3883 86.6611 90.685 87.6415 90.2615 88.4284C89.8414 89.2187 88.8577 89.5155 88.0708 89.092C87.7373 88.9119 87.4006 88.7352 87.0671 88.5552C86.8704 88.4518 86.677 88.3451 86.4802 88.2384C85.1631 87.5348 83.8426 86.8279 82.5288 86.121C82.5121 86.111 82.4955 86.1043 82.4788 86.0976C82.2254 85.9609 81.972 85.8275 81.7185 85.6908C80.9683 85.2873 80.9849 84.297 81.3317 83.6434C81.6818 82.9932 82.4955 82.4363 83.2457 82.8331C85.3665 83.9669 87.4839 85.1039 89.6047 86.241ZM83.936 85.0406C84.2261 84.497 84.0227 83.8201 83.4792 83.5267C83.3224 83.4433 83.1657 83.36 83.0123 83.2766C82.929 83.2333 82.8322 83.2133 82.7389 83.2099C82.6255 83.2099 82.5121 83.2366 82.4088 83.2799C82.2787 83.3366 82.162 83.42 82.062 83.5167C81.9486 83.6234 81.8486 83.7468 81.7785 83.8835C81.7052 84.0202 81.6552 84.1703 81.6285 84.3237C81.6052 84.4604 81.5985 84.6038 81.6252 84.7405C81.6452 84.8538 81.6852 84.9605 81.7519 85.0539C81.8052 85.1339 81.8719 85.2006 81.9553 85.244C82.112 85.3307 82.2687 85.414 82.4254 85.4974C82.969 85.7875 83.6459 85.5841 83.936 85.0406Z" fill="url(#paint27_linear)"/>
<path d="M87.0671 88.5552C87.854 88.9754 88.1508 89.9591 87.7307 90.746C87.3072 91.5363 86.3235 91.8331 85.5365 91.4096C84.0227 90.5993 82.5121 89.789 80.9983 88.9787C80.248 88.5753 80.2613 87.5849 80.6115 86.9347C80.9549 86.2945 81.7419 85.7476 82.4788 86.0977C83.8126 86.8113 85.1464 87.5249 86.4802 88.2385C86.677 88.3452 86.8704 88.4519 87.0671 88.5552ZM83.2124 88.3285C83.5058 87.785 83.2991 87.1081 82.7589 86.818C82.6022 86.7346 82.4454 86.6512 82.2887 86.5645C82.2054 86.5212 82.112 86.5012 82.0153 86.5012C81.9019 86.4978 81.7886 86.5245 81.6852 86.5679C81.5585 86.6246 81.4418 86.7079 81.3384 86.8046C81.225 86.9113 81.1283 87.0347 81.055 87.1714C80.9816 87.3081 80.9349 87.4582 80.9082 87.6116C80.8816 87.7483 80.8783 87.8917 80.9016 88.0284C80.9249 88.1418 80.9649 88.2485 81.0283 88.3418C81.0816 88.4219 81.1517 88.4886 81.2351 88.5352C81.3918 88.6186 81.5485 88.702 81.7019 88.7853C82.2454 89.0754 82.9223 88.872 83.2124 88.3285Z" fill="url(#paint28_linear)"/>
<path d="M86.5469 77.8207C87.0904 78.1141 87.2972 78.791 87.0037 79.3346C86.7136 79.8781 86.0367 80.0815 85.4932 79.7914C85.3398 79.708 85.1831 79.6247 85.0264 79.5413C84.943 79.4946 84.873 79.4279 84.8196 79.3479C84.7563 79.2545 84.7163 79.1478 84.6929 79.0345C84.6696 78.8977 84.6729 78.7544 84.6996 78.6176C84.7229 78.4642 84.7729 78.3142 84.8463 78.1775C84.9197 78.0408 85.0164 77.9174 85.1297 77.8107C85.2331 77.714 85.3465 77.6306 85.4765 77.5739C85.5799 77.5306 85.6933 77.5039 85.8067 77.5039C85.9034 77.5072 85.9967 77.5272 86.0801 77.5706C86.2368 77.654 86.3935 77.7373 86.5469 77.8207Z" fill="url(#paint29_linear)"/>
<path d="M86.4803 88.2384C85.1465 87.5248 83.8127 86.8112 82.4789 86.0977C82.4956 86.1043 82.5122 86.111 82.5289 86.121C83.8427 86.8279 85.1632 87.5348 86.4803 88.2384Z" fill="url(#paint30_linear)"/>
<path d="M84.4495 80.3724C84.9931 80.6625 85.1965 81.3395 84.9064 81.883C84.6129 82.4265 83.936 82.6332 83.3925 82.3398C83.2391 82.2564 83.0824 82.1731 82.9257 82.0897C82.8423 82.0464 82.7723 81.9763 82.719 81.8997C82.6556 81.8063 82.6156 81.6962 82.5956 81.5862C82.5689 81.4495 82.5756 81.3061 82.5989 81.1661C82.6256 81.0127 82.6723 80.8626 82.7456 80.7292C82.819 80.5925 82.919 80.4658 83.029 80.3591C83.1324 80.2624 83.2491 80.179 83.3758 80.1257C83.4825 80.079 83.5959 80.0557 83.7093 80.0557C83.8027 80.059 83.896 80.079 83.9794 80.1224C84.1361 80.2057 84.2928 80.2891 84.4495 80.3724Z" fill="url(#paint31_linear)"/>
<path d="M83.4793 83.5267C84.0229 83.8202 84.2263 84.4971 83.9362 85.0406C83.6461 85.5841 82.9691 85.7875 82.4256 85.4974C82.2689 85.4141 82.1121 85.3307 81.9554 85.244C81.8721 85.2007 81.8054 85.134 81.752 85.054C81.6853 84.9606 81.6453 84.8539 81.6253 84.7405C81.5986 84.6038 81.6053 84.4604 81.6286 84.3237C81.6553 84.1703 81.7053 84.0202 81.7787 83.8835C81.8487 83.7468 81.9488 83.6234 82.0622 83.5167C82.1622 83.42 82.2789 83.3367 82.4089 83.28C82.5123 83.2366 82.6257 83.21 82.739 83.21C82.8324 83.2133 82.9291 83.2333 83.0125 83.2767C83.1659 83.36 83.3226 83.4434 83.4793 83.5267Z" fill="url(#paint32_linear)"/>
<path d="M82.759 86.818C83.2992 87.1081 83.506 87.785 83.2125 88.3286C82.9224 88.8721 82.2455 89.0755 81.702 88.7854C81.5486 88.702 81.3919 88.6187 81.2352 88.5353C81.1518 88.4886 81.0818 88.4219 81.0284 88.3419C80.965 88.2485 80.9251 88.1418 80.9017 88.0285C80.8784 87.8918 80.8817 87.7484 80.9084 87.6117C80.935 87.4583 80.9817 87.3082 81.0551 87.1715C81.1285 87.0348 81.2252 86.9114 81.3385 86.8047C81.4419 86.708 81.5586 86.6246 81.6853 86.568C81.7887 86.5246 81.9021 86.4979 82.0155 86.5013C82.1122 86.5013 82.2055 86.5213 82.2889 86.5646C82.4456 86.6513 82.6023 86.7347 82.759 86.818Z" fill="url(#paint33_linear)"/>
<path d="M34.7319 45.8195C34.7319 46.6831 34.7319 47.5468 34.7319 48.4104C34.0183 48.4104 33.3048 48.4104 32.5912 48.4104C32.5912 47.0299 32.5912 45.6494 32.5912 44.2656C32.7879 44.2656 32.9846 44.2656 33.1814 44.2656C34.0383 44.2656 34.7319 44.9625 34.7319 45.8195Z" fill="url(#paint34_linear)"/>
<path d="M32.5912 48.411C32.5912 49.2347 32.5912 50.0549 32.5912 50.8786C32.5912 51.7289 31.7109 52.1857 30.9706 52.1857C30.2337 52.1857 29.3534 51.7289 29.3534 50.8786C29.3534 48.3577 29.3534 45.8368 29.3534 43.3126C29.3534 42.4189 30.077 41.6953 30.9706 41.6953C31.8676 41.6953 32.5912 42.4189 32.5912 43.3126C32.5912 43.6293 32.5912 43.9494 32.5912 44.2662C32.5912 45.65 32.5912 47.0305 32.5912 48.411ZM32.0877 50.8786C32.0877 50.7018 32.0877 50.5251 32.0877 50.3484C32.0877 49.7315 31.5875 49.2313 30.9706 49.2313C30.3537 49.2313 29.8569 49.7315 29.8569 50.3484C29.8569 50.5251 29.8569 50.7018 29.8569 50.8786C29.8569 50.9753 29.8836 51.0686 29.9269 51.152C29.9769 51.252 30.0536 51.3387 30.1437 51.4121C30.2504 51.4988 30.3804 51.5588 30.5138 51.6055C30.6605 51.6555 30.8172 51.6822 30.9706 51.6822C31.1273 51.6822 31.2807 51.6555 31.4308 51.6055C31.5642 51.5588 31.6909 51.4988 31.801 51.4121C31.8876 51.3387 31.9643 51.252 32.0177 51.152C32.061 51.0686 32.0877 50.9753 32.0877 50.8786Z" fill="url(#paint35_linear)"/>
<path d="M32.0877 50.3485C32.0877 50.5252 32.0877 50.702 32.0877 50.8787C32.0877 50.9754 32.061 51.0688 32.0177 51.1521C31.9643 51.2522 31.8877 51.3389 31.801 51.4122C31.6909 51.4989 31.5642 51.5589 31.4308 51.6056C31.2807 51.6556 31.1274 51.6823 30.9706 51.6823C30.8173 51.6823 30.6605 51.6556 30.5138 51.6056C30.3804 51.5589 30.2504 51.4989 30.1437 51.4122C30.0537 51.3389 29.977 51.2522 29.9269 51.1521C29.8836 51.0688 29.8569 50.9754 29.8569 50.8787C29.8569 50.702 29.8569 50.5252 29.8569 50.3485C29.8569 49.7316 30.3538 49.2314 30.9706 49.2314C31.5875 49.2314 32.0877 49.7316 32.0877 50.3485Z" fill="url(#paint36_linear)"/>
<path d="M29.3534 50.8785C29.3534 51.0952 29.3534 51.312 29.3534 51.5254C29.3534 52.3757 28.4697 52.8325 27.7328 52.8325C26.9925 52.8325 26.1122 52.3757 26.1122 51.5254C26.1122 51.3153 26.1122 51.1019 26.1122 50.8918C26.1122 48.491 26.1122 46.0901 26.1122 43.6859C26.1122 43.3525 26.1122 43.0224 26.1122 42.6889C26.1122 41.7953 26.8392 41.0684 27.7328 41.0684C28.6264 41.0684 29.3534 41.7953 29.3534 42.6889C29.3534 42.899 29.3534 43.1057 29.3534 43.3125C29.3534 45.8367 29.3534 48.3576 29.3534 50.8785ZM28.8498 51.5254C28.8498 51.3487 28.8498 51.1719 28.8498 50.9952C28.8498 50.3783 28.3497 49.8781 27.7328 49.8781C27.1159 49.8781 26.6158 50.3783 26.6158 50.9952C26.6158 51.1719 26.6158 51.3487 26.6158 51.5254C26.6158 51.6221 26.6424 51.7155 26.6858 51.7988C26.7391 51.8989 26.8158 51.9856 26.9025 52.0589C27.0126 52.1456 27.1393 52.2056 27.2726 52.2523C27.4227 52.3023 27.5761 52.329 27.7328 52.329C27.8862 52.329 28.0429 52.3023 28.1896 52.2523C28.323 52.2056 28.453 52.1456 28.5597 52.0589C28.6498 51.9856 28.7265 51.8989 28.7765 51.7988C28.8232 51.7155 28.8498 51.6221 28.8498 51.5254Z" fill="url(#paint37_linear)"/>
<path d="M28.8499 50.995C28.8499 51.1717 28.8499 51.3485 28.8499 51.5252C28.8499 51.6219 28.8232 51.7152 28.7765 51.7986C28.7265 51.8986 28.6498 51.9853 28.5598 52.0587C28.4531 52.1454 28.323 52.2054 28.1897 52.2521C28.0429 52.3021 27.8862 52.3288 27.7328 52.3288C27.5761 52.3288 27.4227 52.3021 27.2727 52.2521C27.1393 52.2054 27.0126 52.1454 26.9025 52.0587C26.8158 51.9853 26.7391 51.8986 26.6858 51.7986C26.6424 51.7152 26.6158 51.6219 26.6158 51.5252C26.6158 51.3485 26.6158 51.1717 26.6158 50.995C26.6158 50.3781 27.116 49.8779 27.7328 49.8779C28.3497 49.8779 28.8499 50.3781 28.8499 50.995Z" fill="url(#paint38_linear)"/>
<path d="M26.1123 43.686C26.1123 46.0902 26.1123 48.491 26.1123 50.8919C26.1123 51.7422 25.232 52.1957 24.4917 52.1957C23.7548 52.1957 22.8745 51.7422 22.8745 50.8919C22.8745 50.5851 22.8745 50.2817 22.8745 49.9749C22.8745 48.2543 22.8745 46.5403 22.8745 44.8231C22.8745 44.4429 22.8745 44.0661 22.8745 43.686C22.8745 42.7924 23.598 42.0654 24.4917 42.0654C25.3887 42.0654 26.1123 42.7924 26.1123 43.686ZM25.6088 50.8919C25.6088 50.7152 25.6088 50.5384 25.6088 50.3617C25.6088 49.7448 25.1086 49.2446 24.4917 49.2446C23.8748 49.2446 23.378 49.7448 23.378 50.3617C23.378 50.5384 23.378 50.7152 23.378 50.8919C23.378 50.9853 23.4046 51.0786 23.448 51.162C23.498 51.2654 23.5747 51.3521 23.6647 51.4221C23.7748 51.5088 23.9015 51.5721 24.0349 51.6155C24.1816 51.6655 24.3383 51.6922 24.4917 51.6922C24.6484 51.6922 24.8018 51.6655 24.9519 51.6155C25.0853 51.5721 25.212 51.5088 25.322 51.4221C25.4087 51.3521 25.4854 51.2654 25.5388 51.162C25.5821 51.0786 25.6088 50.9853 25.6088 50.8919Z" fill="url(#paint39_linear)"/>
<path d="M25.6088 50.3612C25.6088 50.5379 25.6088 50.7147 25.6088 50.8914C25.6088 50.9848 25.5821 51.0781 25.5388 51.1615C25.4854 51.2649 25.4087 51.3516 25.322 51.4216C25.212 51.5083 25.0853 51.5716 24.9519 51.615C24.8018 51.665 24.6484 51.6917 24.4917 51.6917C24.3383 51.6917 24.1816 51.665 24.0349 51.615C23.9015 51.5716 23.7748 51.5083 23.6648 51.4216C23.5747 51.3516 23.498 51.2649 23.448 51.1615C23.4047 51.0781 23.378 50.9848 23.378 50.8914C23.378 50.7147 23.378 50.5379 23.378 50.3612C23.378 49.7443 23.8748 49.2441 24.4917 49.2441C25.1086 49.2441 25.6088 49.7443 25.6088 50.3612Z" fill="url(#paint40_linear)"/>
<path d="M22.8745 44.8233C22.8745 46.5406 22.8745 48.2545 22.8745 49.9751C22.8745 50.8254 21.9909 51.2789 21.2539 51.2789C20.5137 51.2789 19.6333 50.8254 19.6333 49.9751C19.6333 48.2578 19.6333 46.5406 19.6333 44.8233C19.6333 43.9296 20.3603 43.2061 21.2539 43.2061C22.1476 43.2061 22.8745 43.9296 22.8745 44.8233ZM22.371 49.9751C22.371 49.7984 22.371 49.6217 22.371 49.4449C22.371 48.828 21.8708 48.3279 21.2539 48.3279C20.637 48.3279 20.1368 48.828 20.1368 49.4449C20.1368 49.6217 20.1368 49.7984 20.1368 49.9751C20.1368 50.0685 20.1635 50.1619 20.2069 50.2452C20.2602 50.3453 20.3369 50.4353 20.4236 50.5053C20.5336 50.592 20.6637 50.6554 20.7971 50.6987C20.9438 50.7487 21.0972 50.7754 21.2539 50.7754C21.4073 50.7754 21.564 50.7487 21.7108 50.6987C21.8441 50.6554 21.9742 50.592 22.0842 50.5053C22.1709 50.4353 22.2476 50.3453 22.3009 50.2452C22.3443 50.1619 22.371 50.0685 22.371 49.9751Z" fill="url(#paint41_linear)"/>
<path d="M22.3709 49.4442C22.3709 49.6209 22.3709 49.7977 22.3709 49.9744C22.3709 50.0678 22.3442 50.1611 22.3009 50.2445C22.2475 50.3445 22.1709 50.4346 22.0842 50.5046C21.9741 50.5913 21.8441 50.6546 21.7107 50.698C21.564 50.748 21.4073 50.7747 21.2539 50.7747C21.0972 50.7747 20.9438 50.748 20.797 50.698C20.6637 50.6546 20.5336 50.5913 20.4235 50.5046C20.3368 50.4346 20.2602 50.3445 20.2068 50.2445C20.1635 50.1611 20.1368 50.0678 20.1368 49.9744C20.1368 49.7977 20.1368 49.6209 20.1368 49.4442C20.1368 48.8273 20.637 48.3271 21.2539 48.3271C21.8708 48.3271 22.3709 48.8273 22.3709 49.4442Z" fill="url(#paint42_linear)"/>
<path d="M45.9688 203.297C45.8542 204.51 45.4062 205.458 44.625 206.141C43.8438 206.818 42.8047 207.156 41.5078 207.156C40.6016 207.156 39.8021 206.943 39.1094 206.516C38.4219 206.083 37.8906 205.471 37.5156 204.68C37.1406 203.888 36.9453 202.969 36.9297 201.922V200.859C36.9297 199.786 37.1198 198.841 37.5 198.023C37.8802 197.206 38.4245 196.576 39.1328 196.133C39.8464 195.69 40.6693 195.469 41.6016 195.469C42.8568 195.469 43.8672 195.81 44.6328 196.492C45.3984 197.174 45.8438 198.138 45.9688 199.383H44C43.9062 198.565 43.6667 197.977 43.2812 197.617C42.901 197.253 42.3411 197.07 41.6016 197.07C40.7422 197.07 40.0807 197.385 39.6172 198.016C39.1589 198.641 38.9245 199.56 38.9141 200.773V201.781C38.9141 203.01 39.1328 203.948 39.5703 204.594C40.013 205.24 40.6589 205.562 41.5078 205.562C42.2839 205.562 42.8672 205.388 43.2578 205.039C43.6484 204.69 43.8958 204.109 44 203.297H45.9688ZM51.9844 200.281C51.7344 200.24 51.4766 200.219 51.2109 200.219C50.3411 200.219 49.7552 200.552 49.4531 201.219V207H47.5547V198.547H49.3672L49.4141 199.492C49.8724 198.758 50.5078 198.391 51.3203 198.391C51.5911 198.391 51.8151 198.427 51.9922 198.5L51.9844 200.281ZM56.75 207.156C55.5469 207.156 54.5703 206.779 53.8203 206.023C53.0755 205.263 52.7031 204.253 52.7031 202.992V202.758C52.7031 201.914 52.8646 201.161 53.1875 200.5C53.5156 199.833 53.974 199.315 54.5625 198.945C55.151 198.576 55.8073 198.391 56.5312 198.391C57.6823 198.391 58.5703 198.758 59.1953 199.492C59.8255 200.227 60.1406 201.266 60.1406 202.609V203.375H54.6172C54.6745 204.073 54.9062 204.625 55.3125 205.031C55.724 205.438 56.2396 205.641 56.8594 205.641C57.7292 205.641 58.4375 205.289 58.9844 204.586L60.0078 205.562C59.6693 206.068 59.2161 206.461 58.6484 206.742C58.0859 207.018 57.4531 207.156 56.75 207.156ZM56.5234 199.914C56.0026 199.914 55.5807 200.096 55.2578 200.461C54.9401 200.826 54.737 201.333 54.6484 201.984H58.2656V201.844C58.224 201.208 58.0547 200.729 57.7578 200.406C57.4609 200.078 57.0495 199.914 56.5234 199.914ZM66.6719 207C66.5885 206.839 66.5156 206.576 66.4531 206.211C65.849 206.841 65.1094 207.156 64.2344 207.156C63.3854 207.156 62.6927 206.914 62.1562 206.43C61.6198 205.945 61.3516 205.346 61.3516 204.633C61.3516 203.732 61.6849 203.042 62.3516 202.562C63.0234 202.078 63.9818 201.836 65.2266 201.836H66.3906V201.281C66.3906 200.844 66.2682 200.495 66.0234 200.234C65.7786 199.969 65.4062 199.836 64.9062 199.836C64.474 199.836 64.1198 199.945 63.8438 200.164C63.5677 200.378 63.4297 200.651 63.4297 200.984H61.5312C61.5312 200.521 61.6849 200.089 61.9922 199.688C62.2995 199.281 62.7161 198.964 63.2422 198.734C63.7734 198.505 64.3646 198.391 65.0156 198.391C66.0052 198.391 66.7943 198.641 67.3828 199.141C67.9714 199.635 68.2734 200.333 68.2891 201.234V205.047C68.2891 205.807 68.3958 206.414 68.6094 206.867V207H66.6719ZM64.5859 205.633C64.9609 205.633 65.3125 205.542 65.6406 205.359C65.974 205.177 66.224 204.932 66.3906 204.625V203.031H65.3672C64.6641 203.031 64.1354 203.154 63.7812 203.398C63.4271 203.643 63.25 203.99 63.25 204.438C63.25 204.802 63.3698 205.094 63.6094 205.312C63.8542 205.526 64.1797 205.633 64.5859 205.633ZM72.6562 196.492V198.547H74.1484V199.953H72.6562V204.672C72.6562 204.995 72.7188 205.229 72.8438 205.375C72.974 205.516 73.2031 205.586 73.5312 205.586C73.75 205.586 73.9714 205.56 74.1953 205.508V206.977C73.763 207.096 73.3464 207.156 72.9453 207.156C71.487 207.156 70.7578 206.352 70.7578 204.742V199.953H69.3672V198.547H70.7578V196.492H72.6562ZM79.3281 207.156C78.125 207.156 77.1484 206.779 76.3984 206.023C75.6536 205.263 75.2812 204.253 75.2812 202.992V202.758C75.2812 201.914 75.4427 201.161 75.7656 200.5C76.0938 199.833 76.5521 199.315 77.1406 198.945C77.7292 198.576 78.3854 198.391 79.1094 198.391C80.2604 198.391 81.1484 198.758 81.7734 199.492C82.4036 200.227 82.7188 201.266 82.7188 202.609V203.375H77.1953C77.2526 204.073 77.4844 204.625 77.8906 205.031C78.3021 205.438 78.8177 205.641 79.4375 205.641C80.3073 205.641 81.0156 205.289 81.5625 204.586L82.5859 205.562C82.2474 206.068 81.7943 206.461 81.2266 206.742C80.6641 207.018 80.0312 207.156 79.3281 207.156ZM79.1016 199.914C78.5807 199.914 78.1589 200.096 77.8359 200.461C77.5182 200.826 77.3151 201.333 77.2266 201.984H80.8438V201.844C80.8021 201.208 80.6328 200.729 80.3359 200.406C80.0391 200.078 79.6276 199.914 79.1016 199.914ZM93.2344 207C93.151 206.839 93.0781 206.576 93.0156 206.211C92.4115 206.841 91.6719 207.156 90.7969 207.156C89.9479 207.156 89.2552 206.914 88.7188 206.43C88.1823 205.945 87.9141 205.346 87.9141 204.633C87.9141 203.732 88.2474 203.042 88.9141 202.562C89.5859 202.078 90.5443 201.836 91.7891 201.836H92.9531V201.281C92.9531 200.844 92.8307 200.495 92.5859 200.234C92.3411 199.969 91.9688 199.836 91.4688 199.836C91.0365 199.836 90.6823 199.945 90.4062 200.164C90.1302 200.378 89.9922 200.651 89.9922 200.984H88.0938C88.0938 200.521 88.2474 200.089 88.5547 199.688C88.862 199.281 89.2786 198.964 89.8047 198.734C90.3359 198.505 90.9271 198.391 91.5781 198.391C92.5677 198.391 93.3568 198.641 93.9453 199.141C94.5339 199.635 94.8359 200.333 94.8516 201.234V205.047C94.8516 205.807 94.9583 206.414 95.1719 206.867V207H93.2344ZM91.1484 205.633C91.5234 205.633 91.875 205.542 92.2031 205.359C92.5365 205.177 92.7865 204.932 92.9531 204.625V203.031H91.9297C91.2266 203.031 90.6979 203.154 90.3438 203.398C89.9896 203.643 89.8125 203.99 89.8125 204.438C89.8125 204.802 89.9323 205.094 90.1719 205.312C90.4167 205.526 90.7422 205.633 91.1484 205.633ZM28.3828 215.492V217.547H29.875V218.953H28.3828V223.672C28.3828 223.995 28.4453 224.229 28.5703 224.375C28.7005 224.516 28.9297 224.586 29.2578 224.586C29.4766 224.586 29.6979 224.56 29.9219 224.508V225.977C29.4896 226.096 29.0729 226.156 28.6719 226.156C27.2135 226.156 26.4844 225.352 26.4844 223.742V218.953H25.0938V217.547H26.4844V215.492H28.3828ZM30.7422 221.695C30.7422 220.867 30.9062 220.122 31.2344 219.461C31.5625 218.794 32.0234 218.284 32.6172 217.93C33.2109 217.57 33.8932 217.391 34.6641 217.391C35.8047 217.391 36.7292 217.758 37.4375 218.492C38.151 219.227 38.5365 220.201 38.5938 221.414L38.6016 221.859C38.6016 222.693 38.4401 223.438 38.1172 224.094C37.7995 224.75 37.3411 225.258 36.7422 225.617C36.1484 225.977 35.4609 226.156 34.6797 226.156C33.487 226.156 32.5312 225.76 31.8125 224.969C31.099 224.172 30.7422 223.112 30.7422 221.789V221.695ZM32.6406 221.859C32.6406 222.729 32.8203 223.411 33.1797 223.906C33.5391 224.396 34.0391 224.641 34.6797 224.641C35.3203 224.641 35.8177 224.391 36.1719 223.891C36.5312 223.391 36.7109 222.659 36.7109 221.695C36.7109 220.841 36.526 220.164 36.1562 219.664C35.7917 219.164 35.2943 218.914 34.6641 218.914C34.0443 218.914 33.5521 219.161 33.1875 219.656C32.8229 220.146 32.6406 220.88 32.6406 221.859ZM43.8906 221.93H39.7891V220.398H43.8906V221.93ZM52.875 221.859C52.875 223.172 52.5807 224.216 51.9922 224.992C51.4089 225.768 50.6042 226.156 49.5781 226.156C48.5885 226.156 47.8177 225.799 47.2656 225.086L47.1719 226H45.4531V214H47.3516V218.359C47.8984 217.714 48.6354 217.391 49.5625 217.391C50.5938 217.391 51.4036 217.773 51.9922 218.539C52.5807 219.305 52.875 220.375 52.875 221.75V221.859ZM50.9766 221.695C50.9766 220.779 50.8151 220.091 50.4922 219.633C50.1693 219.174 49.7005 218.945 49.0859 218.945C48.263 218.945 47.6849 219.305 47.3516 220.023V223.508C47.6901 224.242 48.2734 224.609 49.1016 224.609C49.6953 224.609 50.1536 224.388 50.4766 223.945C50.7995 223.503 50.9661 222.833 50.9766 221.938V221.695ZM58.8984 219.281C58.6484 219.24 58.3906 219.219 58.125 219.219C57.2552 219.219 56.6693 219.552 56.3672 220.219V226H54.4688V217.547H56.2812L56.3281 218.492C56.7865 217.758 57.4219 217.391 58.2344 217.391C58.5052 217.391 58.7292 217.427 58.9062 217.5L58.8984 219.281ZM62.1172 226H60.2188V217.547H62.1172V226ZM60.1016 215.352C60.1016 215.06 60.1927 214.818 60.375 214.625C60.5625 214.432 60.8281 214.336 61.1719 214.336C61.5156 214.336 61.7812 214.432 61.9688 214.625C62.1562 214.818 62.25 215.06 62.25 215.352C62.25 215.638 62.1562 215.878 61.9688 216.07C61.7812 216.258 61.5156 216.352 61.1719 216.352C60.8281 216.352 60.5625 216.258 60.375 216.07C60.1927 215.878 60.1016 215.638 60.1016 215.352ZM65.9531 217.547L66.0078 218.523C66.6328 217.768 67.4531 217.391 68.4688 217.391C70.2292 217.391 71.125 218.398 71.1562 220.414V226H69.2578V220.523C69.2578 219.987 69.1406 219.591 68.9062 219.336C68.6771 219.076 68.2995 218.945 67.7734 218.945C67.0078 218.945 66.4375 219.292 66.0625 219.984V226H64.1641V217.547H65.9531ZM72.7656 221.711C72.7656 220.398 73.0729 219.352 73.6875 218.57C74.3073 217.784 75.1276 217.391 76.1484 217.391C77.112 217.391 77.8698 217.727 78.4219 218.398L78.5078 217.547H80.2188V225.742C80.2188 226.852 79.8724 227.727 79.1797 228.367C78.4922 229.008 77.5625 229.328 76.3906 229.328C75.7708 229.328 75.1641 229.198 74.5703 228.938C73.9818 228.682 73.5339 228.346 73.2266 227.93L74.125 226.789C74.7083 227.482 75.4271 227.828 76.2812 227.828C76.9115 227.828 77.4089 227.656 77.7734 227.312C78.138 226.974 78.3203 226.474 78.3203 225.812V225.242C77.7734 225.852 77.0443 226.156 76.1328 226.156C75.1432 226.156 74.3333 225.763 73.7031 224.977C73.0781 224.19 72.7656 223.102 72.7656 221.711ZM74.6562 221.875C74.6562 222.724 74.8281 223.393 75.1719 223.883C75.5208 224.367 76.0026 224.609 76.6172 224.609C77.3828 224.609 77.9505 224.281 78.3203 223.625V219.906C77.9609 219.266 77.3984 218.945 76.6328 218.945C76.0078 218.945 75.5208 219.193 75.1719 219.688C74.8281 220.182 74.6562 220.911 74.6562 221.875ZM88.1797 226H86.2812V214H88.1797V226ZM92.2734 226H90.375V217.547H92.2734V226ZM90.2578 215.352C90.2578 215.06 90.349 214.818 90.5312 214.625C90.7188 214.432 90.9844 214.336 91.3281 214.336C91.6719 214.336 91.9375 214.432 92.125 214.625C92.3125 214.818 92.4062 215.06 92.4062 215.352C92.4062 215.638 92.3125 215.878 92.125 216.07C91.9375 216.258 91.6719 216.352 91.3281 216.352C90.9844 216.352 90.7188 216.258 90.5312 216.07C90.349 215.878 90.2578 215.638 90.2578 215.352ZM99.0859 223.703C99.0859 223.365 98.9453 223.107 98.6641 222.93C98.388 222.753 97.9271 222.596 97.2812 222.461C96.6354 222.326 96.0964 222.154 95.6641 221.945C94.7161 221.487 94.2422 220.823 94.2422 219.953C94.2422 219.224 94.5495 218.615 95.1641 218.125C95.7786 217.635 96.5599 217.391 97.5078 217.391C98.5182 217.391 99.3333 217.641 99.9531 218.141C100.578 218.641 100.891 219.289 100.891 220.086H98.9922C98.9922 219.721 98.8568 219.419 98.5859 219.18C98.3151 218.935 97.9557 218.812 97.5078 218.812C97.0911 218.812 96.75 218.909 96.4844 219.102C96.224 219.294 96.0938 219.552 96.0938 219.875C96.0938 220.167 96.2161 220.393 96.4609 220.555C96.7057 220.716 97.2005 220.88 97.9453 221.047C98.6901 221.208 99.2734 221.404 99.6953 221.633C100.122 221.857 100.438 222.128 100.641 222.445C100.849 222.763 100.953 223.148 100.953 223.602C100.953 224.362 100.638 224.979 100.008 225.453C99.3776 225.922 98.5521 226.156 97.5312 226.156C96.8385 226.156 96.2214 226.031 95.6797 225.781C95.138 225.531 94.7161 225.188 94.4141 224.75C94.112 224.312 93.9609 223.841 93.9609 223.336H95.8047C95.8307 223.784 96 224.13 96.3125 224.375C96.625 224.615 97.0391 224.734 97.5547 224.734C98.0547 224.734 98.4349 224.641 98.6953 224.453C98.9557 224.26 99.0859 224.01 99.0859 223.703ZM104.992 215.492V217.547H106.484V218.953H104.992V223.672C104.992 223.995 105.055 224.229 105.18 224.375C105.31 224.516 105.539 224.586 105.867 224.586C106.086 224.586 106.307 224.56 106.531 224.508V225.977C106.099 226.096 105.682 226.156 105.281 226.156C103.823 226.156 103.094 225.352 103.094 223.742V218.953H101.703V217.547H103.094V215.492H104.992Z" fill="#003CB0"/>
<circle cx="66" cy="167" r="15" fill="#003CB0"/>
<path d="M62.2188 166.438L62.9141 160.625H69.5625V162.672H65.0547L64.7969 164.93C64.9844 164.82 65.2292 164.724 65.5312 164.641C65.8385 164.557 66.138 164.516 66.4297 164.516C67.5599 164.516 68.4271 164.852 69.0312 165.523C69.6406 166.19 69.9453 167.128 69.9453 168.336C69.9453 169.065 69.7812 169.727 69.4531 170.32C69.1302 170.909 68.6745 171.362 68.0859 171.68C67.4974 171.997 66.8021 172.156 66 172.156C65.2865 172.156 64.6172 172.01 63.9922 171.719C63.3672 171.422 62.8776 171.018 62.5234 170.508C62.1693 169.992 61.9948 169.411 62 168.766H64.6406C64.6667 169.182 64.7995 169.513 65.0391 169.758C65.2786 170.003 65.5938 170.125 65.9844 170.125C66.8698 170.125 67.3125 169.469 67.3125 168.156C67.3125 166.943 66.7708 166.336 65.6875 166.336C65.0729 166.336 64.6146 166.534 64.3125 166.93L62.2188 166.438Z" fill="white"/>
<defs>
<linearGradient id="paint0_linear" x1="55.9901" y1="118.699" x2="58.3138" y2="121.839" gradientUnits="userSpaceOnUse">
<stop stop-color="#FFE2C8"/>
<stop offset="1" stop-color="#FFB26D"/>
</linearGradient>
<linearGradient id="paint1_linear" x1="73.6502" y1="118.699" x2="75.973" y2="121.842" gradientUnits="userSpaceOnUse">
<stop stop-color="#FFE2C8"/>
<stop offset="1" stop-color="#FFB26D"/>
</linearGradient>
<linearGradient id="paint2_linear" x1="63.3063" y1="61.3231" x2="66.6051" y2="67.5167" gradientUnits="userSpaceOnUse">
<stop stop-color="#FFE2C8"/>
<stop offset="1" stop-color="#FFB26D"/>
</linearGradient>
<linearGradient id="paint3_linear" x1="75.7332" y1="31.9883" x2="75.7332" y2="39.5343" gradientUnits="userSpaceOnUse">
<stop stop-color="#333333"/>
<stop offset="1"/>
</linearGradient>
<linearGradient id="paint4_linear" x1="72.9205" y1="33.5557" x2="72.9205" y2="37.9672" gradientUnits="userSpaceOnUse">
<stop stop-color="#333333"/>
<stop offset="1"/>
</linearGradient>
<linearGradient id="paint5_linear" x1="56.9982" y1="31.9883" x2="56.9982" y2="39.5343" gradientUnits="userSpaceOnUse">
<stop stop-color="#333333"/>
<stop offset="1"/>
</linearGradient>
<linearGradient id="paint6_linear" x1="54.1839" y1="33.5557" x2="54.1839" y2="37.9672" gradientUnits="userSpaceOnUse">
<stop stop-color="#333333"/>
<stop offset="1"/>
</linearGradient>
<linearGradient id="paint7_linear" x1="48.7663" y1="13.937" x2="90.1965" y2="56.8369" gradientUnits="userSpaceOnUse">
<stop stop-color="#FFE2C8"/>
<stop offset="1" stop-color="#FFB26D"/>
</linearGradient>
<linearGradient id="paint8_linear" x1="60.9473" y1="73.3219" x2="61.0879" y2="75.9298" gradientUnits="userSpaceOnUse">
<stop stop-color="#A7B5D0"/>
<stop offset="1" stop-color="#575B86"/>
</linearGradient>
<linearGradient id="paint9_linear" x1="52.1407" y1="73.322" x2="52.2812" y2="75.9292" gradientUnits="userSpaceOnUse">
<stop stop-color="#A7B5D0"/>
<stop offset="1" stop-color="#575B86"/>
</linearGradient>
<linearGradient id="paint10_linear" x1="46.609" y1="62.861" x2="78.6216" y2="83.3997" gradientUnits="userSpaceOnUse">
<stop offset="0.00410753" stop-color="#DEE1EA"/>
<stop offset="1" stop-color="#E4E8F3"/>
</linearGradient>
<linearGradient id="paint11_linear" x1="66.3657" y1="12.9961" x2="66.3657" y2="63.5194" gradientUnits="userSpaceOnUse">
<stop stop-color="#333333"/>
<stop offset="1"/>
</linearGradient>
<linearGradient id="paint12_linear" x1="73.9516" y1="29.1318" x2="73.9516" y2="48.0327" gradientUnits="userSpaceOnUse">
<stop stop-color="#333333"/>
<stop offset="1"/>
</linearGradient>
<linearGradient id="paint13_linear" x1="75.5733" y1="118.843" x2="75.5733" y2="123.882" gradientUnits="userSpaceOnUse">
<stop stop-color="#333333"/>
<stop offset="1"/>
</linearGradient>
<linearGradient id="paint14_linear" x1="66.3665" y1="51.4316" x2="66.3665" y2="56.052" gradientUnits="userSpaceOnUse">
<stop stop-color="#333333"/>
<stop offset="1"/>
</linearGradient>
<linearGradient id="paint15_linear" x1="57.0759" y1="29.1318" x2="57.0759" y2="34.8961" gradientUnits="userSpaceOnUse">
<stop stop-color="#333333"/>
<stop offset="1"/>
</linearGradient>
<linearGradient id="paint16_linear" x1="56.7629" y1="118.843" x2="56.7629" y2="123.882" gradientUnits="userSpaceOnUse">
<stop stop-color="#333333"/>
<stop offset="1"/>
</linearGradient>
<linearGradient id="paint17_linear" x1="90.7151" y1="44.7106" x2="97.2469" y2="55.7443" gradientUnits="userSpaceOnUse">
<stop stop-color="#22357D"/>
<stop offset="1" stop-color="#001461"/>
</linearGradient>
<linearGradient id="paint18_linear" x1="62.4408" y1="75.4483" x2="86.2412" y2="97.7282" gradientUnits="userSpaceOnUse">
<stop stop-color="white"/>
<stop offset="1" stop-color="#E9E9E9"/>
</linearGradient>
<linearGradient id="paint19_linear" x1="81.0751" y1="67.1571" x2="85.2401" y2="74.9379" gradientUnits="userSpaceOnUse">
<stop stop-color="#22357D"/>
<stop offset="1" stop-color="#001461"/>
</linearGradient>
<linearGradient id="paint20_linear" x1="93.8624" y1="44.723" x2="96.0034" y2="50.2244" gradientUnits="userSpaceOnUse">
<stop stop-color="#22357D"/>
<stop offset="1" stop-color="#001461"/>
</linearGradient>
<linearGradient id="paint21_linear" x1="18.4625" y1="55.7286" x2="19.7459" y2="61.6196" gradientUnits="userSpaceOnUse">
<stop offset="0.00410753" stop-color="#DEE1EA"/>
<stop offset="1" stop-color="#E4E8F3"/>
</linearGradient>
<linearGradient id="paint22_linear" x1="18.4625" y1="60.129" x2="19.7459" y2="66.02" gradientUnits="userSpaceOnUse">
<stop offset="0.00410753" stop-color="#DEE1EA"/>
<stop offset="1" stop-color="#E4E8F3"/>
</linearGradient>
<linearGradient id="paint23_linear" x1="17.3071" y1="64.5284" x2="19.3611" y2="69.916" gradientUnits="userSpaceOnUse">
<stop offset="0.00410753" stop-color="#DEE1EA"/>
<stop offset="1" stop-color="#E4E8F3"/>
</linearGradient>
<linearGradient id="paint24_linear" x1="84.1991" y1="76.6269" x2="89.302" y2="86.3034" gradientUnits="userSpaceOnUse">
<stop stop-color="#FFE2C8"/>
<stop offset="1" stop-color="#FFB26D"/>
</linearGradient>
<linearGradient id="paint25_linear" x1="82.103" y1="79.1442" x2="87.5812" y2="89.79" gradientUnits="userSpaceOnUse">
<stop stop-color="#FFE2C8"/>
<stop offset="1" stop-color="#FFB26D"/>
</linearGradient>
<linearGradient id="paint26_linear" x1="89.6592" y1="76.1295" x2="93.3207" y2="79.4087" gradientUnits="userSpaceOnUse">
<stop stop-color="#FFE2C8"/>
<stop offset="1" stop-color="#FFB26D"/>
</linearGradient>
<linearGradient id="paint27_linear" x1="81.1284" y1="82.3432" x2="86.1235" y2="91.7424" gradientUnits="userSpaceOnUse">
<stop stop-color="#FFE2C8"/>
<stop offset="1" stop-color="#FFB26D"/>
</linearGradient>
<linearGradient id="paint28_linear" x1="80.4016" y1="85.6839" x2="84.7908" y2="93.4945" gradientUnits="userSpaceOnUse">
<stop stop-color="#FFE2C8"/>
<stop offset="1" stop-color="#FFB26D"/>
</linearGradient>
<linearGradient id="paint29_linear" x1="84.6626" y1="77.2152" x2="86.2421" y2="80.2158" gradientUnits="userSpaceOnUse">
<stop stop-color="#22357D"/>
<stop offset="1" stop-color="#001461"/>
</linearGradient>
<linearGradient id="paint30_linear" x1="82.4903" y1="85.9816" x2="83.851" y2="89.3509" gradientUnits="userSpaceOnUse">
<stop stop-color="#FFE2C8"/>
<stop offset="1" stop-color="#FFB26D"/>
</linearGradient>
<linearGradient id="paint31_linear" x1="82.5636" y1="79.7672" x2="84.1412" y2="82.7665" gradientUnits="userSpaceOnUse">
<stop stop-color="#22357D"/>
<stop offset="1" stop-color="#001461"/>
</linearGradient>
<linearGradient id="paint32_linear" x1="81.5934" y1="82.9213" x2="83.1728" y2="85.922" gradientUnits="userSpaceOnUse">
<stop stop-color="#22357D"/>
<stop offset="1" stop-color="#001461"/>
</linearGradient>
<linearGradient id="paint33_linear" x1="80.8714" y1="86.2127" x2="82.4478" y2="89.2111" gradientUnits="userSpaceOnUse">
<stop stop-color="#22357D"/>
<stop offset="1" stop-color="#001461"/>
</linearGradient>
<linearGradient id="paint34_linear" x1="32.5973" y1="44.0409" x2="36.1333" y2="46.4603" gradientUnits="userSpaceOnUse">
<stop stop-color="#FFE2C8"/>
<stop offset="1" stop-color="#FFB26D"/>
</linearGradient>
<linearGradient id="paint35_linear" x1="29.3626" y1="41.1266" x2="36.0898" y2="43.8772" gradientUnits="userSpaceOnUse">
<stop stop-color="#FFE2C8"/>
<stop offset="1" stop-color="#FFB26D"/>
</linearGradient>
<linearGradient id="paint36_linear" x1="29.8436" y1="48.9391" x2="31.5396" y2="51.8234" gradientUnits="userSpaceOnUse">
<stop stop-color="#22357D"/>
<stop offset="1" stop-color="#001461"/>
</linearGradient>
<linearGradient id="paint37_linear" x1="26.1215" y1="40.4306" x2="33.0574" y2="42.962" gradientUnits="userSpaceOnUse">
<stop stop-color="#FFE2C8"/>
<stop offset="1" stop-color="#FFB26D"/>
</linearGradient>
<linearGradient id="paint38_linear" x1="26.6025" y1="49.5855" x2="28.2972" y2="52.4721" gradientUnits="userSpaceOnUse">
<stop stop-color="#22357D"/>
<stop offset="1" stop-color="#001461"/>
</linearGradient>
<linearGradient id="paint39_linear" x1="22.8837" y1="41.5162" x2="29.5419" y2="44.3354" gradientUnits="userSpaceOnUse">
<stop stop-color="#FFE2C8"/>
<stop offset="1" stop-color="#FFB26D"/>
</linearGradient>
<linearGradient id="paint40_linear" x1="23.3647" y1="48.9521" x2="25.0572" y2="51.8346" gradientUnits="userSpaceOnUse">
<stop stop-color="#22357D"/>
<stop offset="1" stop-color="#001461"/>
</linearGradient>
<linearGradient id="paint41_linear" x1="19.6425" y1="42.7684" x2="25.7693" y2="46.0271" gradientUnits="userSpaceOnUse">
<stop stop-color="#FFE2C8"/>
<stop offset="1" stop-color="#FFB26D"/>
</linearGradient>
<linearGradient id="paint42_linear" x1="20.1234" y1="48.0352" x2="21.8148" y2="50.9198" gradientUnits="userSpaceOnUse">
<stop stop-color="#22357D"/>
<stop offset="1" stop-color="#001461"/>
</linearGradient>
</defs>
</svg>
