<svg width="53" height="37" viewBox="0 0 53 37" fill="none" xmlns="http://www.w3.org/2000/svg">
<path d="M35.4864 31.5097L35.485 31.5112C35.1259 31.8715 34.5253 31.8715 34.1662 31.5112L29.0868 26.4142L35.2508 20.229C36.261 19.3562 36.2493 17.773 35.2541 16.7743L29.0868 10.5858L34.1662 5.48882C34.5253 5.12848 35.1259 5.12848 35.485 5.48882L47.8594 17.906C48.2187 18.2666 48.2187 18.8699 47.8594 19.2305C43.7798 23.3242 39.701 27.417 35.4864 31.5097ZM36.6139 35.3719L51.7046 20.229C52.7149 19.3562 52.7032 17.773 51.708 16.7743C46.678 11.727 41.6474 6.67897 36.4807 1.63085C35.6106 0.617517 34.0325 0.629495 33.0373 1.62814L26.5987 8.089L20.1634 1.63148C19.2934 0.617512 17.7148 0.629288 16.7194 1.62814L1.62871 16.771C0.618474 17.6438 0.630174 19.227 1.62537 20.2257L1.62591 20.2262C6.6557 25.2734 11.6862 30.3212 16.8526 35.3692C17.7227 36.3825 19.3008 36.3705 20.296 35.3719L26.7347 28.911L29.9097 32.097L33.1699 35.3685C34.0399 36.3825 35.6185 36.3707 36.6139 35.3719ZM24.2465 10.5858L18.0792 16.7743C17.0787 17.7783 17.0787 19.3582 18.0792 20.3621L24.2465 26.5507L19.1671 31.6476C18.808 32.008 18.2075 32.008 17.8484 31.6476L5.47397 19.2305C5.11464 18.8699 5.11464 18.2666 5.47397 17.906L17.8484 5.48882C18.2075 5.12848 18.808 5.12848 19.1671 5.48882L24.2465 10.5858Z" fill="#003CB0" stroke="#003CB0" stroke-width="0.25"/>
</svg>
