<svg width="38" height="38" viewBox="0 0 38 38" fill="none" xmlns="http://www.w3.org/2000/svg">
<g filter="url(#filter0_d)">
<path fill-rule="evenodd" clip-rule="evenodd" d="M19 4.00001C10.7157 4.00001 4 10.7157 4 19C4 27.2843 10.7157 34 19 34C27.2843 34 34 27.2843 34 19C34 10.7157 27.2843 4 19 4.00001ZM16.1999 22.3999C15.7581 22.7313 15.6685 23.3581 15.9999 23.7999C16.3313 24.2417 16.9581 24.3313 17.3999 23.9999L23.7999 19.1999C24.0517 19.011 24.1999 18.7147 24.1999 18.3999C24.1999 18.0851 24.0517 17.7888 23.7999 17.5999L17.3999 12.7999C16.9581 12.4685 16.3313 12.5581 15.9999 12.9999C15.6685 13.4417 15.7581 14.0685 16.1999 14.3999L21.5332 18.3999L16.1999 22.3999Z" fill="white"/>
</g>
<defs>
<filter id="filter0_d" x="0" y="0" width="38" height="38" filterUnits="userSpaceOnUse" color-interpolation-filters="sRGB">
<feFlood flood-opacity="0" result="BackgroundImageFix"/>
<feColorMatrix in="SourceAlpha" type="matrix" values="0 0 0 0 0 0 0 0 0 0 0 0 0 0 0 0 0 0 127 0"/>
<feOffset/>
<feGaussianBlur stdDeviation="2"/>
<feColorMatrix type="matrix" values="0 0 0 0 0 0 0 0 0 0 0 0 0 0 0 0 0 0 0.15 0"/>
<feBlend mode="normal" in2="BackgroundImageFix" result="effect1_dropShadow"/>
<feBlend mode="normal" in="SourceGraphic" in2="effect1_dropShadow" result="shape"/>
</filter>
</defs>
</svg>
