<svg width="180" height="180" viewBox="0 0 180 180" fill="none" xmlns="http://www.w3.org/2000/svg">
<g filter="url(#filter0_b)">
<ellipse cx="90" cy="167.5" rx="90" ry="12.5" fill="#EBEFF9"/>
</g>
<path d="M78.1637 162.057C78.7866 162.057 79.4096 162.057 80.0325 162.057C79.6688 163.417 78.9776 164.281 78.532 164.822C78.0819 165.368 77.8727 165.59 77.5135 165.654C77.1588 165.722 76.6495 165.636 76.4267 165.463C76.2085 165.295 76.2721 165.045 78.1637 162.057Z" fill="url(#paint0_linear)"/>
<path d="M102.295 162.057C104.187 165.045 104.25 165.295 104.032 165.463C103.809 165.636 103.3 165.722 102.945 165.654C102.586 165.59 102.377 165.368 101.927 164.822C101.476 164.281 100.785 163.417 100.422 162.057C101.045 162.057 101.672 162.057 102.295 162.057Z" fill="url(#paint1_linear)"/>
<path d="M94.5058 88.7723C94.5694 88.8178 94.633 88.8632 94.6967 88.9042C92.3504 90.1864 88.6491 90.1864 86.3028 88.9042C86.3665 88.8632 86.4302 88.8178 86.4938 88.7723C86.8894 88.4858 87.1804 88.1493 87.4168 87.7219C87.9625 86.7352 88.199 85.7667 88.199 84.6436C88.199 84.5344 88.199 84.4253 88.199 84.3162C88.199 84.1934 88.1944 84.0706 88.1853 83.9433C88.9492 84.057 89.7268 84.1161 90.4998 84.1161C91.2728 84.1161 92.0504 84.057 92.8143 83.9433C92.8052 84.0706 92.8006 84.1934 92.8006 84.3162C92.8006 84.4253 92.8006 84.5344 92.8006 84.6436C92.8006 85.7667 93.037 86.7352 93.5827 87.7219C93.8146 88.1493 94.1056 88.4858 94.5058 88.7723Z" fill="url(#paint2_linear)"/>
<path d="M99.6485 45.757C98.3253 46.4254 97.1886 47.4622 96.4019 48.7763C97.2204 50.1313 98.339 51.1316 99.6031 51.7728H99.6076C103.163 53.5825 107.847 52.5731 110.143 48.7535C108.688 46.3481 106.078 44.8794 103.268 44.884C101.986 44.8885 100.749 45.1932 99.6485 45.757ZM111.585 48.749C110.02 51.9046 106.806 53.9008 103.282 53.9099C99.7576 53.9145 96.5384 51.9274 94.9605 48.7808C96.5247 45.6252 99.7395 43.6245 103.263 43.6199C106.787 43.6108 110.011 45.5979 111.585 48.749Z" fill="url(#paint3_linear)"/>
<path d="M102.472 48.7717C102.468 50.3677 101.204 51.6773 99.6076 51.7728H99.603C98.3389 51.1317 97.2203 50.1313 96.4019 48.7763C97.1885 47.4622 98.3253 46.4254 99.6485 45.757C101.235 45.8571 102.477 47.1802 102.472 48.7717Z" fill="url(#paint4_linear)"/>
<path d="M74.1031 51.7728C75.2035 52.3366 76.4403 52.6458 77.718 52.6458C80.5326 52.6504 83.1381 51.1817 84.5977 48.7763C82.306 44.9567 77.6225 43.9473 74.0667 45.757C72.7981 46.3936 71.675 47.394 70.8519 48.7535C71.6431 50.0676 72.7799 51.1044 74.1031 51.7728ZM77.7362 43.6199C81.2556 43.6245 84.4704 45.6252 86.0391 48.7808C84.4613 51.9274 81.2374 53.9145 77.718 53.9099C74.194 53.9008 70.9792 51.9046 69.4105 48.749C70.9883 45.5979 74.2122 43.6108 77.7362 43.6199Z" fill="url(#paint5_linear)"/>
<path d="M76.9223 48.7581C76.9268 50.3496 75.6946 51.6682 74.1031 51.7728C72.78 51.1044 71.6432 50.0676 70.852 48.7535C71.675 47.394 72.7981 46.3936 74.0667 45.757C75.6536 45.848 76.9177 47.1666 76.9223 48.7581Z" fill="url(#paint6_linear)"/>
<path d="M84.5977 48.7763C83.1381 51.1817 80.5326 52.6504 77.718 52.6458C76.4403 52.6458 75.2035 52.3366 74.1031 51.7728C75.6946 51.6682 76.9268 50.3496 76.9222 48.7581C76.9177 47.1666 75.6536 45.848 74.0667 45.757C77.6225 43.9473 82.3059 44.9568 84.5977 48.7763Z" fill="white"/>
<path d="M99.6485 45.757C100.749 45.1932 101.986 44.8885 103.268 44.884C106.078 44.8794 108.688 46.3481 110.143 48.7535C107.847 52.5731 103.163 53.5825 99.6076 51.7728C101.204 51.6773 102.468 50.3677 102.472 48.7717C102.477 47.1803 101.235 45.8571 99.6485 45.757Z" fill="white"/>
<path d="M114.481 47.5895C115.195 55.6105 113.462 63.7771 109.356 70.825C108.411 72.4438 107.356 73.9989 106.178 75.4539C105.792 75.9268 105.396 76.3952 104.982 76.8453C104.255 77.6502 103.482 78.4141 102.663 79.128C101.167 80.4284 99.5212 81.5561 97.7342 82.4109C96.561 82.9748 95.3243 83.4204 94.0556 83.7114C93.6464 83.8069 93.2326 83.8842 92.8143 83.9433C92.0504 84.057 91.2728 84.1161 90.4998 84.1161C89.7268 84.1161 88.9493 84.057 88.1854 83.9433C87.767 83.8796 87.3533 83.8023 86.944 83.7114C85.6708 83.4158 84.4341 82.9748 83.2609 82.4109C81.4739 81.5561 79.8278 80.4239 78.3319 79.1234C77.5134 78.4095 76.7404 77.6502 76.0129 76.8453C75.5991 76.3906 75.2035 75.9268 74.817 75.4494C73.6348 73.9898 72.5798 72.4347 71.634 70.8205C67.5326 63.7725 65.8047 55.6105 66.5186 47.5895V47.585C67.7145 46.3254 68.9968 45.1569 70.42 44.161C71.4067 43.4653 72.4525 42.8606 73.562 42.3877C74.4987 41.9875 75.4763 41.6829 76.4767 41.5101C77.3588 41.3601 78.2591 41.31 79.1458 41.3737C80.7145 41.4919 82.2514 41.9648 83.611 42.7469C84.7841 43.4199 85.8254 44.3156 86.6393 45.3933C86.8167 45.6252 86.9804 45.8616 87.1259 46.1117C87.235 46.2891 87.335 46.4755 87.4214 46.6619C87.476 46.7802 87.526 46.8984 87.5715 47.0166C87.7261 47.4395 88.1944 47.6532 88.6128 47.4986C89.0356 47.3394 89.2494 46.8802 89.0902 46.4573V46.4528C89.0129 46.2345 88.9174 46.0253 88.8174 45.8207C88.5901 45.3615 88.3172 44.925 88.0171 44.5157C87.4124 43.6927 86.6894 42.9606 85.8845 42.3286C84.9933 41.6283 84.0066 41.0509 82.9562 40.6234C81.8104 40.1551 80.5872 39.8595 79.3504 39.764C77.9635 39.6504 76.554 39.7868 75.2035 40.1233C73.612 40.5188 72.0933 41.1964 70.6837 42.0467C69.3014 42.8833 68.0237 43.8837 66.8414 44.9795C67.1188 43.1834 67.5235 41.4055 68.0555 39.6549C68.7921 37.2359 69.8789 34.9214 71.293 32.8252C72.7526 30.6563 74.5578 28.7147 76.6313 27.1187C78.6638 25.5545 80.9555 24.3268 83.3927 23.5128C85.6799 22.7489 88.0899 22.3533 90.4998 22.3533C92.9097 22.3533 95.3197 22.7489 97.6069 23.5128C100.04 24.3268 102.331 25.5545 104.368 27.1187C106.442 28.7147 108.247 30.6563 109.707 32.8252C111.116 34.9214 112.207 37.2359 112.94 39.6549C113.472 41.4055 113.876 43.1834 114.154 44.9795C113.531 44.3975 112.885 43.8518 112.207 43.338C111.321 42.6605 110.384 42.0512 109.402 41.5283C108.529 41.0645 107.624 40.6734 106.687 40.3733C105.846 40.1096 104.982 39.9141 104.109 39.8095C102.55 39.6276 100.954 39.7368 99.4439 40.146C98.098 40.5098 96.8157 41.1145 95.6744 41.9148C94.6558 42.6241 93.7464 43.4835 93.0098 44.4793C92.7051 44.8886 92.4323 45.3205 92.205 45.7753C92.0276 46.1299 91.8776 46.5028 91.7684 46.8847C91.6457 47.294 91.5684 47.7214 91.5229 48.1488C91.4683 48.6581 91.4547 49.1674 91.4683 49.6721C91.4774 50.3087 91.5274 50.9407 91.5866 51.5728C91.6639 52.3821 91.7639 53.1824 91.8685 53.9872C92.0094 55.0422 92.164 56.0925 92.3232 57.1429C92.5232 58.4161 92.7369 59.6893 92.937 60.9579C93.0052 61.3717 93.0689 61.7855 93.1053 62.2038C93.1189 62.3766 93.1326 62.5494 93.1235 62.7176C93.1189 62.7995 93.1098 62.8813 93.0917 62.9586C93.0826 63.0086 93.0644 63.0541 93.0416 63.0996C93.0235 63.1359 93.0007 63.1723 92.9689 63.2041C92.9325 63.2451 92.8825 63.2814 92.837 63.3133C92.7461 63.3724 92.6597 63.427 92.5642 63.477C92.4187 63.5497 92.2641 63.6134 92.1049 63.6634C91.632 63.818 91.1319 63.868 90.6317 63.8726C89.8132 63.8771 88.9993 63.7543 88.199 63.5725C87.7625 63.4724 87.326 63.7498 87.2305 64.1863C87.1305 64.6228 87.4033 65.0593 87.8443 65.1594C88.4536 65.2958 89.072 65.4004 89.695 65.4549C90.1906 65.5004 90.6953 65.514 91.191 65.4777C91.9185 65.4186 92.6415 65.2549 93.2917 64.9275C93.5191 64.8138 93.7419 64.6774 93.9374 64.5137C94.1102 64.3727 94.2602 64.209 94.383 64.0226C94.5103 63.8316 94.6013 63.6179 94.6604 63.3951C94.7149 63.1769 94.7423 62.9541 94.7468 62.7313C94.7604 62.3493 94.724 61.9719 94.674 61.5945C94.5785 60.8215 94.4421 60.053 94.3148 59.2846C94.1284 58.1887 93.9601 57.0883 93.7964 55.9834C93.56 54.4192 93.3372 52.8505 93.1917 51.2727C93.1326 50.577 93.0826 49.8767 93.0917 49.1765C93.0962 48.6945 93.1234 48.2125 93.2189 47.7441C93.2962 47.3713 93.4145 47.0075 93.5736 46.6619C93.6646 46.4755 93.7646 46.2891 93.8692 46.1117C94.0192 45.8616 94.1829 45.6252 94.3557 45.3933C95.1742 44.3156 96.2155 43.4199 97.3841 42.7469C98.7482 41.9648 100.285 41.4919 101.849 41.3737C102.741 41.31 103.641 41.3601 104.518 41.5101C105.523 41.6829 106.501 41.9875 107.433 42.3877C108.543 42.8606 109.593 43.4653 110.58 44.161C111.998 45.1569 113.285 46.3254 114.476 47.585L114.481 47.5895ZM103.282 53.9099C106.806 53.9009 110.02 51.9047 111.585 48.749C110.011 45.5979 106.787 43.6108 103.263 43.6199C99.7395 43.6245 96.5247 45.6252 94.9605 48.7809C96.5383 51.9274 99.7576 53.9145 103.282 53.9099ZM102.681 70.1748C94.5603 70.1612 86.4393 70.1475 78.3183 70.1339C85.2798 78.5187 95.688 78.5368 102.681 70.1748ZM86.0392 48.7809C84.4704 45.6252 81.2556 43.6245 77.7362 43.6199C74.2122 43.6108 70.9884 45.5979 69.4105 48.749C70.9793 51.9047 74.194 53.9009 77.718 53.9099C81.2374 53.9145 84.4613 51.9274 86.0392 48.7809Z" fill="url(#paint7_linear)"/>
<path d="M31.9427 43.4474L30.4423 44.5385C30.2769 44.6213 30.1194 44.7192 29.9719 44.8309C28.8772 45.6679 29.0426 47.2538 29.6345 48.0278C30.2264 48.8019 31.5936 48.7509 32.6882 47.9139C33.7679 47.0883 34.1752 45.4602 33.6182 44.6731L33.6196 44.6722L32.4111 43.0331L28.1852 37.5786L36.1125 31.517L35.7567 31.0517L27.8265 37.1155L27.3039 36.4411L35.265 30.3536L35.3272 30.4389L40.1601 37.074L40.1822 37.1469L38.6819 38.2381C38.5165 38.3209 38.359 38.4188 38.2115 38.5305C37.1168 39.3675 37.2822 40.9534 37.874 41.7275C38.4659 42.5015 39.8332 42.4505 40.9278 41.6135C42.0075 40.7879 42.4148 39.1598 41.8577 38.3727L41.8592 38.3718L40.6507 36.7327L35.7369 29.9928L35.7367 29.9925L35.5773 29.7739L33.7588 27.2796L25.0486 33.9399L31.9206 43.3745L31.9427 43.4474Z" fill="#FF6584"/>
<path d="M165.526 35.1002C162.897 39.5653 157.127 38.6718 157.127 38.6718C153.379 38.7841 153.909 41.791 153.909 41.791L154.167 42.8853C153.924 43.3937 153.817 43.9534 153.857 44.5126L154.145 46.1773C155.062 42.3867 158.328 42.6981 158.328 42.6981L162.147 42.1671L158.02 52.0994L155.251 50.959C154.995 50.8014 154.725 50.6669 154.444 50.5573C152.347 49.7509 150.261 51.274 149.673 52.7138C149.086 54.1537 150.31 55.9747 152.407 56.7811C154.476 57.5766 157.104 56.7992 157.739 55.3961L157.741 55.3973L159.023 52.4094L158.95 52.3871L165.526 35.1002ZM158.817 40.144L162.484 39.8244C159.92 41.6997 156.874 41.3164 156.874 41.3164C156.167 41.3429 155.484 41.5746 154.913 41.9816C156.241 39.8274 158.817 40.144 158.817 40.144Z" fill="#FF6584"/>
<path d="M100.672 100.536C100.471 101.008 100.253 101.495 100.035 102C97.9342 103.168 95.3697 103.1 92.3368 101.8C95.929 102.905 98.7072 102.482 100.672 100.536Z" fill="url(#paint8_linear)"/>
<path d="M80.3279 100.536C82.2922 102.482 85.0705 102.905 88.6627 101.8C85.6253 103.1 83.0607 103.168 80.96 101.995C80.7417 101.49 80.528 101.008 80.3279 100.536Z" fill="url(#paint9_linear)"/>
<path d="M95.5244 89.427C95.629 89.4906 95.7335 89.5498 95.8427 89.6089C95.3925 89.9181 94.9106 90.1682 94.4059 90.3682C93.7784 90.6183 93.119 90.7911 92.4552 90.9048C91.8095 91.0139 91.1547 91.073 90.4999 91.073C89.8451 91.073 89.1904 91.0139 88.5447 90.9048C87.8763 90.7911 87.2215 90.6183 86.594 90.3682C86.0847 90.1682 85.6027 89.9135 85.1571 89.6089C85.2663 89.5498 85.3709 89.4906 85.4755 89.427C85.6164 89.3451 85.7573 89.2633 85.8938 89.1724C86.0302 89.086 86.1666 88.995 86.303 88.9041C88.6493 90.1864 92.3505 90.1864 94.6968 88.9041C94.8332 88.995 94.9696 89.086 95.1061 89.1724C95.2425 89.2633 95.3834 89.3451 95.5244 89.427Z" fill="url(#paint10_linear)"/>
<path d="M98.2297 119.442C95.6469 119.838 93.0688 120.038 90.4542 120.038C87.8806 120.038 85.3388 119.842 82.7924 119.46C82.6696 119.442 82.5514 119.424 82.4286 119.406C84.6703 110.962 82.6651 105.91 80.9599 101.995C83.0607 103.168 85.6252 103.1 88.6627 101.8C85.0705 102.905 82.2922 102.482 80.3279 100.536C78.5091 96.2795 70.3834 98.4302 57.6926 89.809V85.7939C62.5989 89.5453 66.4958 91.305 70.6381 91.7688C73.6938 92.1144 76.8857 91.7597 80.7144 90.9821C82.3468 90.8003 83.7791 90.3637 85.1569 89.6089C85.6025 89.9136 86.0845 90.1682 86.5938 90.3683C87.2212 90.6184 87.876 90.7912 88.5445 90.9048C89.1901 91.014 89.8449 91.0731 90.4997 91.0731C91.1544 91.0731 91.8092 91.014 92.4549 90.9048C93.1188 90.7912 93.7781 90.6184 94.4056 90.3683C94.9104 90.1682 95.3923 89.9181 95.8425 89.6089C97.2157 90.3637 98.648 90.8003 100.28 90.9821C103.031 91.5869 102.909 95.1382 100.785 100.258C100.749 100.349 100.708 100.44 100.671 100.536C98.7071 102.482 95.9289 102.905 92.3367 101.8C95.3696 103.1 97.9341 103.168 100.035 102C98.3342 105.915 96.3335 110.962 98.5616 119.392C98.4525 119.41 98.3388 119.429 98.2297 119.442Z" fill="url(#paint11_linear)"/>
<path d="M102.022 143.082C101.558 149.83 101.563 155.341 102.695 162.057C102.563 162.057 102.427 162.057 102.295 162.057C101.672 162.057 101.044 162.057 100.421 162.057C100.281 162.057 100.135 162.057 99.994 162.057C99.1346 156.751 97.9388 150.312 96.2882 145.165C95.8062 143.674 95.2651 142.205 94.624 140.772C94.092 139.568 93.4917 138.394 92.937 137.203C92.3868 136.034 91.8958 134.848 91.4956 133.62C91.2546 132.888 91.05 132.151 90.8681 131.406C90.7635 130.983 90.6726 130.56 90.5862 130.137C90.5407 129.91 90.4952 129.682 90.4543 129.455C90.4316 129.318 90.4407 129.068 90.227 129.068C90.0178 129.068 90.0269 129.318 90.0042 129.455C89.9632 129.682 89.9178 129.91 89.8723 130.137C89.7859 130.56 89.6949 130.983 89.5904 131.406C89.4085 132.151 89.2039 132.888 88.9629 133.62C88.5627 134.848 88.0717 136.034 87.5215 137.203C86.9667 138.394 86.3665 139.568 85.8299 140.772C85.1934 142.205 84.6523 143.674 84.1703 145.165C82.5197 150.312 81.3238 156.751 80.4644 162.057C80.3235 162.057 80.1779 162.057 80.0324 162.057C79.4095 162.057 78.7865 162.057 78.1636 162.057C78.0317 162.057 77.8953 162.057 77.7635 162.057C79.123 153.982 78.8093 148.407 78.2364 140.336C77.9635 136.448 77.7271 133.388 78.6183 129.496C78.8229 128.609 79.0776 127.736 79.3913 126.877C79.7005 126.026 80.1052 125.222 80.4735 124.394C81.192 122.78 82.0059 121.052 82.7925 119.46C85.3389 119.842 87.8807 120.038 90.4543 120.038C93.0689 120.038 95.6471 119.838 98.2298 119.442C98.7481 121.102 99.3347 122.843 99.9849 124.449C101.44 127.381 102.218 130.314 102.422 133.584C102.586 136.207 102.204 140.486 102.022 143.082Z" fill="url(#paint12_linear)"/>
<path d="M114.154 44.9795C113.876 43.1834 113.472 41.4055 112.94 39.6549C112.207 37.2359 111.116 34.9214 109.707 32.8252C108.247 30.6563 106.442 28.7147 104.368 27.1186C102.331 25.5544 100.04 24.3267 97.6069 23.5128C95.3197 22.7489 92.9097 22.3533 90.4998 22.3533C88.0899 22.3533 85.6799 22.7489 83.3927 23.5128C80.9555 24.3267 78.6638 25.5544 76.6313 27.1186C74.5578 28.7147 72.7526 30.6563 71.293 32.8252C69.8789 34.9214 68.7921 37.2359 68.0555 39.6549C67.5235 41.4055 67.1188 43.1834 66.8414 44.9795C66.705 45.8434 66.6004 46.7165 66.5186 47.585V47.5895C65.8047 55.6105 67.5326 63.7725 71.634 70.8205C72.5798 72.4347 73.6347 73.9898 74.817 75.4494C75.2035 75.9268 75.5991 76.3906 76.0129 76.8453C75.8583 80.1056 75.6991 83.3613 75.5399 86.617C65.7501 78.3186 61.1303 66.5235 61.6759 51.2317C61.7123 50.4814 61.7487 49.7312 61.7851 48.9809C61.8169 48.3398 61.8624 47.6941 61.9215 47.053C62.1261 44.8204 62.5035 42.6059 63.0446 40.4279C63.1765 39.8959 63.3175 39.3639 63.4721 38.8364C63.6221 38.3135 63.7858 37.7951 63.9631 37.2768C64.3178 36.231 64.7361 35.2033 65.209 34.1984C65.691 33.1708 66.2321 32.1704 66.8278 31.2064C67.4371 30.2243 68.101 29.2739 68.824 28.3691C70.279 26.5366 71.9523 24.8769 73.8075 23.4537C75.6491 22.035 77.668 20.8528 79.8005 19.9343C80.8418 19.4841 81.9104 19.1022 82.9971 18.7884C84.0612 18.4792 85.1434 18.2382 86.2392 18.0654C87.2987 17.8926 88.3718 17.7881 89.4495 17.7426C90.5044 17.7017 91.5593 17.7199 92.6142 17.8017C94.8104 17.9745 96.9839 18.4201 99.0756 19.1204C101.254 19.8524 103.345 20.8619 105.278 22.1078C105.769 22.4215 106.251 22.7535 106.724 23.099C107.197 23.4492 107.656 23.8084 108.102 24.1858C108.552 24.5632 108.988 24.9497 109.416 25.3544C109.838 25.7591 110.252 26.1728 110.652 26.6003C111.048 27.0277 111.434 27.4642 111.807 27.9144C112.176 28.3645 112.539 28.8238 112.885 29.2921C113.563 30.2197 114.181 31.1883 114.749 32.1886C115.295 33.1571 115.795 34.1529 116.232 35.176C116.668 36.1991 117.041 37.2495 117.368 38.3135C118.019 40.437 118.496 42.6105 118.814 44.8113C119.01 46.1936 119.142 47.585 119.21 48.9809C119.246 49.7312 119.283 50.4814 119.319 51.2317C119.346 52.0456 119.365 52.8505 119.365 53.6417C119.365 67.7694 114.727 78.7596 105.455 86.617C105.301 83.3613 105.141 80.1056 104.982 76.8453C105.396 76.3952 105.792 75.9268 106.178 75.4539C107.356 73.9989 108.411 72.4438 109.356 70.825C113.462 63.7771 115.195 55.6105 114.481 47.5895L114.476 47.585C114.399 46.7119 114.29 45.8434 114.154 44.9795Z" fill="url(#paint13_linear)"/>
<path d="M114.154 44.9795C114.29 45.8434 114.399 46.7119 114.476 47.5849C113.285 46.3254 111.998 45.1568 110.58 44.161C109.593 43.4653 108.543 42.8605 107.433 42.3877C106.501 41.9875 105.523 41.6829 104.518 41.5101C103.641 41.36 102.741 41.31 101.849 41.3737C100.285 41.4919 98.7482 41.9648 97.384 42.7469C96.2154 43.4198 95.1741 44.3156 94.3557 45.3933C94.1829 45.6252 94.0192 45.8616 93.8692 46.1117C93.7646 46.289 93.6645 46.4755 93.5736 46.6619C93.4144 47.0075 93.2962 47.3712 93.2189 47.7441C93.1234 48.2124 93.0962 48.6944 93.0916 49.1764C93.0825 49.8767 93.1325 50.5769 93.1917 51.2726C93.3372 52.8504 93.5599 54.4192 93.7964 55.9834C93.9601 57.0883 94.1283 58.1887 94.3148 59.2845C94.4421 60.053 94.5785 60.8214 94.674 61.5944C94.724 61.9718 94.7604 62.3493 94.7468 62.7312C94.7422 62.954 94.7149 63.1768 94.6604 63.3951C94.6012 63.6179 94.5103 63.8316 94.383 64.0226C94.2602 64.209 94.1102 64.3727 93.9374 64.5137C93.7419 64.6773 93.519 64.8138 93.2917 64.9274C92.6414 65.2548 91.9185 65.4185 91.1909 65.4776C90.6953 65.514 90.1906 65.5004 89.6949 65.4549C89.072 65.4003 88.4536 65.2957 87.8443 65.1593C87.4032 65.0593 87.1304 64.6228 87.2305 64.1863C87.3259 63.7497 87.7625 63.4724 88.199 63.5724C88.9993 63.7543 89.8132 63.8771 90.6317 63.8725C91.1318 63.868 91.632 63.818 92.1049 63.6634C92.264 63.6133 92.4187 63.5497 92.5642 63.4769C92.6596 63.4269 92.746 63.3723 92.837 63.3132C92.8824 63.2814 92.9325 63.245 92.9689 63.2041C93.0007 63.1723 93.0234 63.1359 93.0416 63.0995C93.0644 63.054 93.0825 63.0086 93.0916 62.9586C93.1098 62.8813 93.1189 62.7994 93.1234 62.7176C93.1325 62.5493 93.1189 62.3765 93.1052 62.2037C93.0689 61.7854 93.0052 61.3716 92.937 60.9578C92.7369 59.6892 92.5232 58.416 92.3232 57.1429C92.164 56.0925 92.0094 55.0421 91.8684 53.9872C91.7639 53.1824 91.6638 52.3821 91.5865 51.5727C91.5274 50.9407 91.4774 50.3086 91.4683 49.672C91.4547 49.1673 91.4683 48.658 91.5229 48.1488C91.5683 47.7214 91.6457 47.2939 91.7684 46.8847C91.8776 46.5027 92.0276 46.1299 92.2049 45.7752C92.4323 45.3205 92.7051 44.8885 93.0098 44.4793C93.7464 43.4835 94.6558 42.6241 95.6743 41.9148C96.8157 41.1145 98.0979 40.5097 99.4439 40.146C100.953 39.7367 102.55 39.6276 104.109 39.8095C104.982 39.9141 105.846 40.1096 106.687 40.3733C107.624 40.6734 108.529 41.0645 109.402 41.5283C110.384 42.0512 111.321 42.6605 112.207 43.338C112.885 43.8518 113.531 44.3975 114.154 44.9795Z" fill="url(#paint14_linear)"/>
<path d="M106.114 167.768C106.137 168.564 105.414 169.001 104.7 168.919C103.986 168.842 103.282 168.246 102.44 167.441C101.599 166.636 100.626 165.622 100.294 164.849C99.9668 164.072 100.281 163.531 99.994 162.057C100.135 162.057 100.281 162.057 100.422 162.057C100.785 163.417 101.476 164.281 101.927 164.822C102.377 165.368 102.586 165.59 102.945 165.654C103.3 165.722 103.809 165.636 104.032 165.463C104.25 165.295 104.186 165.045 102.295 162.057C102.427 162.057 102.563 162.057 102.695 162.057C105.323 165.822 106.092 166.973 106.114 167.768Z" fill="url(#paint15_linear)"/>
<path d="M78.3181 70.1338C86.4392 70.1474 94.5602 70.1611 102.681 70.1747C95.6879 78.5368 85.2796 78.5186 78.3181 70.1338Z" fill="url(#paint16_linear)"/>
<path d="M89.0903 46.4572C89.2494 46.8801 89.0357 47.3394 88.6128 47.4985C88.1945 47.6531 87.7262 47.4394 87.5716 47.0165C87.5261 46.8983 87.4761 46.7801 87.4215 46.6619C87.3351 46.4754 87.2351 46.289 87.126 46.1117C86.9805 45.8616 86.8167 45.6251 86.6394 45.3932C85.8255 44.3156 84.7842 43.4198 83.6111 42.7468C82.2515 41.9647 80.7146 41.4919 79.1459 41.3736C78.2592 41.31 77.3589 41.36 76.4768 41.51C75.4764 41.6828 74.4988 41.9875 73.5621 42.3876C72.4526 42.8605 71.4068 43.4653 70.4201 44.161C68.9969 45.1568 67.7146 46.3254 66.5187 47.5849C66.6006 46.7164 66.7051 45.8434 66.8415 44.9794C68.0238 43.8836 69.3015 42.8833 70.6838 42.0466C72.0934 41.1963 73.6121 40.5188 75.2036 40.1232C76.554 39.7867 77.9636 39.6503 79.3505 39.764C80.5873 39.8595 81.8105 40.155 82.9563 40.6234C84.0067 41.0508 84.9934 41.6283 85.8846 42.3285C86.6894 42.9606 87.4124 43.6926 88.0172 44.5156C88.3173 44.9249 88.5901 45.3614 88.8175 45.8207C88.9175 46.0253 89.013 46.2344 89.0903 46.4527V46.4572Z" fill="url(#paint17_linear)"/>
<path d="M80.0324 162.057C80.1779 162.057 80.3234 162.057 80.4644 162.057C80.1779 163.531 80.4916 164.072 80.1642 164.849C79.8323 165.622 78.8592 166.636 78.018 167.441C77.1768 168.246 76.4721 168.842 75.7536 168.919C75.0397 169.001 74.3213 168.564 74.344 167.768C74.3667 166.973 75.1352 165.822 77.7634 162.057C77.8953 162.057 78.0317 162.057 78.1635 162.057C76.272 165.045 76.2083 165.295 76.4266 165.463C76.6494 165.636 77.1587 165.722 77.5133 165.654C77.8725 165.59 78.0817 165.368 78.5319 164.822C78.9775 164.281 79.6686 163.417 80.0324 162.057Z" fill="url(#paint18_linear)"/>
<path d="M124.048 72.3527C123.789 71.8571 123.653 71.2796 123.907 70.7658C123.916 70.7476 123.925 70.7294 123.934 70.7112L128.191 62.4992C127.777 63.295 128.291 64.2089 128.763 64.7819C129.314 65.4594 129.964 65.9368 130.728 66.337C131.496 66.7371 132.256 67.0008 133.129 67.0736C133.874 67.1372 134.929 67.0554 135.37 66.2551L131.128 74.4398C130.873 74.9718 130.319 75.2083 129.759 75.2901C129.459 75.3356 129.159 75.3356 128.904 75.3174C128.027 75.2538 127.258 74.9946 126.485 74.5944C125.712 74.1943 125.062 73.7168 124.503 73.0348C124.344 72.8438 124.18 72.6119 124.048 72.3573C124.048 72.3573 124.048 72.3573 124.048 72.3527Z" fill="url(#paint19_linear)"/>
<path d="M122.057 107.979L115 121.152H114.995C110.539 121.065 106.751 120.252 103.623 118.706C100.553 117.041 97.7025 114.409 95.0652 110.816C97.2978 106.365 99.5259 101.913 101.763 97.4617C104.455 101.122 107.36 103.782 110.498 105.442C113.663 107.047 117.514 107.893 122.057 107.979Z" fill="url(#paint20_linear)"/>
<path d="M116.9 93.0874C119.01 94.1833 119.837 96.7842 118.742 98.8986C117.646 101.008 115.045 101.836 112.935 100.74C110.821 99.6443 109.998 97.0434 111.093 94.9335C112.185 92.8192 114.786 91.9961 116.9 93.0874Z" fill="url(#paint21_linear)"/>
<path d="M134.816 63.9407C135.293 64.5273 135.816 65.4503 135.37 66.2552C134.929 67.0555 133.874 67.1373 133.129 67.0736C132.256 67.0009 131.496 66.7372 130.728 66.337C129.964 65.9369 129.314 65.4594 128.763 64.7819C128.291 64.209 127.777 63.295 128.191 62.4993C128.2 62.4902 128.204 62.4766 128.209 62.4675C128.65 61.6717 129.705 61.5899 130.455 61.6535C131.323 61.7263 132.087 61.9855 132.851 62.3902C133.615 62.7903 134.265 63.2632 134.816 63.9407Z" fill="url(#paint22_linear)"/>
<path d="M114.995 121.152L113.908 123.184C112.485 125.84 111.062 128.5 109.639 131.155C108.884 132.565 107.36 133.383 105.769 133.233C102.531 132.929 99.6896 132.188 97.2478 131.005C94.8742 129.691 92.628 127.8 90.5136 125.326C89.4723 124.112 89.2631 122.393 89.9815 120.965C91.6776 117.582 93.3737 114.199 95.0652 110.816C97.7025 114.409 100.553 117.041 103.623 118.706C106.751 120.252 110.539 121.066 114.995 121.152Z" fill="#FF6584"/>
<path d="M128.904 75.3175C129.159 75.3357 129.459 75.3357 129.759 75.2902C129.518 75.7631 129.195 76.3452 128.973 76.7908C128.086 78.5641 127.199 80.3375 126.313 82.1108C123.944 86.8489 124.075 89.2134 124.985 91.9325C125.103 92.269 125.226 92.6146 125.358 92.9647C126.635 96.4023 126.513 99.5761 124.994 102.495C124.939 102.6 124.885 102.704 124.826 102.809C123.971 104.41 123.111 106.01 122.252 107.611L122.057 107.979C117.514 107.893 113.663 107.047 110.498 105.442C107.36 103.782 104.455 101.122 101.763 97.4617C102.7 95.5838 103.641 93.7104 104.582 91.837V91.8325C106.092 88.9451 108.606 87.0353 112.126 86.1032C112.485 86.0122 112.84 85.9167 113.185 85.8121C115.927 84.9937 117.937 83.7341 120.442 79.0689L123.257 73.8306C123.521 73.3396 123.784 72.8485 124.048 72.3574C124.18 72.612 124.344 72.8439 124.503 73.0349C125.062 73.717 125.712 74.1944 126.485 74.5945C127.258 74.9947 128.027 75.2539 128.904 75.3175ZM118.742 98.8986C119.838 96.7842 119.01 94.1833 116.9 93.0874C114.786 91.9962 112.185 92.8192 111.094 94.9336C109.998 97.0434 110.821 99.6443 112.935 100.74C115.045 101.836 117.646 101.008 118.742 98.8986Z" fill="#FF6584"/>
<path d="M15.7962 106.301H55.4193C56.6743 106.301 57.6928 105.283 57.6928 104.028V68.2878C57.6928 67.0328 56.6743 66.0142 55.4193 66.0142H15.7962C14.5412 66.0142 13.5227 67.0328 13.5227 68.2878V104.028C13.5227 105.283 14.5412 106.301 15.7962 106.301Z" fill="url(#paint23_linear)"/>
<path d="M18.1378 103.05H53.0775C53.8324 103.05 54.4417 102.441 54.4417 101.686V70.6295C54.4417 69.8747 53.8324 69.2654 53.0775 69.2654H18.1378C17.383 69.2654 16.7737 69.8747 16.7737 70.6295V101.686C16.7737 102.436 17.3876 103.05 18.1378 103.05Z" fill="white"/>
<rect x="21.4999" y="76" width="28" height="3" rx="1.5" fill="url(#paint24_linear)"/>
<rect x="21.4999" y="82" width="28" height="3" rx="1.5" fill="url(#paint25_linear)"/>
<rect x="21.4999" y="88" width="16" height="3" rx="1.5" fill="url(#paint26_linear)"/>
<path d="M126.799 110.048C127.877 110.621 128.281 111.962 127.704 113.035C127.126 114.113 125.789 114.518 124.716 113.94C121.684 112.317 118.651 110.694 115.622 109.07C114.599 108.52 114.617 107.17 115.095 106.283C115.572 105.392 116.686 104.628 117.709 105.173C119.224 105.983 120.738 106.797 122.252 107.611L125.962 109.598C126.24 109.748 126.522 109.898 126.799 110.048ZM118.642 108.184C119.042 107.442 118.76 106.519 118.019 106.119C117.809 106.006 117.596 105.892 117.382 105.778C117.268 105.719 117.141 105.692 117.009 105.687C116.855 105.687 116.7 105.724 116.559 105.783C116.382 105.86 116.227 105.974 116.086 106.106C115.932 106.251 115.8 106.419 115.7 106.606C115.6 106.792 115.531 106.997 115.5 107.206C115.463 107.392 115.459 107.588 115.49 107.774C115.522 107.929 115.577 108.075 115.663 108.202C115.736 108.311 115.832 108.402 115.945 108.466C116.159 108.579 116.373 108.693 116.582 108.807C117.323 109.202 118.246 108.925 118.642 108.184Z" fill="url(#paint27_linear)"/>
<path d="M125.467 114.34C126.54 114.918 126.944 116.259 126.367 117.332C125.794 118.405 124.453 118.81 123.38 118.237C122.984 118.023 122.584 117.81 122.188 117.601C119.296 116.05 116.409 114.499 113.517 112.954C113.262 112.817 113.012 112.681 112.758 112.544C111.735 111.999 111.757 110.644 112.23 109.757C112.708 108.87 113.822 108.102 114.845 108.652C115.104 108.788 115.363 108.929 115.622 109.07C118.651 110.694 121.684 112.317 124.716 113.94C124.967 114.072 125.217 114.208 125.467 114.34ZM115.781 111.658C116.177 110.916 115.9 109.993 115.159 109.598C114.945 109.484 114.731 109.37 114.517 109.257C114.404 109.198 114.276 109.17 114.149 109.166C113.994 109.166 113.84 109.198 113.694 109.261C113.522 109.334 113.362 109.448 113.221 109.58C113.071 109.725 112.935 109.898 112.835 110.084C112.735 110.266 112.671 110.471 112.635 110.68C112.603 110.871 112.594 111.066 112.63 111.253C112.658 111.403 112.712 111.553 112.799 111.68C112.871 111.785 112.967 111.88 113.081 111.94C113.294 112.053 113.508 112.167 113.717 112.281C114.458 112.681 115.381 112.399 115.781 111.658Z" fill="url(#paint28_linear)"/>
<path d="M124.13 104.11L125.962 109.598L122.252 107.611L124.13 104.11Z" fill="url(#paint29_linear)"/>
<path d="M122.188 117.601C123.257 118.174 123.661 119.51 123.084 120.584C122.511 121.661 121.17 122.066 120.097 121.488C119.642 121.243 119.183 121.002 118.728 120.756C118.46 120.615 118.196 120.47 117.928 120.324C116.131 119.365 114.331 118.401 112.539 117.437C112.517 117.423 112.494 117.414 112.471 117.405C112.126 117.219 111.78 117.037 111.434 116.85C110.411 116.3 110.434 114.95 110.907 114.058C111.384 113.172 112.494 112.412 113.517 112.954C116.409 114.5 119.296 116.05 122.188 117.601ZM114.458 115.964C114.854 115.223 114.576 114.299 113.835 113.899C113.622 113.786 113.408 113.672 113.199 113.558C113.085 113.499 112.953 113.472 112.826 113.467C112.671 113.467 112.517 113.504 112.376 113.563C112.198 113.64 112.039 113.754 111.903 113.886C111.748 114.031 111.612 114.199 111.516 114.386C111.416 114.572 111.348 114.777 111.312 114.986C111.28 115.173 111.271 115.368 111.307 115.554C111.334 115.709 111.389 115.855 111.48 115.982C111.553 116.091 111.644 116.182 111.757 116.241C111.971 116.359 112.185 116.473 112.398 116.587C113.14 116.982 114.063 116.705 114.458 115.964Z" fill="url(#paint30_linear)"/>
<path d="M118.728 120.756C119.801 121.329 120.206 122.671 119.633 123.744C119.055 124.821 117.714 125.226 116.641 124.649C114.576 123.544 112.517 122.439 110.452 121.334C109.429 120.784 109.447 119.433 109.925 118.546C110.393 117.673 111.466 116.928 112.471 117.405C114.29 118.378 116.109 119.351 117.928 120.324C118.196 120.47 118.46 120.615 118.728 120.756ZM113.471 120.447C113.872 119.706 113.59 118.783 112.853 118.387C112.639 118.274 112.426 118.16 112.212 118.042C112.098 117.983 111.971 117.955 111.839 117.955C111.684 117.951 111.53 117.987 111.389 118.046C111.216 118.124 111.057 118.237 110.916 118.369C110.761 118.515 110.63 118.683 110.529 118.869C110.429 119.056 110.366 119.26 110.329 119.47C110.293 119.656 110.289 119.851 110.32 120.038C110.352 120.193 110.407 120.338 110.493 120.465C110.566 120.574 110.661 120.665 110.775 120.729C110.989 120.843 111.202 120.956 111.412 121.07C112.153 121.466 113.076 121.188 113.471 120.447Z" fill="url(#paint31_linear)"/>
<path d="M118.019 106.119C118.76 106.519 119.042 107.442 118.642 108.184C118.246 108.925 117.323 109.202 116.582 108.807C116.372 108.693 116.159 108.579 115.945 108.466C115.831 108.402 115.736 108.311 115.663 108.202C115.577 108.075 115.522 107.929 115.49 107.774C115.459 107.588 115.463 107.392 115.499 107.206C115.531 106.997 115.6 106.792 115.7 106.606C115.8 106.419 115.931 106.251 116.086 106.106C116.227 105.974 116.382 105.86 116.559 105.783C116.7 105.724 116.855 105.687 117.009 105.687C117.141 105.692 117.268 105.719 117.382 105.778C117.596 105.892 117.809 106.006 118.019 106.119Z" fill="url(#paint32_linear)"/>
<path d="M117.928 120.324C116.109 119.351 114.29 118.378 112.471 117.405C112.494 117.414 112.517 117.423 112.539 117.437C114.331 118.401 116.132 119.365 117.928 120.324Z" fill="url(#paint33_linear)"/>
<path d="M115.158 109.598C115.9 109.993 116.177 110.916 115.781 111.658C115.381 112.399 114.458 112.681 113.717 112.281C113.508 112.167 113.294 112.053 113.08 111.94C112.967 111.88 112.871 111.785 112.799 111.68C112.712 111.553 112.658 111.403 112.63 111.253C112.594 111.067 112.603 110.871 112.635 110.68C112.671 110.471 112.735 110.266 112.835 110.084C112.935 109.898 113.071 109.725 113.221 109.58C113.362 109.448 113.522 109.334 113.694 109.261C113.84 109.198 113.994 109.166 114.149 109.166C114.276 109.17 114.404 109.198 114.517 109.257C114.731 109.37 114.945 109.484 115.158 109.598Z" fill="url(#paint34_linear)"/>
<path d="M113.835 113.899C114.577 114.299 114.854 115.222 114.458 115.964C114.063 116.705 113.14 116.982 112.399 116.587C112.185 116.473 111.971 116.359 111.757 116.241C111.644 116.182 111.553 116.091 111.48 115.982C111.389 115.855 111.334 115.709 111.307 115.554C111.271 115.368 111.28 115.172 111.312 114.986C111.348 114.777 111.416 114.572 111.516 114.386C111.612 114.199 111.748 114.031 111.903 113.886C112.039 113.754 112.198 113.64 112.376 113.563C112.517 113.504 112.671 113.467 112.826 113.467C112.953 113.472 113.085 113.499 113.199 113.558C113.408 113.672 113.622 113.786 113.835 113.899Z" fill="url(#paint35_linear)"/>
<path d="M112.853 118.387C113.59 118.783 113.872 119.706 113.472 120.447C113.076 121.188 112.153 121.466 111.412 121.07C111.203 120.956 110.989 120.843 110.775 120.729C110.662 120.665 110.566 120.574 110.493 120.465C110.407 120.338 110.352 120.192 110.321 120.038C110.289 119.851 110.293 119.656 110.33 119.469C110.366 119.26 110.43 119.056 110.53 118.869C110.63 118.683 110.762 118.515 110.916 118.369C111.057 118.237 111.216 118.124 111.389 118.046C111.53 117.987 111.685 117.951 111.839 117.955C111.971 117.955 112.098 117.983 112.212 118.042C112.426 118.16 112.64 118.274 112.853 118.387Z" fill="url(#paint36_linear)"/>
<path d="M47.3617 62.4811C47.3617 63.6588 47.3617 64.8365 47.3617 66.0142C46.3886 66.0142 45.4156 66.0142 44.4425 66.0142C44.4425 64.1317 44.4425 62.2492 44.4425 60.3622C44.7108 60.3622 44.979 60.3622 45.2473 60.3622C46.4159 60.3622 47.3617 61.3126 47.3617 62.4811Z" fill="url(#paint37_linear)"/>
<path d="M44.4426 66.0142C44.4426 67.1373 44.4426 68.2559 44.4426 69.379C44.4426 70.5385 43.2421 71.1614 42.2327 71.1614C41.2278 71.1614 40.0274 70.5385 40.0274 69.379C40.0274 65.9414 40.0274 62.5038 40.0274 59.0617C40.0274 57.8431 41.0141 56.8564 42.2327 56.8564C43.4558 56.8564 44.4426 57.8431 44.4426 59.0617C44.4426 59.4937 44.4426 59.9302 44.4426 60.3622C44.4426 62.2492 44.4426 64.1317 44.4426 66.0142ZM43.756 69.379C43.756 69.138 43.756 68.897 43.756 68.656C43.756 67.8148 43.0739 67.1327 42.2327 67.1327C41.3915 67.1327 40.714 67.8148 40.714 68.656C40.714 68.897 40.714 69.138 40.714 69.379C40.714 69.5109 40.7503 69.6382 40.8095 69.7519C40.8777 69.8883 40.9823 70.0065 41.105 70.1065C41.2505 70.2248 41.4279 70.3066 41.6097 70.3703C41.8098 70.4385 42.0235 70.4748 42.2327 70.4748C42.4464 70.4748 42.6556 70.4385 42.8602 70.3703C43.0421 70.3066 43.2149 70.2248 43.365 70.1065C43.4832 70.0065 43.5877 69.8883 43.6605 69.7519C43.7196 69.6382 43.756 69.5109 43.756 69.379Z" fill="url(#paint38_linear)"/>
<path d="M43.756 68.656C43.756 68.897 43.756 69.138 43.756 69.379C43.756 69.5109 43.7196 69.6382 43.6605 69.7519C43.5877 69.8883 43.4832 70.0065 43.365 70.1065C43.2149 70.2248 43.0421 70.3066 42.8602 70.3703C42.6556 70.4385 42.4464 70.4748 42.2327 70.4748C42.0235 70.4748 41.8098 70.4385 41.6098 70.3703C41.4279 70.3066 41.2506 70.2248 41.1051 70.1065C40.9823 70.0065 40.8777 69.8883 40.8095 69.7519C40.7504 69.6382 40.714 69.5109 40.714 69.379C40.714 69.138 40.714 68.897 40.714 68.656C40.714 67.8148 41.3915 67.1328 42.2327 67.1328C43.0739 67.1328 43.756 67.8148 43.756 68.656Z" fill="url(#paint39_linear)"/>
<path d="M40.0273 69.379C40.0273 69.6746 40.0273 69.9702 40.0273 70.2612C40.0273 71.4207 38.8224 72.0436 37.8175 72.0436C36.808 72.0436 35.6076 71.4207 35.6076 70.2612C35.6076 69.9747 35.6076 69.6837 35.6076 69.3972C35.6076 66.1233 35.6076 62.8495 35.6076 59.571C35.6076 59.1163 35.6076 58.6662 35.6076 58.2115C35.6076 56.9928 36.5989 56.0016 37.8175 56.0016C39.0361 56.0016 40.0273 56.9928 40.0273 58.2115C40.0273 58.4979 40.0273 58.7798 40.0273 59.0618C40.0273 62.5039 40.0273 65.9415 40.0273 69.379ZM39.3407 70.2612C39.3407 70.0202 39.3407 69.7792 39.3407 69.5382C39.3407 68.697 38.6587 68.0149 37.8175 68.0149C36.9763 68.0149 36.2942 68.697 36.2942 69.5382C36.2942 69.7792 36.2942 70.0202 36.2942 70.2612C36.2942 70.393 36.3306 70.5204 36.3897 70.634C36.4625 70.7704 36.5671 70.8887 36.6853 70.9887C36.8353 71.1069 37.0081 71.1888 37.19 71.2524C37.3946 71.3206 37.6038 71.357 37.8175 71.357C38.0267 71.357 38.2404 71.3206 38.4404 71.2524C38.6223 71.1888 38.7996 71.1069 38.9451 70.9887C39.0679 70.8887 39.1725 70.7704 39.2407 70.634C39.3044 70.5204 39.3407 70.393 39.3407 70.2612Z" fill="url(#paint40_linear)"/>
<path d="M39.3407 69.5382C39.3407 69.7792 39.3407 70.0201 39.3407 70.2611C39.3407 70.393 39.3044 70.5203 39.2407 70.634C39.1725 70.7704 39.0679 70.8886 38.9451 70.9887C38.7996 71.1069 38.6223 71.1887 38.4404 71.2524C38.2404 71.3206 38.0266 71.357 37.8175 71.357C37.6038 71.357 37.3946 71.3206 37.19 71.2524C37.0081 71.1887 36.8353 71.1069 36.6853 70.9887C36.567 70.8886 36.4624 70.7704 36.3897 70.634C36.3306 70.5203 36.2942 70.393 36.2942 70.2611C36.2942 70.0201 36.2942 69.7792 36.2942 69.5382C36.2942 68.697 36.9763 68.0149 37.8175 68.0149C38.6587 68.0149 39.3407 68.697 39.3407 69.5382Z" fill="url(#paint41_linear)"/>
<path d="M35.6076 59.571C35.6076 62.8495 35.6076 66.1234 35.6076 69.3973C35.6076 70.5568 34.4072 71.1752 33.3978 71.1752C32.3928 71.1752 31.1924 70.5568 31.1924 69.3973C31.1924 68.9789 31.1924 68.5651 31.1924 68.1468C31.1924 65.8005 31.1924 63.4633 31.1924 61.1216C31.1924 60.6032 31.1924 60.0894 31.1924 59.571C31.1924 58.3524 32.1791 57.3612 33.3978 57.3612C34.6209 57.3612 35.6076 58.3524 35.6076 59.571ZM34.921 69.3973C34.921 69.1563 34.921 68.9153 34.921 68.6743C34.921 67.8331 34.239 67.151 33.3978 67.151C32.5565 67.151 31.879 67.8331 31.879 68.6743C31.879 68.9153 31.879 69.1563 31.879 69.3973C31.879 69.5246 31.9154 69.6519 31.9745 69.7656C32.0427 69.9065 32.1473 70.0248 32.2701 70.1202C32.4201 70.2385 32.5929 70.3249 32.7748 70.384C32.9749 70.4522 33.1886 70.4886 33.3978 70.4886C33.6115 70.4886 33.8206 70.4522 34.0253 70.384C34.2071 70.3249 34.3799 70.2385 34.53 70.1202C34.6482 70.0248 34.7528 69.9065 34.8256 69.7656C34.8847 69.6519 34.921 69.5246 34.921 69.3973Z" fill="url(#paint42_linear)"/>
<path d="M34.9211 68.6743C34.9211 68.9153 34.9211 69.1562 34.9211 69.3972C34.9211 69.5246 34.8847 69.6519 34.8256 69.7656C34.7529 69.9065 34.6483 70.0247 34.5301 70.1202C34.38 70.2385 34.2072 70.3248 34.0253 70.384C33.8207 70.4522 33.6116 70.4885 33.3978 70.4885C33.1887 70.4885 32.975 70.4522 32.7749 70.384C32.593 70.3248 32.4202 70.2385 32.2702 70.1202C32.1474 70.0247 32.0428 69.9065 31.9746 69.7656C31.9155 69.6519 31.8791 69.5246 31.8791 69.3972C31.8791 69.1562 31.8791 68.9153 31.8791 68.6743C31.8791 67.8331 32.5566 67.151 33.3978 67.151C34.2391 67.151 34.9211 67.8331 34.9211 68.6743Z" fill="url(#paint43_linear)"/>
<path d="M31.1925 61.1216C31.1925 63.4633 31.1925 65.8005 31.1925 68.1468C31.1925 69.3063 29.9875 69.9247 28.9826 69.9247C27.9732 69.9247 26.7727 69.3063 26.7727 68.1468C26.7727 65.8051 26.7727 63.4633 26.7727 61.1216C26.7727 59.903 27.764 58.9163 28.9826 58.9163C30.2012 58.9163 31.1925 59.903 31.1925 61.1216ZM30.5059 68.1468C30.5059 67.9058 30.5059 67.6648 30.5059 67.4238C30.5059 66.5826 29.8238 65.9006 28.9826 65.9006C28.1414 65.9006 27.4593 66.5826 27.4593 67.4238C27.4593 67.6648 27.4593 67.9058 27.4593 68.1468C27.4593 68.2741 27.4957 68.4015 27.5548 68.5151C27.6276 68.6516 27.7321 68.7743 27.8503 68.8698C28.0004 68.988 28.1778 69.0744 28.3597 69.1335C28.5597 69.2017 28.7689 69.2381 28.9826 69.2381C29.1918 69.2381 29.4055 69.2017 29.6056 69.1335C29.7874 69.0744 29.9648 68.988 30.1148 68.8698C30.2331 68.7743 30.3376 68.6516 30.4104 68.5151C30.4695 68.4015 30.5059 68.2741 30.5059 68.1468Z" fill="url(#paint44_linear)"/>
<path d="M30.5058 67.4238C30.5058 67.6648 30.5058 67.9058 30.5058 68.1468C30.5058 68.2741 30.4694 68.4014 30.4103 68.5151C30.3376 68.6515 30.233 68.7743 30.1148 68.8697C29.9647 68.988 29.7874 69.0744 29.6055 69.1335C29.4055 69.2017 29.1917 69.2381 28.9826 69.2381C28.7689 69.2381 28.5597 69.2017 28.3596 69.1335C28.1777 69.0744 28.0004 68.988 27.8503 68.8697C27.7321 68.7743 27.6275 68.6515 27.5548 68.5151C27.4957 68.4014 27.4593 68.2741 27.4593 68.1468C27.4593 67.9058 27.4593 67.6648 27.4593 67.4238C27.4593 66.5826 28.1414 65.9005 28.9826 65.9005C29.8238 65.9005 30.5058 66.5826 30.5058 67.4238Z" fill="url(#paint45_linear)"/>
<defs>
<filter id="filter0_b" x="-10" y="145" width="200" height="45" filterUnits="userSpaceOnUse" color-interpolation-filters="sRGB">
<feFlood flood-opacity="0" result="BackgroundImageFix"/>
<feGaussianBlur in="BackgroundImage" stdDeviation="5"/>
<feComposite in2="SourceAlpha" operator="in" result="effect1_backgroundBlur"/>
<feBlend mode="normal" in="SourceGraphic" in2="effect1_backgroundBlur" result="shape"/>
</filter>
<linearGradient id="paint0_linear" x1="76.3502" y1="161.861" x2="79.5188" y2="166.143" gradientUnits="userSpaceOnUse">
<stop stop-color="#FFE2C8"/>
<stop offset="1" stop-color="#FFB26D"/>
</linearGradient>
<linearGradient id="paint1_linear" x1="100.432" y1="161.861" x2="103.6" y2="166.147" gradientUnits="userSpaceOnUse">
<stop stop-color="#FFE2C8"/>
<stop offset="1" stop-color="#FFB26D"/>
</linearGradient>
<linearGradient id="paint2_linear" x1="86.3268" y1="83.6222" x2="90.825" y2="92.0679" gradientUnits="userSpaceOnUse">
<stop stop-color="#FFE2C8"/>
<stop offset="1" stop-color="#FFB26D"/>
</linearGradient>
<linearGradient id="paint3_linear" x1="103.273" y1="43.6199" x2="103.273" y2="53.9099" gradientUnits="userSpaceOnUse">
<stop stop-color="#333333"/>
<stop offset="1"/>
</linearGradient>
<linearGradient id="paint4_linear" x1="99.437" y1="45.757" x2="99.437" y2="51.7728" gradientUnits="userSpaceOnUse">
<stop stop-color="#333333"/>
<stop offset="1"/>
</linearGradient>
<linearGradient id="paint5_linear" x1="77.7248" y1="43.6199" x2="77.7248" y2="53.9099" gradientUnits="userSpaceOnUse">
<stop stop-color="#333333"/>
<stop offset="1"/>
</linearGradient>
<linearGradient id="paint6_linear" x1="73.8871" y1="45.757" x2="73.8871" y2="51.7728" gradientUnits="userSpaceOnUse">
<stop stop-color="#333333"/>
<stop offset="1"/>
</linearGradient>
<linearGradient id="paint7_linear" x1="66.4995" y1="19.0048" x2="122.995" y2="77.5046" gradientUnits="userSpaceOnUse">
<stop stop-color="#FFE2C8"/>
<stop offset="1" stop-color="#FFB26D"/>
</linearGradient>
<linearGradient id="paint8_linear" x1="83.11" y1="99.9837" x2="83.3017" y2="103.54" gradientUnits="userSpaceOnUse">
<stop stop-color="#A7B5D0"/>
<stop offset="1" stop-color="#575B86"/>
</linearGradient>
<linearGradient id="paint9_linear" x1="71.101" y1="99.9838" x2="71.2926" y2="103.539" gradientUnits="userSpaceOnUse">
<stop stop-color="#A7B5D0"/>
<stop offset="1" stop-color="#575B86"/>
</linearGradient>
<linearGradient id="paint10_linear" x1="85.0934" y1="88.6453" x2="85.4622" y2="92.0403" gradientUnits="userSpaceOnUse">
<stop stop-color="#22357D"/>
<stop offset="1" stop-color="#001461"/>
</linearGradient>
<linearGradient id="paint11_linear" x1="63.5577" y1="85.719" x2="107.211" y2="113.726" gradientUnits="userSpaceOnUse">
<stop offset="0.00410753" stop-color="#DEE1EA"/>
<stop offset="1" stop-color="#E4E8F3"/>
</linearGradient>
<linearGradient id="paint12_linear" x1="77.6147" y1="114.358" x2="111.227" y2="151.101" gradientUnits="userSpaceOnUse">
<stop stop-color="#22357D"/>
<stop offset="1" stop-color="#001461"/>
</linearGradient>
<linearGradient id="paint13_linear" x1="90.4986" y1="17.7215" x2="90.4986" y2="86.617" gradientUnits="userSpaceOnUse">
<stop stop-color="#333333"/>
<stop offset="1"/>
</linearGradient>
<linearGradient id="paint14_linear" x1="100.843" y1="39.7245" x2="100.843" y2="65.4984" gradientUnits="userSpaceOnUse">
<stop stop-color="#333333"/>
<stop offset="1"/>
</linearGradient>
<linearGradient id="paint15_linear" x1="103.054" y1="162.057" x2="103.054" y2="168.929" gradientUnits="userSpaceOnUse">
<stop stop-color="#333333"/>
<stop offset="1"/>
</linearGradient>
<linearGradient id="paint16_linear" x1="90.4997" y1="70.1338" x2="90.4997" y2="76.4343" gradientUnits="userSpaceOnUse">
<stop stop-color="#333333"/>
<stop offset="1"/>
</linearGradient>
<linearGradient id="paint17_linear" x1="77.8308" y1="39.7246" x2="77.8308" y2="47.5849" gradientUnits="userSpaceOnUse">
<stop stop-color="#333333"/>
<stop offset="1"/>
</linearGradient>
<linearGradient id="paint18_linear" x1="77.4039" y1="162.057" x2="77.4039" y2="168.929" gradientUnits="userSpaceOnUse">
<stop stop-color="#333333"/>
<stop offset="1"/>
</linearGradient>
<linearGradient id="paint19_linear" x1="123.702" y1="60.9687" x2="132.609" y2="76.0146" gradientUnits="userSpaceOnUse">
<stop stop-color="#22357D"/>
<stop offset="1" stop-color="#001461"/>
</linearGradient>
<linearGradient id="paint20_linear" x1="85.1465" y1="102.884" x2="117.602" y2="133.266" gradientUnits="userSpaceOnUse">
<stop stop-color="white"/>
<stop offset="1" stop-color="#E9E9E9"/>
</linearGradient>
<linearGradient id="paint21_linear" x1="110.557" y1="91.577" x2="116.237" y2="102.187" gradientUnits="userSpaceOnUse">
<stop stop-color="#22357D"/>
<stop offset="1" stop-color="#001461"/>
</linearGradient>
<linearGradient id="paint22_linear" x1="127.994" y1="60.9858" x2="130.914" y2="68.4876" gradientUnits="userSpaceOnUse">
<stop stop-color="#22357D"/>
<stop offset="1" stop-color="#001461"/>
</linearGradient>
<linearGradient id="paint23_linear" x1="13.2591" y1="61.2079" x2="38.4116" y2="112.734" gradientUnits="userSpaceOnUse">
<stop stop-color="#22357D"/>
<stop offset="1" stop-color="#001461"/>
</linearGradient>
<linearGradient id="paint24_linear" x1="25.1762" y1="75.9934" x2="26.9262" y2="84.0267" gradientUnits="userSpaceOnUse">
<stop offset="0.00410753" stop-color="#DEE1EA"/>
<stop offset="1" stop-color="#E4E8F3"/>
</linearGradient>
<linearGradient id="paint25_linear" x1="25.1762" y1="81.9934" x2="26.9262" y2="90.0267" gradientUnits="userSpaceOnUse">
<stop offset="0.00410753" stop-color="#DEE1EA"/>
<stop offset="1" stop-color="#E4E8F3"/>
</linearGradient>
<linearGradient id="paint26_linear" x1="23.6006" y1="87.9934" x2="26.4014" y2="95.3401" gradientUnits="userSpaceOnUse">
<stop offset="0.00410753" stop-color="#DEE1EA"/>
<stop offset="1" stop-color="#E4E8F3"/>
</linearGradient>
<linearGradient id="paint27_linear" x1="114.817" y1="104.491" x2="121.775" y2="117.686" gradientUnits="userSpaceOnUse">
<stop stop-color="#FFE2C8"/>
<stop offset="1" stop-color="#FFB26D"/>
</linearGradient>
<linearGradient id="paint28_linear" x1="111.959" y1="107.923" x2="119.429" y2="122.44" gradientUnits="userSpaceOnUse">
<stop stop-color="#FFE2C8"/>
<stop offset="1" stop-color="#FFB26D"/>
</linearGradient>
<linearGradient id="paint29_linear" x1="122.263" y1="103.812" x2="127.255" y2="108.284" gradientUnits="userSpaceOnUse">
<stop stop-color="#FFE2C8"/>
<stop offset="1" stop-color="#FFB26D"/>
</linearGradient>
<linearGradient id="paint30_linear" x1="110.63" y1="112.285" x2="117.441" y2="125.103" gradientUnits="userSpaceOnUse">
<stop stop-color="#FFE2C8"/>
<stop offset="1" stop-color="#FFB26D"/>
</linearGradient>
<linearGradient id="paint31_linear" x1="109.638" y1="116.841" x2="115.624" y2="127.492" gradientUnits="userSpaceOnUse">
<stop stop-color="#FFE2C8"/>
<stop offset="1" stop-color="#FFB26D"/>
</linearGradient>
<linearGradient id="paint32_linear" x1="115.449" y1="105.294" x2="117.603" y2="109.385" gradientUnits="userSpaceOnUse">
<stop stop-color="#22357D"/>
<stop offset="1" stop-color="#001461"/>
</linearGradient>
<linearGradient id="paint33_linear" x1="112.487" y1="117.247" x2="114.342" y2="121.841" gradientUnits="userSpaceOnUse">
<stop stop-color="#FFE2C8"/>
<stop offset="1" stop-color="#FFB26D"/>
</linearGradient>
<linearGradient id="paint34_linear" x1="112.587" y1="108.773" x2="114.738" y2="112.862" gradientUnits="userSpaceOnUse">
<stop stop-color="#22357D"/>
<stop offset="1" stop-color="#001461"/>
</linearGradient>
<linearGradient id="paint35_linear" x1="111.264" y1="113.074" x2="113.417" y2="117.165" gradientUnits="userSpaceOnUse">
<stop stop-color="#22357D"/>
<stop offset="1" stop-color="#001461"/>
</linearGradient>
<linearGradient id="paint36_linear" x1="110.279" y1="117.562" x2="112.429" y2="121.651" gradientUnits="userSpaceOnUse">
<stop stop-color="#22357D"/>
<stop offset="1" stop-color="#001461"/>
</linearGradient>
<linearGradient id="paint37_linear" x1="44.4509" y1="60.0558" x2="49.2727" y2="63.355" gradientUnits="userSpaceOnUse">
<stop stop-color="#FFE2C8"/>
<stop offset="1" stop-color="#FFB26D"/>
</linearGradient>
<linearGradient id="paint38_linear" x1="40.04" y1="56.0808" x2="49.2134" y2="59.8317" gradientUnits="userSpaceOnUse">
<stop stop-color="#FFE2C8"/>
<stop offset="1" stop-color="#FFB26D"/>
</linearGradient>
<linearGradient id="paint39_linear" x1="40.6959" y1="66.734" x2="43.0086" y2="70.6672" gradientUnits="userSpaceOnUse">
<stop stop-color="#22357D"/>
<stop offset="1" stop-color="#001461"/>
</linearGradient>
<linearGradient id="paint40_linear" x1="35.6202" y1="55.1318" x2="45.0783" y2="58.5839" gradientUnits="userSpaceOnUse">
<stop stop-color="#FFE2C8"/>
<stop offset="1" stop-color="#FFB26D"/>
</linearGradient>
<linearGradient id="paint41_linear" x1="36.276" y1="67.6162" x2="38.5871" y2="71.5523" gradientUnits="userSpaceOnUse">
<stop stop-color="#22357D"/>
<stop offset="1" stop-color="#001461"/>
</linearGradient>
<linearGradient id="paint42_linear" x1="31.205" y1="56.6122" x2="40.2844" y2="60.4566" gradientUnits="userSpaceOnUse">
<stop stop-color="#FFE2C8"/>
<stop offset="1" stop-color="#FFB26D"/>
</linearGradient>
<linearGradient id="paint43_linear" x1="31.861" y1="66.7528" x2="34.169" y2="70.6834" gradientUnits="userSpaceOnUse">
<stop stop-color="#22357D"/>
<stop offset="1" stop-color="#001461"/>
</linearGradient>
<linearGradient id="paint44_linear" x1="26.7853" y1="58.3195" x2="35.14" y2="62.7632" gradientUnits="userSpaceOnUse">
<stop stop-color="#FFE2C8"/>
<stop offset="1" stop-color="#FFB26D"/>
</linearGradient>
<linearGradient id="paint45_linear" x1="27.4411" y1="65.5023" x2="29.7474" y2="69.4359" gradientUnits="userSpaceOnUse">
<stop stop-color="#22357D"/>
<stop offset="1" stop-color="#001461"/>
</linearGradient>
</defs>
</svg>
