<svg width="38" height="38" viewBox="0 0 38 38" fill="none" xmlns="http://www.w3.org/2000/svg">
<g filter="url(#filter0_d)">
<path fill-rule="evenodd" clip-rule="evenodd" d="M19 34C27.2843 34 34 27.2843 34 19C34 10.7157 27.2843 4 19 4C10.7157 4 4 10.7157 4 19C4 27.2843 10.7157 34 19 34ZM21.8001 15.6001C22.2419 15.2687 22.3315 14.6419 22.0001 14.2001C21.6687 13.7583 21.0419 13.6687 20.6001 14.0001L14.2001 18.8001C13.9483 18.989 13.8001 19.2853 13.8001 19.6001C13.8001 19.9149 13.9483 20.2112 14.2001 20.4001L20.6001 25.2001C21.0419 25.5315 21.6687 25.4419 22.0001 25.0001C22.3315 24.5583 22.2419 23.9315 21.8001 23.6001L16.4668 19.6001L21.8001 15.6001Z" fill="white"/>
</g>
<defs>
<filter id="filter0_d" x="0" y="0" width="38" height="38" filterUnits="userSpaceOnUse" color-interpolation-filters="sRGB">
<feFlood flood-opacity="0" result="BackgroundImageFix"/>
<feColorMatrix in="SourceAlpha" type="matrix" values="0 0 0 0 0 0 0 0 0 0 0 0 0 0 0 0 0 0 127 0"/>
<feOffset/>
<feGaussianBlur stdDeviation="2"/>
<feColorMatrix type="matrix" values="0 0 0 0 0 0 0 0 0 0 0 0 0 0 0 0 0 0 0.15 0"/>
<feBlend mode="normal" in2="BackgroundImageFix" result="effect1_dropShadow"/>
<feBlend mode="normal" in="SourceGraphic" in2="effect1_dropShadow" result="shape"/>
</filter>
</defs>
</svg>
