<svg width="180" height="180" viewBox="0 0 180 180" fill="none" xmlns="http://www.w3.org/2000/svg">
<g filter="url(#filter0_b)">
<ellipse cx="90" cy="167.5" rx="90" ry="12.5" fill="#EBEFF9"/>
</g>
<path d="M114.165 44.9742C113.888 43.1781 113.483 41.4002 112.951 39.6496C112.219 37.2305 111.128 34.9206 109.718 32.8199C108.259 30.6509 106.454 28.7139 104.38 27.1179C102.348 25.5537 100.051 24.3214 97.6186 23.5075C95.3315 22.7436 92.9215 22.348 90.5116 22.348C88.1016 22.348 85.6917 22.7436 83.4045 23.5075C80.9673 24.3214 78.6756 25.5537 76.643 27.1179C74.5696 28.7139 72.7644 30.6509 71.3048 32.8199C69.8907 34.9206 68.8039 37.2305 68.0673 39.6496C67.5353 41.4002 67.1306 43.1826 66.8532 44.9787C66.7168 45.8427 66.6122 46.7157 66.5304 47.5842V47.5888C65.8165 55.6098 67.5444 63.7672 71.6458 70.8152C72.5916 72.4339 73.6511 73.989 74.8288 75.4486C75.2107 75.917 75.6018 76.3762 76.0065 76.8218C75.8564 79.9775 75.7064 83.4924 75.5518 86.6162C65.7619 78.3133 61.1421 66.5182 61.6878 51.231C61.7241 50.4807 61.7605 49.7304 61.7969 48.9802C61.8287 48.3345 61.8742 47.6933 61.9333 47.0522C62.1379 44.8196 62.5153 42.6006 63.0564 40.4271C63.1883 39.8951 63.3293 39.3631 63.4839 38.8357C63.6339 38.3127 63.7976 37.7898 63.9749 37.276C64.3342 36.2302 64.7479 35.198 65.2208 34.1977C65.7028 33.17 66.2439 32.1697 66.8396 31.2011C67.4489 30.219 68.1128 29.2732 68.8357 28.3683C70.2908 26.5359 71.9641 24.8762 73.8193 23.4484C75.6609 22.0343 77.6798 20.8475 79.8123 19.929C80.8536 19.4834 81.9222 19.0969 83.0135 18.7831C84.0729 18.4785 85.1597 18.2375 86.251 18.0601C87.315 17.8919 88.3836 17.7828 89.4612 17.7418C90.5161 17.6964 91.5711 17.7191 92.626 17.8009C94.8222 17.9737 96.9957 18.4193 99.0873 19.1196C101.27 19.8471 103.357 20.8566 105.29 22.1025C105.781 22.4208 106.263 22.7527 106.736 23.0983C107.208 23.4439 107.668 23.8076 108.113 24.1805C108.563 24.5579 109 24.9489 109.427 25.3536C109.85 25.7538 110.264 26.1721 110.664 26.5995C111.064 27.0269 111.446 27.4635 111.819 27.9136C112.192 28.3592 112.551 28.8185 112.897 29.2914C113.574 30.219 114.193 31.1875 114.761 32.1879C115.307 33.1564 115.807 34.1522 116.243 35.1753C116.68 36.1984 117.053 37.2487 117.38 38.3127C118.03 40.4317 118.508 42.6097 118.826 44.806C119.022 46.1928 119.154 47.5842 119.222 48.9802C119.258 49.7304 119.294 50.4807 119.331 51.231C119.358 52.0449 119.376 52.8497 119.376 53.6409C119.376 67.7641 114.738 78.7543 105.467 86.6162C105.317 83.4924 105.167 79.9775 105.017 76.8218C105.421 76.3762 105.812 75.9215 106.19 75.4532C107.368 73.9935 108.422 72.443 109.368 70.8242C113.474 63.7763 115.207 55.6098 114.493 47.5888V47.5842C114.411 46.7112 114.306 45.8427 114.165 44.9742Z" fill="url(#paint0_linear)"/>
<path d="M76.0064 76.8215C75.6017 76.3758 75.2106 75.9166 74.8287 75.4482C73.651 73.9886 72.5915 72.4335 71.6457 70.8148C67.5443 63.7668 65.8164 55.6094 66.5303 47.5884V47.5839C67.7262 46.3198 69.0084 45.1557 70.4317 44.1554C71.4184 43.4642 72.4687 42.8549 73.5737 42.382C74.5104 41.9864 75.488 41.6818 76.4883 41.509C77.3705 41.3589 78.2708 41.3089 79.1575 41.3726C80.7262 41.4862 82.2631 41.9637 83.6227 42.7458C84.7958 43.4142 85.8371 44.3145 86.651 45.3922C86.8284 45.6195 86.9921 45.8605 87.1376 46.1061C87.2467 46.2879 87.3467 46.4698 87.4331 46.6608C87.4877 46.779 87.5377 46.8972 87.5832 47.0155C87.7378 47.4383 88.2061 47.6521 88.6245 47.4929C89.0473 47.3383 89.261 46.87 89.1019 46.4516C89.0246 46.2334 88.9291 46.0242 88.8291 45.815C88.6017 45.3603 88.3289 44.9238 88.0288 44.51C87.424 43.687 86.701 42.9549 85.8962 42.3229C85.005 41.6227 84.0183 41.0497 82.9679 40.6178C81.8221 40.1494 80.5989 39.8584 79.3621 39.7584C77.9752 39.6492 76.5656 39.7811 75.2152 40.1176C73.6237 40.5132 72.105 41.1952 70.6954 42.041C69.3131 42.8776 68.0354 43.878 66.8531 44.9784C67.1305 43.1823 67.5352 41.3998 68.0672 39.6492C68.8038 37.2302 69.8906 34.9203 71.3047 32.8195C72.7643 30.6506 74.5695 28.7135 76.6429 27.1175C78.6755 25.5533 80.9672 24.3211 83.4044 23.5072C85.6916 22.7433 88.1015 22.3477 90.5115 22.3477C92.9214 22.3477 95.3314 22.7433 97.6185 23.5072C100.051 24.3211 102.347 25.5533 104.38 27.1175C106.453 28.7135 108.259 30.6506 109.718 32.8195C111.128 34.9203 112.219 37.2302 112.951 39.6492C113.483 41.3998 113.888 43.1777 114.165 44.9738C113.542 44.3964 112.897 43.8507 112.219 43.3323C111.332 42.6594 110.396 42.0455 109.414 41.5226C108.541 41.0634 107.636 40.6723 106.699 40.3722C105.858 40.1039 104.994 39.913 104.121 39.8084C102.561 39.6265 100.965 39.7311 99.4556 40.1449C98.1096 40.5086 96.8274 41.1134 95.686 41.9091C94.6675 42.6185 93.7581 43.4824 93.0215 44.4737C92.7168 44.8829 92.444 45.3149 92.2166 45.7741C92.0393 46.1288 91.8938 46.4971 91.7801 46.8791C91.6573 47.2928 91.58 47.7203 91.5346 48.1477C91.48 48.6524 91.4664 49.1617 91.48 49.671C91.4891 50.3075 91.5391 50.9396 91.5982 51.5716C91.6755 52.3765 91.7756 53.1813 91.8802 53.9861C92.0211 55.0365 92.1757 56.0914 92.3394 57.1418C92.5349 58.415 92.7486 59.6836 92.9487 60.9568C93.0169 61.3705 93.0806 61.7843 93.117 62.2027C93.1351 62.3754 93.1442 62.5437 93.1351 62.7165C93.1306 62.7983 93.1215 62.8756 93.1033 62.9575C93.0942 63.0029 93.076 63.053 93.0533 63.0984C93.0351 63.1348 93.0124 63.1712 92.9805 63.1985C92.9442 63.2439 92.8942 63.2803 92.8487 63.3121C92.7623 63.3713 92.6713 63.4258 92.5759 63.4713C92.4303 63.5486 92.2758 63.6122 92.1166 63.6623C91.6437 63.8123 91.1435 63.8669 90.6434 63.8714C89.8249 63.876 89.011 63.7487 88.2107 63.5713C87.7742 63.4713 87.3376 63.7441 87.2422 64.1852C87.1421 64.6217 87.4149 65.0537 87.856 65.1537C88.4653 65.2947 89.0837 65.3992 89.7067 65.4538C90.2023 65.4993 90.707 65.5129 91.2026 65.472C91.9302 65.4174 92.6532 65.2492 93.3034 64.9263C93.5353 64.8081 93.7535 64.6763 93.9491 64.5126C94.1219 64.3716 94.2719 64.2079 94.3947 64.0215C94.522 63.8305 94.6129 63.6122 94.6721 63.3894C94.7266 63.1757 94.7539 62.9484 94.7584 62.7256C94.7721 62.3482 94.7357 61.9662 94.6857 61.5888C94.5902 60.8158 94.4538 60.0519 94.3265 59.2834C94.14 58.1831 93.9718 57.0827 93.8081 55.9823C93.5717 54.4135 93.3489 52.8448 93.2034 51.2715C93.1442 50.5713 93.0942 49.8756 93.1033 49.1753C93.1079 48.6933 93.1351 48.2113 93.2306 47.7384C93.3079 47.3701 93.4262 47.0064 93.5853 46.6608C93.6762 46.4698 93.7763 46.2879 93.8809 46.1061C94.0309 45.8605 94.1946 45.6195 94.3719 45.3922C95.1859 44.3145 96.2271 43.4142 97.3957 42.7458C98.7599 41.9637 100.297 41.4862 101.861 41.3726C102.752 41.3089 103.652 41.3589 104.535 41.509C105.535 41.6818 106.513 41.9864 107.445 42.382C108.554 42.8549 109.605 43.4642 110.591 44.1554C112.01 45.1557 113.297 46.3198 114.493 47.5839V47.5884C115.207 55.6094 113.474 63.7759 109.368 70.8239C108.422 72.4426 107.367 73.9932 106.19 75.4528C105.812 75.9211 105.421 76.3758 105.017 76.8215C104.28 77.6308 103.498 78.4038 102.675 79.1223C101.179 80.4227 99.5329 81.555 97.7459 82.4098C96.5727 82.9736 95.3359 83.4147 94.0673 83.7057C93.6535 83.8012 93.2352 83.8785 92.8168 83.9422C92.0529 84.0558 91.2845 84.1149 90.5115 84.1149C89.7385 84.1149 88.97 84.0558 88.2061 83.9422C87.7833 83.8785 87.3695 83.8012 86.9557 83.7057C85.6825 83.4147 84.4457 82.9736 83.2726 82.4098C81.4856 81.555 79.8395 80.4227 78.3436 79.1223C77.5205 78.4038 76.743 77.6308 76.0064 76.8215ZM103.293 53.9043C106.817 53.8997 110.032 51.9036 111.596 48.7479C110.023 45.5968 106.799 43.6097 103.275 43.6143C99.7511 43.6234 96.5363 45.6195 94.9722 48.7752C96.55 51.9263 99.7693 53.9134 103.293 53.9043ZM86.0508 48.7752C84.4821 45.6195 81.2673 43.6234 77.7479 43.6143C74.2239 43.6097 71 45.5968 69.4222 48.7479C70.991 51.9036 74.2057 53.8997 77.7297 53.9043C81.2491 53.9134 84.473 51.9263 86.0508 48.7752Z" fill="url(#paint1_linear)"/>
<path d="M114.165 44.974C114.306 45.8425 114.411 46.711 114.493 47.584C113.297 46.3199 112.01 45.1559 110.591 44.1555C109.605 43.4644 108.554 42.8551 107.445 42.3822C106.513 41.9866 105.535 41.6819 104.535 41.5092C103.653 41.3591 102.752 41.3091 101.861 41.3727C100.297 41.4864 98.76 41.9639 97.3959 42.746C96.2273 43.4144 95.186 44.3147 94.3721 45.3923C94.1948 45.6197 94.0311 45.8607 93.881 46.1062C93.7765 46.2881 93.6764 46.47 93.5855 46.661C93.4263 47.0066 93.3081 47.3703 93.2308 47.7386C93.1353 48.2115 93.108 48.6935 93.1035 49.1755C93.0944 49.8757 93.1444 50.5714 93.2035 51.2717C93.349 52.845 93.5718 54.4137 93.8083 55.9824C93.972 57.0828 94.1402 58.1832 94.3267 59.2836C94.454 60.0521 94.5904 60.816 94.6859 61.589C94.7359 61.9664 94.7723 62.3483 94.7586 62.7257C94.7541 62.9485 94.7268 63.1759 94.6722 63.3896C94.6131 63.6124 94.5222 63.8307 94.3949 64.0217C94.2721 64.2081 94.122 64.3718 93.9492 64.5127C93.7537 64.6764 93.5355 64.8083 93.3036 64.9265C92.6533 65.2494 91.9303 65.4176 91.2028 65.4722C90.7072 65.5131 90.2025 65.4994 89.7068 65.454C89.0839 65.3994 88.4655 65.2948 87.8562 65.1539C87.4151 65.0538 87.1423 64.6219 87.2423 64.1853C87.3378 63.7443 87.7743 63.4715 88.2109 63.5715C89.0111 63.7488 89.8251 63.8761 90.6435 63.8716C91.1437 63.8671 91.6439 63.8125 92.1168 63.6624C92.2759 63.6124 92.4305 63.5488 92.576 63.4715C92.6715 63.426 92.7625 63.3714 92.8489 63.3123C92.8943 63.2805 92.9443 63.2441 92.9807 63.1986C93.0126 63.1714 93.0353 63.135 93.0535 63.0986C93.0762 63.0531 93.0944 63.0031 93.1035 62.9576C93.1217 62.8758 93.1308 62.7985 93.1353 62.7166C93.1444 62.5439 93.1353 62.3756 93.1171 62.2028C93.0808 61.7845 93.0171 61.3707 92.9489 60.9569C92.7488 59.6838 92.5351 58.4151 92.3396 57.1419C92.1759 56.0916 92.0213 55.0367 91.8803 53.9863C91.7758 53.1815 91.6757 52.3766 91.5984 51.5718C91.5393 50.9398 91.4893 50.3077 91.4802 49.6711C91.4665 49.1619 91.4802 48.6526 91.5348 48.1479C91.5802 47.7204 91.6575 47.293 91.7803 46.8792C91.894 46.4973 92.0395 46.129 92.2168 45.7743C92.4442 45.315 92.717 44.8831 93.0216 44.4738C93.7583 43.4826 94.6677 42.6186 95.6862 41.9093C96.8275 41.1136 98.1098 40.5088 99.4557 40.145C100.965 39.7313 102.561 39.6267 104.121 39.8086C104.994 39.9131 105.858 40.1041 106.699 40.3724C107.636 40.6725 108.541 41.0635 109.414 41.5228C110.396 42.0457 111.333 42.6596 112.219 43.3325C112.897 43.8509 113.543 44.3965 114.165 44.974Z" fill="url(#paint2_linear)"/>
<path d="M105.666 52.2774C107.449 51.7363 109.068 50.5586 110.154 48.7489C108.699 46.3435 106.089 44.8748 103.279 44.8793C100.465 44.8884 97.8591 46.3617 96.4131 48.7762C97.5044 50.5768 99.1277 51.7499 100.915 52.291C102.461 52.7594 104.125 52.7594 105.666 52.2774ZM111.596 48.7489C110.032 51.9045 106.817 53.9007 103.293 53.9052C99.7688 53.9143 96.5495 51.9273 94.9717 48.7762C96.5359 45.6205 99.7506 43.6243 103.275 43.6152C106.799 43.6107 110.022 45.5978 111.596 48.7489Z" fill="url(#paint3_linear)"/>
<path d="M106.394 167.727C106.417 168.522 105.699 168.959 104.985 168.877C104.271 168.8 103.561 168.204 102.72 167.399C101.879 166.595 100.906 165.581 100.579 164.808C100.247 164.03 100.56 163.489 100.274 162.016C100.419 162.016 100.56 162.016 100.706 162.016C101.07 163.375 101.761 164.239 102.211 164.785C102.661 165.326 102.866 165.549 103.225 165.617C103.584 165.681 104.093 165.594 104.312 165.426C104.535 165.253 104.466 165.003 102.575 162.016C102.707 162.016 102.843 162.016 102.975 162.016C105.608 165.781 106.372 166.931 106.394 167.727Z" fill="#001461"/>
<path fill-rule="evenodd" clip-rule="evenodd" d="M105.667 52.277C105.667 52.277 105.667 52.2771 105.667 52.2772C104.125 52.7591 102.461 52.7591 100.915 52.2908C100.915 52.2907 100.915 52.2906 100.915 52.2905C99.128 51.7494 97.5048 50.5763 96.4136 48.7757C97.8595 46.3613 100.465 44.888 103.28 44.8789C106.09 44.8744 108.7 46.3431 110.155 48.7485C109.068 50.5582 107.449 51.7359 105.667 52.277ZM106.299 50.4354C106.299 50.8674 106.207 51.2798 106.041 51.6527C106.206 51.2799 106.299 50.8675 106.299 50.4356C106.299 48.7714 104.948 47.4209 103.284 47.4209C102.322 47.4209 101.466 47.8726 100.915 48.5754C101.466 47.8725 102.322 47.4207 103.284 47.4207C104.948 47.4207 106.299 48.7712 106.299 50.4354Z" fill="white"/>
<path d="M102.574 162.016C104.466 165.003 104.534 165.253 104.311 165.426C104.093 165.594 103.584 165.681 103.225 165.617C102.865 165.549 102.661 165.326 102.211 164.785C101.76 164.239 101.069 163.375 100.706 162.016C101.329 162.016 101.951 162.016 102.574 162.016Z" fill="#E0A871"/>
<path d="M102.975 162.015C102.843 162.015 102.707 162.015 102.575 162.015C101.952 162.015 101.329 162.015 100.706 162.015C100.56 162.015 100.419 162.015 100.274 162.015C98.5096 151.084 96.8545 145.218 95.0629 141.08C94.6173 140.057 94.1671 139.139 93.7261 138.225H102.638C102.275 144.522 101.27 151.866 102.975 162.015Z" fill="url(#paint4_linear)"/>
<path d="M102.693 75.4297C94.5723 75.416 86.4513 75.4024 78.3302 75.3888C85.3236 67.0313 95.7318 67.0495 102.693 75.4297Z" fill="url(#paint5_linear)"/>
<path d="M102.238 92.8995H78.7847C79.0439 91.8764 79.6759 91.2125 80.7263 90.9806C82.3587 90.7987 83.7955 90.3622 85.1687 89.6074C85.6144 89.9121 86.0963 90.1622 86.6056 90.3622C87.2331 90.6123 87.8879 90.7851 88.5563 90.9033C89.202 91.0125 89.8568 91.067 90.5115 91.067C91.1663 91.067 91.8211 91.0125 92.4668 90.9033C93.1306 90.7851 93.79 90.6123 94.4175 90.3622C94.9222 90.1622 95.4087 89.9121 95.8543 89.6074C97.2276 90.3622 98.6599 90.7987 100.297 90.9806C101.347 91.2125 101.979 91.8764 102.238 92.8995Z" fill="url(#paint6_linear)"/>
<path d="M94.7087 88.9023C95.0906 89.1615 95.468 89.398 95.8545 89.6071C95.4089 89.9118 94.9224 90.1619 94.4177 90.362C93.7902 90.612 93.1309 90.7848 92.467 90.9031C91.8213 91.0122 91.1665 91.0667 90.5117 91.0667C89.857 91.0667 89.2022 91.0122 88.5565 90.9031C87.8881 90.7848 87.2333 90.612 86.6058 90.362C86.0965 90.1619 85.6146 89.9118 85.1689 89.6071C85.5554 89.398 85.9329 89.1615 86.3148 88.9023C88.6611 90.1846 92.3624 90.1846 94.7087 88.9023Z" fill="url(#paint7_linear)"/>
<path d="M94.5174 88.7723C94.581 88.8178 94.6447 88.8587 94.7083 88.9042C92.3621 90.1865 88.6607 90.1865 86.3145 88.9042C86.3781 88.8587 86.4418 88.8178 86.5054 88.7723C86.9056 88.4859 87.192 88.1494 87.4285 87.722C87.9741 86.7353 88.2106 85.7667 88.2106 84.6436C88.2106 84.5345 88.2106 84.4253 88.2106 84.3162C88.2106 84.2435 88.2106 84.0889 88.206 83.9434C88.9699 84.057 89.7384 84.1162 90.5114 84.1162C91.2844 84.1162 92.0529 84.057 92.8168 83.9434C92.8122 84.0889 92.8122 84.2435 92.8122 84.3162C92.8122 84.4253 92.8122 84.5345 92.8122 84.6436C92.8122 85.7667 93.0487 86.7353 93.5943 87.722C93.8262 88.1494 94.1172 88.4859 94.5174 88.7723Z" fill="url(#paint8_linear)"/>
<path d="M89.1019 46.4515C89.261 46.8698 89.0473 47.3381 88.6244 47.4927C88.2061 47.6519 87.7378 47.4382 87.5832 47.0153C87.5377 46.8971 87.4877 46.7789 87.4331 46.6606C87.3467 46.4697 87.2467 46.2878 87.1376 46.1059C86.992 45.8604 86.8284 45.6194 86.651 45.392C85.8371 44.3144 84.7958 43.414 83.6227 42.7456C82.2631 41.9635 80.7262 41.4861 79.1575 41.3724C78.2708 41.3087 77.3705 41.3588 76.4883 41.5088C75.488 41.6816 74.5104 41.9863 73.5737 42.3819C72.4687 42.8547 71.4184 43.4641 70.4317 44.1552C69.0084 45.1556 67.7262 46.3196 66.5303 47.5837C66.6121 46.7152 66.7167 45.8422 66.8531 44.9782C68.0353 43.8778 69.3131 42.8775 70.6954 42.0408C72.105 41.1951 73.6237 40.513 75.2152 40.1174C76.5656 39.7809 77.9752 39.6491 79.3621 39.7582C80.5989 39.8582 81.822 40.1492 82.9679 40.6176C84.0183 41.0496 85.005 41.6225 85.8962 42.3227C86.701 42.9548 87.424 43.6869 88.0288 44.5099C88.3289 44.9237 88.6017 45.3602 88.8291 45.8149C88.9291 46.024 89.0246 46.2332 89.1019 46.4515Z" fill="url(#paint9_linear)"/>
<path d="M78.3845 138.225H87.2967C86.8557 139.139 86.401 140.057 85.9599 141.08C84.1684 145.218 82.5132 151.084 80.749 162.015C80.6035 162.015 80.4579 162.015 80.317 162.015C79.6895 162.015 79.0711 162.015 78.4481 162.015C78.3117 162.015 78.1799 162.015 78.0435 162.015C79.7532 151.866 78.7483 144.522 78.3845 138.225Z" fill="url(#paint10_linear)"/>
<path d="M75.3512 52.2728C76.1106 52.5138 76.9109 52.6412 77.7294 52.6412C78.5524 52.6412 79.3572 52.5184 80.1166 52.2774C81.9672 51.709 83.5723 50.4768 84.6091 48.7762C81.4989 43.5925 73.9917 43.5789 70.8633 48.7489C71.8909 50.4586 73.5006 51.6954 75.3512 52.2728ZM77.7475 43.6152C81.267 43.6243 84.4817 45.6205 86.0505 48.7762C84.4726 51.9273 81.2488 53.9143 77.7294 53.9052C74.2054 53.9007 70.9906 51.9045 69.4219 48.7489C70.9997 45.5978 74.2236 43.6107 77.7475 43.6152Z" fill="url(#paint11_linear)"/>
<path d="M80.3171 162.016C80.458 162.016 80.6035 162.016 80.749 162.016C80.458 163.489 80.7763 164.03 80.4444 164.808C80.117 165.581 79.1394 166.595 78.2982 167.399C77.4615 168.204 76.7522 168.8 76.0383 168.877C75.3244 168.959 74.6014 168.522 74.6287 167.727C74.6514 166.931 75.4153 165.781 78.0435 162.016C78.1799 162.016 78.3118 162.016 78.4482 162.016C76.5566 165.003 76.4884 165.253 76.7112 165.426C76.9295 165.594 77.4388 165.681 77.798 165.617C78.1527 165.549 78.3618 165.326 78.812 164.785C79.2621 164.239 79.9533 163.375 80.3171 162.016Z" fill="#001461"/>
<path d="M78.448 162.016C79.071 162.016 79.6894 162.016 80.3169 162.016C79.9531 163.375 79.262 164.239 78.8118 164.785C78.3616 165.326 78.1525 165.549 77.7978 165.617C77.4386 165.681 76.9293 165.594 76.7111 165.426C76.4882 165.253 76.5564 165.003 78.448 162.016Z" fill="#E0A871"/>
<path fill-rule="evenodd" clip-rule="evenodd" d="M80.1176 52.2762C81.968 51.7078 83.5729 50.4756 84.6095 48.7752C81.4993 43.5915 73.9921 43.5779 70.8638 48.7479C71.8912 50.4573 73.5006 51.694 75.3508 52.2716C75.3511 52.2719 75.3514 52.2723 75.3516 52.2726C76.111 52.5136 76.9113 52.6409 77.7297 52.6409C78.5527 52.6409 79.3576 52.5182 80.1169 52.2772C80.1172 52.2769 80.1174 52.2765 80.1176 52.2762ZM80.7147 50.8919C80.7374 50.7428 80.7491 50.5902 80.7491 50.4349C80.7491 48.7706 79.3986 47.4202 77.7389 47.4202C76.2644 47.4202 75.0361 48.4804 74.7753 49.8797C75.0364 48.4807 76.2645 47.4209 77.7388 47.4209C79.3985 47.4209 80.749 48.7714 80.749 50.4356C80.749 50.5907 80.7373 50.7431 80.7147 50.8919Z" fill="white"/>
<path d="M55.8087 138.226H125.22C126.475 138.226 127.493 137.207 127.493 135.952V95.1739C127.493 93.9189 126.475 92.9004 125.22 92.9004H55.8087C54.5537 92.9004 53.5352 93.9189 53.5352 95.1739V135.952C53.5352 137.212 54.5492 138.226 55.8087 138.226Z" fill="url(#paint12_linear)"/>
<path d="M58.1503 134.975H122.873C123.628 134.975 124.237 134.366 124.237 133.611V97.5165C124.237 96.7617 123.628 96.1523 122.873 96.1523H58.1503C57.3954 96.1523 56.7861 96.7617 56.7861 97.5165V133.611C56.7861 134.366 57.3954 134.975 58.1503 134.975Z" fill="white"/>
<path d="M74.007 118.485C74.007 118.019 73.8405 117.656 73.5075 117.395C73.1806 117.135 72.6023 116.866 71.7729 116.587C70.9434 116.309 70.2652 116.039 69.7385 115.779C68.025 114.937 67.1683 113.781 67.1683 112.309C67.1683 111.577 67.3802 110.932 67.804 110.375C68.2339 109.812 68.8394 109.376 69.6204 109.067C70.4015 108.752 71.2794 108.595 72.2542 108.595C73.2048 108.595 74.0555 108.764 74.8063 109.104C75.5631 109.443 76.1504 109.927 76.5682 110.557C76.9859 111.18 77.1948 111.895 77.1948 112.7H74.0161C74.0161 112.161 73.8496 111.743 73.5166 111.447C73.1896 111.15 72.7446 111.002 72.1815 111.002C71.6124 111.002 71.1613 111.129 70.8283 111.383C70.5014 111.631 70.3379 111.949 70.3379 112.337C70.3379 112.676 70.5195 112.985 70.8828 113.263C71.2461 113.536 71.8849 113.82 72.7991 114.117C73.7134 114.407 74.4642 114.722 75.0515 115.061C76.4804 115.885 77.1948 117.02 77.1948 118.467C77.1948 119.624 76.7589 120.532 75.887 121.192C75.0151 121.852 73.8193 122.182 72.2996 122.182C71.2279 122.182 70.2562 121.991 69.3843 121.609C68.5185 121.222 67.8646 120.695 67.4226 120.029C66.9866 119.357 66.7687 118.585 66.7687 117.713H69.9655C69.9655 118.422 70.1472 118.945 70.5104 119.284C70.8798 119.617 71.4762 119.784 72.2996 119.784C72.8264 119.784 73.2411 119.672 73.5438 119.448C73.8526 119.218 74.007 118.897 74.007 118.485ZM84.5422 120.937C83.8943 121.767 83.0194 122.182 81.9175 122.182C80.8397 122.182 80.0224 121.87 79.4653 121.246C78.9144 120.617 78.6389 119.714 78.6389 118.54V112.173H81.6995V118.558C81.6995 119.4 82.1082 119.82 82.9256 119.82C83.6279 119.82 84.1274 119.569 84.4241 119.067V112.173H87.5029V122H84.633L84.5422 120.937ZM95.1318 114.943L94.1237 114.871C93.161 114.871 92.5435 115.173 92.271 115.779V122H89.2104V112.173H92.0803L92.1802 113.436C92.6948 112.473 93.4123 111.992 94.3326 111.992C94.6596 111.992 94.9441 112.028 95.1863 112.101L95.1318 114.943ZM100.808 122.182C99.3005 122.182 98.0805 121.734 97.148 120.837C96.2156 119.935 95.7494 118.764 95.7494 117.323V117.068C95.7494 116.063 95.9341 115.176 96.3034 114.407C96.6788 113.638 97.2237 113.045 97.9382 112.627C98.6526 112.204 99.5003 111.992 100.481 111.992C101.862 111.992 102.951 112.421 103.751 113.281C104.55 114.135 104.95 115.328 104.95 116.86V118.049H98.8646C98.9735 118.6 99.2127 119.033 99.582 119.348C99.9514 119.663 100.43 119.82 101.017 119.82C101.986 119.82 102.743 119.481 103.288 118.803L104.686 120.456C104.305 120.983 103.763 121.404 103.06 121.718C102.364 122.027 101.613 122.182 100.808 122.182ZM100.463 114.353C99.5669 114.353 99.0341 114.946 98.8646 116.133H101.952V115.897C101.965 115.406 101.84 115.028 101.58 114.762C101.32 114.489 100.947 114.353 100.463 114.353ZM108.455 117.813C108.455 116.929 108.555 116.233 108.755 115.724C108.955 115.21 109.279 114.765 109.727 114.389C110.175 114.014 110.514 113.672 110.744 113.363C110.98 113.048 111.098 112.703 111.098 112.328C111.098 111.413 110.704 110.956 109.917 110.956C109.554 110.956 109.26 111.089 109.036 111.356C108.812 111.622 108.694 111.983 108.682 112.437H105.612C105.625 111.226 106.006 110.284 106.757 109.612C107.508 108.934 108.561 108.595 109.917 108.595C111.268 108.595 112.312 108.907 113.051 109.53C113.795 110.154 114.168 111.041 114.168 112.191C114.168 112.694 114.068 113.151 113.868 113.563C113.668 113.975 113.347 114.395 112.905 114.825L111.861 115.797C111.564 116.082 111.358 116.375 111.243 116.678C111.128 116.975 111.065 117.353 111.053 117.813H108.455ZM108.083 120.574C108.083 120.126 108.243 119.76 108.564 119.475C108.891 119.185 109.297 119.039 109.781 119.039C110.266 119.039 110.668 119.185 110.989 119.475C111.316 119.76 111.479 120.126 111.479 120.574C111.479 121.022 111.316 121.392 110.989 121.682C110.668 121.967 110.266 122.109 109.781 122.109C109.297 122.109 108.891 121.967 108.564 121.682C108.243 121.392 108.083 121.022 108.083 120.574Z" fill="#003CB0"/>
<path d="M133.513 104.6C134.736 104.6 135.723 105.591 135.723 106.809C135.723 108.028 134.736 109.015 133.513 109.015C133.063 109.015 132.608 109.015 132.158 109.015C128.88 109.015 125.606 109.015 122.332 109.015C122.041 109.015 121.754 109.015 121.463 109.015C120.304 109.015 119.686 107.814 119.686 106.809C119.686 105.8 120.304 104.6 121.463 104.6C121.759 104.6 122.055 104.6 122.346 104.6C125.788 104.6 129.225 104.6 132.663 104.6C132.945 104.6 133.231 104.6 133.513 104.6ZM123.71 106.809C123.71 105.968 123.028 105.286 122.186 105.286C121.945 105.286 121.704 105.286 121.463 105.286C121.336 105.286 121.209 105.323 121.095 105.382C120.954 105.454 120.836 105.559 120.74 105.677C120.622 105.827 120.536 106 120.477 106.182C120.409 106.387 120.372 106.596 120.372 106.809C120.372 107.019 120.409 107.232 120.477 107.432C120.536 107.614 120.622 107.792 120.74 107.937C120.836 108.06 120.954 108.164 121.095 108.233C121.209 108.292 121.336 108.333 121.463 108.333C121.704 108.333 121.945 108.333 122.186 108.333C123.028 108.333 123.71 107.651 123.71 106.809Z" fill="url(#paint13_linear)"/>
<path d="M132.663 100.186C133.881 100.186 134.872 101.172 134.872 102.391C134.872 103.614 133.881 104.601 132.663 104.601C129.225 104.601 125.787 104.601 122.345 104.601C121.186 104.601 120.567 103.4 120.567 102.391C120.567 101.386 121.186 100.186 122.345 100.186C125.787 100.186 129.225 100.186 132.663 100.186ZM124.592 102.391C124.592 101.55 123.909 100.872 123.068 100.872C122.827 100.872 122.586 100.872 122.345 100.872C122.218 100.872 122.091 100.909 121.977 100.968C121.836 101.036 121.718 101.14 121.622 101.263C121.504 101.413 121.418 101.586 121.359 101.768C121.29 101.968 121.254 102.182 121.254 102.391C121.254 102.605 121.29 102.814 121.359 103.018C121.418 103.2 121.504 103.373 121.622 103.523C121.718 103.641 121.836 103.746 121.977 103.819C122.091 103.878 122.218 103.914 122.345 103.914C122.586 103.914 122.827 103.914 123.068 103.914C123.909 103.914 124.592 103.232 124.592 102.391Z" fill="url(#paint14_linear)"/>
<path d="M132.157 109.016C133.376 109.016 134.363 110.007 134.363 111.225C134.363 112.444 133.376 113.435 132.157 113.435C131.639 113.435 131.121 113.435 130.602 113.435C128.261 113.435 125.923 113.435 123.582 113.435C123.163 113.435 122.75 113.435 122.331 113.435C121.172 113.435 120.549 112.235 120.549 111.225C120.549 110.221 121.172 109.016 122.331 109.016C125.605 109.016 128.879 109.016 132.157 109.016ZM124.578 111.225C124.578 110.384 123.895 109.702 123.054 109.702C122.813 109.702 122.572 109.702 122.331 109.702C122.199 109.702 122.072 109.743 121.958 109.802C121.822 109.87 121.704 109.975 121.608 110.098C121.486 110.243 121.404 110.421 121.34 110.603C121.276 110.803 121.235 111.016 121.235 111.225C121.235 111.439 121.276 111.648 121.34 111.853C121.404 112.035 121.486 112.208 121.608 112.358C121.704 112.476 121.822 112.581 121.958 112.653C122.072 112.712 122.199 112.749 122.331 112.749C122.572 112.749 122.813 112.749 123.054 112.749C123.895 112.749 124.578 112.067 124.578 111.225Z" fill="url(#paint15_linear)"/>
<path d="M130.602 113.436C131.821 113.436 132.812 114.422 132.812 115.645C132.812 116.864 131.821 117.851 130.602 117.851C128.261 117.851 125.924 117.851 123.582 117.851C122.422 117.851 121.799 116.65 121.799 115.645C121.799 114.636 122.422 113.436 123.582 113.436C125.924 113.436 128.261 113.436 130.602 113.436ZM125.828 115.645C125.828 114.804 125.146 114.122 124.305 114.122C124.064 114.122 123.823 114.122 123.582 114.122C123.454 114.122 123.323 114.159 123.209 114.218C123.072 114.29 122.954 114.395 122.859 114.513C122.736 114.663 122.654 114.836 122.591 115.018C122.527 115.223 122.486 115.432 122.486 115.645C122.486 115.855 122.527 116.068 122.591 116.268C122.654 116.45 122.736 116.623 122.859 116.773C122.954 116.896 123.072 117 123.209 117.069C123.323 117.128 123.454 117.164 123.582 117.164C123.823 117.164 124.064 117.164 124.305 117.164C125.146 117.164 125.828 116.487 125.828 115.645Z" fill="url(#paint16_linear)"/>
<path d="M124.305 114.121C125.146 114.121 125.828 114.803 125.828 115.644C125.828 116.486 125.146 117.163 124.305 117.163C124.064 117.163 123.823 117.163 123.582 117.163C123.455 117.163 123.323 117.127 123.209 117.068C123.073 116.999 122.955 116.895 122.859 116.772C122.736 116.622 122.655 116.449 122.591 116.267C122.527 116.067 122.486 115.854 122.486 115.644C122.486 115.431 122.527 115.221 122.591 115.017C122.655 114.835 122.736 114.662 122.859 114.512C122.955 114.394 123.073 114.289 123.209 114.217C123.323 114.157 123.455 114.121 123.582 114.121C123.823 114.121 124.064 114.121 124.305 114.121Z" fill="url(#paint17_linear)"/>
<path d="M123.068 100.871C123.909 100.871 124.591 101.549 124.591 102.39C124.591 103.231 123.909 103.913 123.068 103.913C122.827 103.913 122.586 103.913 122.345 103.913C122.218 103.913 122.091 103.877 121.977 103.818C121.836 103.745 121.718 103.64 121.622 103.522C121.504 103.372 121.418 103.199 121.358 103.017C121.29 102.813 121.254 102.604 121.254 102.39C121.254 102.181 121.29 101.967 121.358 101.767C121.418 101.585 121.504 101.412 121.622 101.262C121.718 101.139 121.836 101.035 121.977 100.967C122.091 100.907 122.218 100.871 122.345 100.871C122.586 100.871 122.827 100.871 123.068 100.871Z" fill="url(#paint18_linear)"/>
<path d="M123.055 109.701C123.896 109.701 124.578 110.383 124.578 111.224C124.578 112.066 123.896 112.748 123.055 112.748C122.814 112.748 122.573 112.748 122.332 112.748C122.2 112.748 122.073 112.711 121.959 112.652C121.822 112.579 121.704 112.475 121.609 112.357C121.486 112.207 121.404 112.034 121.34 111.852C121.277 111.647 121.236 111.438 121.236 111.224C121.236 111.015 121.277 110.802 121.34 110.601C121.404 110.42 121.486 110.242 121.609 110.097C121.704 109.974 121.822 109.869 121.959 109.801C122.073 109.742 122.2 109.701 122.332 109.701C122.573 109.701 122.814 109.701 123.055 109.701Z" fill="url(#paint19_linear)"/>
<path d="M122.186 105.287C123.028 105.287 123.71 105.969 123.71 106.81C123.71 107.652 123.028 108.334 122.186 108.334C121.945 108.334 121.704 108.334 121.463 108.334C121.336 108.334 121.209 108.293 121.095 108.234C120.954 108.165 120.836 108.061 120.74 107.938C120.622 107.793 120.536 107.615 120.477 107.433C120.408 107.233 120.372 107.02 120.372 106.81C120.372 106.597 120.408 106.387 120.477 106.183C120.536 106.001 120.622 105.828 120.74 105.678C120.836 105.56 120.954 105.455 121.095 105.383C121.209 105.323 121.336 105.287 121.463 105.287C121.704 105.287 121.945 105.287 122.186 105.287Z" fill="url(#paint20_linear)"/>
<path d="M59.5548 104.6C60.7189 104.6 61.3373 105.8 61.3373 106.809C61.3373 107.814 60.7189 109.015 59.5548 109.015C59.2684 109.015 58.9774 109.015 58.6909 109.015C55.417 109.015 52.1386 109.015 48.8647 109.015C48.41 109.015 47.9598 109.015 47.5051 109.015C46.2865 109.015 45.2998 108.028 45.2998 106.809C45.2998 105.591 46.2865 104.6 47.5051 104.6C47.7916 104.6 48.0735 104.6 48.36 104.6C51.7976 104.6 55.2351 104.6 58.6727 104.6C58.9683 104.6 59.2638 104.6 59.5548 104.6ZM60.6507 106.809C60.6507 106.596 60.6143 106.387 60.5461 106.182C60.487 106 60.4006 105.827 60.2824 105.677C60.1823 105.559 60.0641 105.454 59.9277 105.382C59.814 105.323 59.6867 105.286 59.5548 105.286C59.3138 105.286 59.0728 105.286 58.8319 105.286C57.9906 105.286 57.3131 105.968 57.3131 106.809C57.3131 107.651 57.9906 108.333 58.8319 108.333C59.0728 108.333 59.3138 108.333 59.5548 108.333C59.6867 108.333 59.814 108.292 59.9277 108.233C60.0641 108.164 60.1823 108.06 60.2824 107.937C60.4006 107.792 60.487 107.614 60.5461 107.432C60.6143 107.232 60.6507 107.019 60.6507 106.809Z" fill="url(#paint21_linear)"/>
<path d="M60.5459 106.183C60.6142 106.387 60.6505 106.597 60.6505 106.81C60.6505 107.02 60.6142 107.233 60.5459 107.433C60.4868 107.615 60.4004 107.793 60.2822 107.938C60.1822 108.061 60.064 108.165 59.9275 108.234C59.8139 108.293 59.6866 108.334 59.5547 108.334C59.3137 108.334 59.0727 108.334 58.8317 108.334C57.9905 108.334 57.313 107.652 57.313 106.81C57.313 105.969 57.9905 105.287 58.8317 105.287C59.0727 105.287 59.3137 105.287 59.5547 105.287C59.6866 105.287 59.8139 105.323 59.9275 105.383C60.064 105.455 60.1822 105.56 60.2822 105.678C60.4004 105.828 60.4868 106.001 60.5459 106.183Z" fill="url(#paint22_linear)"/>
<path d="M58.6908 109.016C59.8503 109.016 60.4688 110.221 60.4688 111.225C60.4688 112.235 59.8503 113.435 58.6908 113.435C58.2725 113.435 57.8587 113.435 57.4404 113.435C55.0987 113.435 52.7615 113.435 50.4198 113.435C49.9014 113.435 49.383 113.435 48.8647 113.435C47.646 113.435 46.6548 112.444 46.6548 111.225C46.6548 110.007 47.646 109.016 48.8647 109.016C52.1385 109.016 55.417 109.016 58.6908 109.016ZM59.7821 111.225C59.7821 111.016 59.7458 110.803 59.6776 110.603C59.6184 110.421 59.5321 110.243 59.4138 110.098C59.3183 109.975 59.2001 109.87 59.0592 109.802C58.9455 109.743 58.8182 109.702 58.6908 109.702C58.4499 109.702 58.2089 109.702 57.9679 109.702C57.1267 109.702 56.4446 110.384 56.4446 111.225C56.4446 112.067 57.1267 112.749 57.9679 112.749C58.2089 112.749 58.4499 112.749 58.6908 112.749C58.8182 112.749 58.9455 112.712 59.0592 112.653C59.2001 112.581 59.3183 112.476 59.4138 112.358C59.5321 112.208 59.6184 112.035 59.6776 111.853C59.7458 111.648 59.7821 111.439 59.7821 111.225Z" fill="url(#paint23_linear)"/>
<path d="M58.673 100.186C59.8371 100.186 60.4555 101.386 60.4555 102.391C60.4555 103.4 59.8371 104.601 58.673 104.601C55.2354 104.601 51.7978 104.601 48.3603 104.601C47.1371 104.601 46.1504 103.614 46.1504 102.391C46.1504 101.172 47.1371 100.186 48.3603 100.186C51.7978 100.186 55.2354 100.186 58.673 100.186ZM59.7688 102.391C59.7688 102.182 59.7325 101.968 59.6643 101.768C59.6051 101.586 59.5188 101.413 59.4005 101.263C59.3005 101.14 59.1823 101.036 59.0459 100.968C58.9322 100.909 58.8049 100.872 58.673 100.872C58.432 100.872 58.191 100.872 57.95 100.872C57.1088 100.872 56.4313 101.55 56.4313 102.391C56.4313 103.232 57.1088 103.914 57.95 103.914C58.191 103.914 58.432 103.914 58.673 103.914C58.8049 103.914 58.9322 103.878 59.0459 103.819C59.1823 103.746 59.3005 103.641 59.4005 103.523C59.5188 103.373 59.6051 103.2 59.6643 103.018C59.7325 102.814 59.7688 102.605 59.7688 102.391Z" fill="url(#paint24_linear)"/>
<path d="M59.6773 110.601C59.7455 110.802 59.7819 111.015 59.7819 111.224C59.7819 111.438 59.7455 111.647 59.6773 111.852C59.6182 112.034 59.5318 112.207 59.4136 112.357C59.3181 112.475 59.1999 112.579 59.0589 112.652C58.9452 112.711 58.8179 112.748 58.6906 112.748C58.4496 112.748 58.2086 112.748 57.9676 112.748C57.1264 112.748 56.4443 112.066 56.4443 111.224C56.4443 110.383 57.1264 109.701 57.9676 109.701C58.2086 109.701 58.4496 109.701 58.6906 109.701C58.8179 109.701 58.9452 109.742 59.0589 109.801C59.1999 109.869 59.3181 109.974 59.4136 110.097C59.5318 110.242 59.6182 110.42 59.6773 110.601Z" fill="url(#paint25_linear)"/>
<path d="M59.6636 101.767C59.7318 101.967 59.7682 102.181 59.7682 102.39C59.7682 102.604 59.7318 102.813 59.6636 103.017C59.6045 103.199 59.5181 103.372 59.3999 103.522C59.2998 103.64 59.1816 103.745 59.0452 103.818C58.9315 103.877 58.8042 103.913 58.6724 103.913C58.4314 103.913 58.1904 103.913 57.9494 103.913C57.1082 103.913 56.4307 103.231 56.4307 102.39C56.4307 101.549 57.1082 100.871 57.9494 100.871C58.1904 100.871 58.4314 100.871 58.6724 100.871C58.8042 100.871 58.9315 100.907 59.0452 100.967C59.1816 101.035 59.2998 101.139 59.3999 101.262C59.5181 101.412 59.6045 101.585 59.6636 101.767Z" fill="url(#paint26_linear)"/>
<path d="M57.4405 113.436C58.6 113.436 59.2184 114.636 59.2184 115.645C59.2184 116.65 58.6 117.851 57.4405 117.851C55.0988 117.851 52.757 117.851 50.4198 117.851C49.1967 117.851 48.21 116.864 48.21 115.645C48.21 114.422 49.1967 113.436 50.4198 113.436C52.7616 113.436 55.0988 113.436 57.4405 113.436ZM58.5318 115.645C58.5318 115.432 58.4954 115.223 58.4272 115.018C58.3681 114.836 58.2817 114.663 58.1635 114.513C58.068 114.395 57.9498 114.29 57.8088 114.218C57.6951 114.159 57.5678 114.122 57.4405 114.122C57.1995 114.122 56.9585 114.122 56.7175 114.122C55.8763 114.122 55.1942 114.804 55.1942 115.645C55.1942 116.487 55.8763 117.164 56.7175 117.164C56.9585 117.164 57.1995 117.164 57.4405 117.164C57.5678 117.164 57.6951 117.128 57.8088 117.069C57.9498 117 58.068 116.896 58.1635 116.773C58.2817 116.623 58.3681 116.45 58.4272 116.268C58.4954 116.068 58.5318 115.855 58.5318 115.645Z" fill="url(#paint27_linear)"/>
<path d="M58.4273 115.017C58.4955 115.221 58.5319 115.431 58.5319 115.644C58.5319 115.854 58.4955 116.067 58.4273 116.267C58.3682 116.449 58.2818 116.622 58.1636 116.772C58.0681 116.895 57.9498 116.999 57.8089 117.068C57.6952 117.127 57.5679 117.163 57.4406 117.163C57.1996 117.163 56.9586 117.163 56.7176 117.163C55.8764 117.163 55.1943 116.486 55.1943 115.644C55.1943 114.803 55.8764 114.121 56.7176 114.121C56.9586 114.121 57.1996 114.121 57.4406 114.121C57.5679 114.121 57.6952 114.157 57.8089 114.217C57.9498 114.289 58.0681 114.394 58.1636 114.512C58.2818 114.662 58.3682 114.835 58.4273 115.017Z" fill="url(#paint28_linear)"/>
<circle cx="78" cy="49" r="3" fill="url(#paint29_linear)"/>
<circle cx="103" cy="49" r="3" fill="url(#paint30_linear)"/>
<path d="M45.8368 79.7722C45.4834 79.1074 45.2801 78.5438 45.227 78.0815C45.1715 77.6145 45.2371 77.1504 45.424 76.6889C45.6108 76.2275 45.729 75.8346 45.7785 75.5104C45.8302 75.1792 45.781 74.8725 45.6309 74.5902C45.2653 73.9027 44.7866 73.7163 44.1947 74.031C43.9215 74.1763 43.7539 74.3938 43.692 74.6838C43.63 74.9737 43.6853 75.2918 43.8578 75.6381L41.5493 76.8656C41.0742 75.9501 40.9846 75.0895 41.2805 74.2839C41.5739 73.4738 42.2306 72.7975 43.2505 72.2552C44.2659 71.7154 45.176 71.5322 45.9808 71.7059C46.7902 71.8771 47.4249 72.3952 47.8849 73.2603C48.0858 73.6382 48.1935 74.0219 48.2079 74.4115C48.2222 74.801 48.1492 75.2457 47.9887 75.7457L47.5918 76.8941C47.4825 77.2268 47.4451 77.5299 47.4797 77.8036C47.5118 78.0727 47.6153 78.3827 47.7902 78.7336L45.8368 79.7722ZM46.6608 81.9973C46.4816 81.6604 46.4558 81.3207 46.5834 80.9784C46.713 80.6291 46.96 80.3577 47.3242 80.164C47.6885 79.9703 48.0494 79.9186 48.4069 80.0088C48.7666 80.0921 49.036 80.3022 49.2151 80.6391C49.3943 80.9761 49.419 81.3192 49.2894 81.6685C49.1618 82.0108 48.9159 82.2788 48.5517 82.4724C48.1874 82.6661 47.8255 82.7213 47.4658 82.6381C47.1083 82.5478 46.8399 82.3342 46.6608 81.9973Z" fill="#003CB0"/>
<path d="M143.159 51.0102C143.622 49.7511 144.129 48.8117 144.681 48.192C145.235 47.5637 145.929 47.0996 146.764 46.7997C147.599 46.4998 148.261 46.1903 148.751 45.871C149.252 45.5463 149.601 45.1166 149.798 44.582C150.277 43.2797 149.956 42.4224 148.835 42.0099C148.318 41.8195 147.83 41.8554 147.371 42.1174C146.912 42.3795 146.555 42.8307 146.3 43.4712L141.928 41.8625C142.58 40.144 143.616 39.0029 145.038 38.4391C146.463 37.8667 148.141 37.9359 150.072 38.6466C151.996 39.3542 153.32 40.3456 154.045 41.621C154.779 42.8995 154.845 44.3581 154.242 45.9966C153.978 46.7124 153.597 47.3111 153.096 47.7929C152.596 48.2746 151.918 48.7058 151.063 49.0864L149.067 49.9232C148.495 50.1731 148.048 50.4835 147.725 50.8544C147.406 51.2166 147.117 51.7223 146.859 52.3714L143.159 51.0102ZM141.182 54.7475C141.417 54.1094 141.837 53.6717 142.443 53.4346C143.061 53.1919 143.715 53.1976 144.405 53.4514C145.095 53.7052 145.592 54.1232 145.897 54.7053C146.214 55.282 146.255 55.8894 146.02 56.5276C145.785 57.1657 145.359 57.6061 144.741 57.8487C144.134 58.0859 143.486 58.0775 142.796 57.8237C142.106 57.5699 141.603 57.1546 141.287 56.578C140.982 55.9958 140.947 55.3857 141.182 54.7475Z" fill="#003CB0"/>
<defs>
<filter id="filter0_b" x="-10" y="145" width="200" height="45" filterUnits="userSpaceOnUse" color-interpolation-filters="sRGB">
<feFlood flood-opacity="0" result="BackgroundImageFix"/>
<feGaussianBlur in="BackgroundImage" stdDeviation="5"/>
<feComposite in2="SourceAlpha" operator="in" result="effect1_backgroundBlur"/>
<feBlend mode="normal" in="SourceGraphic" in2="effect1_backgroundBlur" result="shape"/>
</filter>
<linearGradient id="paint0_linear" x1="90.5104" y1="17.7188" x2="90.5104" y2="86.6162" gradientUnits="userSpaceOnUse">
<stop stop-color="#333333"/>
<stop offset="1"/>
</linearGradient>
<linearGradient id="paint1_linear" x1="66.5112" y1="18.9989" x2="123.011" y2="77.4989" gradientUnits="userSpaceOnUse">
<stop stop-color="#FFE2C8"/>
<stop offset="1" stop-color="#FFB26D"/>
</linearGradient>
<linearGradient id="paint2_linear" x1="100.857" y1="39.7227" x2="100.857" y2="65.4965" gradientUnits="userSpaceOnUse">
<stop stop-color="#333333"/>
<stop offset="1"/>
</linearGradient>
<linearGradient id="paint3_linear" x1="103.284" y1="43.6152" x2="103.284" y2="53.9053" gradientUnits="userSpaceOnUse">
<stop stop-color="#333333"/>
<stop offset="1"/>
</linearGradient>
<linearGradient id="paint4_linear" x1="93.6709" y1="135.386" x2="111.587" y2="148.4" gradientUnits="userSpaceOnUse">
<stop stop-color="#22357D"/>
<stop offset="1" stop-color="#001461"/>
</linearGradient>
<linearGradient id="paint5_linear" x1="90.5118" y1="75.4297" x2="90.5118" y2="69.1326" gradientUnits="userSpaceOnUse">
<stop stop-color="#333333"/>
<stop offset="1"/>
</linearGradient>
<linearGradient id="paint6_linear" x1="78.2998" y1="86.4985" x2="102.3" y2="93.9985" gradientUnits="userSpaceOnUse">
<stop stop-color="#EDECEC"/>
<stop offset="1" stop-color="#E7E7E7"/>
</linearGradient>
<linearGradient id="paint7_linear" x1="85.1052" y1="88.6441" x2="85.4725" y2="92.0322" gradientUnits="userSpaceOnUse">
<stop stop-color="#22357D"/>
<stop offset="1" stop-color="#001461"/>
</linearGradient>
<linearGradient id="paint8_linear" x1="86.3384" y1="83.6223" x2="90.8367" y2="92.068" gradientUnits="userSpaceOnUse">
<stop stop-color="#FFE2C8"/>
<stop offset="1" stop-color="#FFB26D"/>
</linearGradient>
<linearGradient id="paint9_linear" x1="77.8424" y1="39.7207" x2="77.8424" y2="47.5837" gradientUnits="userSpaceOnUse">
<stop stop-color="#333333"/>
<stop offset="1"/>
</linearGradient>
<linearGradient id="paint10_linear" x1="77.9882" y1="135.386" x2="95.9066" y2="148.408" gradientUnits="userSpaceOnUse">
<stop stop-color="#22357D"/>
<stop offset="1" stop-color="#001461"/>
</linearGradient>
<linearGradient id="paint11_linear" x1="77.7362" y1="43.6152" x2="77.7362" y2="53.9053" gradientUnits="userSpaceOnUse">
<stop stop-color="#333333"/>
<stop offset="1"/>
</linearGradient>
<linearGradient id="paint12_linear" x1="53.0939" y1="87.4931" x2="74.3517" y2="152.304" gradientUnits="userSpaceOnUse">
<stop stop-color="#22357D"/>
<stop offset="1" stop-color="#001461"/>
</linearGradient>
<linearGradient id="paint13_linear" x1="119.731" y1="104.36" x2="121.341" y2="112.108" gradientUnits="userSpaceOnUse">
<stop stop-color="#FFE2C8"/>
<stop offset="1" stop-color="#FFB26D"/>
</linearGradient>
<linearGradient id="paint14_linear" x1="120.608" y1="99.9462" x2="122.394" y2="107.612" gradientUnits="userSpaceOnUse">
<stop stop-color="#FFE2C8"/>
<stop offset="1" stop-color="#FFB26D"/>
</linearGradient>
<linearGradient id="paint15_linear" x1="120.588" y1="108.776" x2="122.435" y2="116.421" gradientUnits="userSpaceOnUse">
<stop stop-color="#FFE2C8"/>
<stop offset="1" stop-color="#FFB26D"/>
</linearGradient>
<linearGradient id="paint16_linear" x1="121.831" y1="113.196" x2="124.071" y2="120.6" gradientUnits="userSpaceOnUse">
<stop stop-color="#FFE2C8"/>
<stop offset="1" stop-color="#FFB26D"/>
</linearGradient>
<linearGradient id="paint17_linear" x1="122.466" y1="113.758" x2="124.363" y2="117.652" gradientUnits="userSpaceOnUse">
<stop stop-color="#22357D"/>
<stop offset="1" stop-color="#001461"/>
</linearGradient>
<linearGradient id="paint18_linear" x1="121.234" y1="100.508" x2="123.132" y2="104.4" gradientUnits="userSpaceOnUse">
<stop stop-color="#22357D"/>
<stop offset="1" stop-color="#001461"/>
</linearGradient>
<linearGradient id="paint19_linear" x1="121.216" y1="109.338" x2="123.117" y2="113.235" gradientUnits="userSpaceOnUse">
<stop stop-color="#22357D"/>
<stop offset="1" stop-color="#001461"/>
</linearGradient>
<linearGradient id="paint20_linear" x1="120.352" y1="104.924" x2="122.255" y2="108.819" gradientUnits="userSpaceOnUse">
<stop stop-color="#22357D"/>
<stop offset="1" stop-color="#001461"/>
</linearGradient>
<linearGradient id="paint21_linear" x1="45.3455" y1="104.36" x2="46.9556" y2="112.108" gradientUnits="userSpaceOnUse">
<stop stop-color="#FFE2C8"/>
<stop offset="1" stop-color="#FFB26D"/>
</linearGradient>
<linearGradient id="paint22_linear" x1="57.2931" y1="104.924" x2="59.196" y2="108.819" gradientUnits="userSpaceOnUse">
<stop stop-color="#22357D"/>
<stop offset="1" stop-color="#001461"/>
</linearGradient>
<linearGradient id="paint23_linear" x1="46.6942" y1="108.776" x2="48.5405" y2="116.421" gradientUnits="userSpaceOnUse">
<stop stop-color="#FFE2C8"/>
<stop offset="1" stop-color="#FFB26D"/>
</linearGradient>
<linearGradient id="paint24_linear" x1="46.1912" y1="99.9462" x2="47.9773" y2="107.612" gradientUnits="userSpaceOnUse">
<stop stop-color="#FFE2C8"/>
<stop offset="1" stop-color="#FFB26D"/>
</linearGradient>
<linearGradient id="paint25_linear" x1="56.4244" y1="109.338" x2="58.3274" y2="113.233" gradientUnits="userSpaceOnUse">
<stop stop-color="#22357D"/>
<stop offset="1" stop-color="#001461"/>
</linearGradient>
<linearGradient id="paint26_linear" x1="56.4107" y1="100.508" x2="58.3091" y2="104.4" gradientUnits="userSpaceOnUse">
<stop stop-color="#22357D"/>
<stop offset="1" stop-color="#001461"/>
</linearGradient>
<linearGradient id="paint27_linear" x1="48.2414" y1="113.196" x2="50.4828" y2="120.6" gradientUnits="userSpaceOnUse">
<stop stop-color="#FFE2C8"/>
<stop offset="1" stop-color="#FFB26D"/>
</linearGradient>
<linearGradient id="paint28_linear" x1="55.1744" y1="113.758" x2="57.0728" y2="117.65" gradientUnits="userSpaceOnUse">
<stop stop-color="#22357D"/>
<stop offset="1" stop-color="#001461"/>
</linearGradient>
<linearGradient id="paint29_linear" x1="78" y1="46" x2="78" y2="52" gradientUnits="userSpaceOnUse">
<stop stop-color="#333333"/>
<stop offset="1"/>
</linearGradient>
<linearGradient id="paint30_linear" x1="103" y1="46" x2="103" y2="52" gradientUnits="userSpaceOnUse">
<stop stop-color="#333333"/>
<stop offset="1"/>
</linearGradient>
</defs>
</svg>
