<svg width="9" height="11" viewBox="0 0 9 11" fill="none" xmlns="http://www.w3.org/2000/svg">
<path d="M4.50599 10.9981C3.65954 10.9981 2.81309 10.997 1.96665 10.9986C1.59781 10.9992 1.28087 10.8905 1.04234 10.6033C0.8767 10.4038 0.804368 10.172 0.794981 9.91974C0.718232 7.90022 0.642588 5.88123 0.566391 3.86171C0.547618 3.34647 0.526084 2.83178 0.508415 2.31708C0.505102 2.22135 0.484673 2.16326 0.366512 2.14605C0.13737 2.11217 -0.0172325 1.92286 0.00154063 1.72763C0.0230745 1.50443 0.195346 1.35491 0.44547 1.35384C1.06167 1.35115 1.67842 1.349 2.29462 1.35599C2.43984 1.3576 2.50941 1.31296 2.5442 1.17259C2.61101 0.903681 2.67947 0.633694 2.87825 0.416413C3.10021 0.174393 3.37076 0.0189623 3.70316 0.0103571C4.23654 -0.00308845 4.77047 -0.00362627 5.30384 0.0098193C5.78753 0.0221892 6.22042 0.377152 6.3695 0.852588C6.40428 0.963917 6.44128 1.07525 6.46502 1.18927C6.49097 1.31243 6.55612 1.35599 6.68588 1.35491C7.30705 1.35007 7.92767 1.35115 8.54884 1.3533C8.81332 1.35438 8.99663 1.5168 8.99994 1.74591C9.00326 1.94222 8.86356 2.11109 8.64436 2.14498C8.52454 2.16326 8.49804 2.21704 8.49417 2.323C8.40196 4.83033 8.30478 7.33766 8.21313 9.84499C8.19656 10.3059 8.03202 10.6824 7.5903 10.8846C7.42245 10.9615 7.2187 10.9911 7.03042 10.9938C6.19005 11.0045 5.34802 10.9981 4.50599 10.9981ZM3.11015 6.28137C3.1107 6.28137 3.11125 6.28137 3.11181 6.28137C3.0842 5.38536 3.05714 4.48988 3.02677 3.59387C3.02512 3.53794 3.00855 3.4777 2.98205 3.42822C2.91082 3.29646 2.75733 3.24321 2.60162 3.28677C2.45199 3.32872 2.36751 3.46318 2.37358 3.65841C2.41996 5.18152 2.46634 6.7041 2.51327 8.22722C2.521 8.48698 2.52377 8.74729 2.53867 9.00652C2.55358 9.26414 2.81199 9.40343 3.03451 9.27597C3.16316 9.20229 3.19849 9.08074 3.19408 8.94144C3.16481 8.05511 3.13776 7.16824 3.11015 6.28137ZM5.89962 6.0485C5.86649 7.15587 5.84054 8.0293 5.81514 8.90272C5.81348 8.95166 5.81182 9.00168 5.8179 9.05009C5.83612 9.19852 5.97029 9.31684 6.12765 9.32653C6.27508 9.33567 6.43023 9.2195 6.45508 9.0716C6.46944 8.98339 6.47109 8.89304 6.47385 8.80376C6.52023 7.31238 6.56551 5.821 6.61079 4.32961C6.61796 4.09674 6.62459 3.86386 6.6279 3.63098C6.63066 3.44543 6.54177 3.31904 6.38827 3.28355C6.15968 3.23084 5.9863 3.36583 5.97802 3.60839C5.94876 4.5001 5.9206 5.39128 5.89962 6.0485ZM4.82734 6.29589C4.82734 5.42677 4.82734 4.55765 4.82734 3.68907C4.82734 3.63959 4.82955 3.59011 4.82292 3.5417C4.80194 3.38896 4.68212 3.28409 4.52476 3.27602C4.35635 3.26688 4.22384 3.35723 4.18905 3.51266C4.1758 3.57343 4.17525 3.63744 4.17525 3.69982C4.1747 5.42892 4.1747 7.15802 4.1747 8.88713C4.1747 8.94091 4.1747 8.99523 4.18187 9.04793C4.21776 9.29802 4.49826 9.40881 4.70421 9.25607C4.81077 9.17647 4.82789 9.06622 4.82789 8.94413C4.82679 8.06103 4.82734 7.17846 4.82734 6.29589ZM4.50543 1.35223C4.84556 1.35223 5.18624 1.35438 5.52636 1.349C5.56556 1.34846 5.6379 1.3049 5.6379 1.28069C5.6401 0.985968 5.44023 0.79773 5.13378 0.797192C4.73844 0.796116 4.3431 0.797192 3.94721 0.797192C3.56015 0.797192 3.48119 0.861193 3.37629 1.221C3.34371 1.33394 3.38291 1.35384 3.48451 1.35276C3.82518 1.35061 4.16531 1.35223 4.50543 1.35223Z" fill="#003CB0"/>
</svg>
