<svg width="180" height="180" viewBox="0 0 180 180" fill="none" xmlns="http://www.w3.org/2000/svg">
<g filter="url(#filter0_b)">
<ellipse cx="90" cy="167.5" rx="90" ry="12.5" fill="#EBEFF9"/>
</g>
<path d="M78.1638 162.057C78.7867 162.057 79.4097 162.057 80.0326 162.057C79.6689 163.417 78.9777 164.281 78.5275 164.822C78.0819 165.368 77.8728 165.59 77.5135 165.654C77.1543 165.722 76.6496 165.636 76.4268 165.463C76.2085 165.295 76.2722 165.045 78.1638 162.057Z" fill="url(#paint0_linear)"/>
<path d="M102.291 162.057C104.182 165.045 104.25 165.295 104.027 165.463C103.809 165.636 103.3 165.722 102.941 165.654C102.586 165.59 102.377 165.368 101.927 164.822C101.477 164.281 100.785 163.417 100.422 162.057C101.045 162.057 101.668 162.057 102.291 162.057Z" fill="url(#paint1_linear)"/>
<path d="M70.6384 91.7688C70.8248 93.383 70.5065 94.7198 69.688 95.7793C66.3551 94.6698 62.3309 92.9601 57.693 89.809V85.7939C62.5992 89.5453 66.4915 91.3004 70.6384 91.7688Z" fill="url(#paint2_linear)"/>
<path d="M94.6924 88.9041C94.9607 89.086 95.2289 89.2588 95.5109 89.418C93.1509 88.8769 90.6591 88.7132 88.1172 88.986C87.2215 89.0815 86.3393 89.227 85.4799 89.427C85.7618 89.2634 86.0347 89.0906 86.3029 88.9041C86.3666 88.8632 86.4303 88.8177 86.4939 88.7723C86.8895 88.4858 87.1805 88.1493 87.417 87.7219C87.9626 86.7352 88.1991 85.7667 88.1991 84.6435C88.1991 84.5344 88.1991 84.4253 88.1991 84.3162C88.1991 84.1934 88.1945 84.0706 88.1809 83.9433C88.9494 84.057 89.7224 84.1161 90.4999 84.1161C91.2729 84.1161 92.046 84.057 92.8144 83.9433C92.8053 84.0706 92.8008 84.1934 92.8008 84.3162C92.8008 84.4253 92.8008 84.5344 92.8008 84.6435C92.8008 85.7667 93.0372 86.7352 93.5783 87.7219C93.8148 88.1493 94.1058 88.4858 94.506 88.7723C94.5696 88.8177 94.6287 88.8632 94.6924 88.9041Z" fill="url(#paint3_linear)"/>
<path d="M84.5978 48.7763C83.1382 51.1817 80.5282 52.6504 77.7181 52.6458C76.4404 52.6458 75.2036 52.3366 74.1032 51.7728C75.6947 51.6682 76.9269 50.3496 76.9224 48.7581C76.9179 47.1666 75.672 45.848 74.0805 45.7479C77.6317 43.9519 82.3061 44.9613 84.5978 48.7763Z" fill="white"/>
<path d="M102.472 48.7717C102.472 47.1803 101.236 45.8571 99.6487 45.757C100.749 45.1932 101.986 44.8885 103.264 44.884C106.078 44.8794 108.688 46.3481 110.143 48.7535C107.847 52.5731 103.164 53.5825 99.6077 51.7728C101.199 51.6773 102.468 50.3677 102.472 48.7717Z" fill="white"/>
<path d="M76.9225 48.7581C76.9271 50.3496 75.6948 51.6682 74.1033 51.7728C72.7755 51.1044 71.6433 50.0677 70.8521 48.7536C71.6751 47.3894 72.8074 46.3845 74.0806 45.748C75.6721 45.848 76.918 47.1666 76.9225 48.7581Z" fill="url(#paint4_linear)"/>
<path d="M102.472 48.7717C102.468 50.3677 101.199 51.6773 99.6078 51.7728H99.6032C98.3391 51.1317 97.2206 50.1313 96.4021 48.7763C97.1888 47.4622 98.3255 46.4254 99.6487 45.757C101.236 45.8571 102.472 47.1802 102.472 48.7717Z" fill="url(#paint5_linear)"/>
<path d="M99.6487 45.757C98.3255 46.4254 97.1888 47.4622 96.4021 48.7763C97.2206 50.1313 98.3392 51.1316 99.6032 51.7728H99.6078C103.164 53.5825 107.847 52.5731 110.143 48.7535C108.688 46.3481 106.078 44.8794 103.264 44.884C101.986 44.8885 100.749 45.1932 99.6487 45.757ZM111.585 48.749C110.021 51.9046 106.806 53.9008 103.282 53.9099C99.7578 53.9145 96.534 51.9274 94.9607 48.7808C96.5249 45.6252 99.7396 43.6245 103.264 43.6199C106.788 43.6108 110.007 45.5979 111.585 48.749Z" fill="#231F20"/>
<path d="M74.0805 45.7479C72.8073 46.3845 71.6751 47.3894 70.8521 48.7535C71.6433 50.0676 72.7755 51.1044 74.1033 51.7728C75.2036 52.3366 76.4404 52.6458 77.7182 52.6458C80.5282 52.6504 83.1382 51.1817 84.5978 48.7763C82.3061 44.9613 77.6318 43.9518 74.0805 45.7479ZM77.7318 43.6199C81.2558 43.6245 84.4705 45.6252 86.0393 48.7808C84.4614 51.9274 81.2376 53.9145 77.7136 53.9099C74.1942 53.9008 70.9749 51.9046 69.4107 48.749C70.9885 45.5979 74.2124 43.6108 77.7318 43.6199Z" fill="#231F20"/>
<path d="M87.5717 47.0165C87.5262 46.8983 87.4762 46.7801 87.4216 46.6619C87.3353 46.4754 87.2352 46.289 87.1261 46.1117C86.976 45.8616 86.8123 45.6251 86.6395 45.3932C85.8256 44.3156 84.7844 43.4198 83.6112 42.7468C82.2471 41.9647 80.7147 41.4919 79.146 41.3736C78.2548 41.31 77.359 41.36 76.4769 41.51C75.4765 41.6828 74.4989 41.9875 73.5622 42.3876C72.4527 42.8605 71.4069 43.4653 70.4156 44.161C69.0106 45.1477 67.6965 46.3436 66.5143 47.5895C66.5961 46.7164 66.7007 45.8434 66.8417 44.9749C68.0284 43.8791 69.3016 42.8833 70.6839 42.0466C72.0935 41.1963 73.6077 40.5188 75.2037 40.1232C76.5542 39.7867 77.9638 39.6503 79.3506 39.764C80.5874 39.8595 81.806 40.155 82.9564 40.6234C84.0068 41.0508 84.9935 41.6283 85.8847 42.3285C86.685 42.9606 87.4125 43.6926 88.0128 44.5156C88.3174 44.9249 88.5902 45.3614 88.813 45.8207C88.9176 46.0253 89.0086 46.2344 89.0904 46.4527V46.4572C89.245 46.8801 89.0313 47.3394 88.613 47.4985C88.1946 47.6531 87.7263 47.4394 87.5717 47.0165Z" fill="url(#paint6_linear)"/>
<path d="M114.154 44.9795C113.876 43.1834 113.472 41.4055 112.94 39.6549C112.208 37.2359 111.116 34.9214 109.707 32.8252C108.243 30.6563 106.442 28.7147 104.368 27.1186C102.331 25.5544 100.04 24.3267 97.607 23.5128C95.3198 22.7489 92.9099 22.3533 90.4999 22.3533C88.0855 22.3533 85.6755 22.7489 83.3929 23.5128C80.9557 24.3267 78.6639 25.5544 76.6314 27.1186C74.5579 28.7147 72.7528 30.6563 71.2932 32.8252C69.879 34.9214 68.7877 37.2359 68.0557 39.6549C67.5237 41.4055 67.119 43.1834 66.8416 44.975C66.7006 45.8434 66.596 46.7165 66.5142 47.5895C65.8003 55.6105 67.5327 63.7725 71.6342 70.8205C72.58 72.4347 73.6349 73.9898 74.8126 75.4494C75.1991 75.9268 75.5992 76.3906 76.013 76.8453C75.8539 80.1056 75.6993 83.3613 75.5401 86.617C65.7503 78.3186 61.1305 66.5235 61.6761 51.2317C61.7125 50.4814 61.7489 49.7312 61.7853 48.9809C61.8171 48.3398 61.8626 47.6941 61.9217 47.053C62.1263 44.8204 62.5037 42.6059 63.0448 40.4279C63.1767 39.8959 63.3176 39.3639 63.4722 38.8364C63.6223 38.3135 63.786 37.7951 63.9588 37.2768C64.318 36.231 64.7363 35.2033 65.2092 34.1984C65.6912 33.1708 66.2323 32.1704 66.8279 31.2064C67.4373 30.2243 68.1011 29.2739 68.8196 28.3691C70.2792 26.5366 71.9525 24.8769 73.8077 23.4537C75.6493 22.035 77.6636 20.8528 79.7962 19.9343C80.842 19.4841 81.9105 19.1022 82.9973 18.7884C84.0613 18.4792 85.1435 18.2382 86.2393 18.0654C87.2988 17.8926 88.3719 17.7881 89.445 17.7426C90.5 17.7017 91.5594 17.7199 92.6098 17.8017C94.806 17.9745 96.9841 18.4201 99.0712 19.1204C101.254 19.8524 103.345 20.8619 105.278 22.1078C105.769 22.4215 106.251 22.7535 106.724 23.099C107.192 23.4492 107.656 23.8084 108.102 24.1858C108.552 24.5632 108.988 24.9497 109.416 25.3544C109.839 25.7591 110.252 26.1728 110.653 26.6003C111.048 27.0277 111.435 27.4642 111.803 27.9144C112.176 28.3645 112.54 28.8238 112.881 29.2921C113.563 30.2197 114.181 31.1883 114.749 32.1886C115.295 33.1571 115.795 34.1529 116.232 35.176C116.668 36.1991 117.037 37.2495 117.364 38.3135C118.019 40.437 118.496 42.6105 118.81 44.8113C119.01 46.1936 119.142 47.585 119.21 48.9809C119.246 49.7312 119.283 50.4814 119.319 51.2317C119.346 52.0456 119.365 52.8459 119.365 53.6417C119.365 67.7694 114.727 78.7596 105.455 86.617C105.301 83.3613 105.141 80.1056 104.982 76.8453C105.396 76.3952 105.792 75.9268 106.178 75.4539C107.356 73.9989 108.411 72.4438 109.357 70.825C113.463 63.7771 115.195 55.6105 114.477 47.5895C114.399 46.7165 114.295 45.848 114.154 44.9795Z" fill="url(#paint7_linear)"/>
<path d="M114.477 47.5895C115.195 55.6105 113.463 63.7771 109.357 70.825C108.411 72.4438 107.356 73.9989 106.178 75.4539C105.792 75.9268 105.396 76.3952 104.982 76.8453C104.255 77.6502 103.482 78.4141 102.659 79.128C101.167 80.4284 99.5214 81.5561 97.7344 82.4109C96.5612 82.9748 95.3244 83.4204 94.0558 83.7114C93.6466 83.8069 93.2283 83.8842 92.8145 83.9433C92.046 84.057 91.273 84.1161 90.5 84.1161C89.7225 84.1161 88.9495 84.057 88.181 83.9433C87.7627 83.8796 87.3535 83.8023 86.9442 83.7114C85.6711 83.4158 84.4342 82.9748 83.2611 82.4109C81.4741 81.5561 79.8281 80.4239 78.3321 79.1234C77.5136 78.4095 76.7406 77.6502 76.0131 76.8453C75.5993 76.3906 75.1992 75.9268 74.8127 75.4494C73.635 73.9898 72.5801 72.4347 71.6343 70.8205C67.5328 63.7725 65.8004 55.6105 66.5143 47.5895C67.6965 46.3436 69.0106 45.1478 70.4157 44.161C71.4069 43.4653 72.4527 42.8606 73.5622 42.3877C74.4989 41.9875 75.4765 41.6829 76.4769 41.5101C77.359 41.3601 78.2548 41.31 79.146 41.3737C80.7148 41.4919 82.2471 41.9648 83.6112 42.7469C84.7844 43.4199 85.8256 44.3156 86.6396 45.3933C86.8123 45.6252 86.976 45.8616 87.1261 46.1117C87.2352 46.2891 87.3353 46.4755 87.4217 46.6619C87.4762 46.7802 87.5263 46.8984 87.5717 47.0166C87.7263 47.4395 88.1947 47.6532 88.613 47.4986C89.0313 47.3394 89.245 46.8802 89.0904 46.4573V46.4528C89.0086 46.2345 88.9176 46.0253 88.8131 45.8207C88.5903 45.3615 88.3174 44.925 88.0128 44.5157C87.4126 43.6927 86.685 42.9606 85.8848 42.3286C84.9935 41.6283 84.0068 41.0509 82.9565 40.6234C81.806 40.1551 80.5874 39.8595 79.3506 39.764C77.9638 39.6504 76.5542 39.7868 75.2037 40.1233C73.6077 40.5188 72.0935 41.1964 70.6839 42.0467C69.3016 42.8833 68.0285 43.8791 66.8417 44.975C67.119 43.1834 67.5237 41.4055 68.0557 39.6549C68.7878 37.2359 69.8791 34.9214 71.2932 32.8252C72.7528 30.6563 74.558 28.7147 76.6315 27.1187C78.664 25.5545 80.9558 24.3268 83.393 23.5128C85.6756 22.7489 88.0855 22.3533 90.5 22.3533C92.9099 22.3533 95.3199 22.7489 97.6071 23.5128C100.04 24.3268 102.331 25.5545 104.369 27.1187C106.442 28.7147 108.243 30.6563 109.707 32.8252C111.116 34.9214 112.208 37.2359 112.94 39.6549C113.472 41.4055 113.876 43.1834 114.154 44.9795C113.531 44.3975 112.885 43.8518 112.208 43.338C111.316 42.6605 110.384 42.0512 109.398 41.5283C108.529 41.0645 107.624 40.6734 106.683 40.3733C105.846 40.1096 104.982 39.9141 104.105 39.8095C102.55 39.6276 100.954 39.7368 99.4395 40.146C98.0982 40.5098 96.8159 41.1145 95.67 41.9148C94.656 42.6241 93.7466 43.4835 93.01 44.4793C92.7053 44.8886 92.4325 45.3205 92.2052 45.7753C92.0278 46.1299 91.8778 46.5028 91.7687 46.8847C91.6459 47.294 91.5686 47.7214 91.5231 48.1488C91.464 48.6581 91.4549 49.1674 91.464 49.6721C91.4776 50.3087 91.5231 50.9407 91.5868 51.5728C91.6641 52.3821 91.7595 53.1824 91.8687 53.9872C92.0096 55.0422 92.1597 56.0925 92.3234 57.1429C92.5235 58.4161 92.7326 59.6893 92.9373 60.9579C93.0055 61.3717 93.0691 61.7855 93.1055 62.2038C93.1191 62.3766 93.1282 62.5494 93.1237 62.7176C93.1191 62.7995 93.11 62.8813 93.0918 62.9586C93.0782 63.0086 93.0646 63.0541 93.0418 63.0996C93.0236 63.1359 92.9964 63.1723 92.9691 63.2041C92.9282 63.2451 92.8827 63.2814 92.8326 63.3133C92.7463 63.3724 92.6553 63.427 92.5644 63.477C92.4189 63.5497 92.2597 63.6134 92.1051 63.6634C91.6277 63.818 91.1321 63.868 90.6319 63.8726C89.8134 63.8771 88.9995 63.7543 88.1992 63.5725C87.7627 63.4724 87.3262 63.7498 87.2261 64.1863C87.1307 64.6228 87.4035 65.0593 87.84 65.1594C88.4538 65.2958 89.0722 65.4004 89.6952 65.4549C90.1908 65.5004 90.691 65.514 91.1912 65.4777C91.9187 65.4186 92.6417 65.2549 93.2919 64.9275C93.5193 64.8138 93.7421 64.6774 93.9376 64.5137C94.1104 64.3727 94.2604 64.209 94.3832 64.0226C94.5105 63.8316 94.6015 63.6179 94.6606 63.3951C94.7151 63.1769 94.7424 62.9541 94.747 62.7313C94.7606 62.3493 94.7242 61.9719 94.6742 61.5945C94.5787 60.8215 94.4423 60.053 94.315 59.2846C94.1286 58.1887 93.9603 57.0883 93.7966 55.9834C93.5602 54.4192 93.3328 52.8505 93.1919 51.2727C93.1282 50.577 93.0827 49.8767 93.0918 49.1765C93.0918 48.6945 93.1237 48.2125 93.2192 47.7441C93.2965 47.3713 93.4147 47.0075 93.5738 46.6619C93.6602 46.4755 93.7603 46.2891 93.8694 46.1117C94.0194 45.8616 94.1831 45.6252 94.3559 45.3933C95.1744 44.3156 96.2157 43.4199 97.3843 42.7469C98.7484 41.9648 100.285 41.4919 101.849 41.3737C102.741 41.31 103.641 41.3601 104.519 41.5101C105.523 41.6829 106.501 41.9875 107.433 42.3877C108.543 42.8606 109.593 43.4653 110.58 44.161C111.999 45.1569 113.29 46.33 114.477 47.5895ZM103.282 53.9099C106.806 53.9009 110.021 51.9047 111.585 48.749C110.007 45.5979 106.788 43.6108 103.264 43.6199C99.7396 43.6245 96.5249 45.6252 94.9607 48.7809C96.534 51.9274 99.7578 53.9145 103.282 53.9099ZM102.682 70.1748C94.5605 70.1612 86.4395 70.1475 78.3184 70.1339C85.28 78.5187 95.6882 78.5368 102.682 70.1748ZM86.0393 48.7809C84.4706 45.6252 81.2559 43.6245 77.7319 43.6199C74.2125 43.6108 70.9886 45.5979 69.4108 48.749C70.975 51.9047 74.1943 53.9009 77.7137 53.9099C81.2377 53.9145 84.4615 51.9274 86.0393 48.7809Z" fill="url(#paint8_linear)"/>
<path d="M114.154 44.9795C114.295 45.848 114.399 46.7165 114.477 47.5895C113.29 46.33 111.998 45.1568 110.58 44.161C109.593 43.4653 108.543 42.8605 107.433 42.3877C106.501 41.9875 105.523 41.6829 104.518 41.5101C103.641 41.36 102.741 41.31 101.849 41.3737C100.285 41.4919 98.7482 41.9648 97.3841 42.7469C96.2155 43.4198 95.1743 44.3156 94.3558 45.3933C94.183 45.6252 94.0193 45.8616 93.8692 46.1117C93.7601 46.289 93.6601 46.4755 93.5737 46.6619C93.4145 47.0075 93.2963 47.3712 93.219 47.7441C93.1235 48.2124 93.0917 48.6944 93.0917 49.1764C93.0826 49.8767 93.1281 50.5769 93.1917 51.2726C93.3327 52.8504 93.56 54.4192 93.7965 55.9834C93.9602 57.0883 94.1284 58.1887 94.3148 59.2845C94.4422 60.053 94.5786 60.8214 94.6741 61.5944C94.7241 61.9718 94.7605 62.3493 94.7468 62.7312C94.7423 62.954 94.715 63.1768 94.6604 63.3951C94.6013 63.6179 94.5104 63.8316 94.3831 64.0226C94.2603 64.209 94.1102 64.3727 93.9375 64.5137C93.7419 64.6773 93.5191 64.8138 93.2918 64.9274C92.6415 65.2548 91.9185 65.4185 91.191 65.4776C90.6908 65.514 90.1907 65.5004 89.695 65.4549C89.0721 65.4003 88.4537 65.2957 87.8398 65.1593C87.4033 65.0593 87.1305 64.6228 87.226 64.1863C87.326 63.7497 87.7625 63.4724 88.199 63.5724C88.9993 63.7543 89.8133 63.8771 90.6317 63.8725C91.1319 63.868 91.6275 63.818 92.105 63.6634C92.2596 63.6133 92.4187 63.5497 92.5642 63.4769C92.6552 63.4269 92.7461 63.3723 92.8325 63.3132C92.8825 63.2814 92.928 63.245 92.9689 63.2041C92.9962 63.1723 93.0235 63.1359 93.0417 63.0995C93.0644 63.054 93.078 63.0086 93.0917 62.9586C93.1099 62.8813 93.119 62.7994 93.1235 62.7176C93.1281 62.5493 93.119 62.3765 93.1053 62.2037C93.069 61.7854 93.0053 61.3716 92.9371 60.9578C92.7325 59.6892 92.5233 58.416 92.3232 57.1429C92.1595 56.0925 92.0095 55.0421 91.8685 53.9872C91.7594 53.1824 91.6639 52.3821 91.5866 51.5727C91.5229 50.9407 91.4775 50.3086 91.4639 49.672C91.4548 49.1673 91.4638 48.658 91.5229 48.1488C91.5684 47.7214 91.6457 47.2939 91.7685 46.8847C91.8776 46.5027 92.0277 46.1299 92.205 45.7752C92.4324 45.3205 92.7052 44.8885 93.0098 44.4793C93.7465 43.4835 94.6559 42.6241 95.6699 41.9148C96.8158 41.1145 98.098 40.5097 99.4394 40.146C100.954 39.7367 102.55 39.6276 104.105 39.8095C104.982 39.9141 105.846 40.1096 106.683 40.3733C107.624 40.6734 108.529 41.0645 109.398 41.5283C110.384 42.0512 111.316 42.6605 112.208 43.338C112.885 43.8518 113.531 44.3975 114.154 44.9795Z" fill="url(#paint9_linear)"/>
<path d="M106.115 167.768C106.137 168.564 105.414 169.001 104.7 168.919C103.987 168.842 103.282 168.246 102.44 167.441C101.599 166.636 100.626 165.622 100.294 164.849C99.9669 164.072 100.281 163.531 99.9941 162.057C100.135 162.057 100.281 162.057 100.422 162.057C100.785 163.417 101.476 164.281 101.927 164.822C102.377 165.368 102.586 165.59 102.941 165.654C103.3 165.722 103.809 165.636 104.027 165.463C104.25 165.295 104.182 165.045 102.29 162.057C102.427 162.057 102.559 162.057 102.695 162.057C105.323 165.822 106.092 166.973 106.115 167.768Z" fill="url(#paint10_linear)"/>
<path d="M102.695 162.057C102.559 162.057 102.427 162.057 102.291 162.057C101.668 162.057 101.045 162.057 100.422 162.057C100.281 162.057 100.135 162.057 99.9943 162.057C99.1985 157.146 98.3164 152.281 96.9796 147.479C96.3066 145.079 95.52 142.746 94.4923 140.472C93.4647 138.213 92.287 136.034 91.5049 133.656C91.9596 133.638 92.4189 133.602 92.8827 133.552C96.2293 133.197 99.3213 132.119 102.027 130.492C102.582 133.347 102.518 135.507 102.35 138.372C102.195 141.009 101.959 143.637 101.831 146.274C101.581 151.59 101.809 156.796 102.695 162.057Z" fill="#FF6584"/>
<path d="M78.3185 70.1338C86.4395 70.1474 94.5606 70.1611 102.682 70.1747C95.6882 78.5368 85.28 78.5186 78.3185 70.1338Z" fill="url(#paint11_linear)"/>
<path d="M88.9631 133.629C88.181 136.007 87.0033 138.19 85.9757 140.45C84.9435 142.723 84.1523 145.06 83.4839 147.466C82.1425 152.272 81.2604 157.142 80.4647 162.057C80.3192 162.057 80.1782 162.057 80.0327 162.057C79.4097 162.057 78.7868 162.057 78.1638 162.057C78.032 162.057 77.8956 162.057 77.7637 162.057C78.6595 156.742 78.8777 151.49 78.6186 146.12C78.4867 143.455 78.2457 140.8 78.0956 138.14C77.9319 135.234 77.8956 133.065 78.473 130.182C81.565 132.151 85.1527 133.374 88.9631 133.629Z" fill="#FF6584"/>
<path d="M80.0326 162.057C80.1781 162.057 80.3191 162.057 80.4646 162.057C80.1781 163.531 80.4919 164.072 80.1645 164.849C79.8325 165.622 78.8595 166.636 78.0183 167.441C77.1771 168.246 76.4677 168.842 75.7538 168.919C75.0399 169.001 74.3215 168.564 74.3442 167.768C74.367 166.973 75.1309 165.822 77.7636 162.057C77.8955 162.057 78.0319 162.057 78.1638 162.057C76.2722 165.045 76.2085 165.295 76.4268 165.463C76.6496 165.636 77.1543 165.722 77.5135 165.654C77.8728 165.59 78.0819 165.368 78.5275 164.822C78.9777 164.281 79.6689 163.417 80.0326 162.057Z" fill="url(#paint12_linear)"/>
<path d="M81.1512 90.8958C78.0955 92.2963 75.431 94.3561 73.3212 96.8751C72.2208 96.5705 71.0113 96.2249 69.6881 95.7793C70.5065 94.7198 70.8248 93.383 70.6384 91.7688C73.8077 92.128 77.127 91.7324 81.1512 90.8958Z" fill="url(#paint13_linear)"/>
<path d="M15.7963 106.301H55.4194C56.6744 106.301 57.6929 105.283 57.6929 104.028V68.2878C57.6929 67.0328 56.6744 66.0142 55.4194 66.0142H15.7963C14.5413 66.0142 13.5228 67.0328 13.5228 68.2878V104.028C13.5228 105.283 14.5413 106.301 15.7963 106.301Z" fill="url(#paint14_linear)"/>
<path fill-rule="evenodd" clip-rule="evenodd" d="M144.887 74.2001H147.883V81.2005H154.873V84.2005H147.883V91.2001H144.887V84.2005H137.9V81.2005H144.887V74.2001Z" fill="#FF6584"/>
<path d="M22.2634 38.5075C21.7956 38.8528 21.2168 39.014 20.6373 38.9604C20.0577 38.9068 19.5178 38.6422 19.1203 38.2169C19.0601 38.1504 18.9923 38.0913 18.9182 38.0407C18.705 37.8997 18.4521 37.831 18.197 37.8448C17.9419 37.8586 17.6981 37.9541 17.5018 38.1173C17.3055 38.2804 17.167 38.5024 17.107 38.7505C17.047 38.9986 17.0685 39.2595 17.1684 39.4946C17.2047 39.5765 17.2506 39.654 17.305 39.7252C17.6512 40.1931 17.8133 40.7716 17.7605 41.3506C17.7076 41.9297 17.4435 42.4688 17.0184 42.8654C16.952 42.9254 16.8929 42.9932 16.8424 43.0671C16.7016 43.2799 16.6332 43.5325 16.6473 43.7874C16.6615 44.0424 16.7574 44.2861 16.9209 44.4825C17.0845 44.6789 17.3069 44.8175 17.5552 44.8779C17.8036 44.9382 18.0646 44.917 18.2998 44.8175C18.3818 44.7813 18.4592 44.7356 18.5304 44.6813C18.9982 44.336 19.5769 44.1748 20.1565 44.2284C20.7361 44.282 21.2759 44.5466 21.6734 44.9719C21.7336 45.0384 21.8015 45.0975 21.8755 45.1481C22.0887 45.2891 22.3416 45.3578 22.5967 45.344C22.8518 45.3302 23.0956 45.2347 23.2919 45.0715C23.4883 44.9084 23.6267 44.6864 23.6868 44.4383C23.7468 44.1902 23.7252 43.9293 23.6253 43.6942C23.589 43.6123 23.5432 43.5349 23.4887 43.4636C23.1425 42.9957 22.9804 42.4172 23.0333 41.8382C23.0861 41.2592 23.3502 40.72 23.7753 40.3235C23.8417 40.2634 23.9008 40.1957 23.9513 40.1217C24.0922 39.9089 24.1606 39.6563 24.1464 39.4014C24.1323 39.1464 24.0363 38.9027 23.8728 38.7063C23.7093 38.5099 23.4869 38.3713 23.2385 38.311C22.9902 38.2506 22.7291 38.2718 22.4939 38.3713C22.412 38.4075 22.3346 38.4532 22.2634 38.5075Z" fill="#FF6584"/>
<path d="M18.138 103.05H53.0777C53.8325 103.05 54.4418 102.441 54.4418 101.686V70.6295C54.4418 69.8747 53.8325 69.2654 53.0777 69.2654H18.138C17.3832 69.2654 16.7739 69.8747 16.7739 70.6295V101.686C16.7739 102.436 17.3878 103.05 18.138 103.05Z" fill="white"/>
<path d="M34.5508 95H22.6445V92.4219L28.1289 86.6562C29.4805 85.1172 30.1562 83.8945 30.1562 82.9883C30.1562 82.2539 29.9961 81.6953 29.6758 81.3125C29.3555 80.9297 28.8906 80.7383 28.2812 80.7383C27.6797 80.7383 27.1914 80.9961 26.8164 81.5117C26.4414 82.0195 26.2539 82.6562 26.2539 83.4219H22.293C22.293 82.375 22.5547 81.4102 23.0781 80.5273C23.6016 79.6367 24.3281 78.9414 25.2578 78.4414C26.1875 77.9414 27.2266 77.6914 28.375 77.6914C30.2188 77.6914 31.6367 78.1172 32.6289 78.9688C33.6289 79.8203 34.1289 81.043 34.1289 82.6367C34.1289 83.3086 34.0039 83.9648 33.7539 84.6055C33.5039 85.2383 33.1133 85.9062 32.582 86.6094C32.0586 87.3047 31.2109 88.2383 30.0391 89.4102L27.8359 91.9531H34.5508V95ZM46.082 77.6914V80.7969H45.9062C44.4297 80.7969 43.2148 81.1523 42.2617 81.8633C41.3164 82.5664 40.7344 83.5469 40.5156 84.8047C41.4062 83.9297 42.5312 83.4922 43.8906 83.4922C45.3672 83.4922 46.543 84.0312 47.418 85.1094C48.293 86.1875 48.7305 87.6016 48.7305 89.3516C48.7305 90.4375 48.4727 91.4336 47.957 92.3398C47.4492 93.2461 46.7344 93.957 45.8125 94.4727C44.8984 94.9805 43.8828 95.2344 42.7656 95.2344C41.5547 95.2344 40.4727 94.9609 39.5195 94.4141C38.5664 93.8594 37.8242 93.0703 37.293 92.0469C36.7617 91.0234 36.4883 89.8438 36.4727 88.5078V86.9258C36.4727 85.168 36.8477 83.5898 37.5977 82.1914C38.3555 80.7852 39.4336 79.6836 40.832 78.8867C42.2305 78.0898 43.7812 77.6914 45.4844 77.6914H46.082ZM42.5195 86.5156C41.9961 86.5156 41.5586 86.6367 41.207 86.8789C40.8555 87.1211 40.5938 87.418 40.4219 87.7695V88.9531C40.4219 91.1094 41.168 92.1875 42.6602 92.1875C43.2617 92.1875 43.7617 91.918 44.1602 91.3789C44.5664 90.8398 44.7695 90.1641 44.7695 89.3516C44.7695 88.5156 44.5625 87.8359 44.1484 87.3125C43.7422 86.7812 43.1992 86.5156 42.5195 86.5156Z" fill="url(#paint15_linear)"/>
<path d="M106.343 127.116C115.095 118.364 115.096 104.173 106.343 95.4203C97.5904 86.6678 83.3998 86.6678 74.6472 95.4203C65.8947 104.173 65.8947 118.364 74.6472 127.116C83.3998 135.869 97.5904 135.869 106.343 127.116Z" fill="url(#paint16_linear)"/>
<path d="M104.144 124.917C111.682 117.379 111.682 105.157 104.144 97.6196C96.6058 90.0816 84.3844 90.0816 76.8465 97.6196C69.3085 105.157 69.3085 117.379 76.8465 124.917C84.3844 132.455 96.6058 132.455 104.144 124.917Z" fill="white"/>
<path d="M91.7867 110.134C92.0732 110.462 92.2142 110.866 92.2142 111.266C92.2142 111.744 92.0186 112.217 91.6321 112.553L83.6748 119.556C82.9655 120.183 81.8833 120.115 81.2558 119.406C80.6328 118.692 80.701 117.61 81.4103 116.987L88.7857 110.493L89.3677 109.98C90.077 109.357 91.1592 109.425 91.7867 110.134ZM91.5003 111.266C91.5003 110.716 91.0501 110.266 90.4999 110.266C89.9452 110.266 89.495 110.716 89.495 111.266C89.495 111.821 89.9452 112.271 90.4999 112.271C91.0501 112.271 91.5003 111.821 91.5003 111.266Z" fill="url(#paint17_linear)"/>
<path d="M92.2142 97.0479V111.267C92.2142 110.866 92.0732 110.462 91.7868 110.134C91.1593 109.425 90.0771 109.357 89.3677 109.98L88.7857 110.494V97.0479C88.7857 96.1021 89.5496 95.3336 90.4999 95.3336C91.4457 95.3336 92.2142 96.1021 92.2142 97.0479Z" fill="url(#paint18_linear)"/>
<path d="M118.628 104.601C119.851 104.601 120.838 105.592 120.838 106.81C120.838 108.029 119.851 109.02 118.628 109.02C118.178 109.02 117.723 109.02 117.273 109.02C113.995 109.02 110.721 109.02 107.447 109.02C107.156 109.02 106.869 109.02 106.578 109.02C105.419 109.02 104.8 107.82 104.8 106.81C104.8 105.806 105.419 104.601 106.578 104.601C106.874 104.601 107.169 104.601 107.46 104.601C110.898 104.601 114.34 104.601 117.778 104.601C118.06 104.601 118.346 104.601 118.628 104.601ZM108.825 106.81C108.825 105.969 108.143 105.287 107.301 105.287C107.06 105.287 106.819 105.287 106.578 105.287C106.451 105.287 106.324 105.324 106.21 105.387C106.069 105.455 105.951 105.56 105.855 105.683C105.737 105.828 105.651 106.006 105.592 106.188C105.523 106.388 105.487 106.601 105.487 106.81C105.487 107.024 105.523 107.233 105.592 107.433C105.651 107.62 105.737 107.793 105.855 107.943C105.951 108.061 106.069 108.166 106.21 108.238C106.324 108.297 106.451 108.334 106.578 108.334C106.819 108.334 107.06 108.334 107.301 108.334C108.143 108.334 108.825 107.652 108.825 106.81Z" fill="url(#paint19_linear)"/>
<path d="M117.778 100.185C118.996 100.185 119.988 101.172 119.988 102.395C119.988 103.614 118.996 104.601 117.778 104.601C114.34 104.601 110.898 104.601 107.46 104.601C106.301 104.601 105.683 103.4 105.683 102.395C105.683 101.386 106.301 100.185 107.46 100.185C110.898 100.185 114.34 100.185 117.778 100.185ZM109.707 102.395C109.707 101.554 109.025 100.872 108.183 100.872C107.942 100.872 107.701 100.872 107.46 100.872C107.333 100.872 107.206 100.908 107.092 100.967C106.951 101.04 106.833 101.145 106.737 101.263C106.619 101.413 106.533 101.586 106.474 101.768C106.406 101.972 106.369 102.182 106.369 102.395C106.369 102.604 106.406 102.818 106.474 103.018C106.533 103.2 106.619 103.377 106.737 103.523C106.833 103.646 106.951 103.75 107.092 103.818C107.206 103.878 107.333 103.914 107.46 103.914C107.701 103.914 107.942 103.914 108.183 103.914C109.025 103.914 109.707 103.236 109.707 102.395Z" fill="url(#paint20_linear)"/>
<path d="M117.273 109.02C118.492 109.02 119.478 110.007 119.478 111.23C119.478 112.449 118.492 113.436 117.273 113.436C116.755 113.436 116.236 113.436 115.718 113.436C113.376 113.436 111.034 113.436 108.697 113.436C108.279 113.436 107.865 113.436 107.447 113.436C106.287 113.436 105.664 112.235 105.664 111.23C105.664 110.221 106.287 109.02 107.447 109.02C110.721 109.02 113.995 109.02 117.273 109.02ZM109.693 111.23C109.693 110.389 109.011 109.707 108.17 109.707C107.929 109.707 107.688 109.707 107.447 109.707C107.315 109.707 107.188 109.743 107.074 109.802C106.938 109.875 106.819 109.98 106.719 110.098C106.601 110.248 106.519 110.421 106.456 110.603C106.387 110.807 106.351 111.017 106.351 111.23C106.351 111.439 106.387 111.653 106.456 111.853C106.519 112.035 106.601 112.208 106.719 112.358C106.819 112.481 106.938 112.585 107.074 112.653C107.188 112.713 107.315 112.749 107.447 112.749C107.688 112.749 107.929 112.749 108.17 112.749C109.011 112.749 109.693 112.067 109.693 111.23Z" fill="url(#paint21_linear)"/>
<path d="M115.718 113.435C116.937 113.435 117.928 114.427 117.928 115.645C117.928 116.864 116.937 117.855 115.718 117.855C113.376 117.855 111.039 117.855 108.697 117.855C107.538 117.855 106.915 116.655 106.915 115.645C106.915 114.64 107.538 113.435 108.697 113.435C111.035 113.435 113.376 113.435 115.718 113.435ZM110.944 115.645C110.944 114.804 110.262 114.122 109.42 114.122C109.179 114.122 108.938 114.122 108.697 114.122C108.565 114.122 108.438 114.158 108.324 114.218C108.188 114.29 108.07 114.395 107.97 114.513C107.852 114.663 107.77 114.841 107.706 115.022C107.642 115.222 107.602 115.436 107.602 115.645C107.602 115.859 107.642 116.068 107.706 116.268C107.77 116.45 107.852 116.628 107.97 116.778C108.07 116.896 108.188 117 108.324 117.073C108.438 117.132 108.565 117.169 108.697 117.169C108.938 117.169 109.179 117.169 109.42 117.169C110.262 117.169 110.944 116.487 110.944 115.645Z" fill="url(#paint22_linear)"/>
<path d="M109.42 114.122C110.261 114.122 110.944 114.804 110.944 115.645C110.944 116.487 110.261 117.169 109.42 117.169C109.179 117.169 108.938 117.169 108.697 117.169C108.565 117.169 108.438 117.132 108.324 117.073C108.188 117 108.07 116.896 107.97 116.778C107.851 116.628 107.77 116.45 107.706 116.268C107.642 116.068 107.601 115.859 107.601 115.645C107.601 115.436 107.642 115.222 107.706 115.022C107.77 114.841 107.851 114.663 107.97 114.513C108.07 114.395 108.188 114.29 108.324 114.218C108.438 114.158 108.565 114.122 108.697 114.122C108.938 114.122 109.179 114.122 109.42 114.122Z" fill="url(#paint23_linear)"/>
<path d="M108.183 100.872C109.025 100.872 109.707 101.554 109.707 102.395C109.707 103.236 109.025 103.914 108.183 103.914C107.942 103.914 107.701 103.914 107.46 103.914C107.333 103.914 107.206 103.878 107.092 103.818C106.951 103.75 106.833 103.646 106.737 103.523C106.619 103.377 106.533 103.2 106.474 103.018C106.405 102.818 106.369 102.604 106.369 102.395C106.369 102.182 106.405 101.972 106.474 101.768C106.533 101.586 106.619 101.413 106.737 101.263C106.833 101.145 106.951 101.04 107.092 100.967C107.206 100.908 107.333 100.872 107.46 100.872C107.701 100.872 107.942 100.872 108.183 100.872Z" fill="url(#paint24_linear)"/>
<path d="M108.17 109.707C109.011 109.707 109.693 110.389 109.693 111.23C109.693 112.067 109.011 112.749 108.17 112.749C107.929 112.749 107.688 112.749 107.447 112.749C107.315 112.749 107.188 112.713 107.074 112.653C106.938 112.585 106.819 112.481 106.719 112.358C106.601 112.208 106.519 112.035 106.456 111.853C106.387 111.653 106.351 111.439 106.351 111.23C106.351 111.017 106.387 110.807 106.456 110.603C106.519 110.421 106.601 110.248 106.719 110.098C106.819 109.98 106.938 109.875 107.074 109.802C107.188 109.743 107.315 109.707 107.447 109.707C107.688 109.707 107.929 109.707 108.17 109.707Z" fill="url(#paint25_linear)"/>
<path d="M107.301 105.287C108.143 105.287 108.825 105.969 108.825 106.81C108.825 107.652 108.143 108.334 107.301 108.334C107.06 108.334 106.819 108.334 106.578 108.334C106.451 108.334 106.324 108.297 106.21 108.238C106.069 108.165 105.951 108.061 105.855 107.943C105.737 107.793 105.651 107.62 105.592 107.433C105.523 107.233 105.487 107.024 105.487 106.81C105.487 106.601 105.523 106.388 105.592 106.188C105.651 106.006 105.737 105.828 105.855 105.683C105.951 105.56 106.069 105.455 106.21 105.387C106.324 105.324 106.451 105.287 106.578 105.287C106.819 105.287 107.06 105.287 107.301 105.287Z" fill="url(#paint26_linear)"/>
<path d="M47.362 62.4811C47.362 63.6588 47.362 64.8365 47.362 66.0142C46.3889 66.0142 45.4158 66.0142 44.4427 66.0142C44.4427 64.1317 44.4427 62.2492 44.4427 60.3622C44.711 60.3622 44.9793 60.3622 45.243 60.3622C46.4162 60.3622 47.362 61.3126 47.362 62.4811Z" fill="url(#paint27_linear)"/>
<path d="M44.4427 66.0142C44.4427 67.1373 44.4427 68.2559 44.4427 69.379C44.4427 70.5385 43.2422 71.1614 42.2328 71.1614C41.2279 71.1614 40.0229 70.5385 40.0229 69.379C40.0229 65.9414 40.0229 62.5038 40.0229 59.0617C40.0229 57.8431 41.0142 56.8564 42.2328 56.8564C43.4514 56.8564 44.4427 57.8431 44.4427 59.0617C44.4427 59.4937 44.4427 59.9302 44.4427 60.3622C44.4427 62.2492 44.4427 64.1317 44.4427 66.0142ZM43.756 69.379C43.756 69.138 43.756 68.897 43.756 68.656C43.756 67.8148 43.074 67.1327 42.2328 67.1327C41.3916 67.1327 40.7095 67.8148 40.7095 68.656C40.7095 68.897 40.7095 69.138 40.7095 69.379C40.7095 69.5109 40.7459 69.6382 40.805 69.7519C40.8778 69.8883 40.9824 70.0065 41.1006 70.1065C41.2506 70.2248 41.428 70.3066 41.6099 70.3703C41.8099 70.4385 42.0236 70.4748 42.2328 70.4748C42.4465 70.4748 42.6557 70.4385 42.8557 70.3703C43.0422 70.3066 43.215 70.2248 43.365 70.1065C43.4832 70.0065 43.5878 69.8883 43.6606 69.7519C43.7197 69.6382 43.756 69.5109 43.756 69.379Z" fill="url(#paint28_linear)"/>
<path d="M43.7562 68.656C43.7562 68.897 43.7562 69.138 43.7562 69.379C43.7562 69.5109 43.7198 69.6382 43.6607 69.7519C43.5879 69.8883 43.4834 70.0065 43.3651 70.1065C43.2151 70.2248 43.0423 70.3066 42.8559 70.3703C42.6558 70.4385 42.4466 70.4748 42.2329 70.4748C42.0237 70.4748 41.81 70.4385 41.61 70.3703C41.4281 70.3066 41.2507 70.2248 41.1007 70.1065C40.9825 70.0065 40.8779 69.8883 40.8051 69.7519C40.746 69.6382 40.7096 69.5109 40.7096 69.379C40.7096 69.138 40.7096 68.897 40.7096 68.656C40.7096 67.8148 41.3917 67.1328 42.2329 67.1328C43.0741 67.1328 43.7562 67.8148 43.7562 68.656Z" fill="url(#paint29_linear)"/>
<path d="M40.023 69.379C40.023 69.6746 40.023 69.9702 40.023 70.2612C40.023 71.4207 38.8225 72.0436 37.8177 72.0436C36.8082 72.0436 35.6078 71.4207 35.6078 70.2612C35.6078 69.9747 35.6078 69.6837 35.6078 69.3972C35.6078 66.1233 35.6078 62.8495 35.6078 59.571C35.6078 59.1163 35.6078 58.6662 35.6078 58.2115C35.6078 56.9928 36.5945 56.0016 37.8177 56.0016C39.0363 56.0016 40.023 56.9928 40.023 58.2115C40.023 58.4979 40.023 58.7798 40.023 59.0618C40.023 62.5039 40.023 65.9415 40.023 69.379ZM39.3364 70.2612C39.3364 70.0202 39.3364 69.7792 39.3364 69.5382C39.3364 68.697 38.6589 68.0149 37.8177 68.0149C36.9765 68.0149 36.2944 68.697 36.2944 69.5382C36.2944 69.7792 36.2944 70.0202 36.2944 70.2612C36.2944 70.393 36.3308 70.5204 36.3899 70.634C36.4627 70.7704 36.5673 70.8887 36.6855 70.9887C36.8355 71.1069 37.0083 71.1888 37.1902 71.2524C37.3948 71.3206 37.604 71.357 37.8177 71.357C38.0268 71.357 38.2405 71.3206 38.4406 71.2524C38.6225 71.1888 38.7953 71.1069 38.9453 70.9887C39.0681 70.8887 39.1727 70.7704 39.2409 70.634C39.3 70.5204 39.3364 70.393 39.3364 70.2612Z" fill="url(#paint30_linear)"/>
<path d="M39.3364 69.5382C39.3364 69.7792 39.3364 70.0201 39.3364 70.2611C39.3364 70.393 39.3 70.5203 39.2409 70.634C39.1727 70.7704 39.0681 70.8886 38.9454 70.9887C38.7953 71.1069 38.6225 71.1887 38.4406 71.2524C38.2406 71.3206 38.0269 71.357 37.8177 71.357C37.604 71.357 37.3948 71.3206 37.1902 71.2524C37.0083 71.1887 36.8355 71.1069 36.6855 70.9887C36.5673 70.8886 36.4627 70.7704 36.3899 70.634C36.3308 70.5203 36.2944 70.393 36.2944 70.2611C36.2944 70.0201 36.2944 69.7792 36.2944 69.5382C36.2944 68.697 36.9765 68.0149 37.8177 68.0149C38.6589 68.0149 39.3364 68.697 39.3364 69.5382Z" fill="url(#paint31_linear)"/>
<path d="M35.6079 59.571C35.6079 62.8495 35.6079 66.1234 35.6079 69.3973C35.6079 70.5568 34.4075 71.1752 33.398 71.1752C32.3931 71.1752 31.1881 70.5568 31.1881 69.3973C31.1881 68.9789 31.1881 68.5651 31.1881 68.1468C31.1881 65.8005 31.1881 63.4633 31.1881 61.1216C31.1881 60.6032 31.1881 60.0894 31.1881 59.571C31.1881 58.3524 32.1794 57.3612 33.398 57.3612C34.6166 57.3612 35.6079 58.3524 35.6079 59.571ZM34.9213 69.3973C34.9213 69.1563 34.9213 68.9153 34.9213 68.6743C34.9213 67.8331 34.2392 67.151 33.398 67.151C32.5568 67.151 31.8747 67.8331 31.8747 68.6743C31.8747 68.9153 31.8747 69.1563 31.8747 69.3973C31.8747 69.5246 31.9111 69.6519 31.9748 69.7656C32.043 69.9065 32.1475 70.0248 32.2703 70.1202C32.4158 70.2385 32.5932 70.3249 32.7751 70.384C32.9751 70.4522 33.1888 70.4886 33.398 70.4886C33.6117 70.4886 33.8209 70.4522 34.0255 70.384C34.2074 70.3249 34.3802 70.2385 34.5302 70.1202C34.6485 70.0248 34.7531 69.9065 34.8258 69.7656C34.8849 69.6519 34.9213 69.5246 34.9213 69.3973Z" fill="url(#paint32_linear)"/>
<path d="M34.9212 68.6743C34.9212 68.9153 34.9212 69.1562 34.9212 69.3972C34.9212 69.5246 34.8849 69.6519 34.8258 69.7656C34.753 69.9065 34.6484 70.0247 34.5302 70.1202C34.3801 70.2385 34.2074 70.3248 34.0255 70.384C33.8209 70.4522 33.6117 70.4885 33.398 70.4885C33.1888 70.4885 32.9751 70.4522 32.775 70.384C32.5932 70.3248 32.4158 70.2385 32.2703 70.1202C32.1475 70.0247 32.043 69.9065 31.9747 69.7656C31.9111 69.6519 31.8747 69.5246 31.8747 69.3972C31.8747 69.1562 31.8747 68.9153 31.8747 68.6743C31.8747 67.8331 32.5568 67.151 33.398 67.151C34.2392 67.151 34.9212 67.8331 34.9212 68.6743Z" fill="url(#paint33_linear)"/>
<path d="M31.1881 61.1216C31.1881 63.4633 31.1881 65.8005 31.1881 68.1468C31.1881 69.3063 29.9876 69.9247 28.9827 69.9247C27.9733 69.9247 26.7729 69.3063 26.7729 68.1468C26.7729 65.8051 26.7729 63.4633 26.7729 61.1216C26.7729 59.903 27.7596 58.9163 28.9827 58.9163C30.2013 58.9163 31.1881 59.903 31.1881 61.1216ZM30.5015 68.1468C30.5015 67.9058 30.5015 67.6648 30.5015 67.4238C30.5015 66.5826 29.8239 65.9006 28.9827 65.9006C28.1415 65.9006 27.4595 66.5826 27.4595 67.4238C27.4595 67.6648 27.4595 67.9058 27.4595 68.1468C27.4595 68.2741 27.4958 68.4015 27.5549 68.5151C27.6277 68.6516 27.7323 68.7743 27.8505 68.8698C28.0006 68.988 28.1733 69.0744 28.3552 69.1335C28.5598 69.2017 28.769 69.2381 28.9827 69.2381C29.1919 69.2381 29.4056 69.2017 29.6057 69.1335C29.7875 69.0744 29.9649 68.988 30.1104 68.8698C30.2332 68.7743 30.3377 68.6516 30.406 68.5151C30.4651 68.4015 30.5015 68.2741 30.5015 68.1468Z" fill="url(#paint34_linear)"/>
<path d="M30.5015 67.4238C30.5015 67.6648 30.5015 67.9058 30.5015 68.1468C30.5015 68.2741 30.4651 68.4014 30.406 68.5151C30.3378 68.6515 30.2332 68.7743 30.1104 68.8697C29.9649 68.988 29.7876 69.0744 29.6057 69.1335C29.4056 69.2017 29.1919 69.2381 28.9827 69.2381C28.769 69.2381 28.5598 69.2017 28.3552 69.1335C28.1733 69.0744 28.0006 68.988 27.8505 68.8697C27.7323 68.7743 27.6277 68.6515 27.5549 68.5151C27.4958 68.4014 27.4595 68.2741 27.4595 68.1468C27.4595 67.9058 27.4595 67.6648 27.4595 67.4238C27.4595 66.5826 28.1415 65.9005 28.9827 65.9005C29.8239 65.9005 30.5015 66.5826 30.5015 67.4238Z" fill="url(#paint35_linear)"/>
<defs>
<filter id="filter0_b" x="-10" y="145" width="200" height="45" filterUnits="userSpaceOnUse" color-interpolation-filters="sRGB">
<feFlood flood-opacity="0" result="BackgroundImageFix"/>
<feGaussianBlur in="BackgroundImage" stdDeviation="5"/>
<feComposite in2="SourceAlpha" operator="in" result="effect1_backgroundBlur"/>
<feBlend mode="normal" in="SourceGraphic" in2="effect1_backgroundBlur" result="shape"/>
</filter>
<linearGradient id="paint0_linear" x1="76.3502" y1="161.861" x2="79.5189" y2="166.143" gradientUnits="userSpaceOnUse">
<stop stop-color="#FFEAD1"/>
<stop offset="1" stop-color="#FFC87B"/>
</linearGradient>
<linearGradient id="paint1_linear" x1="100.432" y1="161.861" x2="103.6" y2="166.145" gradientUnits="userSpaceOnUse">
<stop stop-color="#FFEAD1"/>
<stop offset="1" stop-color="#FFC87B"/>
</linearGradient>
<linearGradient id="paint2_linear" x1="57.73" y1="85.2526" x2="65.6626" y2="98.9309" gradientUnits="userSpaceOnUse">
<stop stop-color="#FFEAD1"/>
<stop offset="1" stop-color="#FFC87B"/>
</linearGradient>
<linearGradient id="paint3_linear" x1="85.5085" y1="83.646" x2="89.0482" y2="92.2236" gradientUnits="userSpaceOnUse">
<stop stop-color="#FFEAD1"/>
<stop offset="1" stop-color="#FFC87B"/>
</linearGradient>
<linearGradient id="paint4_linear" x1="73.8873" y1="45.748" x2="73.8873" y2="51.7728" gradientUnits="userSpaceOnUse">
<stop stop-color="#333333"/>
<stop offset="1"/>
</linearGradient>
<linearGradient id="paint5_linear" x1="99.4373" y1="45.757" x2="99.4373" y2="51.7728" gradientUnits="userSpaceOnUse">
<stop stop-color="#333333"/>
<stop offset="1"/>
</linearGradient>
<linearGradient id="paint6_linear" x1="77.8275" y1="39.7246" x2="77.8275" y2="47.5895" gradientUnits="userSpaceOnUse">
<stop stop-color="#333333"/>
<stop offset="1"/>
</linearGradient>
<linearGradient id="paint7_linear" x1="90.4988" y1="17.7215" x2="90.4988" y2="86.617" gradientUnits="userSpaceOnUse">
<stop stop-color="#333333"/>
<stop offset="1"/>
</linearGradient>
<linearGradient id="paint8_linear" x1="66.4955" y1="19.0048" x2="122.991" y2="77.5063" gradientUnits="userSpaceOnUse">
<stop stop-color="#FFEAD1"/>
<stop offset="1" stop-color="#FFC87B"/>
</linearGradient>
<linearGradient id="paint9_linear" x1="100.842" y1="39.7245" x2="100.842" y2="65.4984" gradientUnits="userSpaceOnUse">
<stop stop-color="#333333"/>
<stop offset="1"/>
</linearGradient>
<linearGradient id="paint10_linear" x1="103.055" y1="162.057" x2="103.055" y2="168.929" gradientUnits="userSpaceOnUse">
<stop stop-color="#333333"/>
<stop offset="1"/>
</linearGradient>
<linearGradient id="paint11_linear" x1="90.5" y1="70.1338" x2="90.5" y2="76.4343" gradientUnits="userSpaceOnUse">
<stop stop-color="#333333"/>
<stop offset="1"/>
</linearGradient>
<linearGradient id="paint12_linear" x1="77.4042" y1="162.057" x2="77.4042" y2="168.929" gradientUnits="userSpaceOnUse">
<stop stop-color="#333333"/>
<stop offset="1"/>
</linearGradient>
<linearGradient id="paint13_linear" x1="71.1931" y1="90.8827" x2="79.5642" y2="98.7756" gradientUnits="userSpaceOnUse">
<stop offset="0.00410753" stop-color="#DEE1EA"/>
<stop offset="1" stop-color="#E4E8F3"/>
</linearGradient>
<linearGradient id="paint14_linear" x1="13.2592" y1="61.2079" x2="38.4116" y2="112.734" gradientUnits="userSpaceOnUse">
<stop stop-color="#22357D"/>
<stop offset="1" stop-color="#001461"/>
</linearGradient>
<linearGradient id="paint15_linear" x1="13.2375" y1="70.0175" x2="24.2584" y2="106.26" gradientUnits="userSpaceOnUse">
<stop stop-color="#22357D"/>
<stop offset="1" stop-color="#001461"/>
</linearGradient>
<linearGradient id="paint16_linear" x1="54.8289" y1="107.676" x2="114.734" y2="125.813" gradientUnits="userSpaceOnUse">
<stop stop-color="#22357D"/>
<stop offset="1" stop-color="#001461"/>
</linearGradient>
<linearGradient id="paint17_linear" x1="80.762" y1="108.309" x2="87.2933" y2="121.627" gradientUnits="userSpaceOnUse">
<stop stop-color="#22357D"/>
<stop offset="1" stop-color="#001461"/>
</linearGradient>
<linearGradient id="paint18_linear" x1="88.7653" y1="93.4328" x2="97.4989" y2="96.9442" gradientUnits="userSpaceOnUse">
<stop stop-color="#22357D"/>
<stop offset="1" stop-color="#001461"/>
</linearGradient>
<linearGradient id="paint19_linear" x1="104.846" y1="104.361" x2="106.459" y2="112.116" gradientUnits="userSpaceOnUse">
<stop stop-color="#FFEAD1"/>
<stop offset="1" stop-color="#FFC87B"/>
</linearGradient>
<linearGradient id="paint20_linear" x1="105.723" y1="99.946" x2="107.509" y2="107.612" gradientUnits="userSpaceOnUse">
<stop stop-color="#FFEAD1"/>
<stop offset="1" stop-color="#FFC87B"/>
</linearGradient>
<linearGradient id="paint21_linear" x1="105.704" y1="108.781" x2="107.547" y2="116.419" gradientUnits="userSpaceOnUse">
<stop stop-color="#FFEAD1"/>
<stop offset="1" stop-color="#FFC87B"/>
</linearGradient>
<linearGradient id="paint22_linear" x1="106.946" y1="113.196" x2="109.191" y2="120.606" gradientUnits="userSpaceOnUse">
<stop stop-color="#FFEAD1"/>
<stop offset="1" stop-color="#FFC87B"/>
</linearGradient>
<linearGradient id="paint23_linear" x1="107.581" y1="113.759" x2="109.483" y2="117.656" gradientUnits="userSpaceOnUse">
<stop stop-color="#22357D"/>
<stop offset="1" stop-color="#001461"/>
</linearGradient>
<linearGradient id="paint24_linear" x1="106.349" y1="100.509" x2="108.248" y2="104.401" gradientUnits="userSpaceOnUse">
<stop stop-color="#22357D"/>
<stop offset="1" stop-color="#001461"/>
</linearGradient>
<linearGradient id="paint25_linear" x1="106.331" y1="109.344" x2="108.228" y2="113.238" gradientUnits="userSpaceOnUse">
<stop stop-color="#22357D"/>
<stop offset="1" stop-color="#001461"/>
</linearGradient>
<linearGradient id="paint26_linear" x1="105.467" y1="104.924" x2="107.37" y2="108.819" gradientUnits="userSpaceOnUse">
<stop stop-color="#22357D"/>
<stop offset="1" stop-color="#001461"/>
</linearGradient>
<linearGradient id="paint27_linear" x1="44.4511" y1="60.0558" x2="49.2729" y2="63.3551" gradientUnits="userSpaceOnUse">
<stop stop-color="#FFEAD1"/>
<stop offset="1" stop-color="#FFC87B"/>
</linearGradient>
<linearGradient id="paint28_linear" x1="40.0356" y1="56.0808" x2="49.2156" y2="59.8382" gradientUnits="userSpaceOnUse">
<stop stop-color="#FFEAD1"/>
<stop offset="1" stop-color="#FFC87B"/>
</linearGradient>
<linearGradient id="paint29_linear" x1="40.6914" y1="66.734" x2="43.0025" y2="70.6702" gradientUnits="userSpaceOnUse">
<stop stop-color="#22357D"/>
<stop offset="1" stop-color="#001461"/>
</linearGradient>
<linearGradient id="paint30_linear" x1="35.6204" y1="55.1318" x2="45.071" y2="58.5775" gradientUnits="userSpaceOnUse">
<stop stop-color="#FFEAD1"/>
<stop offset="1" stop-color="#FFC87B"/>
</linearGradient>
<linearGradient id="paint31_linear" x1="36.2763" y1="67.6162" x2="38.589" y2="71.5493" gradientUnits="userSpaceOnUse">
<stop stop-color="#22357D"/>
<stop offset="1" stop-color="#001461"/>
</linearGradient>
<linearGradient id="paint32_linear" x1="31.2007" y1="56.6122" x2="40.2866" y2="60.4634" gradientUnits="userSpaceOnUse">
<stop stop-color="#FFEAD1"/>
<stop offset="1" stop-color="#FFC87B"/>
</linearGradient>
<linearGradient id="paint33_linear" x1="31.8565" y1="66.7528" x2="34.1628" y2="70.6864" gradientUnits="userSpaceOnUse">
<stop stop-color="#22357D"/>
<stop offset="1" stop-color="#001461"/>
</linearGradient>
<linearGradient id="paint34_linear" x1="26.7855" y1="58.3195" x2="35.1353" y2="62.756" gradientUnits="userSpaceOnUse">
<stop stop-color="#FFEAD1"/>
<stop offset="1" stop-color="#FFC87B"/>
</linearGradient>
<linearGradient id="paint35_linear" x1="27.4413" y1="65.5023" x2="29.7493" y2="69.4329" gradientUnits="userSpaceOnUse">
<stop stop-color="#22357D"/>
<stop offset="1" stop-color="#001461"/>
</linearGradient>
</defs>
</svg>
