<svg width="180" height="180" viewBox="0 0 180 180" fill="none" xmlns="http://www.w3.org/2000/svg">
<g filter="url(#filter0_b)">
<ellipse cx="90" cy="167.5" rx="90" ry="12.5" fill="#EBEFF9"/>
</g>
<path d="M149 170C160.598 170 170 168.433 170 166.5C170 164.567 160.598 163 149 163C137.402 163 128 164.567 128 166.5C128 168.433 137.402 170 149 170Z" fill="url(#paint0_linear)"/>
<path d="M157.98 160.718C158.915 159.932 159.597 158.874 159.935 157.682C160.19 156.481 159.69 155.058 158.566 154.594C157.311 154.101 155.967 154.997 154.953 155.899C153.939 156.801 152.769 157.834 151.436 157.64C152.122 157.003 152.636 156.194 152.927 155.293C153.218 154.391 153.276 153.428 153.097 152.496C153.037 152.11 152.877 151.747 152.633 151.447C151.938 150.682 150.671 151.007 149.841 151.615C147.187 153.529 146.447 157.238 146.431 160.565C146.161 159.365 146.39 158.111 146.38 156.895C146.37 155.678 146.049 154.271 145.033 153.628C144.406 153.283 143.702 153.113 142.992 153.135C141.797 153.088 140.47 153.214 139.654 154.11C138.633 155.222 138.909 157.089 139.787 158.305C140.665 159.522 142.007 160.303 143.242 161.147C144.229 161.753 145.071 162.579 145.705 163.565C145.781 163.703 145.842 163.849 145.887 164H153.344C155.025 163.126 156.584 162.022 157.979 160.72L157.98 160.718Z" fill="url(#paint1_linear)"/>
<path d="M175.714 24.0539C175.714 24.0539 133.986 21.5574 138.903 50.5504C138.903 50.5504 137.911 55.6756 142.609 58C142.609 58 142.684 55.8526 146.891 56.5846C148.389 56.8308 149.911 56.9033 151.425 56.8007C153.469 56.6674 155.413 55.8792 156.966 54.5549C156.966 54.5549 168.696 49.749 173.255 30.7416C173.255 30.7416 176.63 26.5943 176.496 25.5276L169.454 28.5103C169.454 28.5103 171.863 33.5473 169.95 37.7323C169.95 37.7323 169.722 28.6904 168.369 28.8871C168.097 28.9266 164.712 30.6314 164.712 30.6314C164.712 30.6314 168.85 39.4028 165.728 45.7818C165.728 45.7818 166.912 34.971 163.418 31.2655L158.463 34.1353C158.463 34.1353 163.3 43.197 160.019 50.5926C160.019 50.5926 160.86 39.2508 157.417 34.8331L152.927 38.3071C152.927 38.3071 157.471 47.2357 154.701 53.3697C154.701 53.3697 154.339 40.1704 151.956 39.1731C151.956 39.1731 148.026 42.6129 147.426 44.0182C147.426 44.0182 150.538 50.5047 148.605 53.9248C148.605 53.9248 147.421 45.1287 146.449 45.0796C146.449 45.0796 142.534 50.9074 142.128 54.9076C142.128 54.9076 142.297 48.9664 145.503 44.5293C145.503 44.5293 141.717 45.1731 139.506 47.6033C139.506 47.6033 140.116 43.4855 146.469 43.1219C146.469 43.1219 149.705 38.6993 150.567 38.434C150.567 38.434 144.254 37.9071 140.423 39.5938C140.423 39.5938 143.793 35.707 151.727 37.4758L156.162 33.8836C156.162 33.8836 147.847 32.7581 144.318 34.0018C144.318 34.0018 148.377 30.562 157.357 33.0682L162.184 30.208C162.184 30.208 155.092 28.6943 150.87 29.2252C150.87 29.2252 155.33 26.842 163.601 29.4268L167.07 27.8898C167.07 27.8898 161.877 26.8776 160.355 26.7155C158.833 26.5535 158.754 26.1407 158.754 26.1407C162.045 25.5967 165.423 25.9693 168.512 27.217C168.512 27.217 175.838 24.511 175.714 24.0539Z" fill="#FF6584"/>
<path d="M26.9283 92.7076C26.9283 92.7076 48.6835 85.0083 50.5707 101.321C50.5707 101.321 51.8819 103.922 49.7511 105.887C49.7511 105.887 49.3748 104.731 47.2533 105.777C46.4973 106.139 45.7009 106.41 44.8809 106.585C43.7734 106.825 42.6174 106.695 41.5896 106.215C41.5896 106.215 34.6139 105.425 29.257 95.9137C29.257 95.9137 26.8292 94.2028 26.735 93.6101L30.9352 94.1354C30.9352 94.1354 30.436 97.206 32.0843 99.1663C32.0843 99.1663 30.8121 94.2775 31.5606 94.1834C31.7064 94.1415 33.7767 94.5635 33.7767 94.5635C33.7767 94.5635 32.9285 99.9091 35.5723 102.855C35.5723 102.855 33.2754 97.2303 34.5613 94.7048L37.6447 95.5137C37.6447 95.5137 36.4731 101.117 39.3564 104.588C39.3564 104.588 37.1574 98.6256 38.3057 95.7289L41.2258 96.913C41.2258 96.913 40.1913 102.401 42.6063 105.274C42.6063 105.274 40.7669 98.1268 41.8773 97.2264C41.8773 97.2264 44.4933 98.4725 45.0322 99.1397C45.0322 99.1397 44.3844 103.119 45.9315 104.641C45.9315 104.641 45.2033 99.7351 45.732 99.5567C45.732 99.5567 48.7119 102.09 49.5379 104.153C48.8642 102.201 47.6938 100.458 46.1424 99.0975C47.4082 98.9805 48.6809 99.2367 49.8043 99.8346C49.8043 99.8346 48.8418 97.7151 45.4131 98.4918C45.4131 98.4918 42.9823 96.6173 42.5092 96.5951C42.5092 96.5951 45.7844 95.3506 48.0785 95.6727C48.0785 95.6727 45.691 94.1017 41.7502 96.2584L38.8659 95.0007C38.8659 95.0007 43.1168 93.1408 45.1781 93.2524C45.1781 93.2524 42.4923 92.0264 38.1064 94.7409L35.1013 93.9417C35.1013 93.9417 38.6377 92.047 40.964 91.6921C40.964 91.6921 38.2253 91.0943 34.2295 93.7402L32.1575 93.444C32.1575 93.444 34.7609 92.1078 35.548 91.7867C36.335 91.4657 36.3098 91.2328 36.3098 91.2328C34.477 91.4437 32.7396 92.1619 31.2923 93.3068C31.2923 93.3068 26.93 92.9704 26.9283 92.7076Z" fill="#FF6584"/>
<path d="M66.846 44.9659C66.7095 45.8344 66.6004 46.7074 66.5231 47.5805C65.8047 55.6015 67.5371 63.768 71.6386 70.8159C72.5844 72.4347 73.6393 73.9898 74.817 75.4494C75.2035 75.9268 75.6036 76.3906 76.0174 76.8453C75.8583 80.101 75.6991 83.3613 75.5445 86.617C65.7547 78.3141 61.1303 66.519 61.6805 51.2317C61.7169 50.4815 61.7532 49.7312 61.7896 48.981C61.8169 48.3353 61.8624 47.6941 61.9215 47.053C62.1307 44.8204 62.5035 42.6014 63.0446 40.4279C63.1765 39.8959 63.322 39.3639 63.4721 38.8365C63.6267 38.3135 63.7858 37.7906 63.9631 37.2768C64.3224 36.231 64.7407 35.1988 65.209 34.1984C65.6956 33.1708 66.2321 32.1705 66.8323 31.2019C67.4371 30.2198 68.1055 29.274 68.8239 28.3691C70.279 26.5366 71.9569 24.877 73.8121 23.4492C75.6491 22.0351 77.668 20.8483 79.8005 19.9298C80.8418 19.4842 81.9104 19.0977 83.0017 18.7839C84.0657 18.4793 85.1479 18.2383 86.2392 18.0609C87.3032 17.8927 88.3764 17.7836 89.4495 17.7426C90.5044 17.6972 91.5638 17.7199 92.6142 17.8017C94.8104 17.9745 96.9885 18.4201 99.0756 19.1204C101.258 19.8479 103.345 20.8574 105.282 22.1033C105.773 22.4216 106.255 22.7535 106.724 23.0991C107.197 23.4446 107.656 23.8084 108.106 24.1813C108.556 24.5587 108.993 24.9497 109.416 25.3544C109.843 25.7546 110.257 26.1729 110.652 26.6003C111.053 27.0277 111.434 27.4642 111.807 27.9144C112.18 28.36 112.539 28.8193 112.885 29.2922C113.567 30.2198 114.185 31.1883 114.749 32.1886C115.299 33.1572 115.8 34.153 116.236 35.1761C116.668 36.1992 117.041 37.2495 117.368 38.3135C118.023 40.4325 118.501 42.6105 118.814 44.8067C119.014 46.1936 119.146 47.585 119.215 48.981C119.251 49.7312 119.287 50.4815 119.324 51.2317C119.351 52.0411 119.369 52.8369 119.369 53.6235C119.369 67.7558 114.731 78.7506 105.46 86.617C105.301 83.3613 105.146 80.101 104.987 76.8453C105.396 76.3952 105.796 75.9314 106.178 75.454C107.36 73.9943 108.415 72.4438 109.361 70.825C113.467 63.7725 115.199 55.6015 114.481 47.5759C114.404 46.6983 114.295 45.8253 114.154 44.9523C113.876 43.1653 113.472 41.3964 112.944 39.6504C112.207 37.2313 111.121 34.9214 109.707 32.8207C108.247 30.6517 106.442 28.7147 104.368 27.1187C102.336 25.5545 100.044 24.3222 97.6069 23.5083C95.3242 22.7444 92.9098 22.3488 90.4998 22.3488C88.0899 22.3488 85.6799 22.7444 83.3927 23.5083C80.9601 24.3222 78.6683 25.5545 76.6313 27.1187C74.5578 28.7147 72.7526 30.6517 71.293 32.8207C69.8834 34.9214 68.7921 37.2313 68.06 39.6504C67.5326 41.3964 67.1279 43.1743 66.846 44.9659Z" fill="#231F20"/>
<path d="M114.481 47.5759C115.199 55.6014 113.467 63.7725 109.361 70.825C108.415 72.4438 107.36 73.9943 106.178 75.4539C105.796 75.9314 105.396 76.3952 104.987 76.8453C104.255 77.6502 103.482 78.4095 102.663 79.1234C101.172 80.4239 99.5211 81.5561 97.7386 82.4109C96.5609 82.9748 95.3287 83.4158 94.0555 83.7068C92.8915 83.9751 91.6956 84.1161 90.4997 84.1161C89.3038 84.1161 88.1079 83.9751 86.9439 83.7068C85.6753 83.4158 84.4384 82.9748 83.2607 82.4109C81.4783 81.5561 79.8277 80.4239 78.3363 79.1234C77.5178 78.4095 76.7448 77.6456 76.0173 76.8453C75.6035 76.3906 75.2034 75.9268 74.8169 75.4494C73.6392 73.9898 72.5843 72.4347 71.6385 70.8159C67.537 63.768 65.8046 55.6015 66.523 47.5804C67.6962 46.3391 69.0193 45.1432 70.4198 44.1565C71.4066 43.4653 72.4569 42.856 73.5664 42.3831C74.4986 41.9875 75.4762 41.6829 76.4811 41.5101C77.3587 41.3601 78.259 41.31 79.1502 41.3737C80.7144 41.4874 82.2513 41.9648 83.6154 42.7469C84.784 43.4153 85.8253 44.3156 86.6438 45.3933C86.8166 45.6206 86.9802 45.8616 87.1303 46.1072C87.2394 46.2891 87.3395 46.471 87.4259 46.6619C87.4804 46.7802 87.5259 46.8984 87.5714 47.0166C87.726 47.4395 88.1943 47.6532 88.6172 47.494C89.0355 47.3394 89.2492 46.8711 89.0946 46.4528C89.0128 46.2345 88.9219 46.0253 88.8173 45.8162C88.5899 45.3615 88.3171 44.9249 88.017 44.5112C87.4122 43.6881 86.6892 42.9561 85.8844 42.324C84.9932 41.6238 84.0065 41.0509 82.9607 40.6189C81.8103 40.1505 80.5871 39.8595 79.3503 39.7595C77.9634 39.6504 76.5584 39.7822 75.2079 40.1187C73.6119 40.5143 72.0932 41.1964 70.6882 42.0421C69.324 42.8651 68.0145 43.8882 66.8459 44.9659C67.1278 43.1743 67.5325 41.3964 68.0599 39.6504C68.792 37.2313 69.8833 34.9214 71.2929 32.8207C72.7525 30.6517 74.5577 28.7147 76.6311 27.1187C78.6682 25.5545 80.9599 24.3222 83.3926 23.5083C85.6798 22.7444 88.0897 22.3488 90.4997 22.3488C92.9096 22.3488 95.3241 22.7444 97.6067 23.5083C100.044 24.3222 102.336 25.5545 104.368 27.1187C106.442 28.7147 108.247 30.6517 109.706 32.8207C111.121 34.9214 112.207 37.2313 112.944 39.6504C113.471 41.3964 113.876 43.1652 114.153 44.9522C113.553 44.402 112.853 43.8246 112.207 43.3335C111.321 42.6605 110.384 42.0467 109.402 41.5237C108.533 41.0645 107.624 40.6734 106.687 40.3733C105.846 40.1051 104.982 39.9141 104.109 39.8095C102.549 39.6276 100.958 39.7322 99.4438 40.146C98.0978 40.5098 96.8201 41.1145 95.6742 41.9102C94.6602 42.6196 93.7508 43.4835 93.0097 44.4748C92.7096 44.884 92.4322 45.316 92.2048 45.7752C92.032 46.1299 91.882 46.4982 91.7683 46.8802C91.6501 47.294 91.5682 47.7214 91.5228 48.1488C91.4682 48.6535 91.4591 49.1628 91.4682 49.6721C91.4818 50.3087 91.5273 50.9407 91.5864 51.5728C91.6637 52.3776 91.7638 53.1824 91.8729 53.9872C92.0139 55.0376 92.1639 56.0925 92.3276 57.1429C92.5231 58.4161 92.7368 59.6847 92.9414 60.9579C93.0051 61.3717 93.0733 61.7855 93.1097 62.2038C93.1233 62.3766 93.1324 62.5448 93.1233 62.7176C93.1188 62.7994 93.1142 62.8768 93.096 62.9586C93.0824 63.0041 93.0688 63.0541 93.046 63.0996C93.0278 63.1359 93.0006 63.1723 92.9733 63.1996C92.9324 63.2451 92.8869 63.2814 92.8369 63.3133C92.7505 63.3724 92.6595 63.4269 92.5686 63.4724C92.4186 63.5497 92.2639 63.6134 92.1048 63.6634C91.6319 63.8134 91.1317 63.868 90.6361 63.8726C89.8131 63.8771 88.9991 63.7498 88.2034 63.5724C87.7623 63.4724 87.3304 63.7452 87.2304 64.1863C87.1303 64.6228 87.4077 65.0548 87.8442 65.1548C88.4535 65.2958 89.0719 65.4004 89.6948 65.4549C90.195 65.5004 90.6952 65.514 91.1954 65.4731C91.9229 65.4186 92.6413 65.2503 93.2961 64.9275C93.5235 64.8092 93.7418 64.6774 93.9418 64.5137C94.1101 64.3727 94.2647 64.209 94.3874 64.0226C94.5102 63.8316 94.6011 63.6134 94.6602 63.3906C94.7194 63.1769 94.7421 62.9495 94.7512 62.7267C94.7648 62.3493 94.7239 61.9673 94.6785 61.5899C94.5784 60.8169 94.442 60.053 94.3147 59.2846C94.1328 58.1842 93.96 57.0838 93.7963 55.9834C93.5644 54.4147 93.3371 52.8459 93.1961 51.2726C93.1324 50.5724 93.0869 49.8767 93.0915 49.1765C93.096 48.6945 93.1279 48.2125 93.2234 47.7396C93.3007 47.3713 93.4189 47.0075 93.578 46.6619C93.6644 46.471 93.7645 46.2891 93.8736 46.1072C94.0191 45.8616 94.1873 45.6206 94.3601 45.3933C95.174 44.3156 96.2153 43.4153 97.3885 42.7469C98.7481 41.9648 100.285 41.4874 101.854 41.3737C102.74 41.31 103.641 41.3601 104.523 41.5101C105.523 41.6829 106.501 41.9875 107.437 42.3831C108.547 42.856 109.593 43.4653 110.58 44.1565C111.975 45.1387 113.312 46.3436 114.481 47.5759ZM103.286 53.9054C106.805 53.9009 110.02 51.9047 111.589 48.749C110.011 45.5979 106.787 43.6108 103.268 43.6154C99.7438 43.6245 96.5291 45.6206 94.9604 48.7763C96.5382 51.9274 99.762 53.9145 103.286 53.9054ZM102.681 70.1748C94.5602 70.1611 86.4391 70.1475 78.3181 70.1339C85.2842 78.5141 95.6879 78.5323 102.681 70.1748ZM86.039 48.7763C84.4748 45.6206 81.2601 43.6245 77.7361 43.6154C74.2121 43.6108 70.9928 45.5979 69.415 48.749C70.9791 51.9047 74.1939 53.9009 77.7179 53.9054C81.2419 53.9145 84.4612 51.9274 86.039 48.7763Z" fill="url(#paint2_linear)"/>
<path d="M114.154 44.9523C114.295 45.8253 114.404 46.6983 114.481 47.5759C113.312 46.3437 111.976 45.1387 110.58 44.1565C109.593 43.4654 108.547 42.8561 107.438 42.3832C106.501 41.9876 105.523 41.6829 104.523 41.5101C103.641 41.3601 102.741 41.3101 101.854 41.3737C100.285 41.4874 98.7482 41.9648 97.3886 42.7469C96.2155 43.4153 95.1742 44.3157 94.3603 45.3933C94.1875 45.6207 94.0193 45.8617 93.8738 46.1072C93.7647 46.2891 93.6646 46.471 93.5782 46.662C93.4191 47.0075 93.3008 47.3713 93.2235 47.7396C93.128 48.2125 93.0962 48.6945 93.0916 49.1765C93.0871 49.8767 93.1326 50.5724 93.1963 51.2727C93.3372 52.846 93.5646 54.4147 93.7965 55.9834C93.9602 57.0838 94.1329 58.1842 94.3148 59.2846C94.4421 60.053 94.5786 60.8169 94.6786 61.5899C94.7241 61.9674 94.765 62.3493 94.7513 62.7267C94.7422 62.9495 94.7195 63.1769 94.6604 63.3906C94.6013 63.6134 94.5104 63.8317 94.3876 64.0226C94.2648 64.2091 94.1102 64.3728 93.942 64.5137C93.7419 64.6774 93.5236 64.8093 93.2963 64.9275C92.6415 65.2503 91.9231 65.4186 91.1956 65.4731C90.6954 65.5141 90.1952 65.5004 89.695 65.455C89.0721 65.4004 88.4537 65.2958 87.8444 65.1548C87.4079 65.0548 87.1305 64.6228 87.2305 64.1863C87.3306 63.7453 87.7625 63.4724 88.2036 63.5725C88.9993 63.7498 89.8133 63.8771 90.6363 63.8726C91.1319 63.868 91.6321 63.8135 92.105 63.6634C92.2641 63.6134 92.4187 63.5497 92.5688 63.4724C92.6597 63.427 92.7506 63.3724 92.837 63.3133C92.8871 63.2815 92.9325 63.2451 92.9735 63.1996C93.0008 63.1723 93.028 63.136 93.0462 63.0996C93.0689 63.0541 93.0826 63.0041 93.0962 62.9586C93.1144 62.8768 93.119 62.7995 93.1235 62.7176C93.1326 62.5448 93.1235 62.3766 93.1098 62.2038C93.0735 61.7855 93.0053 61.3717 92.9416 60.9579C92.737 59.6847 92.5233 58.4161 92.3278 57.1429C92.1641 56.0926 92.014 55.0376 91.8731 53.9873C91.7639 53.1824 91.6639 52.3776 91.5866 51.5728C91.5275 50.9407 91.482 50.3087 91.4684 49.6721C91.4593 49.1628 91.4684 48.6536 91.5229 48.1488C91.5684 47.7214 91.6503 47.294 91.7685 46.8802C91.8822 46.4983 92.0322 46.1299 92.205 45.7753C92.4323 45.316 92.7097 44.884 93.0098 44.4748C93.751 43.4836 94.6604 42.6196 95.6744 41.9103C96.8203 41.1145 98.098 40.5098 99.4439 40.146C100.958 39.7322 102.55 39.6276 104.109 39.8095C104.982 39.9141 105.846 40.1051 106.687 40.3734C107.624 40.6735 108.534 41.0645 109.402 41.5238C110.384 42.0467 111.321 42.6605 112.208 43.3335C112.853 43.8246 113.553 44.4021 114.154 44.9523Z" fill="#231F20"/>
<path d="M111.589 48.749C110.02 51.9047 106.806 53.9008 103.286 53.9054C99.7623 53.9145 96.5384 51.9274 94.9606 48.7763C96.5293 45.6206 99.7441 43.6245 103.268 43.6154C106.787 43.6108 110.011 45.5979 111.589 48.749ZM110.148 48.749C108.688 46.3436 106.083 44.8749 103.268 44.8795C100.458 44.8886 97.8525 46.3618 96.402 48.7763C99.5304 53.9418 107.038 53.9281 110.148 48.749Z" fill="#231F20"/>
<path d="M103.277 45.748C104.937 45.748 106.287 47.0985 106.287 48.7627C106.287 50.4269 104.937 51.7728 103.277 51.7728C101.613 51.7728 100.262 50.4269 100.262 48.7627C100.262 47.0985 101.613 45.748 103.277 45.748Z" fill="#231F20"/>
<path d="M103.268 44.8795C106.083 44.8749 108.688 46.3437 110.148 48.749C107.038 53.9282 99.5303 53.9418 96.4019 48.7763C97.8525 46.3618 100.458 44.8886 103.268 44.8795ZM106.287 48.7627C106.287 47.0985 104.937 45.748 103.277 45.748C101.613 45.748 100.262 47.0985 100.262 48.7627C100.262 50.4269 101.613 51.7728 103.277 51.7728C104.937 51.7728 106.287 50.4269 106.287 48.7627Z" fill="white"/>
<path d="M78.3183 70.1339C86.4394 70.1476 94.5605 70.1612 102.682 70.1748C95.6881 78.5323 85.2844 78.5141 78.3183 70.1339Z" fill="#231F20"/>
<path d="M89.0948 46.4528C89.2494 46.8711 89.0357 47.3395 88.6173 47.4941C88.1945 47.6532 87.7261 47.4395 87.5715 47.0166C87.5261 46.8984 87.4806 46.7802 87.426 46.662C87.3396 46.471 87.2396 46.2891 87.1304 46.1072C86.9804 45.8617 86.8167 45.6207 86.6439 45.3933C85.8255 44.3157 84.7842 43.4154 83.6156 42.7469C82.2515 41.9648 80.7146 41.4874 79.1504 41.3737C78.2592 41.3101 77.3589 41.3601 76.4813 41.5101C75.4764 41.6829 74.4987 41.9876 73.5666 42.3832C72.4571 42.8561 71.4067 43.4654 70.42 44.1565C69.0195 45.1432 67.6964 46.3391 66.5232 47.5805C66.6005 46.7074 66.7096 45.8344 66.846 44.9659C68.0146 43.8882 69.3242 42.8652 70.6883 42.0421C72.0934 41.1964 73.6121 40.5143 75.2081 40.1187C76.5586 39.7822 77.9636 39.6504 79.3504 39.7595C80.5872 39.8595 81.8104 40.1506 82.9608 40.6189C84.0067 41.0509 84.9933 41.6238 85.8846 42.3241C86.6894 42.9561 87.4124 43.6882 88.0172 44.5112C88.3173 44.925 88.5901 45.3615 88.8174 45.8162C88.922 46.0254 89.013 46.2345 89.0948 46.4528Z" fill="#231F20"/>
<path d="M77.7362 43.6154C81.2602 43.6245 84.475 45.6206 86.0392 48.7763C84.4613 51.9274 81.242 53.9145 77.718 53.9054C74.194 53.9008 70.9792 51.9047 69.415 48.749C70.9928 45.5979 74.2122 43.6108 77.7362 43.6154ZM77.718 52.6413C80.5326 52.6459 83.1427 51.1817 84.5977 48.7763C81.4875 43.5927 73.9848 43.579 70.8564 48.749C72.3024 51.159 74.9079 52.6368 77.718 52.6413Z" fill="#231F20"/>
<path d="M77.727 45.748C79.3912 45.748 80.7371 47.0985 80.7371 48.7627C80.7371 50.4269 79.3912 51.7728 77.727 51.7728C76.0628 51.7728 74.7123 50.4269 74.7123 48.7627C74.7123 47.0985 76.0628 45.748 77.727 45.748Z" fill="#231F20"/>
<path d="M84.5976 48.7763C83.1425 51.1817 80.5325 52.6459 77.7179 52.6413C74.9078 52.6368 72.3023 51.159 70.8563 48.7491C73.9847 43.5791 81.4874 43.5927 84.5976 48.7763ZM80.7371 48.7627C80.7371 47.0985 79.3912 45.748 77.727 45.748C76.0627 45.748 74.7123 47.0985 74.7123 48.7627C74.7123 50.4269 76.0627 51.7729 77.727 51.7729C79.3912 51.7729 80.7371 50.4269 80.7371 48.7627Z" fill="white"/>
<path d="M90.5 168.892C103.341 150.912 110.771 132.497 112.785 113.654C114.199 100.408 103.823 88.8587 90.5 88.8587C77.1817 88.8587 66.8007 100.408 68.2148 113.654C70.2337 132.497 77.6591 150.912 90.5 168.892Z" fill="url(#paint3_linear)"/>
<path d="M105.5 110.722C105.5 102.438 98.7842 95.7223 90.4999 95.7223C82.2156 95.7223 75.4999 102.438 75.4999 110.722C75.4999 119.007 82.2156 125.722 90.4999 125.722C98.7842 125.722 105.5 119.007 105.5 110.722Z" fill="white"/>
<path d="M99.4999 111C99.4999 106.029 95.4705 102 90.4999 102C85.5293 102 81.4999 106.029 81.4999 111C81.4999 115.971 85.5293 120 90.4999 120C95.4705 120 99.4999 115.971 99.4999 111Z" fill="url(#paint4_linear)"/>
<defs>
<filter id="filter0_b" x="-10" y="145" width="200" height="45" filterUnits="userSpaceOnUse" color-interpolation-filters="sRGB">
<feFlood flood-opacity="0" result="BackgroundImageFix"/>
<feGaussianBlur in="BackgroundImage" stdDeviation="5"/>
<feComposite in2="SourceAlpha" operator="in" result="effect1_backgroundBlur"/>
<feBlend mode="normal" in="SourceGraphic" in2="effect1_backgroundBlur" result="shape"/>
</filter>
<linearGradient id="paint0_linear" x1="127.749" y1="162.165" x2="128.73" y2="173.164" gradientUnits="userSpaceOnUse">
<stop stop-color="#22357D"/>
<stop offset="1" stop-color="#001461"/>
</linearGradient>
<linearGradient id="paint1_linear" x1="138.875" y1="149.449" x2="145.021" y2="168.001" gradientUnits="userSpaceOnUse">
<stop stop-color="#22357D"/>
<stop offset="1" stop-color="#001461"/>
</linearGradient>
<linearGradient id="paint2_linear" x1="66.5045" y1="8.5" x2="125.504" y2="71.9999" gradientUnits="userSpaceOnUse">
<stop offset="0.109375" stop-color="#EAB485"/>
<stop offset="1" stop-color="#523E31"/>
</linearGradient>
<linearGradient id="paint3_linear" x1="67.8182" y1="79.3107" x2="131.128" y2="145.57" gradientUnits="userSpaceOnUse">
<stop stop-color="#22357D"/>
<stop offset="1" stop-color="#001461"/>
</linearGradient>
<linearGradient id="paint4_linear" x1="79.3525" y1="120.107" x2="101.512" y2="108.247" gradientUnits="userSpaceOnUse">
<stop stop-color="#22357D"/>
<stop offset="1" stop-color="#001461"/>
</linearGradient>
</defs>
</svg>
