<svg width="180" height="180" viewBox="0 0 180 180" fill="none" xmlns="http://www.w3.org/2000/svg">
<path fill-rule="evenodd" clip-rule="evenodd" d="M148.987 64H151.983V71.0004H158.973V74.0004H151.983V81H148.987V74.0004H142V71.0004H148.987V64Z" fill="#FF6584"/>
<path d="M33.7634 85.8075C33.2956 86.1528 32.7168 86.314 32.1373 86.2604C31.5577 86.2068 31.0178 85.9422 30.6203 85.5169C30.5601 85.4504 30.4923 85.3913 30.4182 85.3407C30.205 85.1997 29.9521 85.131 29.697 85.1448C29.4419 85.1586 29.1981 85.2541 29.0018 85.4173C28.8055 85.5804 28.667 85.8024 28.607 86.0505C28.547 86.2986 28.5685 86.5595 28.6684 86.7946C28.7047 86.8765 28.7506 86.9539 28.805 87.0252C29.1512 87.4931 29.3133 88.0716 29.2605 88.6506C29.2076 89.2297 28.9435 89.7688 28.5184 90.1654C28.452 90.2254 28.3929 90.2931 28.3424 90.3671C28.2016 90.5799 28.1332 90.8325 28.1473 91.0874C28.1615 91.3424 28.2574 91.5861 28.4209 91.7825C28.5845 91.9789 28.8069 92.1175 29.0552 92.1778C29.3036 92.2382 29.5646 92.217 29.7998 92.1175C29.8818 92.0813 29.9592 92.0356 30.0304 91.9813C30.4982 91.636 31.0769 91.4748 31.6565 91.5284C32.2361 91.582 32.7759 91.8466 33.1734 92.2719C33.2336 92.3384 33.3015 92.3975 33.3755 92.4481C33.5887 92.5891 33.8416 92.6578 34.0967 92.644C34.3518 92.6302 34.5956 92.5347 34.7919 92.3715C34.9883 92.2084 35.1267 91.9864 35.1868 91.7383C35.2468 91.4902 35.2252 91.2293 35.1253 90.9942C35.089 90.9122 35.0432 90.8349 34.9887 90.7636C34.6425 90.2957 34.4804 89.7172 34.5333 89.1382C34.5861 88.5591 34.8502 88.02 35.2753 87.6234C35.3417 87.5634 35.4008 87.4957 35.4513 87.4217C35.5922 87.2089 35.6606 86.9563 35.6464 86.7014C35.6323 86.4464 35.5363 86.2027 35.3728 86.0063C35.2093 85.8099 34.9869 85.6713 34.7385 85.6109C34.4902 85.5506 34.2291 85.5718 33.9939 85.6713C33.912 85.7075 33.8346 85.7532 33.7634 85.8075Z" fill="#FF6584"/>
<g filter="url(#filter0_b)">
<ellipse cx="90" cy="167.5" rx="90" ry="12.5" fill="#EBEFF9"/>
</g>
<path d="M114.165 44.975C113.888 43.1789 113.483 41.401 112.951 39.6504C112.219 37.2313 111.128 34.9214 109.718 32.8207C108.259 30.6517 106.453 28.7147 104.38 27.1187C102.347 25.5545 100.051 24.3222 97.6185 23.5083C95.3313 22.7444 92.9214 22.3488 90.5115 22.3488C88.1015 22.3488 85.6916 22.7444 83.4044 23.5083C80.9672 24.3222 78.6755 25.5545 76.6429 27.1187C74.5695 28.7147 72.7643 30.6517 71.3047 32.8207C69.8905 34.9214 68.8038 37.2313 68.0672 39.6504C67.5352 41.401 67.1305 43.1834 66.8531 44.9795C66.7167 45.8435 66.6121 46.7165 66.5303 47.585V47.5896C65.8164 55.6106 67.5443 63.768 71.6457 70.8159C72.5915 72.4347 73.651 73.9898 74.8286 75.4494C75.2106 75.9177 75.6016 76.377 76.0063 76.8226C75.8563 79.9783 75.7062 83.4932 75.5516 86.617C65.7618 78.3141 61.142 66.519 61.6876 51.2317C61.724 50.4815 61.7604 49.7312 61.7968 48.981C61.8286 48.3353 61.8741 47.6941 61.9332 47.053C62.1378 44.8204 62.5152 42.6014 63.0563 40.4279C63.1882 39.8959 63.3291 39.3639 63.4837 38.8365C63.6338 38.3135 63.7975 37.7906 63.9748 37.2768C64.334 36.231 64.7478 35.1988 65.2207 34.1984C65.7027 33.1708 66.2438 32.1705 66.8395 31.2019C67.4488 30.2198 68.1126 29.274 68.8356 28.3691C70.2907 26.5366 71.964 24.877 73.8192 23.4492C75.6608 22.0351 77.6797 20.8483 79.8122 19.9298C80.8535 19.4842 81.9221 19.0977 83.0134 18.7839C84.0728 18.4793 85.1596 18.2383 86.2509 18.0609C87.3149 17.8927 88.3834 17.7836 89.4611 17.7426C90.516 17.6972 91.5709 17.7199 92.6258 17.8017C94.8221 17.9745 96.9956 18.4201 99.0872 19.1204C101.27 19.8479 103.357 20.8574 105.289 22.1033C105.78 22.4216 106.262 22.7535 106.735 23.0991C107.208 23.4446 107.668 23.8084 108.113 24.1813C108.563 24.5587 109 24.9497 109.427 25.3544C109.85 25.7546 110.264 26.1729 110.664 26.6003C111.064 27.0277 111.446 27.4642 111.819 27.9144C112.192 28.36 112.551 28.8193 112.897 29.2922C113.574 30.2198 114.193 31.1883 114.761 32.1886C115.307 33.1572 115.807 34.153 116.243 35.1761C116.68 36.1992 117.053 37.2495 117.38 38.3135C118.03 40.4325 118.508 42.6105 118.826 44.8067C119.022 46.1936 119.153 47.585 119.222 48.981C119.258 49.7312 119.294 50.4815 119.331 51.2317C119.358 52.0457 119.376 52.8505 119.376 53.6417C119.376 67.7649 114.738 78.7551 105.467 86.617C105.317 83.4932 105.167 79.9783 105.017 76.8226C105.421 76.377 105.812 75.9223 106.19 75.454C107.367 73.9943 108.422 72.4438 109.368 70.825C113.474 63.7771 115.207 55.6106 114.493 47.5896V47.585C114.411 46.712 114.306 45.8435 114.165 44.975Z" fill="url(#paint0_linear)"/>
<path d="M76.0065 76.8226C75.6018 76.377 75.2107 75.9177 74.8288 75.4494C73.6511 73.9898 72.5916 72.4347 71.6459 70.8159C67.5444 63.768 65.8165 55.6105 66.5304 47.5895V47.585C67.7263 46.3209 69.0086 45.1568 70.4318 44.1565C71.4185 43.4653 72.4689 42.856 73.5738 42.3831C74.5105 41.9875 75.4881 41.6829 76.4885 41.5101C77.3706 41.3601 78.2709 41.31 79.1576 41.3737C80.7263 41.4874 82.2632 41.9648 83.6228 42.7469C84.796 43.4153 85.8372 44.3156 86.6512 45.3933C86.8285 45.6206 86.9922 45.8616 87.1377 46.1072C87.2468 46.2891 87.3469 46.471 87.4333 46.6619C87.4878 46.7802 87.5378 46.8984 87.5833 47.0166C87.7379 47.4395 88.2062 47.6532 88.6246 47.494C89.0475 47.3394 89.2612 46.8711 89.102 46.4528C89.0247 46.2345 88.9292 46.0253 88.8292 45.8162C88.6018 45.3615 88.329 44.9249 88.0289 44.5112C87.4242 43.6881 86.7012 42.9561 85.8963 42.324C85.0051 41.6238 84.0184 41.0509 82.968 40.6189C81.8222 40.1505 80.599 39.8595 79.3622 39.7595C77.9754 39.6504 76.5658 39.7822 75.2153 40.1187C73.6238 40.5143 72.1051 41.1964 70.6955 42.0421C69.3132 42.8788 68.0355 43.8791 66.8532 44.9795C67.1306 43.1834 67.5353 41.401 68.0673 39.6504C68.8039 37.2313 69.8907 34.9214 71.3048 32.8207C72.7644 30.6517 74.5696 28.7147 76.6431 27.1187C78.6756 25.5545 80.9673 24.3222 83.4046 23.5083C85.6917 22.7444 88.1017 22.3488 90.5116 22.3488C92.9215 22.3488 95.3315 22.7444 97.6187 23.5083C100.051 24.3222 102.348 25.5545 104.38 27.1187C106.454 28.7147 108.259 30.6517 109.718 32.8207C111.128 34.9214 112.219 37.2313 112.951 39.6504C113.483 41.401 113.888 43.1789 114.165 44.975C113.542 44.3975 112.897 43.8518 112.219 43.3335C111.333 42.6605 110.396 42.0467 109.414 41.5237C108.541 41.0645 107.636 40.6734 106.699 40.3733C105.858 40.1051 104.994 39.9141 104.121 39.8095C102.561 39.6276 100.965 39.7322 99.4557 40.146C98.1098 40.5098 96.8275 41.1145 95.6862 41.9102C94.6676 42.6196 93.7582 43.4835 93.0216 44.4748C92.7169 44.884 92.4441 45.316 92.2168 45.7752C92.0394 46.1299 91.8939 46.4982 91.7802 46.8802C91.6575 47.294 91.5802 47.7214 91.5347 48.1488C91.4801 48.6535 91.4665 49.1628 91.4801 49.6721C91.4892 50.3087 91.5392 50.9407 91.5984 51.5728C91.6757 52.3776 91.7757 53.1824 91.8803 53.9872C92.0212 55.0376 92.1758 56.0925 92.3395 57.1429C92.5351 58.4161 92.7488 59.6847 92.9488 60.9579C93.017 61.3717 93.0807 61.7855 93.1171 62.2038C93.1353 62.3766 93.1444 62.5448 93.1353 62.7176C93.1307 62.7994 93.1216 62.8768 93.1034 62.9586C93.0943 63.0041 93.0762 63.0541 93.0534 63.0996C93.0352 63.1359 93.0125 63.1723 92.9807 63.1996C92.9443 63.2451 92.8943 63.2814 92.8488 63.3133C92.7624 63.3724 92.6715 63.4269 92.576 63.4724C92.4305 63.5497 92.2759 63.6134 92.1167 63.6634C91.6438 63.8134 91.1437 63.868 90.6435 63.8726C89.825 63.8771 89.0111 63.7498 88.2108 63.5724C87.7743 63.4724 87.3378 63.7452 87.2423 64.1863C87.1422 64.6228 87.4151 65.0548 87.8561 65.1548C88.4654 65.2958 89.0838 65.4004 89.7068 65.4549C90.2024 65.5004 90.7071 65.514 91.2028 65.4731C91.9303 65.4186 92.6533 65.2503 93.3035 64.9275C93.5354 64.8092 93.7537 64.6774 93.9492 64.5137C94.122 64.3727 94.272 64.209 94.3948 64.0226C94.5221 63.8316 94.6131 63.6134 94.6722 63.3906C94.7267 63.1769 94.754 62.9495 94.7586 62.7267C94.7722 62.3493 94.7358 61.9673 94.6858 61.5899C94.5903 60.8169 94.4539 60.053 94.3266 59.2846C94.1402 58.1842 93.9719 57.0838 93.8082 55.9834C93.5718 54.4147 93.349 52.8459 93.2035 51.2726C93.1444 50.5724 93.0943 49.8767 93.1034 49.1765C93.108 48.6945 93.1353 48.2125 93.2308 47.7396C93.3081 47.3713 93.4263 47.0075 93.5854 46.6619C93.6764 46.471 93.7764 46.2891 93.881 46.1072C94.031 45.8616 94.1947 45.6206 94.3721 45.3933C95.186 44.3156 96.2273 43.4153 97.3959 42.7469C98.76 41.9648 100.297 41.4874 101.861 41.3737C102.752 41.31 103.653 41.3601 104.535 41.5101C105.535 41.6829 106.513 41.9875 107.445 42.3831C108.554 42.856 109.605 43.4653 110.591 44.1565C112.01 45.1568 113.297 46.3209 114.493 47.585V47.5895C115.207 55.6105 113.474 63.7771 109.368 70.825C108.422 72.4438 107.368 73.9943 106.19 75.4539C105.812 75.9223 105.421 76.377 105.017 76.8226C104.28 77.632 103.498 78.405 102.675 79.1234C101.179 80.4239 99.533 81.5561 97.746 82.4109C96.5728 82.9748 95.336 83.4158 94.0674 83.7068C93.6536 83.8023 93.2353 83.8796 92.817 83.9433C92.0531 84.057 91.2846 84.1161 90.5116 84.1161C89.7386 84.1161 88.9702 84.057 88.2062 83.9433C87.7834 83.8796 87.3696 83.8023 86.9558 83.7068C85.6826 83.4158 84.4458 82.9748 83.2727 82.4109C81.4857 81.5561 79.8397 80.4239 78.3437 79.1234C77.5207 78.405 76.7431 77.632 76.0065 76.8226ZM103.293 53.9054C106.817 53.9009 110.032 51.9047 111.596 48.749C110.023 45.5979 106.799 43.6108 103.275 43.6154C99.7512 43.6245 96.5365 45.6206 94.9723 48.7763C96.5501 51.9274 99.7694 53.9145 103.293 53.9054ZM102.693 70.1748C94.5721 70.1611 86.4511 70.1475 78.33 70.1339C85.2916 78.5141 95.6998 78.5323 102.693 70.1748ZM86.0509 48.7763C84.4822 45.6206 81.2674 43.6245 77.748 43.6154C74.224 43.6108 71.0002 45.5979 69.4223 48.749C70.9911 51.9047 74.2059 53.9009 77.7298 53.9054C81.2492 53.9145 84.4731 51.9274 86.0509 48.7763Z" fill="url(#paint1_linear)"/>
<path d="M114.165 44.975C114.306 45.8435 114.411 46.712 114.493 47.585C113.297 46.3209 112.01 45.1569 110.591 44.1565C109.605 43.4654 108.554 42.8561 107.445 42.3832C106.513 41.9876 105.535 41.6829 104.535 41.5101C103.653 41.3601 102.752 41.3101 101.861 41.3737C100.297 41.4874 98.7599 41.9648 97.3958 42.7469C96.2272 43.4153 95.1859 44.3157 94.372 45.3933C94.1947 45.6207 94.031 45.8617 93.8809 46.1072C93.7763 46.2891 93.6763 46.471 93.5854 46.662C93.4262 47.0075 93.308 47.3713 93.2307 47.7396C93.1352 48.2125 93.1079 48.6945 93.1034 49.1765C93.0943 49.8767 93.1443 50.5724 93.2034 51.2727C93.3489 52.846 93.5717 54.4147 93.8082 55.9834C93.9719 57.0838 94.1401 58.1842 94.3265 59.2846C94.4539 60.053 94.5903 60.8169 94.6857 61.5899C94.7358 61.9674 94.7721 62.3493 94.7585 62.7267C94.754 62.9495 94.7267 63.1769 94.6721 63.3906C94.613 63.6134 94.5221 63.8317 94.3947 64.0226C94.272 64.2091 94.1219 64.3728 93.9491 64.5137C93.7536 64.6774 93.5353 64.8093 93.3034 64.9275C92.6532 65.2503 91.9302 65.4186 91.2027 65.4731C90.7071 65.5141 90.2023 65.5004 89.7067 65.455C89.0838 65.4004 88.4654 65.2958 87.8561 65.1548C87.415 65.0548 87.1422 64.6228 87.2422 64.1863C87.3377 63.7453 87.7742 63.4724 88.2107 63.5725C89.011 63.7498 89.8249 63.8771 90.6434 63.8726C91.1436 63.868 91.6438 63.8135 92.1167 63.6634C92.2758 63.6134 92.4304 63.5497 92.5759 63.4724C92.6714 63.427 92.7623 63.3724 92.8487 63.3133C92.8942 63.2815 92.9442 63.2451 92.9806 63.1996C93.0124 63.1723 93.0352 63.136 93.0534 63.0996C93.0761 63.0541 93.0943 63.0041 93.1034 62.9586C93.1216 62.8768 93.1307 62.7995 93.1352 62.7176C93.1443 62.5448 93.1352 62.3766 93.117 62.2038C93.0806 61.7855 93.017 61.3717 92.9488 60.9579C92.7487 59.6847 92.535 58.4161 92.3395 57.1429C92.1758 56.0926 92.0212 55.0376 91.8802 53.9873C91.7756 53.1824 91.6756 52.3776 91.5983 51.5728C91.5392 50.9407 91.4892 50.3087 91.4801 49.6721C91.4664 49.1628 91.4801 48.6536 91.5346 48.1488C91.5801 47.7214 91.6574 47.294 91.7802 46.8802C91.8939 46.4983 92.0394 46.1299 92.2167 45.7753C92.444 45.316 92.7169 44.884 93.0215 44.4748C93.7581 43.4836 94.6676 42.6196 95.6861 41.9103C96.8274 41.1145 98.1097 40.5098 99.4556 40.146C100.965 39.7322 102.561 39.6276 104.121 39.8095C104.994 39.9141 105.858 40.1051 106.699 40.3734C107.636 40.6735 108.541 41.0645 109.414 41.5238C110.396 42.0467 111.333 42.6605 112.219 43.3335C112.897 43.8519 113.542 44.3975 114.165 44.975Z" fill="url(#paint2_linear)"/>
<path d="M105.667 52.2775C107.449 51.7364 109.068 50.5588 110.155 48.749C108.7 46.3436 106.09 44.8749 103.28 44.8795C100.465 44.8886 97.8594 46.3618 96.4135 48.7763C97.5048 50.5769 99.1281 51.7501 100.915 52.2912C102.461 52.7595 104.125 52.7595 105.667 52.2775ZM111.596 48.749C110.032 51.9047 106.817 53.9008 103.293 53.9054C99.7692 53.9145 96.5499 51.9274 94.972 48.7763C96.5362 45.6206 99.751 43.6245 103.275 43.6154C106.799 43.6108 110.023 45.5979 111.596 48.749Z" fill="url(#paint3_linear)"/>
<path d="M106.394 167.727C106.417 168.523 105.699 168.96 104.985 168.878C104.271 168.801 103.562 168.205 102.72 167.4C101.879 166.595 100.906 165.581 100.579 164.808C100.247 164.031 100.561 163.49 100.274 162.016C100.42 162.016 100.561 162.016 100.706 162.016C101.07 163.376 101.761 164.24 102.211 164.786C102.661 165.327 102.866 165.549 103.225 165.618C103.584 165.681 104.094 165.595 104.312 165.427C104.535 165.254 104.466 165.004 102.575 162.016C102.707 162.016 102.843 162.016 102.975 162.016C105.608 165.781 106.372 166.932 106.394 167.727Z" fill="#001461"/>
<path d="M106.299 50.436C106.299 51.1271 106.062 51.7683 105.667 52.2775C104.125 52.7595 102.461 52.7595 100.915 52.2912C100.51 51.7819 100.274 51.1362 100.274 50.436C100.274 48.7717 101.62 47.4213 103.284 47.4213C104.948 47.4213 106.299 48.7717 106.299 50.436Z" fill="url(#paint4_linear)"/>
<path d="M105.667 52.2776C106.063 51.7683 106.299 51.1272 106.299 50.436C106.299 48.7718 104.949 47.4213 103.284 47.4213C101.62 47.4213 100.274 48.7718 100.274 50.436C100.274 51.1363 100.511 51.782 100.915 52.2912C99.1283 51.7501 97.505 50.577 96.4137 48.7764C97.8597 46.3619 100.465 44.8886 103.28 44.8795C106.09 44.875 108.7 46.3437 110.155 48.7491C109.068 50.5588 107.449 51.7365 105.667 52.2776Z" fill="white"/>
<path d="M102.575 162.016C104.466 165.004 104.534 165.254 104.312 165.427C104.093 165.595 103.584 165.681 103.225 165.618C102.866 165.549 102.661 165.327 102.211 164.786C101.761 164.24 101.069 163.376 100.706 162.016C101.329 162.016 101.952 162.016 102.575 162.016Z" fill="#E0A871"/>
<path d="M102.975 162.016C102.843 162.016 102.707 162.016 102.575 162.016C101.952 162.016 101.329 162.016 100.706 162.016C100.56 162.016 100.419 162.016 100.274 162.016C98.5097 151.085 96.8546 145.22 95.063 141.082C94.6174 140.059 94.1673 139.14 93.7262 138.226H102.638C102.275 144.524 101.27 151.867 102.975 162.016Z" fill="url(#paint5_linear)"/>
<path d="M78.33 70.1339C86.451 70.1476 94.5721 70.1612 102.693 70.1748C95.6997 78.5323 85.2915 78.5141 78.33 70.1339Z" fill="url(#paint6_linear)"/>
<path d="M102.239 92.901H78.7848C79.044 91.8779 79.676 91.2141 80.7264 90.9822C82.3588 90.8003 83.7957 90.3638 85.1689 89.6089C85.6145 89.9136 86.0965 90.1637 86.6057 90.3638C87.2332 90.6138 87.888 90.7866 88.5564 90.9049C89.2021 91.014 89.8569 91.0685 90.5117 91.0685C91.1664 91.0685 91.8212 91.014 92.4669 90.9049C93.1308 90.7866 93.7901 90.6138 94.4176 90.3638C94.9223 90.1637 95.4088 89.9136 95.8545 89.6089C97.2277 90.3638 98.66 90.8003 100.297 90.9822C101.347 91.2141 101.979 91.8779 102.239 92.901Z" fill="url(#paint7_linear)"/>
<path d="M94.7088 88.9041C95.0908 89.1633 95.4682 89.3997 95.8547 89.6089C95.409 89.9136 94.9225 90.1636 94.4178 90.3637C93.7903 90.6138 93.131 90.7866 92.4671 90.9048C91.8214 91.014 91.1666 91.0685 90.5119 91.0685C89.8571 91.0685 89.2023 91.014 88.5566 90.9048C87.8882 90.7866 87.2334 90.6138 86.6059 90.3637C86.0967 90.1636 85.6147 89.9136 85.1691 89.6089C85.5556 89.3997 85.933 89.1633 86.3149 88.9041C88.6612 90.1864 92.3625 90.1864 94.7088 88.9041Z" fill="url(#paint8_linear)"/>
<path d="M94.5175 88.7723C94.5811 88.8178 94.6448 88.8587 94.7085 88.9042C92.3622 90.1865 88.6609 90.1865 86.3146 88.9042C86.3782 88.8587 86.4419 88.8178 86.5056 88.7723C86.9057 88.4858 87.1922 88.1494 87.4286 87.7219C87.9743 86.7352 88.2107 85.7667 88.2107 84.6436C88.2107 84.5344 88.2107 84.4253 88.2107 84.3162C88.2107 84.2434 88.2107 84.0888 88.2062 83.9433C88.9701 84.057 89.7385 84.1161 90.5115 84.1161C91.2845 84.1161 92.053 84.057 92.8169 83.9433C92.8123 84.0888 92.8123 84.2434 92.8123 84.3162C92.8123 84.4253 92.8123 84.5344 92.8123 84.6436C92.8123 85.7667 93.0488 86.7352 93.5944 87.7219C93.8263 88.1494 94.1173 88.4858 94.5175 88.7723Z" fill="url(#paint9_linear)"/>
<path d="M89.1018 46.4528C89.2609 46.8711 89.0472 47.3395 88.6243 47.4941C88.206 47.6532 87.7376 47.4395 87.583 47.0166C87.5376 46.8984 87.4876 46.7802 87.433 46.6619C87.3466 46.471 87.2466 46.2891 87.1374 46.1072C86.9919 45.8617 86.8282 45.6207 86.6509 45.3933C85.837 44.3157 84.7957 43.4153 83.6226 42.7469C82.263 41.9648 80.7261 41.4874 79.1573 41.3737C78.2707 41.3101 77.3703 41.3601 76.4882 41.5101C75.4879 41.6829 74.5102 41.9876 73.5735 42.3832C72.4686 42.8561 71.4182 43.4654 70.4315 44.1565C69.0083 45.1569 67.726 46.3209 66.5302 47.585C66.612 46.7165 66.7166 45.8435 66.853 44.9795C68.0352 43.8791 69.313 42.8788 70.6953 42.0421C72.1049 41.1964 73.6236 40.5143 75.215 40.1187C76.5655 39.7822 77.9751 39.6504 79.362 39.7595C80.5988 39.8595 81.8219 40.1506 82.9678 40.6189C84.0181 41.0509 85.0049 41.6238 85.8961 42.3241C86.7009 42.9561 87.4239 43.6882 88.0287 44.5112C88.3288 44.925 88.6016 45.3615 88.8289 45.8162C88.929 46.0254 89.0245 46.2345 89.1018 46.4528Z" fill="url(#paint10_linear)"/>
<path d="M78.3846 138.226H87.2969C86.8558 139.14 86.4011 140.059 85.96 141.082C84.1685 145.22 82.5133 151.085 80.7491 162.016C80.6036 162.016 80.4581 162.016 80.3171 162.016C79.6896 162.016 79.0712 162.016 78.4483 162.016C78.3119 162.016 78.18 162.016 78.0436 162.016C79.7533 151.867 78.7484 144.524 78.3846 138.226Z" fill="url(#paint11_linear)"/>
<path d="M75.3516 52.273C76.111 52.514 76.9113 52.6413 77.7297 52.6413C78.5527 52.6413 79.3576 52.5185 80.1169 52.2775C81.9676 51.7092 83.5727 50.4769 84.6094 48.7763C81.4992 43.5927 73.992 43.579 70.8637 48.749C71.8913 50.4587 73.501 51.6955 75.3516 52.273ZM77.7479 43.6154C81.2673 43.6245 84.4821 45.6206 86.0508 48.7763C84.473 51.9274 81.2491 53.9145 77.7297 53.9054C74.2058 53.9008 70.991 51.9047 69.4222 48.749C71.0001 45.5979 74.2239 43.6108 77.7479 43.6154Z" fill="url(#paint12_linear)"/>
<path d="M80.3169 162.016C80.4579 162.016 80.6034 162.016 80.7489 162.016C80.4579 163.49 80.7762 164.031 80.4442 164.808C80.1169 165.581 79.1392 166.595 78.298 167.4C77.4614 168.205 76.752 168.801 76.0381 168.878C75.3243 168.96 74.6013 168.523 74.6286 167.727C74.6513 166.932 75.4152 165.781 78.0434 162.016C78.1798 162.016 78.3117 162.016 78.4481 162.016C76.5565 165.004 76.4883 165.254 76.7111 165.427C76.9294 165.595 77.4386 165.681 77.7979 165.618C78.1525 165.549 78.3617 165.327 78.8119 164.786C79.262 164.24 79.9532 163.376 80.3169 162.016Z" fill="#001461"/>
<path d="M78.4482 162.016C79.0711 162.016 79.6895 162.016 80.317 162.016C79.9532 163.376 79.2621 164.24 78.8119 164.786C78.3618 165.327 78.1526 165.549 77.7979 165.618C77.4387 165.681 76.9294 165.595 76.7112 165.427C76.4884 165.254 76.5566 165.004 78.4482 162.016Z" fill="#E0A871"/>
<path d="M84.6097 48.7763C83.5729 50.4769 81.9678 51.7092 80.1172 52.2776C80.5173 51.7638 80.7492 51.1272 80.7492 50.436C80.7492 48.7718 79.3987 47.4213 77.739 47.4213C76.0748 47.4213 74.7244 48.7718 74.7244 50.436C74.7244 51.1317 74.9608 51.7638 75.3518 52.273C73.5012 51.6956 71.8915 50.4588 70.8639 48.7491C73.9923 43.5791 81.4995 43.5927 84.6097 48.7763Z" fill="white"/>
<path d="M80.7491 50.436C80.7491 51.1271 80.5172 51.7637 80.1171 52.2775C79.3577 52.5185 78.5529 52.6413 77.7299 52.6413C76.9114 52.6413 76.1111 52.514 75.3517 52.273C74.9607 51.7637 74.7242 51.1317 74.7242 50.436C74.7242 48.7717 76.0747 47.4213 77.7389 47.4213C79.3986 47.4213 80.7491 48.7717 80.7491 50.436Z" fill="url(#paint13_linear)"/>
<path d="M55.8086 138.226H125.219C126.474 138.226 127.493 137.208 127.493 135.953V95.1745C127.493 93.9195 126.474 92.901 125.219 92.901H55.8086C54.5536 92.901 53.535 93.9195 53.535 95.1745V135.953C53.535 137.212 54.549 138.226 55.8086 138.226Z" fill="url(#paint14_linear)"/>
<path d="M58.1501 134.975H122.873C123.628 134.975 124.237 134.366 124.237 133.611V97.5163C124.237 96.7615 123.628 96.1522 122.873 96.1522H58.1501C57.3953 96.1522 56.786 96.7615 56.786 97.5163V133.611C56.786 134.366 57.3953 134.975 58.1501 134.975Z" fill="white"/>
<path d="M78.3303 114.516L80.7643 108.777H84.2064L79.9469 117.25V122H76.7137V117.25L72.4633 108.777H75.8872L78.3303 114.516ZM96.0948 115.661C96.0948 116.95 95.8556 118.092 95.3773 119.085C94.8989 120.078 94.2178 120.844 93.3338 121.382C92.4559 121.915 91.4538 122.182 90.3277 122.182C89.2015 122.182 88.2025 121.924 87.3306 121.41C86.4587 120.889 85.7776 120.147 85.2871 119.185C84.8028 118.222 84.5485 117.117 84.5242 115.87V115.125C84.5242 113.829 84.7604 112.688 85.2326 111.701C85.711 110.708 86.3921 109.942 87.2761 109.403C88.1661 108.864 89.1773 108.595 90.3095 108.595C91.4296 108.595 92.4286 108.861 93.3066 109.394C94.1845 109.927 94.8656 110.687 95.35 111.674C95.8405 112.655 96.0887 113.781 96.0948 115.052V115.661ZM92.8525 115.107C92.8525 113.793 92.6315 112.797 92.1895 112.119C91.7535 111.435 91.1269 111.092 90.3095 111.092C88.7111 111.092 87.8664 112.291 87.7756 114.689L87.7665 115.661C87.7665 116.956 87.9815 117.952 88.4114 118.649C88.8412 119.345 89.48 119.693 90.3277 119.693C91.1329 119.693 91.7535 119.351 92.1895 118.667C92.6254 117.983 92.8464 116.999 92.8525 115.715V115.107ZM108.11 108.777V117.432C108.11 118.413 107.901 119.263 107.484 119.984C107.066 120.698 106.466 121.243 105.685 121.619C104.904 121.994 103.981 122.182 102.915 122.182C101.305 122.182 100.036 121.764 99.11 120.928C98.1836 120.093 97.7114 118.948 97.6932 117.495V108.777H100.899V117.559C100.935 119.006 101.608 119.729 102.915 119.729C103.575 119.729 104.075 119.548 104.414 119.185C104.753 118.821 104.922 118.231 104.922 117.414V108.777H108.11Z" fill="#003CB0"/>
<path d="M133.513 104.601C134.736 104.601 135.723 105.592 135.723 106.81C135.723 108.029 134.736 109.016 133.513 109.016C133.063 109.016 132.608 109.016 132.158 109.016C128.88 109.016 125.606 109.016 122.332 109.016C122.041 109.016 121.755 109.016 121.464 109.016C120.304 109.016 119.686 107.815 119.686 106.81C119.686 105.801 120.304 104.601 121.464 104.601C121.759 104.601 122.055 104.601 122.346 104.601C125.788 104.601 129.225 104.601 132.663 104.601C132.945 104.601 133.231 104.601 133.513 104.601ZM123.71 106.81C123.71 105.969 123.028 105.287 122.187 105.287C121.946 105.287 121.705 105.287 121.464 105.287C121.336 105.287 121.209 105.324 121.095 105.383C120.954 105.455 120.836 105.56 120.741 105.678C120.622 105.828 120.536 106.001 120.477 106.183C120.409 106.388 120.372 106.597 120.372 106.81C120.372 107.02 120.409 107.233 120.477 107.433C120.536 107.615 120.622 107.793 120.741 107.938C120.836 108.061 120.954 108.165 121.095 108.234C121.209 108.293 121.336 108.334 121.464 108.334C121.705 108.334 121.946 108.334 122.187 108.334C123.028 108.334 123.71 107.652 123.71 106.81Z" fill="url(#paint15_linear)"/>
<path d="M132.663 100.185C133.882 100.185 134.873 101.172 134.873 102.391C134.873 103.614 133.882 104.601 132.663 104.601C129.225 104.601 125.788 104.601 122.346 104.601C121.186 104.601 120.568 103.4 120.568 102.391C120.568 101.386 121.186 100.185 122.346 100.185C125.788 100.185 129.225 100.185 132.663 100.185ZM124.592 102.391C124.592 101.55 123.91 100.872 123.069 100.872C122.828 100.872 122.587 100.872 122.346 100.872C122.218 100.872 122.091 100.908 121.977 100.968C121.836 101.036 121.718 101.14 121.623 101.263C121.504 101.413 121.418 101.586 121.359 101.768C121.291 101.968 121.254 102.182 121.254 102.391C121.254 102.604 121.291 102.814 121.359 103.018C121.418 103.2 121.504 103.373 121.623 103.523C121.718 103.641 121.836 103.746 121.977 103.819C122.091 103.878 122.218 103.914 122.346 103.914C122.587 103.914 122.828 103.914 123.069 103.914C123.91 103.914 124.592 103.232 124.592 102.391Z" fill="url(#paint16_linear)"/>
<path d="M132.158 109.016C133.376 109.016 134.363 110.007 134.363 111.226C134.363 112.444 133.376 113.436 132.158 113.436C131.639 113.436 131.121 113.436 130.603 113.436C128.261 113.436 125.924 113.436 123.582 113.436C123.164 113.436 122.75 113.436 122.332 113.436C121.172 113.436 120.549 112.235 120.549 111.226C120.549 110.221 121.172 109.016 122.332 109.016C125.606 109.016 128.879 109.016 132.158 109.016ZM124.578 111.226C124.578 110.384 123.896 109.702 123.055 109.702C122.814 109.702 122.573 109.702 122.332 109.702C122.2 109.702 122.072 109.743 121.959 109.802C121.822 109.871 121.704 109.975 121.609 110.098C121.486 110.244 121.404 110.421 121.34 110.603C121.277 110.803 121.236 111.017 121.236 111.226C121.236 111.439 121.277 111.649 121.34 111.853C121.404 112.035 121.486 112.208 121.609 112.358C121.704 112.476 121.822 112.581 121.959 112.653C122.072 112.713 122.2 112.749 122.332 112.749C122.573 112.749 122.814 112.749 123.055 112.749C123.896 112.749 124.578 112.067 124.578 111.226Z" fill="url(#paint17_linear)"/>
<path d="M130.603 113.436C131.821 113.436 132.812 114.422 132.812 115.645C132.812 116.864 131.821 117.851 130.603 117.851C128.261 117.851 125.924 117.851 123.582 117.851C122.422 117.851 121.799 116.65 121.799 115.645C121.799 114.636 122.422 113.436 123.582 113.436C125.924 113.436 128.261 113.436 130.603 113.436ZM125.828 115.645C125.828 114.804 125.146 114.122 124.305 114.122C124.064 114.122 123.823 114.122 123.582 114.122C123.455 114.122 123.323 114.159 123.209 114.218C123.073 114.29 122.954 114.395 122.859 114.513C122.736 114.663 122.654 114.836 122.591 115.018C122.527 115.223 122.486 115.432 122.486 115.645C122.486 115.855 122.527 116.068 122.591 116.268C122.654 116.45 122.736 116.623 122.859 116.773C122.954 116.896 123.073 117 123.209 117.069C123.323 117.128 123.455 117.164 123.582 117.164C123.823 117.164 124.064 117.164 124.305 117.164C125.146 117.164 125.828 116.487 125.828 115.645Z" fill="url(#paint18_linear)"/>
<path d="M124.305 114.122C125.146 114.122 125.828 114.804 125.828 115.645C125.828 116.487 125.146 117.164 124.305 117.164C124.064 117.164 123.823 117.164 123.582 117.164C123.455 117.164 123.323 117.128 123.209 117.069C123.073 117 122.955 116.896 122.859 116.773C122.736 116.623 122.654 116.45 122.591 116.268C122.527 116.068 122.486 115.855 122.486 115.645C122.486 115.432 122.527 115.223 122.591 115.018C122.654 114.836 122.736 114.663 122.859 114.513C122.955 114.395 123.073 114.29 123.209 114.218C123.323 114.159 123.455 114.122 123.582 114.122C123.823 114.122 124.064 114.122 124.305 114.122Z" fill="url(#paint19_linear)"/>
<path d="M123.068 100.872C123.91 100.872 124.592 101.55 124.592 102.391C124.592 103.232 123.91 103.914 123.068 103.914C122.827 103.914 122.586 103.914 122.345 103.914C122.218 103.914 122.091 103.878 121.977 103.819C121.836 103.746 121.718 103.641 121.622 103.523C121.504 103.373 121.418 103.2 121.359 103.018C121.29 102.814 121.254 102.604 121.254 102.391C121.254 102.182 121.29 101.968 121.359 101.768C121.418 101.586 121.504 101.413 121.622 101.263C121.718 101.14 121.836 101.036 121.977 100.968C122.091 100.908 122.218 100.872 122.345 100.872C122.586 100.872 122.827 100.872 123.068 100.872Z" fill="url(#paint20_linear)"/>
<path d="M123.055 109.702C123.896 109.702 124.578 110.384 124.578 111.226C124.578 112.067 123.896 112.749 123.055 112.749C122.814 112.749 122.573 112.749 122.332 112.749C122.2 112.749 122.073 112.713 121.959 112.653C121.823 112.581 121.704 112.476 121.609 112.358C121.486 112.208 121.404 112.035 121.341 111.853C121.277 111.649 121.236 111.439 121.236 111.226C121.236 111.017 121.277 110.803 121.341 110.603C121.404 110.421 121.486 110.244 121.609 110.098C121.704 109.975 121.823 109.871 121.959 109.802C122.073 109.743 122.2 109.702 122.332 109.702C122.573 109.702 122.814 109.702 123.055 109.702Z" fill="url(#paint21_linear)"/>
<path d="M122.186 105.287C123.027 105.287 123.709 105.969 123.709 106.81C123.709 107.652 123.027 108.334 122.186 108.334C121.945 108.334 121.704 108.334 121.463 108.334C121.336 108.334 121.209 108.293 121.095 108.234C120.954 108.166 120.836 108.061 120.74 107.938C120.622 107.793 120.536 107.615 120.477 107.433C120.408 107.233 120.372 107.02 120.372 106.81C120.372 106.597 120.408 106.388 120.477 106.183C120.536 106.001 120.622 105.828 120.74 105.678C120.836 105.56 120.954 105.455 121.095 105.383C121.209 105.324 121.336 105.287 121.463 105.287C121.704 105.287 121.945 105.287 122.186 105.287Z" fill="url(#paint22_linear)"/>
<path d="M59.555 104.601C60.719 104.601 61.3374 105.801 61.3374 106.81C61.3374 107.815 60.719 109.016 59.555 109.016C59.2685 109.016 58.9775 109.016 58.691 109.016C55.4171 109.016 52.1387 109.016 48.8648 109.016C48.4101 109.016 47.96 109.016 47.5053 109.016C46.2866 109.016 45.2999 108.029 45.2999 106.81C45.2999 105.592 46.2866 104.601 47.5053 104.601C47.7917 104.601 48.0736 104.601 48.3601 104.601C51.7977 104.601 55.2353 104.601 58.6728 104.601C58.9684 104.601 59.264 104.601 59.555 104.601ZM60.6508 106.81C60.6508 106.597 60.6144 106.388 60.5462 106.183C60.4871 106.001 60.4007 105.828 60.2825 105.678C60.1825 105.56 60.0642 105.455 59.9278 105.383C59.8141 105.324 59.6868 105.287 59.555 105.287C59.314 105.287 59.073 105.287 58.832 105.287C57.9908 105.287 57.3133 105.969 57.3133 106.81C57.3133 107.652 57.9908 108.334 58.832 108.334C59.073 108.334 59.314 108.334 59.555 108.334C59.6868 108.334 59.8141 108.293 59.9278 108.234C60.0642 108.165 60.1825 108.061 60.2825 107.938C60.4007 107.793 60.4871 107.615 60.5462 107.433C60.6144 107.233 60.6508 107.02 60.6508 106.81Z" fill="url(#paint23_linear)"/>
<path d="M60.5461 106.183C60.6143 106.388 60.6506 106.597 60.6506 106.81C60.6506 107.02 60.6143 107.233 60.5461 107.433C60.487 107.615 60.4006 107.793 60.2823 107.938C60.1823 108.061 60.0641 108.166 59.9277 108.234C59.814 108.293 59.6867 108.334 59.5548 108.334C59.3138 108.334 59.0728 108.334 58.8318 108.334C57.9906 108.334 57.3131 107.652 57.3131 106.81C57.3131 105.969 57.9906 105.287 58.8318 105.287C59.0728 105.287 59.3138 105.287 59.5548 105.287C59.6867 105.287 59.814 105.324 59.9277 105.383C60.0641 105.455 60.1823 105.56 60.2823 105.678C60.4006 105.828 60.487 106.001 60.5461 106.183Z" fill="url(#paint24_linear)"/>
<path d="M58.691 109.016C59.8505 109.016 60.4689 110.221 60.4689 111.226C60.4689 112.235 59.8505 113.436 58.691 113.436C58.2726 113.436 57.8589 113.436 57.4405 113.436C55.0988 113.436 52.7616 113.436 50.4199 113.436C49.9015 113.436 49.3831 113.436 48.8648 113.436C47.6462 113.436 46.6549 112.444 46.6549 111.226C46.6549 110.007 47.6462 109.016 48.8648 109.016C52.1387 109.016 55.4171 109.016 58.691 109.016ZM59.7823 111.226C59.7823 111.017 59.7459 110.803 59.6777 110.603C59.6186 110.421 59.5322 110.244 59.414 110.098C59.3185 109.975 59.2002 109.871 59.0593 109.802C58.9456 109.743 58.8183 109.702 58.691 109.702C58.45 109.702 58.209 109.702 57.968 109.702C57.1268 109.702 56.4447 110.384 56.4447 111.226C56.4447 112.067 57.1268 112.749 57.968 112.749C58.209 112.749 58.45 112.749 58.691 112.749C58.8183 112.749 58.9456 112.713 59.0593 112.653C59.2002 112.581 59.3185 112.476 59.414 112.358C59.5322 112.208 59.6186 112.035 59.6777 111.853C59.7459 111.649 59.7823 111.439 59.7823 111.226Z" fill="url(#paint25_linear)"/>
<path d="M58.6729 100.185C59.8369 100.185 60.4553 101.386 60.4553 102.391C60.4553 103.4 59.8369 104.601 58.6729 104.601C55.2353 104.601 51.7977 104.601 48.3601 104.601C47.137 104.601 46.1503 103.614 46.1503 102.391C46.1503 101.172 47.137 100.185 48.3601 100.185C51.7977 100.185 55.2353 100.185 58.6729 100.185ZM59.7687 102.391C59.7687 102.182 59.7323 101.968 59.6641 101.768C59.605 101.586 59.5186 101.413 59.4004 101.263C59.3004 101.14 59.1821 101.036 59.0457 100.968C58.9321 100.908 58.8047 100.872 58.6729 100.872C58.4319 100.872 58.1909 100.872 57.9499 100.872C57.1087 100.872 56.4312 101.55 56.4312 102.391C56.4312 103.232 57.1087 103.914 57.9499 103.914C58.1909 103.914 58.4319 103.914 58.6729 103.914C58.8047 103.914 58.9321 103.878 59.0457 103.819C59.1821 103.746 59.3004 103.641 59.4004 103.523C59.5186 103.373 59.605 103.2 59.6641 103.018C59.7323 102.814 59.7687 102.604 59.7687 102.391Z" fill="url(#paint26_linear)"/>
<path d="M59.6777 110.603C59.7459 110.803 59.7823 111.017 59.7823 111.226C59.7823 111.439 59.7459 111.649 59.6777 111.853C59.6186 112.035 59.5322 112.208 59.4139 112.358C59.3184 112.476 59.2002 112.581 59.0593 112.653C58.9456 112.713 58.8183 112.749 58.691 112.749C58.45 112.749 58.209 112.749 57.968 112.749C57.1268 112.749 56.4447 112.067 56.4447 111.226C56.4447 110.384 57.1268 109.702 57.968 109.702C58.209 109.702 58.45 109.702 58.691 109.702C58.8183 109.702 58.9456 109.743 59.0593 109.802C59.2002 109.871 59.3184 109.975 59.4139 110.098C59.5322 110.244 59.6186 110.421 59.6777 110.603Z" fill="url(#paint27_linear)"/>
<path d="M59.664 101.768C59.7322 101.968 59.7686 102.182 59.7686 102.391C59.7686 102.604 59.7322 102.814 59.664 103.018C59.6049 103.2 59.5185 103.373 59.4003 103.523C59.3002 103.641 59.182 103.746 59.0456 103.819C58.9319 103.878 58.8046 103.914 58.6727 103.914C58.4317 103.914 58.1907 103.914 57.9497 103.914C57.1085 103.914 56.431 103.232 56.431 102.391C56.431 101.55 57.1085 100.872 57.9497 100.872C58.1907 100.872 58.4317 100.872 58.6727 100.872C58.8046 100.872 58.9319 100.908 59.0456 100.968C59.182 101.036 59.3002 101.14 59.4003 101.263C59.5185 101.413 59.6049 101.586 59.664 101.768Z" fill="url(#paint28_linear)"/>
<path d="M57.4406 113.436C58.6001 113.436 59.2185 114.636 59.2185 115.645C59.2185 116.65 58.6001 117.851 57.4406 117.851C55.0989 117.851 52.7571 117.851 50.42 117.851C49.1968 117.851 48.2101 116.864 48.2101 115.645C48.2101 114.422 49.1968 113.436 50.42 113.436C52.7617 113.436 55.0989 113.436 57.4406 113.436ZM58.5319 115.645C58.5319 115.432 58.4955 115.223 58.4273 115.018C58.3682 114.836 58.2818 114.663 58.1636 114.513C58.0681 114.395 57.9499 114.29 57.8089 114.218C57.6953 114.159 57.5679 114.122 57.4406 114.122C57.1996 114.122 56.9586 114.122 56.7176 114.122C55.8764 114.122 55.1944 114.804 55.1944 115.645C55.1944 116.487 55.8764 117.164 56.7176 117.164C56.9586 117.164 57.1996 117.164 57.4406 117.164C57.5679 117.164 57.6953 117.128 57.8089 117.069C57.9499 117 58.0681 116.896 58.1636 116.773C58.2818 116.623 58.3682 116.45 58.4273 116.268C58.4955 116.068 58.5319 115.855 58.5319 115.645Z" fill="url(#paint29_linear)"/>
<path d="M58.4274 115.018C58.4956 115.223 58.532 115.432 58.532 115.645C58.532 115.855 58.4956 116.068 58.4274 116.268C58.3683 116.45 58.2819 116.623 58.1637 116.773C58.0682 116.896 57.95 117 57.809 117.069C57.6953 117.128 57.568 117.164 57.4407 117.164C57.1997 117.164 56.9587 117.164 56.7177 117.164C55.8765 117.164 55.1945 116.487 55.1945 115.645C55.1945 114.804 55.8765 114.122 56.7177 114.122C56.9587 114.122 57.1997 114.122 57.4407 114.122C57.568 114.122 57.6953 114.159 57.809 114.218C57.95 114.29 58.0682 114.395 58.1637 114.513C58.2819 114.663 58.3683 114.836 58.4274 115.018Z" fill="url(#paint30_linear)"/>
<defs>
<filter id="filter0_b" x="-10" y="145" width="200" height="45" filterUnits="userSpaceOnUse" color-interpolation-filters="sRGB">
<feFlood flood-opacity="0" result="BackgroundImageFix"/>
<feGaussianBlur in="BackgroundImage" stdDeviation="5"/>
<feComposite in2="SourceAlpha" operator="in" result="effect1_backgroundBlur"/>
<feBlend mode="normal" in="SourceGraphic" in2="effect1_backgroundBlur" result="shape"/>
</filter>
<linearGradient id="paint0_linear" x1="90.5103" y1="17.7195" x2="90.5103" y2="86.617" gradientUnits="userSpaceOnUse">
<stop stop-color="#333333"/>
<stop offset="1"/>
</linearGradient>
<linearGradient id="paint1_linear" x1="66.5114" y1="19" x2="123.011" y2="77.5" gradientUnits="userSpaceOnUse">
<stop stop-color="#FFE2C8"/>
<stop offset="1" stop-color="#FFB26D"/>
</linearGradient>
<linearGradient id="paint2_linear" x1="100.857" y1="39.7236" x2="100.857" y2="65.4975" gradientUnits="userSpaceOnUse">
<stop stop-color="#333333"/>
<stop offset="1"/>
</linearGradient>
<linearGradient id="paint3_linear" x1="103.284" y1="43.6154" x2="103.284" y2="53.9054" gradientUnits="userSpaceOnUse">
<stop stop-color="#333333"/>
<stop offset="1"/>
</linearGradient>
<linearGradient id="paint4_linear" x1="103.286" y1="47.4213" x2="103.286" y2="52.6407" gradientUnits="userSpaceOnUse">
<stop stop-color="#333333"/>
<stop offset="1"/>
</linearGradient>
<linearGradient id="paint5_linear" x1="93.671" y1="135.388" x2="111.587" y2="148.402" gradientUnits="userSpaceOnUse">
<stop stop-color="#22357D"/>
<stop offset="1" stop-color="#001461"/>
</linearGradient>
<linearGradient id="paint6_linear" x1="90.5115" y1="70.1339" x2="90.5115" y2="76.431" gradientUnits="userSpaceOnUse">
<stop stop-color="#333333"/>
<stop offset="1"/>
</linearGradient>
<linearGradient id="paint7_linear" x1="78.2999" y1="86.5" x2="102.3" y2="94" gradientUnits="userSpaceOnUse">
<stop stop-color="#EDECEC"/>
<stop offset="1" stop-color="#E7E7E7"/>
</linearGradient>
<linearGradient id="paint8_linear" x1="85.1053" y1="88.6459" x2="85.4726" y2="92.034" gradientUnits="userSpaceOnUse">
<stop stop-color="#22357D"/>
<stop offset="1" stop-color="#001461"/>
</linearGradient>
<linearGradient id="paint9_linear" x1="86.3385" y1="83.6222" x2="90.8368" y2="92.068" gradientUnits="userSpaceOnUse">
<stop stop-color="#FFE2C8"/>
<stop offset="1" stop-color="#FFB26D"/>
</linearGradient>
<linearGradient id="paint10_linear" x1="77.8423" y1="39.722" x2="77.8423" y2="47.585" gradientUnits="userSpaceOnUse">
<stop stop-color="#333333"/>
<stop offset="1"/>
</linearGradient>
<linearGradient id="paint11_linear" x1="77.9884" y1="135.388" x2="95.9067" y2="148.41" gradientUnits="userSpaceOnUse">
<stop stop-color="#22357D"/>
<stop offset="1" stop-color="#001461"/>
</linearGradient>
<linearGradient id="paint12_linear" x1="77.7365" y1="43.6154" x2="77.7365" y2="53.9054" gradientUnits="userSpaceOnUse">
<stop stop-color="#333333"/>
<stop offset="1"/>
</linearGradient>
<linearGradient id="paint13_linear" x1="77.7367" y1="47.4213" x2="77.7367" y2="52.6413" gradientUnits="userSpaceOnUse">
<stop stop-color="#333333"/>
<stop offset="1"/>
</linearGradient>
<linearGradient id="paint14_linear" x1="53.0937" y1="87.4937" x2="74.3515" y2="152.305" gradientUnits="userSpaceOnUse">
<stop stop-color="#22357D"/>
<stop offset="1" stop-color="#001461"/>
</linearGradient>
<linearGradient id="paint15_linear" x1="119.731" y1="104.361" x2="121.341" y2="112.109" gradientUnits="userSpaceOnUse">
<stop stop-color="#FFE2C8"/>
<stop offset="1" stop-color="#FFB26D"/>
</linearGradient>
<linearGradient id="paint16_linear" x1="120.609" y1="99.946" x2="122.395" y2="107.612" gradientUnits="userSpaceOnUse">
<stop stop-color="#FFE2C8"/>
<stop offset="1" stop-color="#FFB26D"/>
</linearGradient>
<linearGradient id="paint17_linear" x1="120.589" y1="108.776" x2="122.435" y2="116.421" gradientUnits="userSpaceOnUse">
<stop stop-color="#FFE2C8"/>
<stop offset="1" stop-color="#FFB26D"/>
</linearGradient>
<linearGradient id="paint18_linear" x1="121.831" y1="113.196" x2="124.072" y2="120.6" gradientUnits="userSpaceOnUse">
<stop stop-color="#FFE2C8"/>
<stop offset="1" stop-color="#FFB26D"/>
</linearGradient>
<linearGradient id="paint19_linear" x1="122.466" y1="113.759" x2="124.363" y2="117.653" gradientUnits="userSpaceOnUse">
<stop stop-color="#22357D"/>
<stop offset="1" stop-color="#001461"/>
</linearGradient>
<linearGradient id="paint20_linear" x1="121.234" y1="100.509" x2="123.133" y2="104.401" gradientUnits="userSpaceOnUse">
<stop stop-color="#22357D"/>
<stop offset="1" stop-color="#001461"/>
</linearGradient>
<linearGradient id="paint21_linear" x1="121.216" y1="109.339" x2="123.117" y2="113.236" gradientUnits="userSpaceOnUse">
<stop stop-color="#22357D"/>
<stop offset="1" stop-color="#001461"/>
</linearGradient>
<linearGradient id="paint22_linear" x1="120.352" y1="104.924" x2="122.255" y2="108.819" gradientUnits="userSpaceOnUse">
<stop stop-color="#22357D"/>
<stop offset="1" stop-color="#001461"/>
</linearGradient>
<linearGradient id="paint23_linear" x1="45.3457" y1="104.361" x2="46.9557" y2="112.109" gradientUnits="userSpaceOnUse">
<stop stop-color="#FFE2C8"/>
<stop offset="1" stop-color="#FFB26D"/>
</linearGradient>
<linearGradient id="paint24_linear" x1="57.2932" y1="104.924" x2="59.1962" y2="108.819" gradientUnits="userSpaceOnUse">
<stop stop-color="#22357D"/>
<stop offset="1" stop-color="#001461"/>
</linearGradient>
<linearGradient id="paint25_linear" x1="46.6943" y1="108.776" x2="48.5406" y2="116.421" gradientUnits="userSpaceOnUse">
<stop stop-color="#FFE2C8"/>
<stop offset="1" stop-color="#FFB26D"/>
</linearGradient>
<linearGradient id="paint26_linear" x1="46.1911" y1="99.946" x2="47.9771" y2="107.612" gradientUnits="userSpaceOnUse">
<stop stop-color="#FFE2C8"/>
<stop offset="1" stop-color="#FFB26D"/>
</linearGradient>
<linearGradient id="paint27_linear" x1="56.4248" y1="109.339" x2="58.3278" y2="113.234" gradientUnits="userSpaceOnUse">
<stop stop-color="#22357D"/>
<stop offset="1" stop-color="#001461"/>
</linearGradient>
<linearGradient id="paint28_linear" x1="56.4111" y1="100.509" x2="58.3095" y2="104.401" gradientUnits="userSpaceOnUse">
<stop stop-color="#22357D"/>
<stop offset="1" stop-color="#001461"/>
</linearGradient>
<linearGradient id="paint29_linear" x1="48.2415" y1="113.196" x2="50.4829" y2="120.6" gradientUnits="userSpaceOnUse">
<stop stop-color="#FFE2C8"/>
<stop offset="1" stop-color="#FFB26D"/>
</linearGradient>
<linearGradient id="paint30_linear" x1="55.1745" y1="113.759" x2="57.0729" y2="117.651" gradientUnits="userSpaceOnUse">
<stop stop-color="#22357D"/>
<stop offset="1" stop-color="#001461"/>
</linearGradient>
</defs>
</svg>
