<svg width="32" height="32" viewBox="0 0 32 32" fill="none" xmlns="http://www.w3.org/2000/svg">
<rect width="32" height="32" rx="16" fill="#003CB0"/>
<path d="M19.4013 20.9145L19.4013 20.9145L19.4002 20.9156C19.2801 21.0334 19.0775 21.0334 18.9575 20.9156L17.017 19.0117L18.1627 17.8875L19.3786 16.6945C19.7973 16.3393 19.7878 15.7004 19.3813 15.3016L18.1627 14.106L17.017 12.9818L18.9575 11.0779C19.0775 10.9601 19.2801 10.9601 19.4002 11.0779L24.2214 15.8082C24.3403 15.925 24.3403 16.1205 24.2214 16.2373C22.6319 17.7968 21.043 19.3557 19.4013 20.9145ZM19.9111 22.4619L25.7892 16.6945C26.2079 16.3393 26.1984 15.7004 25.7919 15.3016L25.7918 15.3015C23.8327 13.3793 21.873 11.4565 19.8603 9.5337C19.4992 9.12455 18.8519 9.13391 18.4465 9.5316L15.9735 11.958L13.5032 9.53422C13.1421 9.12454 12.4944 9.13374 12.0889 9.5316L6.21077 15.299C5.7921 15.6542 5.80162 16.2931 6.20811 16.6919L6.20842 16.6922C8.16748 18.6144 10.1271 20.537 12.1397 22.4598C12.5008 22.8689 13.1481 22.8596 13.5535 22.4619L13.5584 22.457L13.5634 22.4521L13.5684 22.4473L13.5733 22.4424L13.5783 22.4375L13.5833 22.4326L13.5882 22.4278L13.5932 22.4229L13.5982 22.418L13.6031 22.4132L13.6081 22.4083L13.6131 22.4034L13.618 22.3985L13.623 22.3937L13.628 22.3888L13.6329 22.3839L13.6379 22.379L13.6429 22.3742L13.6478 22.3693L13.6528 22.3644L13.6578 22.3595L13.6627 22.3547L13.6677 22.3498L13.6727 22.3449L13.6777 22.3401L13.6826 22.3352L13.6876 22.3303L13.6926 22.3254L13.6975 22.3206L13.7025 22.3157L13.7075 22.3108L13.7124 22.3059L13.7174 22.3011L13.7224 22.2962L13.7273 22.2913L13.7323 22.2864L13.7373 22.2816L13.7422 22.2767L13.7472 22.2718L13.7522 22.267L13.7571 22.2621L13.7621 22.2572L13.7671 22.2523L13.772 22.2475L13.777 22.2426L13.782 22.2377L13.7869 22.2328L13.7919 22.228L13.7969 22.2231L13.8018 22.2182L13.8068 22.2133L13.8118 22.2085L13.8167 22.2036L13.8217 22.1987L13.8267 22.1939L13.8316 22.189L13.8366 22.1841L13.8416 22.1792L13.8465 22.1744L13.8515 22.1695L13.8565 22.1646L13.8614 22.1597L13.8664 22.1549L13.8714 22.15L13.8763 22.1451L13.8813 22.1402L13.8863 22.1354L13.8912 22.1305L13.8962 22.1256L13.9012 22.1208L13.9061 22.1159L13.9111 22.111L13.9161 22.1061L13.921 22.1013L13.926 22.0964L13.931 22.0915L13.9359 22.0866L13.9409 22.0818L13.9459 22.0769L13.9508 22.072L13.9558 22.0672L13.9608 22.0623L13.9657 22.0574L13.9707 22.0525L13.9757 22.0477L13.9806 22.0428L13.9856 22.0379L13.9906 22.033L13.9955 22.0282L14.0005 22.0233L14.0055 22.0184L14.0104 22.0135L14.0154 22.0087L14.0204 22.0038L14.0253 21.9989L14.0303 21.9941L14.0353 21.9892L14.0402 21.9843L14.0452 21.9794L14.0502 21.9746L14.0551 21.9697L14.0601 21.9648L14.0651 21.9599L14.07 21.9551L14.075 21.9502L14.08 21.9453L14.0849 21.9404L14.0899 21.9356L14.0949 21.9307L14.0998 21.9258L14.1048 21.921L14.1098 21.9161L14.1147 21.9112L14.1197 21.9063L14.1247 21.9015L14.1296 21.8966L14.1346 21.8917L14.1396 21.8868L14.1445 21.882L14.1495 21.8771L14.1545 21.8722L14.1594 21.8673L14.1644 21.8625L14.1694 21.8576L14.1743 21.8527L14.1793 21.8479L14.1843 21.843L14.1892 21.8381L14.1942 21.8332L14.1992 21.8284L14.2041 21.8235L14.2091 21.8186L14.2141 21.8137L14.219 21.8089L14.224 21.804L14.229 21.7991L14.2339 21.7942L14.2389 21.7894L14.2439 21.7845L14.2488 21.7796L14.2538 21.7748L14.2588 21.7699L14.2637 21.765L14.2687 21.7601L14.2737 21.7553L14.2786 21.7504L14.2836 21.7455L14.2886 21.7406L14.2935 21.7358L14.2985 21.7309L14.3035 21.726L14.3084 21.7211L14.3134 21.7163L14.3184 21.7114L14.3233 21.7065L14.3283 21.7017L14.3333 21.6968L14.3382 21.6919L14.3432 21.687L14.3482 21.6822L14.3531 21.6773L14.3581 21.6724L14.3631 21.6675L14.368 21.6627L14.373 21.6578L14.378 21.6529L14.3829 21.648L14.3879 21.6432L14.3929 21.6383L14.3978 21.6334L14.4028 21.6286L14.4078 21.6237L14.4127 21.6188L14.4177 21.6139L14.4227 21.6091L14.4277 21.6042L14.4326 21.5993L14.4376 21.5944L14.4426 21.5896L14.4475 21.5847L14.4525 21.5798L14.4575 21.5749L14.4624 21.5701L14.4674 21.5652L14.4724 21.5603L14.4773 21.5555L14.4823 21.5506L14.4873 21.5457L14.4922 21.5408L14.4972 21.536L14.5022 21.5311L14.5071 21.5262L14.5121 21.5213L14.5171 21.5165L14.522 21.5116L14.527 21.5067L14.532 21.5018L14.5369 21.497L14.5419 21.4921L14.5469 21.4872L14.5518 21.4824L14.5568 21.4775L14.5618 21.4726L14.5667 21.4677L14.5717 21.4629L14.5767 21.458L14.5816 21.4531L14.5866 21.4482L14.5916 21.4434L14.5965 21.4385L14.6015 21.4336L14.6065 21.4287L14.6114 21.4239L14.6164 21.419L14.6214 21.4141L14.6263 21.4093L14.6313 21.4044L14.6363 21.3995L14.6412 21.3946L14.6462 21.3898L14.6512 21.3849L14.6561 21.38L14.6611 21.3751L14.6661 21.3703L14.671 21.3654L14.676 21.3605L14.681 21.3556L14.6859 21.3508L14.6909 21.3459L14.6959 21.341L14.7008 21.3362L14.7058 21.3313L14.7108 21.3264L14.7157 21.3215L14.7207 21.3167L14.7257 21.3118L14.7306 21.3069L14.7356 21.302L14.7406 21.2972L14.7455 21.2923L14.7505 21.2874L14.7555 21.2825L14.7604 21.2777L14.7654 21.2728L14.7704 21.2679L14.7753 21.2631L14.7803 21.2582L14.7853 21.2533L14.7902 21.2484L14.7952 21.2436L14.8002 21.2387L14.8051 21.2338L14.8101 21.2289L14.8151 21.2241L14.82 21.2192L14.825 21.2143L14.83 21.2094L14.8349 21.2046L14.8399 21.1997L14.8449 21.1948L14.8498 21.19L14.8548 21.1851L14.8598 21.1802L14.8647 21.1753L14.8697 21.1705L14.8747 21.1656L14.8796 21.1607L14.8846 21.1558L14.8896 21.151L14.8945 21.1461L14.8995 21.1412L14.9045 21.1364L14.9094 21.1315L14.9144 21.1266L14.9194 21.1217L14.9243 21.1169L14.9293 21.112L14.9343 21.1071L14.9392 21.1022L14.9442 21.0974L14.9492 21.0925L14.9541 21.0876L14.9591 21.0827L14.9641 21.0779L14.969 21.073L14.974 21.0681L14.979 21.0633L14.9839 21.0584L14.9889 21.0535L14.9939 21.0486L14.9988 21.0438L15.0038 21.0389L15.0088 21.034L15.0137 21.0291L15.0187 21.0243L15.0237 21.0194L15.0286 21.0145L15.0336 21.0096L15.0386 21.0048L15.0435 20.9999L15.0485 20.995L15.0535 20.9902L15.0584 20.9853L15.0634 20.9804L15.0684 20.9755L15.0733 20.9707L15.0783 20.9658L15.0833 20.9609L15.0882 20.956L15.0932 20.9512L15.0982 20.9463L15.1031 20.9414L15.1081 20.9365L15.1131 20.9317L15.118 20.9268L15.123 20.9219L15.128 20.9171L15.1329 20.9122L15.1379 20.9073L15.1429 20.9024L15.1478 20.8976L15.1528 20.8927L15.1578 20.8878L15.1627 20.8829L15.1677 20.8781L15.1727 20.8732L15.1777 20.8683L15.1826 20.8634L15.1876 20.8586L15.1926 20.8537L15.1975 20.8488L15.2025 20.844L15.2075 20.8391L15.2124 20.8342L15.2174 20.8293L15.2224 20.8245L15.2273 20.8196L15.2323 20.8147L15.2373 20.8098L15.2422 20.805L15.2472 20.8001L15.2522 20.7952L15.2571 20.7903L15.2621 20.7855L15.2671 20.7806L15.272 20.7757L15.277 20.7709L15.282 20.766L15.2869 20.7611L15.2919 20.7562L15.2969 20.7514L15.3018 20.7465L15.3068 20.7416L15.3118 20.7367L15.3167 20.7319L15.3217 20.727L15.3267 20.7221L15.3316 20.7172L15.3366 20.7124L15.3416 20.7075L15.3465 20.7026L15.3515 20.6978L15.3565 20.6929L15.3614 20.688L15.3664 20.6831L15.3714 20.6783L15.3763 20.6734L15.3813 20.6685L15.3863 20.6636L15.3912 20.6588L15.3962 20.6539L15.4012 20.649L15.4061 20.6441L15.4111 20.6393L15.4161 20.6344L15.421 20.6295L15.426 20.6247L15.431 20.6198L15.4359 20.6149L15.4409 20.61L15.4459 20.6052L15.4508 20.6003L15.4558 20.5954L15.4608 20.5905L15.4657 20.5857L15.4707 20.5808L15.4757 20.5759L15.4806 20.571L15.4856 20.5662L15.4906 20.5613L15.4955 20.5564L15.5005 20.5516L15.5055 20.5467L15.5104 20.5418L15.5154 20.5369L15.5204 20.5321L15.5253 20.5272L15.5303 20.5223L15.5353 20.5174L15.5402 20.5126L15.5452 20.5077L15.5502 20.5028L15.5551 20.4979L15.5601 20.4931L15.5651 20.4882L15.57 20.4833L15.575 20.4785L15.58 20.4736L15.5849 20.4687L15.5899 20.4638L15.5949 20.459L15.5998 20.4541L15.6048 20.4492L15.6098 20.4443L15.6147 20.4395L15.6197 20.4346L15.6247 20.4297L15.6296 20.4248L15.6346 20.42L15.6396 20.4151L15.6445 20.4102L15.6495 20.4054L15.6545 20.4005L15.6594 20.3956L15.6644 20.3907L15.6694 20.3859L15.6743 20.381L15.6793 20.3761L15.6843 20.3712L15.6892 20.3664L15.6942 20.3615L15.6992 20.3566L15.7041 20.3518L15.7091 20.3469L15.7141 20.342L15.719 20.3371L15.724 20.3323L15.729 20.3274L15.7339 20.3225L15.7389 20.3176L15.7439 20.3128L15.7488 20.3079L15.7538 20.303L15.7588 20.2981L15.7637 20.2933L15.7687 20.2884L15.7737 20.2835L15.7786 20.2787L15.7836 20.2738L15.7886 20.2689L15.7935 20.264L15.7985 20.2592L15.8035 20.2543L15.8084 20.2494L15.8134 20.2445L15.8184 20.2397L15.8233 20.2348L15.8283 20.2299L15.8333 20.225L15.8382 20.2202L15.8432 20.2153L15.8482 20.2104L15.8531 20.2056L15.8581 20.2007L15.8631 20.1958L15.868 20.1909L15.873 20.1861L15.878 20.1812L15.8829 20.1763L15.8879 20.1714L15.8929 20.1666L15.8978 20.1617L15.9028 20.1568L15.9078 20.1519L15.9127 20.1471L15.9177 20.1422L15.9227 20.1373L15.9277 20.1325L15.9326 20.1276L15.9376 20.1227L15.9426 20.1178L15.9475 20.113L15.9525 20.1081L15.9575 20.1032L15.9624 20.0983L15.9674 20.0935L15.9724 20.0886L15.9773 20.0837L15.9823 20.0788L15.9873 20.074L15.9922 20.0691L15.9972 20.0642L16.0022 20.0594L16.0071 20.0545L16.0121 20.0496L16.0171 20.0447L16.022 20.0399L16.0265 20.0355L17.228 21.2143L18.4968 22.4593C18.8579 22.869 19.5056 22.8597 19.9111 22.4619ZM13.0425 11.0779L14.983 12.9818L13.8372 14.106L12.6187 15.3016C12.2079 15.7047 12.2079 16.3408 12.6187 16.7439L14.983 19.0637L14.0492 19.9799L13.0425 20.9676C12.9225 21.0854 12.7199 21.0854 12.5998 20.9676L7.77864 16.2373C7.65966 16.1205 7.65966 15.925 7.77864 15.8082L12.5998 11.0779C12.7199 10.9601 12.9225 10.9601 13.0425 11.0779Z" fill="white" stroke="white" stroke-width="0.2"/>
</svg>
